G04 #@! TF.GenerationSoftware,KiCad,Pcbnew,(5.0.0)*
G04 #@! TF.CreationDate,2019-12-13T16:22:20-06:00*
G04 #@! TF.ProjectId,MiniRoverPowerBoard_Hardware,4D696E69526F766572506F776572426F,rev?*
G04 #@! TF.SameCoordinates,Original*
G04 #@! TF.FileFunction,Soldermask,Top*
G04 #@! TF.FilePolarity,Negative*
%FSLAX46Y46*%
G04 Gerber Fmt 4.6, Leading zero omitted, Abs format (unit mm)*
G04 Created by KiCad (PCBNEW (5.0.0)) date 12/13/19 16:22:20*
%MOMM*%
%LPD*%
G01*
G04 APERTURE LIST*
%ADD10C,1.924000*%
%ADD11C,3.346400*%
%ADD12R,1.600000X1.300000*%
%ADD13R,6.400000X2.900000*%
%ADD14C,0.100000*%
%ADD15C,1.350000*%
%ADD16R,2.000000X2.000000*%
%ADD17C,2.000000*%
%ADD18C,5.480000*%
%ADD19C,3.219400*%
%ADD20R,1.900000X0.850000*%
%ADD21R,1.600000X2.600000*%
%ADD22R,6.200000X6.800000*%
%ADD23R,2.000000X1.800000*%
%ADD24R,1.035000X2.254200*%
%ADD25R,6.623000X5.657800*%
%ADD26R,10.712400X5.657800*%
%ADD27R,1.950000X1.000000*%
%ADD28R,1.000000X1.950000*%
%ADD29C,2.100000*%
%ADD30R,2.100000X2.100000*%
G04 APERTURE END LIST*
D10*
G04 #@! TO.C,Conn7*
X140462000Y-82042000D03*
X137922000Y-82042000D03*
X135382000Y-82042000D03*
G04 #@! TD*
D11*
G04 #@! TO.C,REF\002A\002A*
X115570000Y-29210000D03*
G04 #@! TD*
G04 #@! TO.C,REF\002A\002A*
X186690000Y-29210000D03*
G04 #@! TD*
G04 #@! TO.C,REF\002A\002A*
X186690000Y-139700000D03*
G04 #@! TD*
D12*
G04 #@! TO.C,D9*
X188468000Y-76834000D03*
X188468000Y-73534000D03*
G04 #@! TD*
D13*
G04 #@! TO.C,B1*
X128578000Y-79756000D03*
X115978000Y-79756000D03*
G04 #@! TD*
D14*
G04 #@! TO.C,C1*
G36*
X177571581Y-88988625D02*
X177604343Y-88993485D01*
X177636471Y-89001533D01*
X177667656Y-89012691D01*
X177697596Y-89026852D01*
X177726005Y-89043879D01*
X177752608Y-89063609D01*
X177777149Y-89085851D01*
X177799391Y-89110392D01*
X177819121Y-89136995D01*
X177836148Y-89165404D01*
X177850309Y-89195344D01*
X177861467Y-89226529D01*
X177869515Y-89258657D01*
X177874375Y-89291419D01*
X177876000Y-89324500D01*
X177876000Y-89999500D01*
X177874375Y-90032581D01*
X177869515Y-90065343D01*
X177861467Y-90097471D01*
X177850309Y-90128656D01*
X177836148Y-90158596D01*
X177819121Y-90187005D01*
X177799391Y-90213608D01*
X177777149Y-90238149D01*
X177752608Y-90260391D01*
X177726005Y-90280121D01*
X177697596Y-90297148D01*
X177667656Y-90311309D01*
X177636471Y-90322467D01*
X177604343Y-90330515D01*
X177571581Y-90335375D01*
X177538500Y-90337000D01*
X176763500Y-90337000D01*
X176730419Y-90335375D01*
X176697657Y-90330515D01*
X176665529Y-90322467D01*
X176634344Y-90311309D01*
X176604404Y-90297148D01*
X176575995Y-90280121D01*
X176549392Y-90260391D01*
X176524851Y-90238149D01*
X176502609Y-90213608D01*
X176482879Y-90187005D01*
X176465852Y-90158596D01*
X176451691Y-90128656D01*
X176440533Y-90097471D01*
X176432485Y-90065343D01*
X176427625Y-90032581D01*
X176426000Y-89999500D01*
X176426000Y-89324500D01*
X176427625Y-89291419D01*
X176432485Y-89258657D01*
X176440533Y-89226529D01*
X176451691Y-89195344D01*
X176465852Y-89165404D01*
X176482879Y-89136995D01*
X176502609Y-89110392D01*
X176524851Y-89085851D01*
X176549392Y-89063609D01*
X176575995Y-89043879D01*
X176604404Y-89026852D01*
X176634344Y-89012691D01*
X176665529Y-89001533D01*
X176697657Y-88993485D01*
X176730419Y-88988625D01*
X176763500Y-88987000D01*
X177538500Y-88987000D01*
X177571581Y-88988625D01*
X177571581Y-88988625D01*
G37*
D15*
X177151000Y-89662000D03*
D14*
G36*
X175821581Y-88988625D02*
X175854343Y-88993485D01*
X175886471Y-89001533D01*
X175917656Y-89012691D01*
X175947596Y-89026852D01*
X175976005Y-89043879D01*
X176002608Y-89063609D01*
X176027149Y-89085851D01*
X176049391Y-89110392D01*
X176069121Y-89136995D01*
X176086148Y-89165404D01*
X176100309Y-89195344D01*
X176111467Y-89226529D01*
X176119515Y-89258657D01*
X176124375Y-89291419D01*
X176126000Y-89324500D01*
X176126000Y-89999500D01*
X176124375Y-90032581D01*
X176119515Y-90065343D01*
X176111467Y-90097471D01*
X176100309Y-90128656D01*
X176086148Y-90158596D01*
X176069121Y-90187005D01*
X176049391Y-90213608D01*
X176027149Y-90238149D01*
X176002608Y-90260391D01*
X175976005Y-90280121D01*
X175947596Y-90297148D01*
X175917656Y-90311309D01*
X175886471Y-90322467D01*
X175854343Y-90330515D01*
X175821581Y-90335375D01*
X175788500Y-90337000D01*
X175013500Y-90337000D01*
X174980419Y-90335375D01*
X174947657Y-90330515D01*
X174915529Y-90322467D01*
X174884344Y-90311309D01*
X174854404Y-90297148D01*
X174825995Y-90280121D01*
X174799392Y-90260391D01*
X174774851Y-90238149D01*
X174752609Y-90213608D01*
X174732879Y-90187005D01*
X174715852Y-90158596D01*
X174701691Y-90128656D01*
X174690533Y-90097471D01*
X174682485Y-90065343D01*
X174677625Y-90032581D01*
X174676000Y-89999500D01*
X174676000Y-89324500D01*
X174677625Y-89291419D01*
X174682485Y-89258657D01*
X174690533Y-89226529D01*
X174701691Y-89195344D01*
X174715852Y-89165404D01*
X174732879Y-89136995D01*
X174752609Y-89110392D01*
X174774851Y-89085851D01*
X174799392Y-89063609D01*
X174825995Y-89043879D01*
X174854404Y-89026852D01*
X174884344Y-89012691D01*
X174915529Y-89001533D01*
X174947657Y-88993485D01*
X174980419Y-88988625D01*
X175013500Y-88987000D01*
X175788500Y-88987000D01*
X175821581Y-88988625D01*
X175821581Y-88988625D01*
G37*
D15*
X175401000Y-89662000D03*
G04 #@! TD*
D14*
G04 #@! TO.C,C2*
G36*
X177571581Y-85940625D02*
X177604343Y-85945485D01*
X177636471Y-85953533D01*
X177667656Y-85964691D01*
X177697596Y-85978852D01*
X177726005Y-85995879D01*
X177752608Y-86015609D01*
X177777149Y-86037851D01*
X177799391Y-86062392D01*
X177819121Y-86088995D01*
X177836148Y-86117404D01*
X177850309Y-86147344D01*
X177861467Y-86178529D01*
X177869515Y-86210657D01*
X177874375Y-86243419D01*
X177876000Y-86276500D01*
X177876000Y-86951500D01*
X177874375Y-86984581D01*
X177869515Y-87017343D01*
X177861467Y-87049471D01*
X177850309Y-87080656D01*
X177836148Y-87110596D01*
X177819121Y-87139005D01*
X177799391Y-87165608D01*
X177777149Y-87190149D01*
X177752608Y-87212391D01*
X177726005Y-87232121D01*
X177697596Y-87249148D01*
X177667656Y-87263309D01*
X177636471Y-87274467D01*
X177604343Y-87282515D01*
X177571581Y-87287375D01*
X177538500Y-87289000D01*
X176763500Y-87289000D01*
X176730419Y-87287375D01*
X176697657Y-87282515D01*
X176665529Y-87274467D01*
X176634344Y-87263309D01*
X176604404Y-87249148D01*
X176575995Y-87232121D01*
X176549392Y-87212391D01*
X176524851Y-87190149D01*
X176502609Y-87165608D01*
X176482879Y-87139005D01*
X176465852Y-87110596D01*
X176451691Y-87080656D01*
X176440533Y-87049471D01*
X176432485Y-87017343D01*
X176427625Y-86984581D01*
X176426000Y-86951500D01*
X176426000Y-86276500D01*
X176427625Y-86243419D01*
X176432485Y-86210657D01*
X176440533Y-86178529D01*
X176451691Y-86147344D01*
X176465852Y-86117404D01*
X176482879Y-86088995D01*
X176502609Y-86062392D01*
X176524851Y-86037851D01*
X176549392Y-86015609D01*
X176575995Y-85995879D01*
X176604404Y-85978852D01*
X176634344Y-85964691D01*
X176665529Y-85953533D01*
X176697657Y-85945485D01*
X176730419Y-85940625D01*
X176763500Y-85939000D01*
X177538500Y-85939000D01*
X177571581Y-85940625D01*
X177571581Y-85940625D01*
G37*
D15*
X177151000Y-86614000D03*
D14*
G36*
X175821581Y-85940625D02*
X175854343Y-85945485D01*
X175886471Y-85953533D01*
X175917656Y-85964691D01*
X175947596Y-85978852D01*
X175976005Y-85995879D01*
X176002608Y-86015609D01*
X176027149Y-86037851D01*
X176049391Y-86062392D01*
X176069121Y-86088995D01*
X176086148Y-86117404D01*
X176100309Y-86147344D01*
X176111467Y-86178529D01*
X176119515Y-86210657D01*
X176124375Y-86243419D01*
X176126000Y-86276500D01*
X176126000Y-86951500D01*
X176124375Y-86984581D01*
X176119515Y-87017343D01*
X176111467Y-87049471D01*
X176100309Y-87080656D01*
X176086148Y-87110596D01*
X176069121Y-87139005D01*
X176049391Y-87165608D01*
X176027149Y-87190149D01*
X176002608Y-87212391D01*
X175976005Y-87232121D01*
X175947596Y-87249148D01*
X175917656Y-87263309D01*
X175886471Y-87274467D01*
X175854343Y-87282515D01*
X175821581Y-87287375D01*
X175788500Y-87289000D01*
X175013500Y-87289000D01*
X174980419Y-87287375D01*
X174947657Y-87282515D01*
X174915529Y-87274467D01*
X174884344Y-87263309D01*
X174854404Y-87249148D01*
X174825995Y-87232121D01*
X174799392Y-87212391D01*
X174774851Y-87190149D01*
X174752609Y-87165608D01*
X174732879Y-87139005D01*
X174715852Y-87110596D01*
X174701691Y-87080656D01*
X174690533Y-87049471D01*
X174682485Y-87017343D01*
X174677625Y-86984581D01*
X174676000Y-86951500D01*
X174676000Y-86276500D01*
X174677625Y-86243419D01*
X174682485Y-86210657D01*
X174690533Y-86178529D01*
X174701691Y-86147344D01*
X174715852Y-86117404D01*
X174732879Y-86088995D01*
X174752609Y-86062392D01*
X174774851Y-86037851D01*
X174799392Y-86015609D01*
X174825995Y-85995879D01*
X174854404Y-85978852D01*
X174884344Y-85964691D01*
X174915529Y-85953533D01*
X174947657Y-85945485D01*
X174980419Y-85940625D01*
X175013500Y-85939000D01*
X175788500Y-85939000D01*
X175821581Y-85940625D01*
X175821581Y-85940625D01*
G37*
D15*
X175401000Y-86614000D03*
G04 #@! TD*
D14*
G04 #@! TO.C,C4*
G36*
X154457581Y-115531625D02*
X154490343Y-115536485D01*
X154522471Y-115544533D01*
X154553656Y-115555691D01*
X154583596Y-115569852D01*
X154612005Y-115586879D01*
X154638608Y-115606609D01*
X154663149Y-115628851D01*
X154685391Y-115653392D01*
X154705121Y-115679995D01*
X154722148Y-115708404D01*
X154736309Y-115738344D01*
X154747467Y-115769529D01*
X154755515Y-115801657D01*
X154760375Y-115834419D01*
X154762000Y-115867500D01*
X154762000Y-116542500D01*
X154760375Y-116575581D01*
X154755515Y-116608343D01*
X154747467Y-116640471D01*
X154736309Y-116671656D01*
X154722148Y-116701596D01*
X154705121Y-116730005D01*
X154685391Y-116756608D01*
X154663149Y-116781149D01*
X154638608Y-116803391D01*
X154612005Y-116823121D01*
X154583596Y-116840148D01*
X154553656Y-116854309D01*
X154522471Y-116865467D01*
X154490343Y-116873515D01*
X154457581Y-116878375D01*
X154424500Y-116880000D01*
X153649500Y-116880000D01*
X153616419Y-116878375D01*
X153583657Y-116873515D01*
X153551529Y-116865467D01*
X153520344Y-116854309D01*
X153490404Y-116840148D01*
X153461995Y-116823121D01*
X153435392Y-116803391D01*
X153410851Y-116781149D01*
X153388609Y-116756608D01*
X153368879Y-116730005D01*
X153351852Y-116701596D01*
X153337691Y-116671656D01*
X153326533Y-116640471D01*
X153318485Y-116608343D01*
X153313625Y-116575581D01*
X153312000Y-116542500D01*
X153312000Y-115867500D01*
X153313625Y-115834419D01*
X153318485Y-115801657D01*
X153326533Y-115769529D01*
X153337691Y-115738344D01*
X153351852Y-115708404D01*
X153368879Y-115679995D01*
X153388609Y-115653392D01*
X153410851Y-115628851D01*
X153435392Y-115606609D01*
X153461995Y-115586879D01*
X153490404Y-115569852D01*
X153520344Y-115555691D01*
X153551529Y-115544533D01*
X153583657Y-115536485D01*
X153616419Y-115531625D01*
X153649500Y-115530000D01*
X154424500Y-115530000D01*
X154457581Y-115531625D01*
X154457581Y-115531625D01*
G37*
D15*
X154037000Y-116205000D03*
D14*
G36*
X152707581Y-115531625D02*
X152740343Y-115536485D01*
X152772471Y-115544533D01*
X152803656Y-115555691D01*
X152833596Y-115569852D01*
X152862005Y-115586879D01*
X152888608Y-115606609D01*
X152913149Y-115628851D01*
X152935391Y-115653392D01*
X152955121Y-115679995D01*
X152972148Y-115708404D01*
X152986309Y-115738344D01*
X152997467Y-115769529D01*
X153005515Y-115801657D01*
X153010375Y-115834419D01*
X153012000Y-115867500D01*
X153012000Y-116542500D01*
X153010375Y-116575581D01*
X153005515Y-116608343D01*
X152997467Y-116640471D01*
X152986309Y-116671656D01*
X152972148Y-116701596D01*
X152955121Y-116730005D01*
X152935391Y-116756608D01*
X152913149Y-116781149D01*
X152888608Y-116803391D01*
X152862005Y-116823121D01*
X152833596Y-116840148D01*
X152803656Y-116854309D01*
X152772471Y-116865467D01*
X152740343Y-116873515D01*
X152707581Y-116878375D01*
X152674500Y-116880000D01*
X151899500Y-116880000D01*
X151866419Y-116878375D01*
X151833657Y-116873515D01*
X151801529Y-116865467D01*
X151770344Y-116854309D01*
X151740404Y-116840148D01*
X151711995Y-116823121D01*
X151685392Y-116803391D01*
X151660851Y-116781149D01*
X151638609Y-116756608D01*
X151618879Y-116730005D01*
X151601852Y-116701596D01*
X151587691Y-116671656D01*
X151576533Y-116640471D01*
X151568485Y-116608343D01*
X151563625Y-116575581D01*
X151562000Y-116542500D01*
X151562000Y-115867500D01*
X151563625Y-115834419D01*
X151568485Y-115801657D01*
X151576533Y-115769529D01*
X151587691Y-115738344D01*
X151601852Y-115708404D01*
X151618879Y-115679995D01*
X151638609Y-115653392D01*
X151660851Y-115628851D01*
X151685392Y-115606609D01*
X151711995Y-115586879D01*
X151740404Y-115569852D01*
X151770344Y-115555691D01*
X151801529Y-115544533D01*
X151833657Y-115536485D01*
X151866419Y-115531625D01*
X151899500Y-115530000D01*
X152674500Y-115530000D01*
X152707581Y-115531625D01*
X152707581Y-115531625D01*
G37*
D15*
X152287000Y-116205000D03*
G04 #@! TD*
D16*
G04 #@! TO.C,C5*
X150876000Y-59436000D03*
D17*
X150876000Y-55936000D03*
G04 #@! TD*
G04 #@! TO.C,C6*
X150876000Y-69540000D03*
D16*
X150876000Y-66040000D03*
G04 #@! TD*
D14*
G04 #@! TO.C,C8*
G36*
X144311581Y-115531625D02*
X144344343Y-115536485D01*
X144376471Y-115544533D01*
X144407656Y-115555691D01*
X144437596Y-115569852D01*
X144466005Y-115586879D01*
X144492608Y-115606609D01*
X144517149Y-115628851D01*
X144539391Y-115653392D01*
X144559121Y-115679995D01*
X144576148Y-115708404D01*
X144590309Y-115738344D01*
X144601467Y-115769529D01*
X144609515Y-115801657D01*
X144614375Y-115834419D01*
X144616000Y-115867500D01*
X144616000Y-116542500D01*
X144614375Y-116575581D01*
X144609515Y-116608343D01*
X144601467Y-116640471D01*
X144590309Y-116671656D01*
X144576148Y-116701596D01*
X144559121Y-116730005D01*
X144539391Y-116756608D01*
X144517149Y-116781149D01*
X144492608Y-116803391D01*
X144466005Y-116823121D01*
X144437596Y-116840148D01*
X144407656Y-116854309D01*
X144376471Y-116865467D01*
X144344343Y-116873515D01*
X144311581Y-116878375D01*
X144278500Y-116880000D01*
X143503500Y-116880000D01*
X143470419Y-116878375D01*
X143437657Y-116873515D01*
X143405529Y-116865467D01*
X143374344Y-116854309D01*
X143344404Y-116840148D01*
X143315995Y-116823121D01*
X143289392Y-116803391D01*
X143264851Y-116781149D01*
X143242609Y-116756608D01*
X143222879Y-116730005D01*
X143205852Y-116701596D01*
X143191691Y-116671656D01*
X143180533Y-116640471D01*
X143172485Y-116608343D01*
X143167625Y-116575581D01*
X143166000Y-116542500D01*
X143166000Y-115867500D01*
X143167625Y-115834419D01*
X143172485Y-115801657D01*
X143180533Y-115769529D01*
X143191691Y-115738344D01*
X143205852Y-115708404D01*
X143222879Y-115679995D01*
X143242609Y-115653392D01*
X143264851Y-115628851D01*
X143289392Y-115606609D01*
X143315995Y-115586879D01*
X143344404Y-115569852D01*
X143374344Y-115555691D01*
X143405529Y-115544533D01*
X143437657Y-115536485D01*
X143470419Y-115531625D01*
X143503500Y-115530000D01*
X144278500Y-115530000D01*
X144311581Y-115531625D01*
X144311581Y-115531625D01*
G37*
D15*
X143891000Y-116205000D03*
D14*
G36*
X146061581Y-115531625D02*
X146094343Y-115536485D01*
X146126471Y-115544533D01*
X146157656Y-115555691D01*
X146187596Y-115569852D01*
X146216005Y-115586879D01*
X146242608Y-115606609D01*
X146267149Y-115628851D01*
X146289391Y-115653392D01*
X146309121Y-115679995D01*
X146326148Y-115708404D01*
X146340309Y-115738344D01*
X146351467Y-115769529D01*
X146359515Y-115801657D01*
X146364375Y-115834419D01*
X146366000Y-115867500D01*
X146366000Y-116542500D01*
X146364375Y-116575581D01*
X146359515Y-116608343D01*
X146351467Y-116640471D01*
X146340309Y-116671656D01*
X146326148Y-116701596D01*
X146309121Y-116730005D01*
X146289391Y-116756608D01*
X146267149Y-116781149D01*
X146242608Y-116803391D01*
X146216005Y-116823121D01*
X146187596Y-116840148D01*
X146157656Y-116854309D01*
X146126471Y-116865467D01*
X146094343Y-116873515D01*
X146061581Y-116878375D01*
X146028500Y-116880000D01*
X145253500Y-116880000D01*
X145220419Y-116878375D01*
X145187657Y-116873515D01*
X145155529Y-116865467D01*
X145124344Y-116854309D01*
X145094404Y-116840148D01*
X145065995Y-116823121D01*
X145039392Y-116803391D01*
X145014851Y-116781149D01*
X144992609Y-116756608D01*
X144972879Y-116730005D01*
X144955852Y-116701596D01*
X144941691Y-116671656D01*
X144930533Y-116640471D01*
X144922485Y-116608343D01*
X144917625Y-116575581D01*
X144916000Y-116542500D01*
X144916000Y-115867500D01*
X144917625Y-115834419D01*
X144922485Y-115801657D01*
X144930533Y-115769529D01*
X144941691Y-115738344D01*
X144955852Y-115708404D01*
X144972879Y-115679995D01*
X144992609Y-115653392D01*
X145014851Y-115628851D01*
X145039392Y-115606609D01*
X145065995Y-115586879D01*
X145094404Y-115569852D01*
X145124344Y-115555691D01*
X145155529Y-115544533D01*
X145187657Y-115536485D01*
X145220419Y-115531625D01*
X145253500Y-115530000D01*
X146028500Y-115530000D01*
X146061581Y-115531625D01*
X146061581Y-115531625D01*
G37*
D15*
X145641000Y-116205000D03*
G04 #@! TD*
D18*
G04 #@! TO.C,Conn1*
X162788600Y-114681000D03*
X162788600Y-106807000D03*
G04 #@! TD*
G04 #@! TO.C,Conn2*
X162788600Y-123317000D03*
X162788600Y-131191000D03*
G04 #@! TD*
G04 #@! TO.C,Conn3*
X139471400Y-37719000D03*
X139471400Y-45593000D03*
G04 #@! TD*
G04 #@! TO.C,Conn4*
X162788600Y-37719000D03*
X162788600Y-45593000D03*
G04 #@! TD*
D10*
G04 #@! TO.C,Conn5*
X137795000Y-100965000D03*
X140335000Y-100965000D03*
G04 #@! TD*
G04 #@! TO.C,Conn6*
X138430000Y-133350000D03*
X140970000Y-133350000D03*
X143510000Y-133350000D03*
X146050000Y-133350000D03*
X148590000Y-133350000D03*
X151130000Y-133350000D03*
X153670000Y-133350000D03*
G04 #@! TD*
D12*
G04 #@! TO.C,D1*
X152400000Y-112394000D03*
X152400000Y-109094000D03*
G04 #@! TD*
D14*
G04 #@! TO.C,D2*
G36*
X154457581Y-49872625D02*
X154490343Y-49877485D01*
X154522471Y-49885533D01*
X154553656Y-49896691D01*
X154583596Y-49910852D01*
X154612005Y-49927879D01*
X154638608Y-49947609D01*
X154663149Y-49969851D01*
X154685391Y-49994392D01*
X154705121Y-50020995D01*
X154722148Y-50049404D01*
X154736309Y-50079344D01*
X154747467Y-50110529D01*
X154755515Y-50142657D01*
X154760375Y-50175419D01*
X154762000Y-50208500D01*
X154762000Y-50883500D01*
X154760375Y-50916581D01*
X154755515Y-50949343D01*
X154747467Y-50981471D01*
X154736309Y-51012656D01*
X154722148Y-51042596D01*
X154705121Y-51071005D01*
X154685391Y-51097608D01*
X154663149Y-51122149D01*
X154638608Y-51144391D01*
X154612005Y-51164121D01*
X154583596Y-51181148D01*
X154553656Y-51195309D01*
X154522471Y-51206467D01*
X154490343Y-51214515D01*
X154457581Y-51219375D01*
X154424500Y-51221000D01*
X153649500Y-51221000D01*
X153616419Y-51219375D01*
X153583657Y-51214515D01*
X153551529Y-51206467D01*
X153520344Y-51195309D01*
X153490404Y-51181148D01*
X153461995Y-51164121D01*
X153435392Y-51144391D01*
X153410851Y-51122149D01*
X153388609Y-51097608D01*
X153368879Y-51071005D01*
X153351852Y-51042596D01*
X153337691Y-51012656D01*
X153326533Y-50981471D01*
X153318485Y-50949343D01*
X153313625Y-50916581D01*
X153312000Y-50883500D01*
X153312000Y-50208500D01*
X153313625Y-50175419D01*
X153318485Y-50142657D01*
X153326533Y-50110529D01*
X153337691Y-50079344D01*
X153351852Y-50049404D01*
X153368879Y-50020995D01*
X153388609Y-49994392D01*
X153410851Y-49969851D01*
X153435392Y-49947609D01*
X153461995Y-49927879D01*
X153490404Y-49910852D01*
X153520344Y-49896691D01*
X153551529Y-49885533D01*
X153583657Y-49877485D01*
X153616419Y-49872625D01*
X153649500Y-49871000D01*
X154424500Y-49871000D01*
X154457581Y-49872625D01*
X154457581Y-49872625D01*
G37*
D15*
X154037000Y-50546000D03*
D14*
G36*
X152707581Y-49872625D02*
X152740343Y-49877485D01*
X152772471Y-49885533D01*
X152803656Y-49896691D01*
X152833596Y-49910852D01*
X152862005Y-49927879D01*
X152888608Y-49947609D01*
X152913149Y-49969851D01*
X152935391Y-49994392D01*
X152955121Y-50020995D01*
X152972148Y-50049404D01*
X152986309Y-50079344D01*
X152997467Y-50110529D01*
X153005515Y-50142657D01*
X153010375Y-50175419D01*
X153012000Y-50208500D01*
X153012000Y-50883500D01*
X153010375Y-50916581D01*
X153005515Y-50949343D01*
X152997467Y-50981471D01*
X152986309Y-51012656D01*
X152972148Y-51042596D01*
X152955121Y-51071005D01*
X152935391Y-51097608D01*
X152913149Y-51122149D01*
X152888608Y-51144391D01*
X152862005Y-51164121D01*
X152833596Y-51181148D01*
X152803656Y-51195309D01*
X152772471Y-51206467D01*
X152740343Y-51214515D01*
X152707581Y-51219375D01*
X152674500Y-51221000D01*
X151899500Y-51221000D01*
X151866419Y-51219375D01*
X151833657Y-51214515D01*
X151801529Y-51206467D01*
X151770344Y-51195309D01*
X151740404Y-51181148D01*
X151711995Y-51164121D01*
X151685392Y-51144391D01*
X151660851Y-51122149D01*
X151638609Y-51097608D01*
X151618879Y-51071005D01*
X151601852Y-51042596D01*
X151587691Y-51012656D01*
X151576533Y-50981471D01*
X151568485Y-50949343D01*
X151563625Y-50916581D01*
X151562000Y-50883500D01*
X151562000Y-50208500D01*
X151563625Y-50175419D01*
X151568485Y-50142657D01*
X151576533Y-50110529D01*
X151587691Y-50079344D01*
X151601852Y-50049404D01*
X151618879Y-50020995D01*
X151638609Y-49994392D01*
X151660851Y-49969851D01*
X151685392Y-49947609D01*
X151711995Y-49927879D01*
X151740404Y-49910852D01*
X151770344Y-49896691D01*
X151801529Y-49885533D01*
X151833657Y-49877485D01*
X151866419Y-49872625D01*
X151899500Y-49871000D01*
X152674500Y-49871000D01*
X152707581Y-49872625D01*
X152707581Y-49872625D01*
G37*
D15*
X152287000Y-50546000D03*
G04 #@! TD*
D14*
G04 #@! TO.C,D3*
G36*
X148389581Y-110832625D02*
X148422343Y-110837485D01*
X148454471Y-110845533D01*
X148485656Y-110856691D01*
X148515596Y-110870852D01*
X148544005Y-110887879D01*
X148570608Y-110907609D01*
X148595149Y-110929851D01*
X148617391Y-110954392D01*
X148637121Y-110980995D01*
X148654148Y-111009404D01*
X148668309Y-111039344D01*
X148679467Y-111070529D01*
X148687515Y-111102657D01*
X148692375Y-111135419D01*
X148694000Y-111168500D01*
X148694000Y-111843500D01*
X148692375Y-111876581D01*
X148687515Y-111909343D01*
X148679467Y-111941471D01*
X148668309Y-111972656D01*
X148654148Y-112002596D01*
X148637121Y-112031005D01*
X148617391Y-112057608D01*
X148595149Y-112082149D01*
X148570608Y-112104391D01*
X148544005Y-112124121D01*
X148515596Y-112141148D01*
X148485656Y-112155309D01*
X148454471Y-112166467D01*
X148422343Y-112174515D01*
X148389581Y-112179375D01*
X148356500Y-112181000D01*
X147581500Y-112181000D01*
X147548419Y-112179375D01*
X147515657Y-112174515D01*
X147483529Y-112166467D01*
X147452344Y-112155309D01*
X147422404Y-112141148D01*
X147393995Y-112124121D01*
X147367392Y-112104391D01*
X147342851Y-112082149D01*
X147320609Y-112057608D01*
X147300879Y-112031005D01*
X147283852Y-112002596D01*
X147269691Y-111972656D01*
X147258533Y-111941471D01*
X147250485Y-111909343D01*
X147245625Y-111876581D01*
X147244000Y-111843500D01*
X147244000Y-111168500D01*
X147245625Y-111135419D01*
X147250485Y-111102657D01*
X147258533Y-111070529D01*
X147269691Y-111039344D01*
X147283852Y-111009404D01*
X147300879Y-110980995D01*
X147320609Y-110954392D01*
X147342851Y-110929851D01*
X147367392Y-110907609D01*
X147393995Y-110887879D01*
X147422404Y-110870852D01*
X147452344Y-110856691D01*
X147483529Y-110845533D01*
X147515657Y-110837485D01*
X147548419Y-110832625D01*
X147581500Y-110831000D01*
X148356500Y-110831000D01*
X148389581Y-110832625D01*
X148389581Y-110832625D01*
G37*
D15*
X147969000Y-111506000D03*
D14*
G36*
X150139581Y-110832625D02*
X150172343Y-110837485D01*
X150204471Y-110845533D01*
X150235656Y-110856691D01*
X150265596Y-110870852D01*
X150294005Y-110887879D01*
X150320608Y-110907609D01*
X150345149Y-110929851D01*
X150367391Y-110954392D01*
X150387121Y-110980995D01*
X150404148Y-111009404D01*
X150418309Y-111039344D01*
X150429467Y-111070529D01*
X150437515Y-111102657D01*
X150442375Y-111135419D01*
X150444000Y-111168500D01*
X150444000Y-111843500D01*
X150442375Y-111876581D01*
X150437515Y-111909343D01*
X150429467Y-111941471D01*
X150418309Y-111972656D01*
X150404148Y-112002596D01*
X150387121Y-112031005D01*
X150367391Y-112057608D01*
X150345149Y-112082149D01*
X150320608Y-112104391D01*
X150294005Y-112124121D01*
X150265596Y-112141148D01*
X150235656Y-112155309D01*
X150204471Y-112166467D01*
X150172343Y-112174515D01*
X150139581Y-112179375D01*
X150106500Y-112181000D01*
X149331500Y-112181000D01*
X149298419Y-112179375D01*
X149265657Y-112174515D01*
X149233529Y-112166467D01*
X149202344Y-112155309D01*
X149172404Y-112141148D01*
X149143995Y-112124121D01*
X149117392Y-112104391D01*
X149092851Y-112082149D01*
X149070609Y-112057608D01*
X149050879Y-112031005D01*
X149033852Y-112002596D01*
X149019691Y-111972656D01*
X149008533Y-111941471D01*
X149000485Y-111909343D01*
X148995625Y-111876581D01*
X148994000Y-111843500D01*
X148994000Y-111168500D01*
X148995625Y-111135419D01*
X149000485Y-111102657D01*
X149008533Y-111070529D01*
X149019691Y-111039344D01*
X149033852Y-111009404D01*
X149050879Y-110980995D01*
X149070609Y-110954392D01*
X149092851Y-110929851D01*
X149117392Y-110907609D01*
X149143995Y-110887879D01*
X149172404Y-110870852D01*
X149202344Y-110856691D01*
X149233529Y-110845533D01*
X149265657Y-110837485D01*
X149298419Y-110832625D01*
X149331500Y-110831000D01*
X150106500Y-110831000D01*
X150139581Y-110832625D01*
X150139581Y-110832625D01*
G37*
D15*
X149719000Y-111506000D03*
G04 #@! TD*
D14*
G04 #@! TO.C,D4*
G36*
X141757581Y-110832625D02*
X141790343Y-110837485D01*
X141822471Y-110845533D01*
X141853656Y-110856691D01*
X141883596Y-110870852D01*
X141912005Y-110887879D01*
X141938608Y-110907609D01*
X141963149Y-110929851D01*
X141985391Y-110954392D01*
X142005121Y-110980995D01*
X142022148Y-111009404D01*
X142036309Y-111039344D01*
X142047467Y-111070529D01*
X142055515Y-111102657D01*
X142060375Y-111135419D01*
X142062000Y-111168500D01*
X142062000Y-111843500D01*
X142060375Y-111876581D01*
X142055515Y-111909343D01*
X142047467Y-111941471D01*
X142036309Y-111972656D01*
X142022148Y-112002596D01*
X142005121Y-112031005D01*
X141985391Y-112057608D01*
X141963149Y-112082149D01*
X141938608Y-112104391D01*
X141912005Y-112124121D01*
X141883596Y-112141148D01*
X141853656Y-112155309D01*
X141822471Y-112166467D01*
X141790343Y-112174515D01*
X141757581Y-112179375D01*
X141724500Y-112181000D01*
X140949500Y-112181000D01*
X140916419Y-112179375D01*
X140883657Y-112174515D01*
X140851529Y-112166467D01*
X140820344Y-112155309D01*
X140790404Y-112141148D01*
X140761995Y-112124121D01*
X140735392Y-112104391D01*
X140710851Y-112082149D01*
X140688609Y-112057608D01*
X140668879Y-112031005D01*
X140651852Y-112002596D01*
X140637691Y-111972656D01*
X140626533Y-111941471D01*
X140618485Y-111909343D01*
X140613625Y-111876581D01*
X140612000Y-111843500D01*
X140612000Y-111168500D01*
X140613625Y-111135419D01*
X140618485Y-111102657D01*
X140626533Y-111070529D01*
X140637691Y-111039344D01*
X140651852Y-111009404D01*
X140668879Y-110980995D01*
X140688609Y-110954392D01*
X140710851Y-110929851D01*
X140735392Y-110907609D01*
X140761995Y-110887879D01*
X140790404Y-110870852D01*
X140820344Y-110856691D01*
X140851529Y-110845533D01*
X140883657Y-110837485D01*
X140916419Y-110832625D01*
X140949500Y-110831000D01*
X141724500Y-110831000D01*
X141757581Y-110832625D01*
X141757581Y-110832625D01*
G37*
D15*
X141337000Y-111506000D03*
D14*
G36*
X140007581Y-110832625D02*
X140040343Y-110837485D01*
X140072471Y-110845533D01*
X140103656Y-110856691D01*
X140133596Y-110870852D01*
X140162005Y-110887879D01*
X140188608Y-110907609D01*
X140213149Y-110929851D01*
X140235391Y-110954392D01*
X140255121Y-110980995D01*
X140272148Y-111009404D01*
X140286309Y-111039344D01*
X140297467Y-111070529D01*
X140305515Y-111102657D01*
X140310375Y-111135419D01*
X140312000Y-111168500D01*
X140312000Y-111843500D01*
X140310375Y-111876581D01*
X140305515Y-111909343D01*
X140297467Y-111941471D01*
X140286309Y-111972656D01*
X140272148Y-112002596D01*
X140255121Y-112031005D01*
X140235391Y-112057608D01*
X140213149Y-112082149D01*
X140188608Y-112104391D01*
X140162005Y-112124121D01*
X140133596Y-112141148D01*
X140103656Y-112155309D01*
X140072471Y-112166467D01*
X140040343Y-112174515D01*
X140007581Y-112179375D01*
X139974500Y-112181000D01*
X139199500Y-112181000D01*
X139166419Y-112179375D01*
X139133657Y-112174515D01*
X139101529Y-112166467D01*
X139070344Y-112155309D01*
X139040404Y-112141148D01*
X139011995Y-112124121D01*
X138985392Y-112104391D01*
X138960851Y-112082149D01*
X138938609Y-112057608D01*
X138918879Y-112031005D01*
X138901852Y-112002596D01*
X138887691Y-111972656D01*
X138876533Y-111941471D01*
X138868485Y-111909343D01*
X138863625Y-111876581D01*
X138862000Y-111843500D01*
X138862000Y-111168500D01*
X138863625Y-111135419D01*
X138868485Y-111102657D01*
X138876533Y-111070529D01*
X138887691Y-111039344D01*
X138901852Y-111009404D01*
X138918879Y-110980995D01*
X138938609Y-110954392D01*
X138960851Y-110929851D01*
X138985392Y-110907609D01*
X139011995Y-110887879D01*
X139040404Y-110870852D01*
X139070344Y-110856691D01*
X139101529Y-110845533D01*
X139133657Y-110837485D01*
X139166419Y-110832625D01*
X139199500Y-110831000D01*
X139974500Y-110831000D01*
X140007581Y-110832625D01*
X140007581Y-110832625D01*
G37*
D15*
X139587000Y-111506000D03*
G04 #@! TD*
D14*
G04 #@! TO.C,D5*
G36*
X148198581Y-37898625D02*
X148231343Y-37903485D01*
X148263471Y-37911533D01*
X148294656Y-37922691D01*
X148324596Y-37936852D01*
X148353005Y-37953879D01*
X148379608Y-37973609D01*
X148404149Y-37995851D01*
X148426391Y-38020392D01*
X148446121Y-38046995D01*
X148463148Y-38075404D01*
X148477309Y-38105344D01*
X148488467Y-38136529D01*
X148496515Y-38168657D01*
X148501375Y-38201419D01*
X148503000Y-38234500D01*
X148503000Y-39009500D01*
X148501375Y-39042581D01*
X148496515Y-39075343D01*
X148488467Y-39107471D01*
X148477309Y-39138656D01*
X148463148Y-39168596D01*
X148446121Y-39197005D01*
X148426391Y-39223608D01*
X148404149Y-39248149D01*
X148379608Y-39270391D01*
X148353005Y-39290121D01*
X148324596Y-39307148D01*
X148294656Y-39321309D01*
X148263471Y-39332467D01*
X148231343Y-39340515D01*
X148198581Y-39345375D01*
X148165500Y-39347000D01*
X147490500Y-39347000D01*
X147457419Y-39345375D01*
X147424657Y-39340515D01*
X147392529Y-39332467D01*
X147361344Y-39321309D01*
X147331404Y-39307148D01*
X147302995Y-39290121D01*
X147276392Y-39270391D01*
X147251851Y-39248149D01*
X147229609Y-39223608D01*
X147209879Y-39197005D01*
X147192852Y-39168596D01*
X147178691Y-39138656D01*
X147167533Y-39107471D01*
X147159485Y-39075343D01*
X147154625Y-39042581D01*
X147153000Y-39009500D01*
X147153000Y-38234500D01*
X147154625Y-38201419D01*
X147159485Y-38168657D01*
X147167533Y-38136529D01*
X147178691Y-38105344D01*
X147192852Y-38075404D01*
X147209879Y-38046995D01*
X147229609Y-38020392D01*
X147251851Y-37995851D01*
X147276392Y-37973609D01*
X147302995Y-37953879D01*
X147331404Y-37936852D01*
X147361344Y-37922691D01*
X147392529Y-37911533D01*
X147424657Y-37903485D01*
X147457419Y-37898625D01*
X147490500Y-37897000D01*
X148165500Y-37897000D01*
X148198581Y-37898625D01*
X148198581Y-37898625D01*
G37*
D15*
X147828000Y-38622000D03*
D14*
G36*
X148198581Y-39648625D02*
X148231343Y-39653485D01*
X148263471Y-39661533D01*
X148294656Y-39672691D01*
X148324596Y-39686852D01*
X148353005Y-39703879D01*
X148379608Y-39723609D01*
X148404149Y-39745851D01*
X148426391Y-39770392D01*
X148446121Y-39796995D01*
X148463148Y-39825404D01*
X148477309Y-39855344D01*
X148488467Y-39886529D01*
X148496515Y-39918657D01*
X148501375Y-39951419D01*
X148503000Y-39984500D01*
X148503000Y-40759500D01*
X148501375Y-40792581D01*
X148496515Y-40825343D01*
X148488467Y-40857471D01*
X148477309Y-40888656D01*
X148463148Y-40918596D01*
X148446121Y-40947005D01*
X148426391Y-40973608D01*
X148404149Y-40998149D01*
X148379608Y-41020391D01*
X148353005Y-41040121D01*
X148324596Y-41057148D01*
X148294656Y-41071309D01*
X148263471Y-41082467D01*
X148231343Y-41090515D01*
X148198581Y-41095375D01*
X148165500Y-41097000D01*
X147490500Y-41097000D01*
X147457419Y-41095375D01*
X147424657Y-41090515D01*
X147392529Y-41082467D01*
X147361344Y-41071309D01*
X147331404Y-41057148D01*
X147302995Y-41040121D01*
X147276392Y-41020391D01*
X147251851Y-40998149D01*
X147229609Y-40973608D01*
X147209879Y-40947005D01*
X147192852Y-40918596D01*
X147178691Y-40888656D01*
X147167533Y-40857471D01*
X147159485Y-40825343D01*
X147154625Y-40792581D01*
X147153000Y-40759500D01*
X147153000Y-39984500D01*
X147154625Y-39951419D01*
X147159485Y-39918657D01*
X147167533Y-39886529D01*
X147178691Y-39855344D01*
X147192852Y-39825404D01*
X147209879Y-39796995D01*
X147229609Y-39770392D01*
X147251851Y-39745851D01*
X147276392Y-39723609D01*
X147302995Y-39703879D01*
X147331404Y-39686852D01*
X147361344Y-39672691D01*
X147392529Y-39661533D01*
X147424657Y-39653485D01*
X147457419Y-39648625D01*
X147490500Y-39647000D01*
X148165500Y-39647000D01*
X148198581Y-39648625D01*
X148198581Y-39648625D01*
G37*
D15*
X147828000Y-40372000D03*
G04 #@! TD*
D14*
G04 #@! TO.C,D6*
G36*
X148198581Y-45744625D02*
X148231343Y-45749485D01*
X148263471Y-45757533D01*
X148294656Y-45768691D01*
X148324596Y-45782852D01*
X148353005Y-45799879D01*
X148379608Y-45819609D01*
X148404149Y-45841851D01*
X148426391Y-45866392D01*
X148446121Y-45892995D01*
X148463148Y-45921404D01*
X148477309Y-45951344D01*
X148488467Y-45982529D01*
X148496515Y-46014657D01*
X148501375Y-46047419D01*
X148503000Y-46080500D01*
X148503000Y-46855500D01*
X148501375Y-46888581D01*
X148496515Y-46921343D01*
X148488467Y-46953471D01*
X148477309Y-46984656D01*
X148463148Y-47014596D01*
X148446121Y-47043005D01*
X148426391Y-47069608D01*
X148404149Y-47094149D01*
X148379608Y-47116391D01*
X148353005Y-47136121D01*
X148324596Y-47153148D01*
X148294656Y-47167309D01*
X148263471Y-47178467D01*
X148231343Y-47186515D01*
X148198581Y-47191375D01*
X148165500Y-47193000D01*
X147490500Y-47193000D01*
X147457419Y-47191375D01*
X147424657Y-47186515D01*
X147392529Y-47178467D01*
X147361344Y-47167309D01*
X147331404Y-47153148D01*
X147302995Y-47136121D01*
X147276392Y-47116391D01*
X147251851Y-47094149D01*
X147229609Y-47069608D01*
X147209879Y-47043005D01*
X147192852Y-47014596D01*
X147178691Y-46984656D01*
X147167533Y-46953471D01*
X147159485Y-46921343D01*
X147154625Y-46888581D01*
X147153000Y-46855500D01*
X147153000Y-46080500D01*
X147154625Y-46047419D01*
X147159485Y-46014657D01*
X147167533Y-45982529D01*
X147178691Y-45951344D01*
X147192852Y-45921404D01*
X147209879Y-45892995D01*
X147229609Y-45866392D01*
X147251851Y-45841851D01*
X147276392Y-45819609D01*
X147302995Y-45799879D01*
X147331404Y-45782852D01*
X147361344Y-45768691D01*
X147392529Y-45757533D01*
X147424657Y-45749485D01*
X147457419Y-45744625D01*
X147490500Y-45743000D01*
X148165500Y-45743000D01*
X148198581Y-45744625D01*
X148198581Y-45744625D01*
G37*
D15*
X147828000Y-46468000D03*
D14*
G36*
X148198581Y-43994625D02*
X148231343Y-43999485D01*
X148263471Y-44007533D01*
X148294656Y-44018691D01*
X148324596Y-44032852D01*
X148353005Y-44049879D01*
X148379608Y-44069609D01*
X148404149Y-44091851D01*
X148426391Y-44116392D01*
X148446121Y-44142995D01*
X148463148Y-44171404D01*
X148477309Y-44201344D01*
X148488467Y-44232529D01*
X148496515Y-44264657D01*
X148501375Y-44297419D01*
X148503000Y-44330500D01*
X148503000Y-45105500D01*
X148501375Y-45138581D01*
X148496515Y-45171343D01*
X148488467Y-45203471D01*
X148477309Y-45234656D01*
X148463148Y-45264596D01*
X148446121Y-45293005D01*
X148426391Y-45319608D01*
X148404149Y-45344149D01*
X148379608Y-45366391D01*
X148353005Y-45386121D01*
X148324596Y-45403148D01*
X148294656Y-45417309D01*
X148263471Y-45428467D01*
X148231343Y-45436515D01*
X148198581Y-45441375D01*
X148165500Y-45443000D01*
X147490500Y-45443000D01*
X147457419Y-45441375D01*
X147424657Y-45436515D01*
X147392529Y-45428467D01*
X147361344Y-45417309D01*
X147331404Y-45403148D01*
X147302995Y-45386121D01*
X147276392Y-45366391D01*
X147251851Y-45344149D01*
X147229609Y-45319608D01*
X147209879Y-45293005D01*
X147192852Y-45264596D01*
X147178691Y-45234656D01*
X147167533Y-45203471D01*
X147159485Y-45171343D01*
X147154625Y-45138581D01*
X147153000Y-45105500D01*
X147153000Y-44330500D01*
X147154625Y-44297419D01*
X147159485Y-44264657D01*
X147167533Y-44232529D01*
X147178691Y-44201344D01*
X147192852Y-44171404D01*
X147209879Y-44142995D01*
X147229609Y-44116392D01*
X147251851Y-44091851D01*
X147276392Y-44069609D01*
X147302995Y-44049879D01*
X147331404Y-44032852D01*
X147361344Y-44018691D01*
X147392529Y-44007533D01*
X147424657Y-43999485D01*
X147457419Y-43994625D01*
X147490500Y-43993000D01*
X148165500Y-43993000D01*
X148198581Y-43994625D01*
X148198581Y-43994625D01*
G37*
D15*
X147828000Y-44718000D03*
G04 #@! TD*
D14*
G04 #@! TO.C,D8*
G36*
X148516581Y-115531625D02*
X148549343Y-115536485D01*
X148581471Y-115544533D01*
X148612656Y-115555691D01*
X148642596Y-115569852D01*
X148671005Y-115586879D01*
X148697608Y-115606609D01*
X148722149Y-115628851D01*
X148744391Y-115653392D01*
X148764121Y-115679995D01*
X148781148Y-115708404D01*
X148795309Y-115738344D01*
X148806467Y-115769529D01*
X148814515Y-115801657D01*
X148819375Y-115834419D01*
X148821000Y-115867500D01*
X148821000Y-116542500D01*
X148819375Y-116575581D01*
X148814515Y-116608343D01*
X148806467Y-116640471D01*
X148795309Y-116671656D01*
X148781148Y-116701596D01*
X148764121Y-116730005D01*
X148744391Y-116756608D01*
X148722149Y-116781149D01*
X148697608Y-116803391D01*
X148671005Y-116823121D01*
X148642596Y-116840148D01*
X148612656Y-116854309D01*
X148581471Y-116865467D01*
X148549343Y-116873515D01*
X148516581Y-116878375D01*
X148483500Y-116880000D01*
X147708500Y-116880000D01*
X147675419Y-116878375D01*
X147642657Y-116873515D01*
X147610529Y-116865467D01*
X147579344Y-116854309D01*
X147549404Y-116840148D01*
X147520995Y-116823121D01*
X147494392Y-116803391D01*
X147469851Y-116781149D01*
X147447609Y-116756608D01*
X147427879Y-116730005D01*
X147410852Y-116701596D01*
X147396691Y-116671656D01*
X147385533Y-116640471D01*
X147377485Y-116608343D01*
X147372625Y-116575581D01*
X147371000Y-116542500D01*
X147371000Y-115867500D01*
X147372625Y-115834419D01*
X147377485Y-115801657D01*
X147385533Y-115769529D01*
X147396691Y-115738344D01*
X147410852Y-115708404D01*
X147427879Y-115679995D01*
X147447609Y-115653392D01*
X147469851Y-115628851D01*
X147494392Y-115606609D01*
X147520995Y-115586879D01*
X147549404Y-115569852D01*
X147579344Y-115555691D01*
X147610529Y-115544533D01*
X147642657Y-115536485D01*
X147675419Y-115531625D01*
X147708500Y-115530000D01*
X148483500Y-115530000D01*
X148516581Y-115531625D01*
X148516581Y-115531625D01*
G37*
D15*
X148096000Y-116205000D03*
D14*
G36*
X150266581Y-115531625D02*
X150299343Y-115536485D01*
X150331471Y-115544533D01*
X150362656Y-115555691D01*
X150392596Y-115569852D01*
X150421005Y-115586879D01*
X150447608Y-115606609D01*
X150472149Y-115628851D01*
X150494391Y-115653392D01*
X150514121Y-115679995D01*
X150531148Y-115708404D01*
X150545309Y-115738344D01*
X150556467Y-115769529D01*
X150564515Y-115801657D01*
X150569375Y-115834419D01*
X150571000Y-115867500D01*
X150571000Y-116542500D01*
X150569375Y-116575581D01*
X150564515Y-116608343D01*
X150556467Y-116640471D01*
X150545309Y-116671656D01*
X150531148Y-116701596D01*
X150514121Y-116730005D01*
X150494391Y-116756608D01*
X150472149Y-116781149D01*
X150447608Y-116803391D01*
X150421005Y-116823121D01*
X150392596Y-116840148D01*
X150362656Y-116854309D01*
X150331471Y-116865467D01*
X150299343Y-116873515D01*
X150266581Y-116878375D01*
X150233500Y-116880000D01*
X149458500Y-116880000D01*
X149425419Y-116878375D01*
X149392657Y-116873515D01*
X149360529Y-116865467D01*
X149329344Y-116854309D01*
X149299404Y-116840148D01*
X149270995Y-116823121D01*
X149244392Y-116803391D01*
X149219851Y-116781149D01*
X149197609Y-116756608D01*
X149177879Y-116730005D01*
X149160852Y-116701596D01*
X149146691Y-116671656D01*
X149135533Y-116640471D01*
X149127485Y-116608343D01*
X149122625Y-116575581D01*
X149121000Y-116542500D01*
X149121000Y-115867500D01*
X149122625Y-115834419D01*
X149127485Y-115801657D01*
X149135533Y-115769529D01*
X149146691Y-115738344D01*
X149160852Y-115708404D01*
X149177879Y-115679995D01*
X149197609Y-115653392D01*
X149219851Y-115628851D01*
X149244392Y-115606609D01*
X149270995Y-115586879D01*
X149299404Y-115569852D01*
X149329344Y-115555691D01*
X149360529Y-115544533D01*
X149392657Y-115536485D01*
X149425419Y-115531625D01*
X149458500Y-115530000D01*
X150233500Y-115530000D01*
X150266581Y-115531625D01*
X150266581Y-115531625D01*
G37*
D15*
X149846000Y-116205000D03*
G04 #@! TD*
D14*
G04 #@! TO.C,D10*
G36*
X154802581Y-43994625D02*
X154835343Y-43999485D01*
X154867471Y-44007533D01*
X154898656Y-44018691D01*
X154928596Y-44032852D01*
X154957005Y-44049879D01*
X154983608Y-44069609D01*
X155008149Y-44091851D01*
X155030391Y-44116392D01*
X155050121Y-44142995D01*
X155067148Y-44171404D01*
X155081309Y-44201344D01*
X155092467Y-44232529D01*
X155100515Y-44264657D01*
X155105375Y-44297419D01*
X155107000Y-44330500D01*
X155107000Y-45105500D01*
X155105375Y-45138581D01*
X155100515Y-45171343D01*
X155092467Y-45203471D01*
X155081309Y-45234656D01*
X155067148Y-45264596D01*
X155050121Y-45293005D01*
X155030391Y-45319608D01*
X155008149Y-45344149D01*
X154983608Y-45366391D01*
X154957005Y-45386121D01*
X154928596Y-45403148D01*
X154898656Y-45417309D01*
X154867471Y-45428467D01*
X154835343Y-45436515D01*
X154802581Y-45441375D01*
X154769500Y-45443000D01*
X154094500Y-45443000D01*
X154061419Y-45441375D01*
X154028657Y-45436515D01*
X153996529Y-45428467D01*
X153965344Y-45417309D01*
X153935404Y-45403148D01*
X153906995Y-45386121D01*
X153880392Y-45366391D01*
X153855851Y-45344149D01*
X153833609Y-45319608D01*
X153813879Y-45293005D01*
X153796852Y-45264596D01*
X153782691Y-45234656D01*
X153771533Y-45203471D01*
X153763485Y-45171343D01*
X153758625Y-45138581D01*
X153757000Y-45105500D01*
X153757000Y-44330500D01*
X153758625Y-44297419D01*
X153763485Y-44264657D01*
X153771533Y-44232529D01*
X153782691Y-44201344D01*
X153796852Y-44171404D01*
X153813879Y-44142995D01*
X153833609Y-44116392D01*
X153855851Y-44091851D01*
X153880392Y-44069609D01*
X153906995Y-44049879D01*
X153935404Y-44032852D01*
X153965344Y-44018691D01*
X153996529Y-44007533D01*
X154028657Y-43999485D01*
X154061419Y-43994625D01*
X154094500Y-43993000D01*
X154769500Y-43993000D01*
X154802581Y-43994625D01*
X154802581Y-43994625D01*
G37*
D15*
X154432000Y-44718000D03*
D14*
G36*
X154802581Y-45744625D02*
X154835343Y-45749485D01*
X154867471Y-45757533D01*
X154898656Y-45768691D01*
X154928596Y-45782852D01*
X154957005Y-45799879D01*
X154983608Y-45819609D01*
X155008149Y-45841851D01*
X155030391Y-45866392D01*
X155050121Y-45892995D01*
X155067148Y-45921404D01*
X155081309Y-45951344D01*
X155092467Y-45982529D01*
X155100515Y-46014657D01*
X155105375Y-46047419D01*
X155107000Y-46080500D01*
X155107000Y-46855500D01*
X155105375Y-46888581D01*
X155100515Y-46921343D01*
X155092467Y-46953471D01*
X155081309Y-46984656D01*
X155067148Y-47014596D01*
X155050121Y-47043005D01*
X155030391Y-47069608D01*
X155008149Y-47094149D01*
X154983608Y-47116391D01*
X154957005Y-47136121D01*
X154928596Y-47153148D01*
X154898656Y-47167309D01*
X154867471Y-47178467D01*
X154835343Y-47186515D01*
X154802581Y-47191375D01*
X154769500Y-47193000D01*
X154094500Y-47193000D01*
X154061419Y-47191375D01*
X154028657Y-47186515D01*
X153996529Y-47178467D01*
X153965344Y-47167309D01*
X153935404Y-47153148D01*
X153906995Y-47136121D01*
X153880392Y-47116391D01*
X153855851Y-47094149D01*
X153833609Y-47069608D01*
X153813879Y-47043005D01*
X153796852Y-47014596D01*
X153782691Y-46984656D01*
X153771533Y-46953471D01*
X153763485Y-46921343D01*
X153758625Y-46888581D01*
X153757000Y-46855500D01*
X153757000Y-46080500D01*
X153758625Y-46047419D01*
X153763485Y-46014657D01*
X153771533Y-45982529D01*
X153782691Y-45951344D01*
X153796852Y-45921404D01*
X153813879Y-45892995D01*
X153833609Y-45866392D01*
X153855851Y-45841851D01*
X153880392Y-45819609D01*
X153906995Y-45799879D01*
X153935404Y-45782852D01*
X153965344Y-45768691D01*
X153996529Y-45757533D01*
X154028657Y-45749485D01*
X154061419Y-45744625D01*
X154094500Y-45743000D01*
X154769500Y-45743000D01*
X154802581Y-45744625D01*
X154802581Y-45744625D01*
G37*
D15*
X154432000Y-46468000D03*
G04 #@! TD*
D14*
G04 #@! TO.C,D11*
G36*
X154548581Y-39648625D02*
X154581343Y-39653485D01*
X154613471Y-39661533D01*
X154644656Y-39672691D01*
X154674596Y-39686852D01*
X154703005Y-39703879D01*
X154729608Y-39723609D01*
X154754149Y-39745851D01*
X154776391Y-39770392D01*
X154796121Y-39796995D01*
X154813148Y-39825404D01*
X154827309Y-39855344D01*
X154838467Y-39886529D01*
X154846515Y-39918657D01*
X154851375Y-39951419D01*
X154853000Y-39984500D01*
X154853000Y-40759500D01*
X154851375Y-40792581D01*
X154846515Y-40825343D01*
X154838467Y-40857471D01*
X154827309Y-40888656D01*
X154813148Y-40918596D01*
X154796121Y-40947005D01*
X154776391Y-40973608D01*
X154754149Y-40998149D01*
X154729608Y-41020391D01*
X154703005Y-41040121D01*
X154674596Y-41057148D01*
X154644656Y-41071309D01*
X154613471Y-41082467D01*
X154581343Y-41090515D01*
X154548581Y-41095375D01*
X154515500Y-41097000D01*
X153840500Y-41097000D01*
X153807419Y-41095375D01*
X153774657Y-41090515D01*
X153742529Y-41082467D01*
X153711344Y-41071309D01*
X153681404Y-41057148D01*
X153652995Y-41040121D01*
X153626392Y-41020391D01*
X153601851Y-40998149D01*
X153579609Y-40973608D01*
X153559879Y-40947005D01*
X153542852Y-40918596D01*
X153528691Y-40888656D01*
X153517533Y-40857471D01*
X153509485Y-40825343D01*
X153504625Y-40792581D01*
X153503000Y-40759500D01*
X153503000Y-39984500D01*
X153504625Y-39951419D01*
X153509485Y-39918657D01*
X153517533Y-39886529D01*
X153528691Y-39855344D01*
X153542852Y-39825404D01*
X153559879Y-39796995D01*
X153579609Y-39770392D01*
X153601851Y-39745851D01*
X153626392Y-39723609D01*
X153652995Y-39703879D01*
X153681404Y-39686852D01*
X153711344Y-39672691D01*
X153742529Y-39661533D01*
X153774657Y-39653485D01*
X153807419Y-39648625D01*
X153840500Y-39647000D01*
X154515500Y-39647000D01*
X154548581Y-39648625D01*
X154548581Y-39648625D01*
G37*
D15*
X154178000Y-40372000D03*
D14*
G36*
X154548581Y-37898625D02*
X154581343Y-37903485D01*
X154613471Y-37911533D01*
X154644656Y-37922691D01*
X154674596Y-37936852D01*
X154703005Y-37953879D01*
X154729608Y-37973609D01*
X154754149Y-37995851D01*
X154776391Y-38020392D01*
X154796121Y-38046995D01*
X154813148Y-38075404D01*
X154827309Y-38105344D01*
X154838467Y-38136529D01*
X154846515Y-38168657D01*
X154851375Y-38201419D01*
X154853000Y-38234500D01*
X154853000Y-39009500D01*
X154851375Y-39042581D01*
X154846515Y-39075343D01*
X154838467Y-39107471D01*
X154827309Y-39138656D01*
X154813148Y-39168596D01*
X154796121Y-39197005D01*
X154776391Y-39223608D01*
X154754149Y-39248149D01*
X154729608Y-39270391D01*
X154703005Y-39290121D01*
X154674596Y-39307148D01*
X154644656Y-39321309D01*
X154613471Y-39332467D01*
X154581343Y-39340515D01*
X154548581Y-39345375D01*
X154515500Y-39347000D01*
X153840500Y-39347000D01*
X153807419Y-39345375D01*
X153774657Y-39340515D01*
X153742529Y-39332467D01*
X153711344Y-39321309D01*
X153681404Y-39307148D01*
X153652995Y-39290121D01*
X153626392Y-39270391D01*
X153601851Y-39248149D01*
X153579609Y-39223608D01*
X153559879Y-39197005D01*
X153542852Y-39168596D01*
X153528691Y-39138656D01*
X153517533Y-39107471D01*
X153509485Y-39075343D01*
X153504625Y-39042581D01*
X153503000Y-39009500D01*
X153503000Y-38234500D01*
X153504625Y-38201419D01*
X153509485Y-38168657D01*
X153517533Y-38136529D01*
X153528691Y-38105344D01*
X153542852Y-38075404D01*
X153559879Y-38046995D01*
X153579609Y-38020392D01*
X153601851Y-37995851D01*
X153626392Y-37973609D01*
X153652995Y-37953879D01*
X153681404Y-37936852D01*
X153711344Y-37922691D01*
X153742529Y-37911533D01*
X153774657Y-37903485D01*
X153807419Y-37898625D01*
X153840500Y-37897000D01*
X154515500Y-37897000D01*
X154548581Y-37898625D01*
X154548581Y-37898625D01*
G37*
D15*
X154178000Y-38622000D03*
G04 #@! TD*
D19*
G04 #@! TO.C,F1*
X171323000Y-96139000D03*
X171323000Y-99568000D03*
X184785000Y-99568000D03*
X184785000Y-96139000D03*
G04 #@! TD*
D17*
G04 #@! TO.C,L2*
X143002000Y-120936000D03*
D16*
X143002000Y-122936000D03*
G04 #@! TD*
D20*
G04 #@! TO.C,Q1*
X150555000Y-106695000D03*
X150555000Y-105395000D03*
X147895000Y-106045000D03*
G04 #@! TD*
G04 #@! TO.C,Q2*
X144078000Y-105664000D03*
X141418000Y-106314000D03*
X141418000Y-105014000D03*
G04 #@! TD*
D21*
G04 #@! TO.C,Q3*
X180346000Y-79638000D03*
X184906000Y-79638000D03*
D22*
X182626000Y-73338000D03*
G04 #@! TD*
D20*
G04 #@! TO.C,Q4*
X116018000Y-69850000D03*
X118678000Y-69200000D03*
X118678000Y-70500000D03*
G04 #@! TD*
D14*
G04 #@! TO.C,R1*
G36*
X132740581Y-72351625D02*
X132773343Y-72356485D01*
X132805471Y-72364533D01*
X132836656Y-72375691D01*
X132866596Y-72389852D01*
X132895005Y-72406879D01*
X132921608Y-72426609D01*
X132946149Y-72448851D01*
X132968391Y-72473392D01*
X132988121Y-72499995D01*
X133005148Y-72528404D01*
X133019309Y-72558344D01*
X133030467Y-72589529D01*
X133038515Y-72621657D01*
X133043375Y-72654419D01*
X133045000Y-72687500D01*
X133045000Y-73362500D01*
X133043375Y-73395581D01*
X133038515Y-73428343D01*
X133030467Y-73460471D01*
X133019309Y-73491656D01*
X133005148Y-73521596D01*
X132988121Y-73550005D01*
X132968391Y-73576608D01*
X132946149Y-73601149D01*
X132921608Y-73623391D01*
X132895005Y-73643121D01*
X132866596Y-73660148D01*
X132836656Y-73674309D01*
X132805471Y-73685467D01*
X132773343Y-73693515D01*
X132740581Y-73698375D01*
X132707500Y-73700000D01*
X131932500Y-73700000D01*
X131899419Y-73698375D01*
X131866657Y-73693515D01*
X131834529Y-73685467D01*
X131803344Y-73674309D01*
X131773404Y-73660148D01*
X131744995Y-73643121D01*
X131718392Y-73623391D01*
X131693851Y-73601149D01*
X131671609Y-73576608D01*
X131651879Y-73550005D01*
X131634852Y-73521596D01*
X131620691Y-73491656D01*
X131609533Y-73460471D01*
X131601485Y-73428343D01*
X131596625Y-73395581D01*
X131595000Y-73362500D01*
X131595000Y-72687500D01*
X131596625Y-72654419D01*
X131601485Y-72621657D01*
X131609533Y-72589529D01*
X131620691Y-72558344D01*
X131634852Y-72528404D01*
X131651879Y-72499995D01*
X131671609Y-72473392D01*
X131693851Y-72448851D01*
X131718392Y-72426609D01*
X131744995Y-72406879D01*
X131773404Y-72389852D01*
X131803344Y-72375691D01*
X131834529Y-72364533D01*
X131866657Y-72356485D01*
X131899419Y-72351625D01*
X131932500Y-72350000D01*
X132707500Y-72350000D01*
X132740581Y-72351625D01*
X132740581Y-72351625D01*
G37*
D15*
X132320000Y-73025000D03*
D14*
G36*
X130990581Y-72351625D02*
X131023343Y-72356485D01*
X131055471Y-72364533D01*
X131086656Y-72375691D01*
X131116596Y-72389852D01*
X131145005Y-72406879D01*
X131171608Y-72426609D01*
X131196149Y-72448851D01*
X131218391Y-72473392D01*
X131238121Y-72499995D01*
X131255148Y-72528404D01*
X131269309Y-72558344D01*
X131280467Y-72589529D01*
X131288515Y-72621657D01*
X131293375Y-72654419D01*
X131295000Y-72687500D01*
X131295000Y-73362500D01*
X131293375Y-73395581D01*
X131288515Y-73428343D01*
X131280467Y-73460471D01*
X131269309Y-73491656D01*
X131255148Y-73521596D01*
X131238121Y-73550005D01*
X131218391Y-73576608D01*
X131196149Y-73601149D01*
X131171608Y-73623391D01*
X131145005Y-73643121D01*
X131116596Y-73660148D01*
X131086656Y-73674309D01*
X131055471Y-73685467D01*
X131023343Y-73693515D01*
X130990581Y-73698375D01*
X130957500Y-73700000D01*
X130182500Y-73700000D01*
X130149419Y-73698375D01*
X130116657Y-73693515D01*
X130084529Y-73685467D01*
X130053344Y-73674309D01*
X130023404Y-73660148D01*
X129994995Y-73643121D01*
X129968392Y-73623391D01*
X129943851Y-73601149D01*
X129921609Y-73576608D01*
X129901879Y-73550005D01*
X129884852Y-73521596D01*
X129870691Y-73491656D01*
X129859533Y-73460471D01*
X129851485Y-73428343D01*
X129846625Y-73395581D01*
X129845000Y-73362500D01*
X129845000Y-72687500D01*
X129846625Y-72654419D01*
X129851485Y-72621657D01*
X129859533Y-72589529D01*
X129870691Y-72558344D01*
X129884852Y-72528404D01*
X129901879Y-72499995D01*
X129921609Y-72473392D01*
X129943851Y-72448851D01*
X129968392Y-72426609D01*
X129994995Y-72406879D01*
X130023404Y-72389852D01*
X130053344Y-72375691D01*
X130084529Y-72364533D01*
X130116657Y-72356485D01*
X130149419Y-72351625D01*
X130182500Y-72350000D01*
X130957500Y-72350000D01*
X130990581Y-72351625D01*
X130990581Y-72351625D01*
G37*
D15*
X130570000Y-73025000D03*
G04 #@! TD*
D14*
G04 #@! TO.C,R2*
G36*
X137820581Y-72351625D02*
X137853343Y-72356485D01*
X137885471Y-72364533D01*
X137916656Y-72375691D01*
X137946596Y-72389852D01*
X137975005Y-72406879D01*
X138001608Y-72426609D01*
X138026149Y-72448851D01*
X138048391Y-72473392D01*
X138068121Y-72499995D01*
X138085148Y-72528404D01*
X138099309Y-72558344D01*
X138110467Y-72589529D01*
X138118515Y-72621657D01*
X138123375Y-72654419D01*
X138125000Y-72687500D01*
X138125000Y-73362500D01*
X138123375Y-73395581D01*
X138118515Y-73428343D01*
X138110467Y-73460471D01*
X138099309Y-73491656D01*
X138085148Y-73521596D01*
X138068121Y-73550005D01*
X138048391Y-73576608D01*
X138026149Y-73601149D01*
X138001608Y-73623391D01*
X137975005Y-73643121D01*
X137946596Y-73660148D01*
X137916656Y-73674309D01*
X137885471Y-73685467D01*
X137853343Y-73693515D01*
X137820581Y-73698375D01*
X137787500Y-73700000D01*
X137012500Y-73700000D01*
X136979419Y-73698375D01*
X136946657Y-73693515D01*
X136914529Y-73685467D01*
X136883344Y-73674309D01*
X136853404Y-73660148D01*
X136824995Y-73643121D01*
X136798392Y-73623391D01*
X136773851Y-73601149D01*
X136751609Y-73576608D01*
X136731879Y-73550005D01*
X136714852Y-73521596D01*
X136700691Y-73491656D01*
X136689533Y-73460471D01*
X136681485Y-73428343D01*
X136676625Y-73395581D01*
X136675000Y-73362500D01*
X136675000Y-72687500D01*
X136676625Y-72654419D01*
X136681485Y-72621657D01*
X136689533Y-72589529D01*
X136700691Y-72558344D01*
X136714852Y-72528404D01*
X136731879Y-72499995D01*
X136751609Y-72473392D01*
X136773851Y-72448851D01*
X136798392Y-72426609D01*
X136824995Y-72406879D01*
X136853404Y-72389852D01*
X136883344Y-72375691D01*
X136914529Y-72364533D01*
X136946657Y-72356485D01*
X136979419Y-72351625D01*
X137012500Y-72350000D01*
X137787500Y-72350000D01*
X137820581Y-72351625D01*
X137820581Y-72351625D01*
G37*
D15*
X137400000Y-73025000D03*
D14*
G36*
X136070581Y-72351625D02*
X136103343Y-72356485D01*
X136135471Y-72364533D01*
X136166656Y-72375691D01*
X136196596Y-72389852D01*
X136225005Y-72406879D01*
X136251608Y-72426609D01*
X136276149Y-72448851D01*
X136298391Y-72473392D01*
X136318121Y-72499995D01*
X136335148Y-72528404D01*
X136349309Y-72558344D01*
X136360467Y-72589529D01*
X136368515Y-72621657D01*
X136373375Y-72654419D01*
X136375000Y-72687500D01*
X136375000Y-73362500D01*
X136373375Y-73395581D01*
X136368515Y-73428343D01*
X136360467Y-73460471D01*
X136349309Y-73491656D01*
X136335148Y-73521596D01*
X136318121Y-73550005D01*
X136298391Y-73576608D01*
X136276149Y-73601149D01*
X136251608Y-73623391D01*
X136225005Y-73643121D01*
X136196596Y-73660148D01*
X136166656Y-73674309D01*
X136135471Y-73685467D01*
X136103343Y-73693515D01*
X136070581Y-73698375D01*
X136037500Y-73700000D01*
X135262500Y-73700000D01*
X135229419Y-73698375D01*
X135196657Y-73693515D01*
X135164529Y-73685467D01*
X135133344Y-73674309D01*
X135103404Y-73660148D01*
X135074995Y-73643121D01*
X135048392Y-73623391D01*
X135023851Y-73601149D01*
X135001609Y-73576608D01*
X134981879Y-73550005D01*
X134964852Y-73521596D01*
X134950691Y-73491656D01*
X134939533Y-73460471D01*
X134931485Y-73428343D01*
X134926625Y-73395581D01*
X134925000Y-73362500D01*
X134925000Y-72687500D01*
X134926625Y-72654419D01*
X134931485Y-72621657D01*
X134939533Y-72589529D01*
X134950691Y-72558344D01*
X134964852Y-72528404D01*
X134981879Y-72499995D01*
X135001609Y-72473392D01*
X135023851Y-72448851D01*
X135048392Y-72426609D01*
X135074995Y-72406879D01*
X135103404Y-72389852D01*
X135133344Y-72375691D01*
X135164529Y-72364533D01*
X135196657Y-72356485D01*
X135229419Y-72351625D01*
X135262500Y-72350000D01*
X136037500Y-72350000D01*
X136070581Y-72351625D01*
X136070581Y-72351625D01*
G37*
D15*
X135650000Y-73025000D03*
G04 #@! TD*
D14*
G04 #@! TO.C,R3*
G36*
X142900581Y-72351625D02*
X142933343Y-72356485D01*
X142965471Y-72364533D01*
X142996656Y-72375691D01*
X143026596Y-72389852D01*
X143055005Y-72406879D01*
X143081608Y-72426609D01*
X143106149Y-72448851D01*
X143128391Y-72473392D01*
X143148121Y-72499995D01*
X143165148Y-72528404D01*
X143179309Y-72558344D01*
X143190467Y-72589529D01*
X143198515Y-72621657D01*
X143203375Y-72654419D01*
X143205000Y-72687500D01*
X143205000Y-73362500D01*
X143203375Y-73395581D01*
X143198515Y-73428343D01*
X143190467Y-73460471D01*
X143179309Y-73491656D01*
X143165148Y-73521596D01*
X143148121Y-73550005D01*
X143128391Y-73576608D01*
X143106149Y-73601149D01*
X143081608Y-73623391D01*
X143055005Y-73643121D01*
X143026596Y-73660148D01*
X142996656Y-73674309D01*
X142965471Y-73685467D01*
X142933343Y-73693515D01*
X142900581Y-73698375D01*
X142867500Y-73700000D01*
X142092500Y-73700000D01*
X142059419Y-73698375D01*
X142026657Y-73693515D01*
X141994529Y-73685467D01*
X141963344Y-73674309D01*
X141933404Y-73660148D01*
X141904995Y-73643121D01*
X141878392Y-73623391D01*
X141853851Y-73601149D01*
X141831609Y-73576608D01*
X141811879Y-73550005D01*
X141794852Y-73521596D01*
X141780691Y-73491656D01*
X141769533Y-73460471D01*
X141761485Y-73428343D01*
X141756625Y-73395581D01*
X141755000Y-73362500D01*
X141755000Y-72687500D01*
X141756625Y-72654419D01*
X141761485Y-72621657D01*
X141769533Y-72589529D01*
X141780691Y-72558344D01*
X141794852Y-72528404D01*
X141811879Y-72499995D01*
X141831609Y-72473392D01*
X141853851Y-72448851D01*
X141878392Y-72426609D01*
X141904995Y-72406879D01*
X141933404Y-72389852D01*
X141963344Y-72375691D01*
X141994529Y-72364533D01*
X142026657Y-72356485D01*
X142059419Y-72351625D01*
X142092500Y-72350000D01*
X142867500Y-72350000D01*
X142900581Y-72351625D01*
X142900581Y-72351625D01*
G37*
D15*
X142480000Y-73025000D03*
D14*
G36*
X141150581Y-72351625D02*
X141183343Y-72356485D01*
X141215471Y-72364533D01*
X141246656Y-72375691D01*
X141276596Y-72389852D01*
X141305005Y-72406879D01*
X141331608Y-72426609D01*
X141356149Y-72448851D01*
X141378391Y-72473392D01*
X141398121Y-72499995D01*
X141415148Y-72528404D01*
X141429309Y-72558344D01*
X141440467Y-72589529D01*
X141448515Y-72621657D01*
X141453375Y-72654419D01*
X141455000Y-72687500D01*
X141455000Y-73362500D01*
X141453375Y-73395581D01*
X141448515Y-73428343D01*
X141440467Y-73460471D01*
X141429309Y-73491656D01*
X141415148Y-73521596D01*
X141398121Y-73550005D01*
X141378391Y-73576608D01*
X141356149Y-73601149D01*
X141331608Y-73623391D01*
X141305005Y-73643121D01*
X141276596Y-73660148D01*
X141246656Y-73674309D01*
X141215471Y-73685467D01*
X141183343Y-73693515D01*
X141150581Y-73698375D01*
X141117500Y-73700000D01*
X140342500Y-73700000D01*
X140309419Y-73698375D01*
X140276657Y-73693515D01*
X140244529Y-73685467D01*
X140213344Y-73674309D01*
X140183404Y-73660148D01*
X140154995Y-73643121D01*
X140128392Y-73623391D01*
X140103851Y-73601149D01*
X140081609Y-73576608D01*
X140061879Y-73550005D01*
X140044852Y-73521596D01*
X140030691Y-73491656D01*
X140019533Y-73460471D01*
X140011485Y-73428343D01*
X140006625Y-73395581D01*
X140005000Y-73362500D01*
X140005000Y-72687500D01*
X140006625Y-72654419D01*
X140011485Y-72621657D01*
X140019533Y-72589529D01*
X140030691Y-72558344D01*
X140044852Y-72528404D01*
X140061879Y-72499995D01*
X140081609Y-72473392D01*
X140103851Y-72448851D01*
X140128392Y-72426609D01*
X140154995Y-72406879D01*
X140183404Y-72389852D01*
X140213344Y-72375691D01*
X140244529Y-72364533D01*
X140276657Y-72356485D01*
X140309419Y-72351625D01*
X140342500Y-72350000D01*
X141117500Y-72350000D01*
X141150581Y-72351625D01*
X141150581Y-72351625D01*
G37*
D15*
X140730000Y-73025000D03*
G04 #@! TD*
D14*
G04 #@! TO.C,R4*
G36*
X161470581Y-72351625D02*
X161503343Y-72356485D01*
X161535471Y-72364533D01*
X161566656Y-72375691D01*
X161596596Y-72389852D01*
X161625005Y-72406879D01*
X161651608Y-72426609D01*
X161676149Y-72448851D01*
X161698391Y-72473392D01*
X161718121Y-72499995D01*
X161735148Y-72528404D01*
X161749309Y-72558344D01*
X161760467Y-72589529D01*
X161768515Y-72621657D01*
X161773375Y-72654419D01*
X161775000Y-72687500D01*
X161775000Y-73362500D01*
X161773375Y-73395581D01*
X161768515Y-73428343D01*
X161760467Y-73460471D01*
X161749309Y-73491656D01*
X161735148Y-73521596D01*
X161718121Y-73550005D01*
X161698391Y-73576608D01*
X161676149Y-73601149D01*
X161651608Y-73623391D01*
X161625005Y-73643121D01*
X161596596Y-73660148D01*
X161566656Y-73674309D01*
X161535471Y-73685467D01*
X161503343Y-73693515D01*
X161470581Y-73698375D01*
X161437500Y-73700000D01*
X160662500Y-73700000D01*
X160629419Y-73698375D01*
X160596657Y-73693515D01*
X160564529Y-73685467D01*
X160533344Y-73674309D01*
X160503404Y-73660148D01*
X160474995Y-73643121D01*
X160448392Y-73623391D01*
X160423851Y-73601149D01*
X160401609Y-73576608D01*
X160381879Y-73550005D01*
X160364852Y-73521596D01*
X160350691Y-73491656D01*
X160339533Y-73460471D01*
X160331485Y-73428343D01*
X160326625Y-73395581D01*
X160325000Y-73362500D01*
X160325000Y-72687500D01*
X160326625Y-72654419D01*
X160331485Y-72621657D01*
X160339533Y-72589529D01*
X160350691Y-72558344D01*
X160364852Y-72528404D01*
X160381879Y-72499995D01*
X160401609Y-72473392D01*
X160423851Y-72448851D01*
X160448392Y-72426609D01*
X160474995Y-72406879D01*
X160503404Y-72389852D01*
X160533344Y-72375691D01*
X160564529Y-72364533D01*
X160596657Y-72356485D01*
X160629419Y-72351625D01*
X160662500Y-72350000D01*
X161437500Y-72350000D01*
X161470581Y-72351625D01*
X161470581Y-72351625D01*
G37*
D15*
X161050000Y-73025000D03*
D14*
G36*
X163220581Y-72351625D02*
X163253343Y-72356485D01*
X163285471Y-72364533D01*
X163316656Y-72375691D01*
X163346596Y-72389852D01*
X163375005Y-72406879D01*
X163401608Y-72426609D01*
X163426149Y-72448851D01*
X163448391Y-72473392D01*
X163468121Y-72499995D01*
X163485148Y-72528404D01*
X163499309Y-72558344D01*
X163510467Y-72589529D01*
X163518515Y-72621657D01*
X163523375Y-72654419D01*
X163525000Y-72687500D01*
X163525000Y-73362500D01*
X163523375Y-73395581D01*
X163518515Y-73428343D01*
X163510467Y-73460471D01*
X163499309Y-73491656D01*
X163485148Y-73521596D01*
X163468121Y-73550005D01*
X163448391Y-73576608D01*
X163426149Y-73601149D01*
X163401608Y-73623391D01*
X163375005Y-73643121D01*
X163346596Y-73660148D01*
X163316656Y-73674309D01*
X163285471Y-73685467D01*
X163253343Y-73693515D01*
X163220581Y-73698375D01*
X163187500Y-73700000D01*
X162412500Y-73700000D01*
X162379419Y-73698375D01*
X162346657Y-73693515D01*
X162314529Y-73685467D01*
X162283344Y-73674309D01*
X162253404Y-73660148D01*
X162224995Y-73643121D01*
X162198392Y-73623391D01*
X162173851Y-73601149D01*
X162151609Y-73576608D01*
X162131879Y-73550005D01*
X162114852Y-73521596D01*
X162100691Y-73491656D01*
X162089533Y-73460471D01*
X162081485Y-73428343D01*
X162076625Y-73395581D01*
X162075000Y-73362500D01*
X162075000Y-72687500D01*
X162076625Y-72654419D01*
X162081485Y-72621657D01*
X162089533Y-72589529D01*
X162100691Y-72558344D01*
X162114852Y-72528404D01*
X162131879Y-72499995D01*
X162151609Y-72473392D01*
X162173851Y-72448851D01*
X162198392Y-72426609D01*
X162224995Y-72406879D01*
X162253404Y-72389852D01*
X162283344Y-72375691D01*
X162314529Y-72364533D01*
X162346657Y-72356485D01*
X162379419Y-72351625D01*
X162412500Y-72350000D01*
X163187500Y-72350000D01*
X163220581Y-72351625D01*
X163220581Y-72351625D01*
G37*
D15*
X162800000Y-73025000D03*
G04 #@! TD*
D14*
G04 #@! TO.C,R5*
G36*
X166550581Y-72351625D02*
X166583343Y-72356485D01*
X166615471Y-72364533D01*
X166646656Y-72375691D01*
X166676596Y-72389852D01*
X166705005Y-72406879D01*
X166731608Y-72426609D01*
X166756149Y-72448851D01*
X166778391Y-72473392D01*
X166798121Y-72499995D01*
X166815148Y-72528404D01*
X166829309Y-72558344D01*
X166840467Y-72589529D01*
X166848515Y-72621657D01*
X166853375Y-72654419D01*
X166855000Y-72687500D01*
X166855000Y-73362500D01*
X166853375Y-73395581D01*
X166848515Y-73428343D01*
X166840467Y-73460471D01*
X166829309Y-73491656D01*
X166815148Y-73521596D01*
X166798121Y-73550005D01*
X166778391Y-73576608D01*
X166756149Y-73601149D01*
X166731608Y-73623391D01*
X166705005Y-73643121D01*
X166676596Y-73660148D01*
X166646656Y-73674309D01*
X166615471Y-73685467D01*
X166583343Y-73693515D01*
X166550581Y-73698375D01*
X166517500Y-73700000D01*
X165742500Y-73700000D01*
X165709419Y-73698375D01*
X165676657Y-73693515D01*
X165644529Y-73685467D01*
X165613344Y-73674309D01*
X165583404Y-73660148D01*
X165554995Y-73643121D01*
X165528392Y-73623391D01*
X165503851Y-73601149D01*
X165481609Y-73576608D01*
X165461879Y-73550005D01*
X165444852Y-73521596D01*
X165430691Y-73491656D01*
X165419533Y-73460471D01*
X165411485Y-73428343D01*
X165406625Y-73395581D01*
X165405000Y-73362500D01*
X165405000Y-72687500D01*
X165406625Y-72654419D01*
X165411485Y-72621657D01*
X165419533Y-72589529D01*
X165430691Y-72558344D01*
X165444852Y-72528404D01*
X165461879Y-72499995D01*
X165481609Y-72473392D01*
X165503851Y-72448851D01*
X165528392Y-72426609D01*
X165554995Y-72406879D01*
X165583404Y-72389852D01*
X165613344Y-72375691D01*
X165644529Y-72364533D01*
X165676657Y-72356485D01*
X165709419Y-72351625D01*
X165742500Y-72350000D01*
X166517500Y-72350000D01*
X166550581Y-72351625D01*
X166550581Y-72351625D01*
G37*
D15*
X166130000Y-73025000D03*
D14*
G36*
X168300581Y-72351625D02*
X168333343Y-72356485D01*
X168365471Y-72364533D01*
X168396656Y-72375691D01*
X168426596Y-72389852D01*
X168455005Y-72406879D01*
X168481608Y-72426609D01*
X168506149Y-72448851D01*
X168528391Y-72473392D01*
X168548121Y-72499995D01*
X168565148Y-72528404D01*
X168579309Y-72558344D01*
X168590467Y-72589529D01*
X168598515Y-72621657D01*
X168603375Y-72654419D01*
X168605000Y-72687500D01*
X168605000Y-73362500D01*
X168603375Y-73395581D01*
X168598515Y-73428343D01*
X168590467Y-73460471D01*
X168579309Y-73491656D01*
X168565148Y-73521596D01*
X168548121Y-73550005D01*
X168528391Y-73576608D01*
X168506149Y-73601149D01*
X168481608Y-73623391D01*
X168455005Y-73643121D01*
X168426596Y-73660148D01*
X168396656Y-73674309D01*
X168365471Y-73685467D01*
X168333343Y-73693515D01*
X168300581Y-73698375D01*
X168267500Y-73700000D01*
X167492500Y-73700000D01*
X167459419Y-73698375D01*
X167426657Y-73693515D01*
X167394529Y-73685467D01*
X167363344Y-73674309D01*
X167333404Y-73660148D01*
X167304995Y-73643121D01*
X167278392Y-73623391D01*
X167253851Y-73601149D01*
X167231609Y-73576608D01*
X167211879Y-73550005D01*
X167194852Y-73521596D01*
X167180691Y-73491656D01*
X167169533Y-73460471D01*
X167161485Y-73428343D01*
X167156625Y-73395581D01*
X167155000Y-73362500D01*
X167155000Y-72687500D01*
X167156625Y-72654419D01*
X167161485Y-72621657D01*
X167169533Y-72589529D01*
X167180691Y-72558344D01*
X167194852Y-72528404D01*
X167211879Y-72499995D01*
X167231609Y-72473392D01*
X167253851Y-72448851D01*
X167278392Y-72426609D01*
X167304995Y-72406879D01*
X167333404Y-72389852D01*
X167363344Y-72375691D01*
X167394529Y-72364533D01*
X167426657Y-72356485D01*
X167459419Y-72351625D01*
X167492500Y-72350000D01*
X168267500Y-72350000D01*
X168300581Y-72351625D01*
X168300581Y-72351625D01*
G37*
D15*
X167880000Y-73025000D03*
G04 #@! TD*
D14*
G04 #@! TO.C,R6*
G36*
X172237581Y-72351625D02*
X172270343Y-72356485D01*
X172302471Y-72364533D01*
X172333656Y-72375691D01*
X172363596Y-72389852D01*
X172392005Y-72406879D01*
X172418608Y-72426609D01*
X172443149Y-72448851D01*
X172465391Y-72473392D01*
X172485121Y-72499995D01*
X172502148Y-72528404D01*
X172516309Y-72558344D01*
X172527467Y-72589529D01*
X172535515Y-72621657D01*
X172540375Y-72654419D01*
X172542000Y-72687500D01*
X172542000Y-73362500D01*
X172540375Y-73395581D01*
X172535515Y-73428343D01*
X172527467Y-73460471D01*
X172516309Y-73491656D01*
X172502148Y-73521596D01*
X172485121Y-73550005D01*
X172465391Y-73576608D01*
X172443149Y-73601149D01*
X172418608Y-73623391D01*
X172392005Y-73643121D01*
X172363596Y-73660148D01*
X172333656Y-73674309D01*
X172302471Y-73685467D01*
X172270343Y-73693515D01*
X172237581Y-73698375D01*
X172204500Y-73700000D01*
X171429500Y-73700000D01*
X171396419Y-73698375D01*
X171363657Y-73693515D01*
X171331529Y-73685467D01*
X171300344Y-73674309D01*
X171270404Y-73660148D01*
X171241995Y-73643121D01*
X171215392Y-73623391D01*
X171190851Y-73601149D01*
X171168609Y-73576608D01*
X171148879Y-73550005D01*
X171131852Y-73521596D01*
X171117691Y-73491656D01*
X171106533Y-73460471D01*
X171098485Y-73428343D01*
X171093625Y-73395581D01*
X171092000Y-73362500D01*
X171092000Y-72687500D01*
X171093625Y-72654419D01*
X171098485Y-72621657D01*
X171106533Y-72589529D01*
X171117691Y-72558344D01*
X171131852Y-72528404D01*
X171148879Y-72499995D01*
X171168609Y-72473392D01*
X171190851Y-72448851D01*
X171215392Y-72426609D01*
X171241995Y-72406879D01*
X171270404Y-72389852D01*
X171300344Y-72375691D01*
X171331529Y-72364533D01*
X171363657Y-72356485D01*
X171396419Y-72351625D01*
X171429500Y-72350000D01*
X172204500Y-72350000D01*
X172237581Y-72351625D01*
X172237581Y-72351625D01*
G37*
D15*
X171817000Y-73025000D03*
D14*
G36*
X170487581Y-72351625D02*
X170520343Y-72356485D01*
X170552471Y-72364533D01*
X170583656Y-72375691D01*
X170613596Y-72389852D01*
X170642005Y-72406879D01*
X170668608Y-72426609D01*
X170693149Y-72448851D01*
X170715391Y-72473392D01*
X170735121Y-72499995D01*
X170752148Y-72528404D01*
X170766309Y-72558344D01*
X170777467Y-72589529D01*
X170785515Y-72621657D01*
X170790375Y-72654419D01*
X170792000Y-72687500D01*
X170792000Y-73362500D01*
X170790375Y-73395581D01*
X170785515Y-73428343D01*
X170777467Y-73460471D01*
X170766309Y-73491656D01*
X170752148Y-73521596D01*
X170735121Y-73550005D01*
X170715391Y-73576608D01*
X170693149Y-73601149D01*
X170668608Y-73623391D01*
X170642005Y-73643121D01*
X170613596Y-73660148D01*
X170583656Y-73674309D01*
X170552471Y-73685467D01*
X170520343Y-73693515D01*
X170487581Y-73698375D01*
X170454500Y-73700000D01*
X169679500Y-73700000D01*
X169646419Y-73698375D01*
X169613657Y-73693515D01*
X169581529Y-73685467D01*
X169550344Y-73674309D01*
X169520404Y-73660148D01*
X169491995Y-73643121D01*
X169465392Y-73623391D01*
X169440851Y-73601149D01*
X169418609Y-73576608D01*
X169398879Y-73550005D01*
X169381852Y-73521596D01*
X169367691Y-73491656D01*
X169356533Y-73460471D01*
X169348485Y-73428343D01*
X169343625Y-73395581D01*
X169342000Y-73362500D01*
X169342000Y-72687500D01*
X169343625Y-72654419D01*
X169348485Y-72621657D01*
X169356533Y-72589529D01*
X169367691Y-72558344D01*
X169381852Y-72528404D01*
X169398879Y-72499995D01*
X169418609Y-72473392D01*
X169440851Y-72448851D01*
X169465392Y-72426609D01*
X169491995Y-72406879D01*
X169520404Y-72389852D01*
X169550344Y-72375691D01*
X169581529Y-72364533D01*
X169613657Y-72356485D01*
X169646419Y-72351625D01*
X169679500Y-72350000D01*
X170454500Y-72350000D01*
X170487581Y-72351625D01*
X170487581Y-72351625D01*
G37*
D15*
X170067000Y-73025000D03*
G04 #@! TD*
D14*
G04 #@! TO.C,R7*
G36*
X154485581Y-105371625D02*
X154518343Y-105376485D01*
X154550471Y-105384533D01*
X154581656Y-105395691D01*
X154611596Y-105409852D01*
X154640005Y-105426879D01*
X154666608Y-105446609D01*
X154691149Y-105468851D01*
X154713391Y-105493392D01*
X154733121Y-105519995D01*
X154750148Y-105548404D01*
X154764309Y-105578344D01*
X154775467Y-105609529D01*
X154783515Y-105641657D01*
X154788375Y-105674419D01*
X154790000Y-105707500D01*
X154790000Y-106382500D01*
X154788375Y-106415581D01*
X154783515Y-106448343D01*
X154775467Y-106480471D01*
X154764309Y-106511656D01*
X154750148Y-106541596D01*
X154733121Y-106570005D01*
X154713391Y-106596608D01*
X154691149Y-106621149D01*
X154666608Y-106643391D01*
X154640005Y-106663121D01*
X154611596Y-106680148D01*
X154581656Y-106694309D01*
X154550471Y-106705467D01*
X154518343Y-106713515D01*
X154485581Y-106718375D01*
X154452500Y-106720000D01*
X153677500Y-106720000D01*
X153644419Y-106718375D01*
X153611657Y-106713515D01*
X153579529Y-106705467D01*
X153548344Y-106694309D01*
X153518404Y-106680148D01*
X153489995Y-106663121D01*
X153463392Y-106643391D01*
X153438851Y-106621149D01*
X153416609Y-106596608D01*
X153396879Y-106570005D01*
X153379852Y-106541596D01*
X153365691Y-106511656D01*
X153354533Y-106480471D01*
X153346485Y-106448343D01*
X153341625Y-106415581D01*
X153340000Y-106382500D01*
X153340000Y-105707500D01*
X153341625Y-105674419D01*
X153346485Y-105641657D01*
X153354533Y-105609529D01*
X153365691Y-105578344D01*
X153379852Y-105548404D01*
X153396879Y-105519995D01*
X153416609Y-105493392D01*
X153438851Y-105468851D01*
X153463392Y-105446609D01*
X153489995Y-105426879D01*
X153518404Y-105409852D01*
X153548344Y-105395691D01*
X153579529Y-105384533D01*
X153611657Y-105376485D01*
X153644419Y-105371625D01*
X153677500Y-105370000D01*
X154452500Y-105370000D01*
X154485581Y-105371625D01*
X154485581Y-105371625D01*
G37*
D15*
X154065000Y-106045000D03*
D14*
G36*
X156235581Y-105371625D02*
X156268343Y-105376485D01*
X156300471Y-105384533D01*
X156331656Y-105395691D01*
X156361596Y-105409852D01*
X156390005Y-105426879D01*
X156416608Y-105446609D01*
X156441149Y-105468851D01*
X156463391Y-105493392D01*
X156483121Y-105519995D01*
X156500148Y-105548404D01*
X156514309Y-105578344D01*
X156525467Y-105609529D01*
X156533515Y-105641657D01*
X156538375Y-105674419D01*
X156540000Y-105707500D01*
X156540000Y-106382500D01*
X156538375Y-106415581D01*
X156533515Y-106448343D01*
X156525467Y-106480471D01*
X156514309Y-106511656D01*
X156500148Y-106541596D01*
X156483121Y-106570005D01*
X156463391Y-106596608D01*
X156441149Y-106621149D01*
X156416608Y-106643391D01*
X156390005Y-106663121D01*
X156361596Y-106680148D01*
X156331656Y-106694309D01*
X156300471Y-106705467D01*
X156268343Y-106713515D01*
X156235581Y-106718375D01*
X156202500Y-106720000D01*
X155427500Y-106720000D01*
X155394419Y-106718375D01*
X155361657Y-106713515D01*
X155329529Y-106705467D01*
X155298344Y-106694309D01*
X155268404Y-106680148D01*
X155239995Y-106663121D01*
X155213392Y-106643391D01*
X155188851Y-106621149D01*
X155166609Y-106596608D01*
X155146879Y-106570005D01*
X155129852Y-106541596D01*
X155115691Y-106511656D01*
X155104533Y-106480471D01*
X155096485Y-106448343D01*
X155091625Y-106415581D01*
X155090000Y-106382500D01*
X155090000Y-105707500D01*
X155091625Y-105674419D01*
X155096485Y-105641657D01*
X155104533Y-105609529D01*
X155115691Y-105578344D01*
X155129852Y-105548404D01*
X155146879Y-105519995D01*
X155166609Y-105493392D01*
X155188851Y-105468851D01*
X155213392Y-105446609D01*
X155239995Y-105426879D01*
X155268404Y-105409852D01*
X155298344Y-105395691D01*
X155329529Y-105384533D01*
X155361657Y-105376485D01*
X155394419Y-105371625D01*
X155427500Y-105370000D01*
X156202500Y-105370000D01*
X156235581Y-105371625D01*
X156235581Y-105371625D01*
G37*
D15*
X155815000Y-106045000D03*
G04 #@! TD*
D14*
G04 #@! TO.C,R8*
G36*
X155501581Y-108546625D02*
X155534343Y-108551485D01*
X155566471Y-108559533D01*
X155597656Y-108570691D01*
X155627596Y-108584852D01*
X155656005Y-108601879D01*
X155682608Y-108621609D01*
X155707149Y-108643851D01*
X155729391Y-108668392D01*
X155749121Y-108694995D01*
X155766148Y-108723404D01*
X155780309Y-108753344D01*
X155791467Y-108784529D01*
X155799515Y-108816657D01*
X155804375Y-108849419D01*
X155806000Y-108882500D01*
X155806000Y-109557500D01*
X155804375Y-109590581D01*
X155799515Y-109623343D01*
X155791467Y-109655471D01*
X155780309Y-109686656D01*
X155766148Y-109716596D01*
X155749121Y-109745005D01*
X155729391Y-109771608D01*
X155707149Y-109796149D01*
X155682608Y-109818391D01*
X155656005Y-109838121D01*
X155627596Y-109855148D01*
X155597656Y-109869309D01*
X155566471Y-109880467D01*
X155534343Y-109888515D01*
X155501581Y-109893375D01*
X155468500Y-109895000D01*
X154693500Y-109895000D01*
X154660419Y-109893375D01*
X154627657Y-109888515D01*
X154595529Y-109880467D01*
X154564344Y-109869309D01*
X154534404Y-109855148D01*
X154505995Y-109838121D01*
X154479392Y-109818391D01*
X154454851Y-109796149D01*
X154432609Y-109771608D01*
X154412879Y-109745005D01*
X154395852Y-109716596D01*
X154381691Y-109686656D01*
X154370533Y-109655471D01*
X154362485Y-109623343D01*
X154357625Y-109590581D01*
X154356000Y-109557500D01*
X154356000Y-108882500D01*
X154357625Y-108849419D01*
X154362485Y-108816657D01*
X154370533Y-108784529D01*
X154381691Y-108753344D01*
X154395852Y-108723404D01*
X154412879Y-108694995D01*
X154432609Y-108668392D01*
X154454851Y-108643851D01*
X154479392Y-108621609D01*
X154505995Y-108601879D01*
X154534404Y-108584852D01*
X154564344Y-108570691D01*
X154595529Y-108559533D01*
X154627657Y-108551485D01*
X154660419Y-108546625D01*
X154693500Y-108545000D01*
X155468500Y-108545000D01*
X155501581Y-108546625D01*
X155501581Y-108546625D01*
G37*
D15*
X155081000Y-109220000D03*
D14*
G36*
X157251581Y-108546625D02*
X157284343Y-108551485D01*
X157316471Y-108559533D01*
X157347656Y-108570691D01*
X157377596Y-108584852D01*
X157406005Y-108601879D01*
X157432608Y-108621609D01*
X157457149Y-108643851D01*
X157479391Y-108668392D01*
X157499121Y-108694995D01*
X157516148Y-108723404D01*
X157530309Y-108753344D01*
X157541467Y-108784529D01*
X157549515Y-108816657D01*
X157554375Y-108849419D01*
X157556000Y-108882500D01*
X157556000Y-109557500D01*
X157554375Y-109590581D01*
X157549515Y-109623343D01*
X157541467Y-109655471D01*
X157530309Y-109686656D01*
X157516148Y-109716596D01*
X157499121Y-109745005D01*
X157479391Y-109771608D01*
X157457149Y-109796149D01*
X157432608Y-109818391D01*
X157406005Y-109838121D01*
X157377596Y-109855148D01*
X157347656Y-109869309D01*
X157316471Y-109880467D01*
X157284343Y-109888515D01*
X157251581Y-109893375D01*
X157218500Y-109895000D01*
X156443500Y-109895000D01*
X156410419Y-109893375D01*
X156377657Y-109888515D01*
X156345529Y-109880467D01*
X156314344Y-109869309D01*
X156284404Y-109855148D01*
X156255995Y-109838121D01*
X156229392Y-109818391D01*
X156204851Y-109796149D01*
X156182609Y-109771608D01*
X156162879Y-109745005D01*
X156145852Y-109716596D01*
X156131691Y-109686656D01*
X156120533Y-109655471D01*
X156112485Y-109623343D01*
X156107625Y-109590581D01*
X156106000Y-109557500D01*
X156106000Y-108882500D01*
X156107625Y-108849419D01*
X156112485Y-108816657D01*
X156120533Y-108784529D01*
X156131691Y-108753344D01*
X156145852Y-108723404D01*
X156162879Y-108694995D01*
X156182609Y-108668392D01*
X156204851Y-108643851D01*
X156229392Y-108621609D01*
X156255995Y-108601879D01*
X156284404Y-108584852D01*
X156314344Y-108570691D01*
X156345529Y-108559533D01*
X156377657Y-108551485D01*
X156410419Y-108546625D01*
X156443500Y-108545000D01*
X157218500Y-108545000D01*
X157251581Y-108546625D01*
X157251581Y-108546625D01*
G37*
D15*
X156831000Y-109220000D03*
G04 #@! TD*
D14*
G04 #@! TO.C,R9*
G36*
X155501581Y-111594625D02*
X155534343Y-111599485D01*
X155566471Y-111607533D01*
X155597656Y-111618691D01*
X155627596Y-111632852D01*
X155656005Y-111649879D01*
X155682608Y-111669609D01*
X155707149Y-111691851D01*
X155729391Y-111716392D01*
X155749121Y-111742995D01*
X155766148Y-111771404D01*
X155780309Y-111801344D01*
X155791467Y-111832529D01*
X155799515Y-111864657D01*
X155804375Y-111897419D01*
X155806000Y-111930500D01*
X155806000Y-112605500D01*
X155804375Y-112638581D01*
X155799515Y-112671343D01*
X155791467Y-112703471D01*
X155780309Y-112734656D01*
X155766148Y-112764596D01*
X155749121Y-112793005D01*
X155729391Y-112819608D01*
X155707149Y-112844149D01*
X155682608Y-112866391D01*
X155656005Y-112886121D01*
X155627596Y-112903148D01*
X155597656Y-112917309D01*
X155566471Y-112928467D01*
X155534343Y-112936515D01*
X155501581Y-112941375D01*
X155468500Y-112943000D01*
X154693500Y-112943000D01*
X154660419Y-112941375D01*
X154627657Y-112936515D01*
X154595529Y-112928467D01*
X154564344Y-112917309D01*
X154534404Y-112903148D01*
X154505995Y-112886121D01*
X154479392Y-112866391D01*
X154454851Y-112844149D01*
X154432609Y-112819608D01*
X154412879Y-112793005D01*
X154395852Y-112764596D01*
X154381691Y-112734656D01*
X154370533Y-112703471D01*
X154362485Y-112671343D01*
X154357625Y-112638581D01*
X154356000Y-112605500D01*
X154356000Y-111930500D01*
X154357625Y-111897419D01*
X154362485Y-111864657D01*
X154370533Y-111832529D01*
X154381691Y-111801344D01*
X154395852Y-111771404D01*
X154412879Y-111742995D01*
X154432609Y-111716392D01*
X154454851Y-111691851D01*
X154479392Y-111669609D01*
X154505995Y-111649879D01*
X154534404Y-111632852D01*
X154564344Y-111618691D01*
X154595529Y-111607533D01*
X154627657Y-111599485D01*
X154660419Y-111594625D01*
X154693500Y-111593000D01*
X155468500Y-111593000D01*
X155501581Y-111594625D01*
X155501581Y-111594625D01*
G37*
D15*
X155081000Y-112268000D03*
D14*
G36*
X157251581Y-111594625D02*
X157284343Y-111599485D01*
X157316471Y-111607533D01*
X157347656Y-111618691D01*
X157377596Y-111632852D01*
X157406005Y-111649879D01*
X157432608Y-111669609D01*
X157457149Y-111691851D01*
X157479391Y-111716392D01*
X157499121Y-111742995D01*
X157516148Y-111771404D01*
X157530309Y-111801344D01*
X157541467Y-111832529D01*
X157549515Y-111864657D01*
X157554375Y-111897419D01*
X157556000Y-111930500D01*
X157556000Y-112605500D01*
X157554375Y-112638581D01*
X157549515Y-112671343D01*
X157541467Y-112703471D01*
X157530309Y-112734656D01*
X157516148Y-112764596D01*
X157499121Y-112793005D01*
X157479391Y-112819608D01*
X157457149Y-112844149D01*
X157432608Y-112866391D01*
X157406005Y-112886121D01*
X157377596Y-112903148D01*
X157347656Y-112917309D01*
X157316471Y-112928467D01*
X157284343Y-112936515D01*
X157251581Y-112941375D01*
X157218500Y-112943000D01*
X156443500Y-112943000D01*
X156410419Y-112941375D01*
X156377657Y-112936515D01*
X156345529Y-112928467D01*
X156314344Y-112917309D01*
X156284404Y-112903148D01*
X156255995Y-112886121D01*
X156229392Y-112866391D01*
X156204851Y-112844149D01*
X156182609Y-112819608D01*
X156162879Y-112793005D01*
X156145852Y-112764596D01*
X156131691Y-112734656D01*
X156120533Y-112703471D01*
X156112485Y-112671343D01*
X156107625Y-112638581D01*
X156106000Y-112605500D01*
X156106000Y-111930500D01*
X156107625Y-111897419D01*
X156112485Y-111864657D01*
X156120533Y-111832529D01*
X156131691Y-111801344D01*
X156145852Y-111771404D01*
X156162879Y-111742995D01*
X156182609Y-111716392D01*
X156204851Y-111691851D01*
X156229392Y-111669609D01*
X156255995Y-111649879D01*
X156284404Y-111632852D01*
X156314344Y-111618691D01*
X156345529Y-111607533D01*
X156377657Y-111599485D01*
X156410419Y-111594625D01*
X156443500Y-111593000D01*
X157218500Y-111593000D01*
X157251581Y-111594625D01*
X157251581Y-111594625D01*
G37*
D15*
X156831000Y-112268000D03*
G04 #@! TD*
D14*
G04 #@! TO.C,R10*
G36*
X136705581Y-105498625D02*
X136738343Y-105503485D01*
X136770471Y-105511533D01*
X136801656Y-105522691D01*
X136831596Y-105536852D01*
X136860005Y-105553879D01*
X136886608Y-105573609D01*
X136911149Y-105595851D01*
X136933391Y-105620392D01*
X136953121Y-105646995D01*
X136970148Y-105675404D01*
X136984309Y-105705344D01*
X136995467Y-105736529D01*
X137003515Y-105768657D01*
X137008375Y-105801419D01*
X137010000Y-105834500D01*
X137010000Y-106509500D01*
X137008375Y-106542581D01*
X137003515Y-106575343D01*
X136995467Y-106607471D01*
X136984309Y-106638656D01*
X136970148Y-106668596D01*
X136953121Y-106697005D01*
X136933391Y-106723608D01*
X136911149Y-106748149D01*
X136886608Y-106770391D01*
X136860005Y-106790121D01*
X136831596Y-106807148D01*
X136801656Y-106821309D01*
X136770471Y-106832467D01*
X136738343Y-106840515D01*
X136705581Y-106845375D01*
X136672500Y-106847000D01*
X135897500Y-106847000D01*
X135864419Y-106845375D01*
X135831657Y-106840515D01*
X135799529Y-106832467D01*
X135768344Y-106821309D01*
X135738404Y-106807148D01*
X135709995Y-106790121D01*
X135683392Y-106770391D01*
X135658851Y-106748149D01*
X135636609Y-106723608D01*
X135616879Y-106697005D01*
X135599852Y-106668596D01*
X135585691Y-106638656D01*
X135574533Y-106607471D01*
X135566485Y-106575343D01*
X135561625Y-106542581D01*
X135560000Y-106509500D01*
X135560000Y-105834500D01*
X135561625Y-105801419D01*
X135566485Y-105768657D01*
X135574533Y-105736529D01*
X135585691Y-105705344D01*
X135599852Y-105675404D01*
X135616879Y-105646995D01*
X135636609Y-105620392D01*
X135658851Y-105595851D01*
X135683392Y-105573609D01*
X135709995Y-105553879D01*
X135738404Y-105536852D01*
X135768344Y-105522691D01*
X135799529Y-105511533D01*
X135831657Y-105503485D01*
X135864419Y-105498625D01*
X135897500Y-105497000D01*
X136672500Y-105497000D01*
X136705581Y-105498625D01*
X136705581Y-105498625D01*
G37*
D15*
X136285000Y-106172000D03*
D14*
G36*
X138455581Y-105498625D02*
X138488343Y-105503485D01*
X138520471Y-105511533D01*
X138551656Y-105522691D01*
X138581596Y-105536852D01*
X138610005Y-105553879D01*
X138636608Y-105573609D01*
X138661149Y-105595851D01*
X138683391Y-105620392D01*
X138703121Y-105646995D01*
X138720148Y-105675404D01*
X138734309Y-105705344D01*
X138745467Y-105736529D01*
X138753515Y-105768657D01*
X138758375Y-105801419D01*
X138760000Y-105834500D01*
X138760000Y-106509500D01*
X138758375Y-106542581D01*
X138753515Y-106575343D01*
X138745467Y-106607471D01*
X138734309Y-106638656D01*
X138720148Y-106668596D01*
X138703121Y-106697005D01*
X138683391Y-106723608D01*
X138661149Y-106748149D01*
X138636608Y-106770391D01*
X138610005Y-106790121D01*
X138581596Y-106807148D01*
X138551656Y-106821309D01*
X138520471Y-106832467D01*
X138488343Y-106840515D01*
X138455581Y-106845375D01*
X138422500Y-106847000D01*
X137647500Y-106847000D01*
X137614419Y-106845375D01*
X137581657Y-106840515D01*
X137549529Y-106832467D01*
X137518344Y-106821309D01*
X137488404Y-106807148D01*
X137459995Y-106790121D01*
X137433392Y-106770391D01*
X137408851Y-106748149D01*
X137386609Y-106723608D01*
X137366879Y-106697005D01*
X137349852Y-106668596D01*
X137335691Y-106638656D01*
X137324533Y-106607471D01*
X137316485Y-106575343D01*
X137311625Y-106542581D01*
X137310000Y-106509500D01*
X137310000Y-105834500D01*
X137311625Y-105801419D01*
X137316485Y-105768657D01*
X137324533Y-105736529D01*
X137335691Y-105705344D01*
X137349852Y-105675404D01*
X137366879Y-105646995D01*
X137386609Y-105620392D01*
X137408851Y-105595851D01*
X137433392Y-105573609D01*
X137459995Y-105553879D01*
X137488404Y-105536852D01*
X137518344Y-105522691D01*
X137549529Y-105511533D01*
X137581657Y-105503485D01*
X137614419Y-105498625D01*
X137647500Y-105497000D01*
X138422500Y-105497000D01*
X138455581Y-105498625D01*
X138455581Y-105498625D01*
G37*
D15*
X138035000Y-106172000D03*
G04 #@! TD*
D14*
G04 #@! TO.C,R11*
G36*
X177571581Y-81114625D02*
X177604343Y-81119485D01*
X177636471Y-81127533D01*
X177667656Y-81138691D01*
X177697596Y-81152852D01*
X177726005Y-81169879D01*
X177752608Y-81189609D01*
X177777149Y-81211851D01*
X177799391Y-81236392D01*
X177819121Y-81262995D01*
X177836148Y-81291404D01*
X177850309Y-81321344D01*
X177861467Y-81352529D01*
X177869515Y-81384657D01*
X177874375Y-81417419D01*
X177876000Y-81450500D01*
X177876000Y-82125500D01*
X177874375Y-82158581D01*
X177869515Y-82191343D01*
X177861467Y-82223471D01*
X177850309Y-82254656D01*
X177836148Y-82284596D01*
X177819121Y-82313005D01*
X177799391Y-82339608D01*
X177777149Y-82364149D01*
X177752608Y-82386391D01*
X177726005Y-82406121D01*
X177697596Y-82423148D01*
X177667656Y-82437309D01*
X177636471Y-82448467D01*
X177604343Y-82456515D01*
X177571581Y-82461375D01*
X177538500Y-82463000D01*
X176763500Y-82463000D01*
X176730419Y-82461375D01*
X176697657Y-82456515D01*
X176665529Y-82448467D01*
X176634344Y-82437309D01*
X176604404Y-82423148D01*
X176575995Y-82406121D01*
X176549392Y-82386391D01*
X176524851Y-82364149D01*
X176502609Y-82339608D01*
X176482879Y-82313005D01*
X176465852Y-82284596D01*
X176451691Y-82254656D01*
X176440533Y-82223471D01*
X176432485Y-82191343D01*
X176427625Y-82158581D01*
X176426000Y-82125500D01*
X176426000Y-81450500D01*
X176427625Y-81417419D01*
X176432485Y-81384657D01*
X176440533Y-81352529D01*
X176451691Y-81321344D01*
X176465852Y-81291404D01*
X176482879Y-81262995D01*
X176502609Y-81236392D01*
X176524851Y-81211851D01*
X176549392Y-81189609D01*
X176575995Y-81169879D01*
X176604404Y-81152852D01*
X176634344Y-81138691D01*
X176665529Y-81127533D01*
X176697657Y-81119485D01*
X176730419Y-81114625D01*
X176763500Y-81113000D01*
X177538500Y-81113000D01*
X177571581Y-81114625D01*
X177571581Y-81114625D01*
G37*
D15*
X177151000Y-81788000D03*
D14*
G36*
X175821581Y-81114625D02*
X175854343Y-81119485D01*
X175886471Y-81127533D01*
X175917656Y-81138691D01*
X175947596Y-81152852D01*
X175976005Y-81169879D01*
X176002608Y-81189609D01*
X176027149Y-81211851D01*
X176049391Y-81236392D01*
X176069121Y-81262995D01*
X176086148Y-81291404D01*
X176100309Y-81321344D01*
X176111467Y-81352529D01*
X176119515Y-81384657D01*
X176124375Y-81417419D01*
X176126000Y-81450500D01*
X176126000Y-82125500D01*
X176124375Y-82158581D01*
X176119515Y-82191343D01*
X176111467Y-82223471D01*
X176100309Y-82254656D01*
X176086148Y-82284596D01*
X176069121Y-82313005D01*
X176049391Y-82339608D01*
X176027149Y-82364149D01*
X176002608Y-82386391D01*
X175976005Y-82406121D01*
X175947596Y-82423148D01*
X175917656Y-82437309D01*
X175886471Y-82448467D01*
X175854343Y-82456515D01*
X175821581Y-82461375D01*
X175788500Y-82463000D01*
X175013500Y-82463000D01*
X174980419Y-82461375D01*
X174947657Y-82456515D01*
X174915529Y-82448467D01*
X174884344Y-82437309D01*
X174854404Y-82423148D01*
X174825995Y-82406121D01*
X174799392Y-82386391D01*
X174774851Y-82364149D01*
X174752609Y-82339608D01*
X174732879Y-82313005D01*
X174715852Y-82284596D01*
X174701691Y-82254656D01*
X174690533Y-82223471D01*
X174682485Y-82191343D01*
X174677625Y-82158581D01*
X174676000Y-82125500D01*
X174676000Y-81450500D01*
X174677625Y-81417419D01*
X174682485Y-81384657D01*
X174690533Y-81352529D01*
X174701691Y-81321344D01*
X174715852Y-81291404D01*
X174732879Y-81262995D01*
X174752609Y-81236392D01*
X174774851Y-81211851D01*
X174799392Y-81189609D01*
X174825995Y-81169879D01*
X174854404Y-81152852D01*
X174884344Y-81138691D01*
X174915529Y-81127533D01*
X174947657Y-81119485D01*
X174980419Y-81114625D01*
X175013500Y-81113000D01*
X175788500Y-81113000D01*
X175821581Y-81114625D01*
X175821581Y-81114625D01*
G37*
D15*
X175401000Y-81788000D03*
G04 #@! TD*
D14*
G04 #@! TO.C,R12*
G36*
X177571581Y-78320625D02*
X177604343Y-78325485D01*
X177636471Y-78333533D01*
X177667656Y-78344691D01*
X177697596Y-78358852D01*
X177726005Y-78375879D01*
X177752608Y-78395609D01*
X177777149Y-78417851D01*
X177799391Y-78442392D01*
X177819121Y-78468995D01*
X177836148Y-78497404D01*
X177850309Y-78527344D01*
X177861467Y-78558529D01*
X177869515Y-78590657D01*
X177874375Y-78623419D01*
X177876000Y-78656500D01*
X177876000Y-79331500D01*
X177874375Y-79364581D01*
X177869515Y-79397343D01*
X177861467Y-79429471D01*
X177850309Y-79460656D01*
X177836148Y-79490596D01*
X177819121Y-79519005D01*
X177799391Y-79545608D01*
X177777149Y-79570149D01*
X177752608Y-79592391D01*
X177726005Y-79612121D01*
X177697596Y-79629148D01*
X177667656Y-79643309D01*
X177636471Y-79654467D01*
X177604343Y-79662515D01*
X177571581Y-79667375D01*
X177538500Y-79669000D01*
X176763500Y-79669000D01*
X176730419Y-79667375D01*
X176697657Y-79662515D01*
X176665529Y-79654467D01*
X176634344Y-79643309D01*
X176604404Y-79629148D01*
X176575995Y-79612121D01*
X176549392Y-79592391D01*
X176524851Y-79570149D01*
X176502609Y-79545608D01*
X176482879Y-79519005D01*
X176465852Y-79490596D01*
X176451691Y-79460656D01*
X176440533Y-79429471D01*
X176432485Y-79397343D01*
X176427625Y-79364581D01*
X176426000Y-79331500D01*
X176426000Y-78656500D01*
X176427625Y-78623419D01*
X176432485Y-78590657D01*
X176440533Y-78558529D01*
X176451691Y-78527344D01*
X176465852Y-78497404D01*
X176482879Y-78468995D01*
X176502609Y-78442392D01*
X176524851Y-78417851D01*
X176549392Y-78395609D01*
X176575995Y-78375879D01*
X176604404Y-78358852D01*
X176634344Y-78344691D01*
X176665529Y-78333533D01*
X176697657Y-78325485D01*
X176730419Y-78320625D01*
X176763500Y-78319000D01*
X177538500Y-78319000D01*
X177571581Y-78320625D01*
X177571581Y-78320625D01*
G37*
D15*
X177151000Y-78994000D03*
D14*
G36*
X175821581Y-78320625D02*
X175854343Y-78325485D01*
X175886471Y-78333533D01*
X175917656Y-78344691D01*
X175947596Y-78358852D01*
X175976005Y-78375879D01*
X176002608Y-78395609D01*
X176027149Y-78417851D01*
X176049391Y-78442392D01*
X176069121Y-78468995D01*
X176086148Y-78497404D01*
X176100309Y-78527344D01*
X176111467Y-78558529D01*
X176119515Y-78590657D01*
X176124375Y-78623419D01*
X176126000Y-78656500D01*
X176126000Y-79331500D01*
X176124375Y-79364581D01*
X176119515Y-79397343D01*
X176111467Y-79429471D01*
X176100309Y-79460656D01*
X176086148Y-79490596D01*
X176069121Y-79519005D01*
X176049391Y-79545608D01*
X176027149Y-79570149D01*
X176002608Y-79592391D01*
X175976005Y-79612121D01*
X175947596Y-79629148D01*
X175917656Y-79643309D01*
X175886471Y-79654467D01*
X175854343Y-79662515D01*
X175821581Y-79667375D01*
X175788500Y-79669000D01*
X175013500Y-79669000D01*
X174980419Y-79667375D01*
X174947657Y-79662515D01*
X174915529Y-79654467D01*
X174884344Y-79643309D01*
X174854404Y-79629148D01*
X174825995Y-79612121D01*
X174799392Y-79592391D01*
X174774851Y-79570149D01*
X174752609Y-79545608D01*
X174732879Y-79519005D01*
X174715852Y-79490596D01*
X174701691Y-79460656D01*
X174690533Y-79429471D01*
X174682485Y-79397343D01*
X174677625Y-79364581D01*
X174676000Y-79331500D01*
X174676000Y-78656500D01*
X174677625Y-78623419D01*
X174682485Y-78590657D01*
X174690533Y-78558529D01*
X174701691Y-78527344D01*
X174715852Y-78497404D01*
X174732879Y-78468995D01*
X174752609Y-78442392D01*
X174774851Y-78417851D01*
X174799392Y-78395609D01*
X174825995Y-78375879D01*
X174854404Y-78358852D01*
X174884344Y-78344691D01*
X174915529Y-78333533D01*
X174947657Y-78325485D01*
X174980419Y-78320625D01*
X175013500Y-78319000D01*
X175788500Y-78319000D01*
X175821581Y-78320625D01*
X175821581Y-78320625D01*
G37*
D15*
X175401000Y-78994000D03*
G04 #@! TD*
D14*
G04 #@! TO.C,R13*
G36*
X117881581Y-62826625D02*
X117914343Y-62831485D01*
X117946471Y-62839533D01*
X117977656Y-62850691D01*
X118007596Y-62864852D01*
X118036005Y-62881879D01*
X118062608Y-62901609D01*
X118087149Y-62923851D01*
X118109391Y-62948392D01*
X118129121Y-62974995D01*
X118146148Y-63003404D01*
X118160309Y-63033344D01*
X118171467Y-63064529D01*
X118179515Y-63096657D01*
X118184375Y-63129419D01*
X118186000Y-63162500D01*
X118186000Y-63837500D01*
X118184375Y-63870581D01*
X118179515Y-63903343D01*
X118171467Y-63935471D01*
X118160309Y-63966656D01*
X118146148Y-63996596D01*
X118129121Y-64025005D01*
X118109391Y-64051608D01*
X118087149Y-64076149D01*
X118062608Y-64098391D01*
X118036005Y-64118121D01*
X118007596Y-64135148D01*
X117977656Y-64149309D01*
X117946471Y-64160467D01*
X117914343Y-64168515D01*
X117881581Y-64173375D01*
X117848500Y-64175000D01*
X117073500Y-64175000D01*
X117040419Y-64173375D01*
X117007657Y-64168515D01*
X116975529Y-64160467D01*
X116944344Y-64149309D01*
X116914404Y-64135148D01*
X116885995Y-64118121D01*
X116859392Y-64098391D01*
X116834851Y-64076149D01*
X116812609Y-64051608D01*
X116792879Y-64025005D01*
X116775852Y-63996596D01*
X116761691Y-63966656D01*
X116750533Y-63935471D01*
X116742485Y-63903343D01*
X116737625Y-63870581D01*
X116736000Y-63837500D01*
X116736000Y-63162500D01*
X116737625Y-63129419D01*
X116742485Y-63096657D01*
X116750533Y-63064529D01*
X116761691Y-63033344D01*
X116775852Y-63003404D01*
X116792879Y-62974995D01*
X116812609Y-62948392D01*
X116834851Y-62923851D01*
X116859392Y-62901609D01*
X116885995Y-62881879D01*
X116914404Y-62864852D01*
X116944344Y-62850691D01*
X116975529Y-62839533D01*
X117007657Y-62831485D01*
X117040419Y-62826625D01*
X117073500Y-62825000D01*
X117848500Y-62825000D01*
X117881581Y-62826625D01*
X117881581Y-62826625D01*
G37*
D15*
X117461000Y-63500000D03*
D14*
G36*
X116131581Y-62826625D02*
X116164343Y-62831485D01*
X116196471Y-62839533D01*
X116227656Y-62850691D01*
X116257596Y-62864852D01*
X116286005Y-62881879D01*
X116312608Y-62901609D01*
X116337149Y-62923851D01*
X116359391Y-62948392D01*
X116379121Y-62974995D01*
X116396148Y-63003404D01*
X116410309Y-63033344D01*
X116421467Y-63064529D01*
X116429515Y-63096657D01*
X116434375Y-63129419D01*
X116436000Y-63162500D01*
X116436000Y-63837500D01*
X116434375Y-63870581D01*
X116429515Y-63903343D01*
X116421467Y-63935471D01*
X116410309Y-63966656D01*
X116396148Y-63996596D01*
X116379121Y-64025005D01*
X116359391Y-64051608D01*
X116337149Y-64076149D01*
X116312608Y-64098391D01*
X116286005Y-64118121D01*
X116257596Y-64135148D01*
X116227656Y-64149309D01*
X116196471Y-64160467D01*
X116164343Y-64168515D01*
X116131581Y-64173375D01*
X116098500Y-64175000D01*
X115323500Y-64175000D01*
X115290419Y-64173375D01*
X115257657Y-64168515D01*
X115225529Y-64160467D01*
X115194344Y-64149309D01*
X115164404Y-64135148D01*
X115135995Y-64118121D01*
X115109392Y-64098391D01*
X115084851Y-64076149D01*
X115062609Y-64051608D01*
X115042879Y-64025005D01*
X115025852Y-63996596D01*
X115011691Y-63966656D01*
X115000533Y-63935471D01*
X114992485Y-63903343D01*
X114987625Y-63870581D01*
X114986000Y-63837500D01*
X114986000Y-63162500D01*
X114987625Y-63129419D01*
X114992485Y-63096657D01*
X115000533Y-63064529D01*
X115011691Y-63033344D01*
X115025852Y-63003404D01*
X115042879Y-62974995D01*
X115062609Y-62948392D01*
X115084851Y-62923851D01*
X115109392Y-62901609D01*
X115135995Y-62881879D01*
X115164404Y-62864852D01*
X115194344Y-62850691D01*
X115225529Y-62839533D01*
X115257657Y-62831485D01*
X115290419Y-62826625D01*
X115323500Y-62825000D01*
X116098500Y-62825000D01*
X116131581Y-62826625D01*
X116131581Y-62826625D01*
G37*
D15*
X115711000Y-63500000D03*
G04 #@! TD*
D14*
G04 #@! TO.C,R14*
G36*
X185219581Y-62826625D02*
X185252343Y-62831485D01*
X185284471Y-62839533D01*
X185315656Y-62850691D01*
X185345596Y-62864852D01*
X185374005Y-62881879D01*
X185400608Y-62901609D01*
X185425149Y-62923851D01*
X185447391Y-62948392D01*
X185467121Y-62974995D01*
X185484148Y-63003404D01*
X185498309Y-63033344D01*
X185509467Y-63064529D01*
X185517515Y-63096657D01*
X185522375Y-63129419D01*
X185524000Y-63162500D01*
X185524000Y-63837500D01*
X185522375Y-63870581D01*
X185517515Y-63903343D01*
X185509467Y-63935471D01*
X185498309Y-63966656D01*
X185484148Y-63996596D01*
X185467121Y-64025005D01*
X185447391Y-64051608D01*
X185425149Y-64076149D01*
X185400608Y-64098391D01*
X185374005Y-64118121D01*
X185345596Y-64135148D01*
X185315656Y-64149309D01*
X185284471Y-64160467D01*
X185252343Y-64168515D01*
X185219581Y-64173375D01*
X185186500Y-64175000D01*
X184411500Y-64175000D01*
X184378419Y-64173375D01*
X184345657Y-64168515D01*
X184313529Y-64160467D01*
X184282344Y-64149309D01*
X184252404Y-64135148D01*
X184223995Y-64118121D01*
X184197392Y-64098391D01*
X184172851Y-64076149D01*
X184150609Y-64051608D01*
X184130879Y-64025005D01*
X184113852Y-63996596D01*
X184099691Y-63966656D01*
X184088533Y-63935471D01*
X184080485Y-63903343D01*
X184075625Y-63870581D01*
X184074000Y-63837500D01*
X184074000Y-63162500D01*
X184075625Y-63129419D01*
X184080485Y-63096657D01*
X184088533Y-63064529D01*
X184099691Y-63033344D01*
X184113852Y-63003404D01*
X184130879Y-62974995D01*
X184150609Y-62948392D01*
X184172851Y-62923851D01*
X184197392Y-62901609D01*
X184223995Y-62881879D01*
X184252404Y-62864852D01*
X184282344Y-62850691D01*
X184313529Y-62839533D01*
X184345657Y-62831485D01*
X184378419Y-62826625D01*
X184411500Y-62825000D01*
X185186500Y-62825000D01*
X185219581Y-62826625D01*
X185219581Y-62826625D01*
G37*
D15*
X184799000Y-63500000D03*
D14*
G36*
X186969581Y-62826625D02*
X187002343Y-62831485D01*
X187034471Y-62839533D01*
X187065656Y-62850691D01*
X187095596Y-62864852D01*
X187124005Y-62881879D01*
X187150608Y-62901609D01*
X187175149Y-62923851D01*
X187197391Y-62948392D01*
X187217121Y-62974995D01*
X187234148Y-63003404D01*
X187248309Y-63033344D01*
X187259467Y-63064529D01*
X187267515Y-63096657D01*
X187272375Y-63129419D01*
X187274000Y-63162500D01*
X187274000Y-63837500D01*
X187272375Y-63870581D01*
X187267515Y-63903343D01*
X187259467Y-63935471D01*
X187248309Y-63966656D01*
X187234148Y-63996596D01*
X187217121Y-64025005D01*
X187197391Y-64051608D01*
X187175149Y-64076149D01*
X187150608Y-64098391D01*
X187124005Y-64118121D01*
X187095596Y-64135148D01*
X187065656Y-64149309D01*
X187034471Y-64160467D01*
X187002343Y-64168515D01*
X186969581Y-64173375D01*
X186936500Y-64175000D01*
X186161500Y-64175000D01*
X186128419Y-64173375D01*
X186095657Y-64168515D01*
X186063529Y-64160467D01*
X186032344Y-64149309D01*
X186002404Y-64135148D01*
X185973995Y-64118121D01*
X185947392Y-64098391D01*
X185922851Y-64076149D01*
X185900609Y-64051608D01*
X185880879Y-64025005D01*
X185863852Y-63996596D01*
X185849691Y-63966656D01*
X185838533Y-63935471D01*
X185830485Y-63903343D01*
X185825625Y-63870581D01*
X185824000Y-63837500D01*
X185824000Y-63162500D01*
X185825625Y-63129419D01*
X185830485Y-63096657D01*
X185838533Y-63064529D01*
X185849691Y-63033344D01*
X185863852Y-63003404D01*
X185880879Y-62974995D01*
X185900609Y-62948392D01*
X185922851Y-62923851D01*
X185947392Y-62901609D01*
X185973995Y-62881879D01*
X186002404Y-62864852D01*
X186032344Y-62850691D01*
X186063529Y-62839533D01*
X186095657Y-62831485D01*
X186128419Y-62826625D01*
X186161500Y-62825000D01*
X186936500Y-62825000D01*
X186969581Y-62826625D01*
X186969581Y-62826625D01*
G37*
D15*
X186549000Y-63500000D03*
G04 #@! TD*
D14*
G04 #@! TO.C,R16*
G36*
X150139581Y-49872625D02*
X150172343Y-49877485D01*
X150204471Y-49885533D01*
X150235656Y-49896691D01*
X150265596Y-49910852D01*
X150294005Y-49927879D01*
X150320608Y-49947609D01*
X150345149Y-49969851D01*
X150367391Y-49994392D01*
X150387121Y-50020995D01*
X150404148Y-50049404D01*
X150418309Y-50079344D01*
X150429467Y-50110529D01*
X150437515Y-50142657D01*
X150442375Y-50175419D01*
X150444000Y-50208500D01*
X150444000Y-50883500D01*
X150442375Y-50916581D01*
X150437515Y-50949343D01*
X150429467Y-50981471D01*
X150418309Y-51012656D01*
X150404148Y-51042596D01*
X150387121Y-51071005D01*
X150367391Y-51097608D01*
X150345149Y-51122149D01*
X150320608Y-51144391D01*
X150294005Y-51164121D01*
X150265596Y-51181148D01*
X150235656Y-51195309D01*
X150204471Y-51206467D01*
X150172343Y-51214515D01*
X150139581Y-51219375D01*
X150106500Y-51221000D01*
X149331500Y-51221000D01*
X149298419Y-51219375D01*
X149265657Y-51214515D01*
X149233529Y-51206467D01*
X149202344Y-51195309D01*
X149172404Y-51181148D01*
X149143995Y-51164121D01*
X149117392Y-51144391D01*
X149092851Y-51122149D01*
X149070609Y-51097608D01*
X149050879Y-51071005D01*
X149033852Y-51042596D01*
X149019691Y-51012656D01*
X149008533Y-50981471D01*
X149000485Y-50949343D01*
X148995625Y-50916581D01*
X148994000Y-50883500D01*
X148994000Y-50208500D01*
X148995625Y-50175419D01*
X149000485Y-50142657D01*
X149008533Y-50110529D01*
X149019691Y-50079344D01*
X149033852Y-50049404D01*
X149050879Y-50020995D01*
X149070609Y-49994392D01*
X149092851Y-49969851D01*
X149117392Y-49947609D01*
X149143995Y-49927879D01*
X149172404Y-49910852D01*
X149202344Y-49896691D01*
X149233529Y-49885533D01*
X149265657Y-49877485D01*
X149298419Y-49872625D01*
X149331500Y-49871000D01*
X150106500Y-49871000D01*
X150139581Y-49872625D01*
X150139581Y-49872625D01*
G37*
D15*
X149719000Y-50546000D03*
D14*
G36*
X148389581Y-49872625D02*
X148422343Y-49877485D01*
X148454471Y-49885533D01*
X148485656Y-49896691D01*
X148515596Y-49910852D01*
X148544005Y-49927879D01*
X148570608Y-49947609D01*
X148595149Y-49969851D01*
X148617391Y-49994392D01*
X148637121Y-50020995D01*
X148654148Y-50049404D01*
X148668309Y-50079344D01*
X148679467Y-50110529D01*
X148687515Y-50142657D01*
X148692375Y-50175419D01*
X148694000Y-50208500D01*
X148694000Y-50883500D01*
X148692375Y-50916581D01*
X148687515Y-50949343D01*
X148679467Y-50981471D01*
X148668309Y-51012656D01*
X148654148Y-51042596D01*
X148637121Y-51071005D01*
X148617391Y-51097608D01*
X148595149Y-51122149D01*
X148570608Y-51144391D01*
X148544005Y-51164121D01*
X148515596Y-51181148D01*
X148485656Y-51195309D01*
X148454471Y-51206467D01*
X148422343Y-51214515D01*
X148389581Y-51219375D01*
X148356500Y-51221000D01*
X147581500Y-51221000D01*
X147548419Y-51219375D01*
X147515657Y-51214515D01*
X147483529Y-51206467D01*
X147452344Y-51195309D01*
X147422404Y-51181148D01*
X147393995Y-51164121D01*
X147367392Y-51144391D01*
X147342851Y-51122149D01*
X147320609Y-51097608D01*
X147300879Y-51071005D01*
X147283852Y-51042596D01*
X147269691Y-51012656D01*
X147258533Y-50981471D01*
X147250485Y-50949343D01*
X147245625Y-50916581D01*
X147244000Y-50883500D01*
X147244000Y-50208500D01*
X147245625Y-50175419D01*
X147250485Y-50142657D01*
X147258533Y-50110529D01*
X147269691Y-50079344D01*
X147283852Y-50049404D01*
X147300879Y-50020995D01*
X147320609Y-49994392D01*
X147342851Y-49969851D01*
X147367392Y-49947609D01*
X147393995Y-49927879D01*
X147422404Y-49910852D01*
X147452344Y-49896691D01*
X147483529Y-49885533D01*
X147515657Y-49877485D01*
X147548419Y-49872625D01*
X147581500Y-49871000D01*
X148356500Y-49871000D01*
X148389581Y-49872625D01*
X148389581Y-49872625D01*
G37*
D15*
X147969000Y-50546000D03*
G04 #@! TD*
D14*
G04 #@! TO.C,R17*
G36*
X144071581Y-110832625D02*
X144104343Y-110837485D01*
X144136471Y-110845533D01*
X144167656Y-110856691D01*
X144197596Y-110870852D01*
X144226005Y-110887879D01*
X144252608Y-110907609D01*
X144277149Y-110929851D01*
X144299391Y-110954392D01*
X144319121Y-110980995D01*
X144336148Y-111009404D01*
X144350309Y-111039344D01*
X144361467Y-111070529D01*
X144369515Y-111102657D01*
X144374375Y-111135419D01*
X144376000Y-111168500D01*
X144376000Y-111843500D01*
X144374375Y-111876581D01*
X144369515Y-111909343D01*
X144361467Y-111941471D01*
X144350309Y-111972656D01*
X144336148Y-112002596D01*
X144319121Y-112031005D01*
X144299391Y-112057608D01*
X144277149Y-112082149D01*
X144252608Y-112104391D01*
X144226005Y-112124121D01*
X144197596Y-112141148D01*
X144167656Y-112155309D01*
X144136471Y-112166467D01*
X144104343Y-112174515D01*
X144071581Y-112179375D01*
X144038500Y-112181000D01*
X143263500Y-112181000D01*
X143230419Y-112179375D01*
X143197657Y-112174515D01*
X143165529Y-112166467D01*
X143134344Y-112155309D01*
X143104404Y-112141148D01*
X143075995Y-112124121D01*
X143049392Y-112104391D01*
X143024851Y-112082149D01*
X143002609Y-112057608D01*
X142982879Y-112031005D01*
X142965852Y-112002596D01*
X142951691Y-111972656D01*
X142940533Y-111941471D01*
X142932485Y-111909343D01*
X142927625Y-111876581D01*
X142926000Y-111843500D01*
X142926000Y-111168500D01*
X142927625Y-111135419D01*
X142932485Y-111102657D01*
X142940533Y-111070529D01*
X142951691Y-111039344D01*
X142965852Y-111009404D01*
X142982879Y-110980995D01*
X143002609Y-110954392D01*
X143024851Y-110929851D01*
X143049392Y-110907609D01*
X143075995Y-110887879D01*
X143104404Y-110870852D01*
X143134344Y-110856691D01*
X143165529Y-110845533D01*
X143197657Y-110837485D01*
X143230419Y-110832625D01*
X143263500Y-110831000D01*
X144038500Y-110831000D01*
X144071581Y-110832625D01*
X144071581Y-110832625D01*
G37*
D15*
X143651000Y-111506000D03*
D14*
G36*
X145821581Y-110832625D02*
X145854343Y-110837485D01*
X145886471Y-110845533D01*
X145917656Y-110856691D01*
X145947596Y-110870852D01*
X145976005Y-110887879D01*
X146002608Y-110907609D01*
X146027149Y-110929851D01*
X146049391Y-110954392D01*
X146069121Y-110980995D01*
X146086148Y-111009404D01*
X146100309Y-111039344D01*
X146111467Y-111070529D01*
X146119515Y-111102657D01*
X146124375Y-111135419D01*
X146126000Y-111168500D01*
X146126000Y-111843500D01*
X146124375Y-111876581D01*
X146119515Y-111909343D01*
X146111467Y-111941471D01*
X146100309Y-111972656D01*
X146086148Y-112002596D01*
X146069121Y-112031005D01*
X146049391Y-112057608D01*
X146027149Y-112082149D01*
X146002608Y-112104391D01*
X145976005Y-112124121D01*
X145947596Y-112141148D01*
X145917656Y-112155309D01*
X145886471Y-112166467D01*
X145854343Y-112174515D01*
X145821581Y-112179375D01*
X145788500Y-112181000D01*
X145013500Y-112181000D01*
X144980419Y-112179375D01*
X144947657Y-112174515D01*
X144915529Y-112166467D01*
X144884344Y-112155309D01*
X144854404Y-112141148D01*
X144825995Y-112124121D01*
X144799392Y-112104391D01*
X144774851Y-112082149D01*
X144752609Y-112057608D01*
X144732879Y-112031005D01*
X144715852Y-112002596D01*
X144701691Y-111972656D01*
X144690533Y-111941471D01*
X144682485Y-111909343D01*
X144677625Y-111876581D01*
X144676000Y-111843500D01*
X144676000Y-111168500D01*
X144677625Y-111135419D01*
X144682485Y-111102657D01*
X144690533Y-111070529D01*
X144701691Y-111039344D01*
X144715852Y-111009404D01*
X144732879Y-110980995D01*
X144752609Y-110954392D01*
X144774851Y-110929851D01*
X144799392Y-110907609D01*
X144825995Y-110887879D01*
X144854404Y-110870852D01*
X144884344Y-110856691D01*
X144915529Y-110845533D01*
X144947657Y-110837485D01*
X144980419Y-110832625D01*
X145013500Y-110831000D01*
X145788500Y-110831000D01*
X145821581Y-110832625D01*
X145821581Y-110832625D01*
G37*
D15*
X145401000Y-111506000D03*
G04 #@! TD*
D14*
G04 #@! TO.C,R18*
G36*
X137693581Y-110832625D02*
X137726343Y-110837485D01*
X137758471Y-110845533D01*
X137789656Y-110856691D01*
X137819596Y-110870852D01*
X137848005Y-110887879D01*
X137874608Y-110907609D01*
X137899149Y-110929851D01*
X137921391Y-110954392D01*
X137941121Y-110980995D01*
X137958148Y-111009404D01*
X137972309Y-111039344D01*
X137983467Y-111070529D01*
X137991515Y-111102657D01*
X137996375Y-111135419D01*
X137998000Y-111168500D01*
X137998000Y-111843500D01*
X137996375Y-111876581D01*
X137991515Y-111909343D01*
X137983467Y-111941471D01*
X137972309Y-111972656D01*
X137958148Y-112002596D01*
X137941121Y-112031005D01*
X137921391Y-112057608D01*
X137899149Y-112082149D01*
X137874608Y-112104391D01*
X137848005Y-112124121D01*
X137819596Y-112141148D01*
X137789656Y-112155309D01*
X137758471Y-112166467D01*
X137726343Y-112174515D01*
X137693581Y-112179375D01*
X137660500Y-112181000D01*
X136885500Y-112181000D01*
X136852419Y-112179375D01*
X136819657Y-112174515D01*
X136787529Y-112166467D01*
X136756344Y-112155309D01*
X136726404Y-112141148D01*
X136697995Y-112124121D01*
X136671392Y-112104391D01*
X136646851Y-112082149D01*
X136624609Y-112057608D01*
X136604879Y-112031005D01*
X136587852Y-112002596D01*
X136573691Y-111972656D01*
X136562533Y-111941471D01*
X136554485Y-111909343D01*
X136549625Y-111876581D01*
X136548000Y-111843500D01*
X136548000Y-111168500D01*
X136549625Y-111135419D01*
X136554485Y-111102657D01*
X136562533Y-111070529D01*
X136573691Y-111039344D01*
X136587852Y-111009404D01*
X136604879Y-110980995D01*
X136624609Y-110954392D01*
X136646851Y-110929851D01*
X136671392Y-110907609D01*
X136697995Y-110887879D01*
X136726404Y-110870852D01*
X136756344Y-110856691D01*
X136787529Y-110845533D01*
X136819657Y-110837485D01*
X136852419Y-110832625D01*
X136885500Y-110831000D01*
X137660500Y-110831000D01*
X137693581Y-110832625D01*
X137693581Y-110832625D01*
G37*
D15*
X137273000Y-111506000D03*
D14*
G36*
X135943581Y-110832625D02*
X135976343Y-110837485D01*
X136008471Y-110845533D01*
X136039656Y-110856691D01*
X136069596Y-110870852D01*
X136098005Y-110887879D01*
X136124608Y-110907609D01*
X136149149Y-110929851D01*
X136171391Y-110954392D01*
X136191121Y-110980995D01*
X136208148Y-111009404D01*
X136222309Y-111039344D01*
X136233467Y-111070529D01*
X136241515Y-111102657D01*
X136246375Y-111135419D01*
X136248000Y-111168500D01*
X136248000Y-111843500D01*
X136246375Y-111876581D01*
X136241515Y-111909343D01*
X136233467Y-111941471D01*
X136222309Y-111972656D01*
X136208148Y-112002596D01*
X136191121Y-112031005D01*
X136171391Y-112057608D01*
X136149149Y-112082149D01*
X136124608Y-112104391D01*
X136098005Y-112124121D01*
X136069596Y-112141148D01*
X136039656Y-112155309D01*
X136008471Y-112166467D01*
X135976343Y-112174515D01*
X135943581Y-112179375D01*
X135910500Y-112181000D01*
X135135500Y-112181000D01*
X135102419Y-112179375D01*
X135069657Y-112174515D01*
X135037529Y-112166467D01*
X135006344Y-112155309D01*
X134976404Y-112141148D01*
X134947995Y-112124121D01*
X134921392Y-112104391D01*
X134896851Y-112082149D01*
X134874609Y-112057608D01*
X134854879Y-112031005D01*
X134837852Y-112002596D01*
X134823691Y-111972656D01*
X134812533Y-111941471D01*
X134804485Y-111909343D01*
X134799625Y-111876581D01*
X134798000Y-111843500D01*
X134798000Y-111168500D01*
X134799625Y-111135419D01*
X134804485Y-111102657D01*
X134812533Y-111070529D01*
X134823691Y-111039344D01*
X134837852Y-111009404D01*
X134854879Y-110980995D01*
X134874609Y-110954392D01*
X134896851Y-110929851D01*
X134921392Y-110907609D01*
X134947995Y-110887879D01*
X134976404Y-110870852D01*
X135006344Y-110856691D01*
X135037529Y-110845533D01*
X135069657Y-110837485D01*
X135102419Y-110832625D01*
X135135500Y-110831000D01*
X135910500Y-110831000D01*
X135943581Y-110832625D01*
X135943581Y-110832625D01*
G37*
D15*
X135523000Y-111506000D03*
G04 #@! TD*
D14*
G04 #@! TO.C,R19*
G36*
X145150581Y-39648625D02*
X145183343Y-39653485D01*
X145215471Y-39661533D01*
X145246656Y-39672691D01*
X145276596Y-39686852D01*
X145305005Y-39703879D01*
X145331608Y-39723609D01*
X145356149Y-39745851D01*
X145378391Y-39770392D01*
X145398121Y-39796995D01*
X145415148Y-39825404D01*
X145429309Y-39855344D01*
X145440467Y-39886529D01*
X145448515Y-39918657D01*
X145453375Y-39951419D01*
X145455000Y-39984500D01*
X145455000Y-40759500D01*
X145453375Y-40792581D01*
X145448515Y-40825343D01*
X145440467Y-40857471D01*
X145429309Y-40888656D01*
X145415148Y-40918596D01*
X145398121Y-40947005D01*
X145378391Y-40973608D01*
X145356149Y-40998149D01*
X145331608Y-41020391D01*
X145305005Y-41040121D01*
X145276596Y-41057148D01*
X145246656Y-41071309D01*
X145215471Y-41082467D01*
X145183343Y-41090515D01*
X145150581Y-41095375D01*
X145117500Y-41097000D01*
X144442500Y-41097000D01*
X144409419Y-41095375D01*
X144376657Y-41090515D01*
X144344529Y-41082467D01*
X144313344Y-41071309D01*
X144283404Y-41057148D01*
X144254995Y-41040121D01*
X144228392Y-41020391D01*
X144203851Y-40998149D01*
X144181609Y-40973608D01*
X144161879Y-40947005D01*
X144144852Y-40918596D01*
X144130691Y-40888656D01*
X144119533Y-40857471D01*
X144111485Y-40825343D01*
X144106625Y-40792581D01*
X144105000Y-40759500D01*
X144105000Y-39984500D01*
X144106625Y-39951419D01*
X144111485Y-39918657D01*
X144119533Y-39886529D01*
X144130691Y-39855344D01*
X144144852Y-39825404D01*
X144161879Y-39796995D01*
X144181609Y-39770392D01*
X144203851Y-39745851D01*
X144228392Y-39723609D01*
X144254995Y-39703879D01*
X144283404Y-39686852D01*
X144313344Y-39672691D01*
X144344529Y-39661533D01*
X144376657Y-39653485D01*
X144409419Y-39648625D01*
X144442500Y-39647000D01*
X145117500Y-39647000D01*
X145150581Y-39648625D01*
X145150581Y-39648625D01*
G37*
D15*
X144780000Y-40372000D03*
D14*
G36*
X145150581Y-37898625D02*
X145183343Y-37903485D01*
X145215471Y-37911533D01*
X145246656Y-37922691D01*
X145276596Y-37936852D01*
X145305005Y-37953879D01*
X145331608Y-37973609D01*
X145356149Y-37995851D01*
X145378391Y-38020392D01*
X145398121Y-38046995D01*
X145415148Y-38075404D01*
X145429309Y-38105344D01*
X145440467Y-38136529D01*
X145448515Y-38168657D01*
X145453375Y-38201419D01*
X145455000Y-38234500D01*
X145455000Y-39009500D01*
X145453375Y-39042581D01*
X145448515Y-39075343D01*
X145440467Y-39107471D01*
X145429309Y-39138656D01*
X145415148Y-39168596D01*
X145398121Y-39197005D01*
X145378391Y-39223608D01*
X145356149Y-39248149D01*
X145331608Y-39270391D01*
X145305005Y-39290121D01*
X145276596Y-39307148D01*
X145246656Y-39321309D01*
X145215471Y-39332467D01*
X145183343Y-39340515D01*
X145150581Y-39345375D01*
X145117500Y-39347000D01*
X144442500Y-39347000D01*
X144409419Y-39345375D01*
X144376657Y-39340515D01*
X144344529Y-39332467D01*
X144313344Y-39321309D01*
X144283404Y-39307148D01*
X144254995Y-39290121D01*
X144228392Y-39270391D01*
X144203851Y-39248149D01*
X144181609Y-39223608D01*
X144161879Y-39197005D01*
X144144852Y-39168596D01*
X144130691Y-39138656D01*
X144119533Y-39107471D01*
X144111485Y-39075343D01*
X144106625Y-39042581D01*
X144105000Y-39009500D01*
X144105000Y-38234500D01*
X144106625Y-38201419D01*
X144111485Y-38168657D01*
X144119533Y-38136529D01*
X144130691Y-38105344D01*
X144144852Y-38075404D01*
X144161879Y-38046995D01*
X144181609Y-38020392D01*
X144203851Y-37995851D01*
X144228392Y-37973609D01*
X144254995Y-37953879D01*
X144283404Y-37936852D01*
X144313344Y-37922691D01*
X144344529Y-37911533D01*
X144376657Y-37903485D01*
X144409419Y-37898625D01*
X144442500Y-37897000D01*
X145117500Y-37897000D01*
X145150581Y-37898625D01*
X145150581Y-37898625D01*
G37*
D15*
X144780000Y-38622000D03*
G04 #@! TD*
D14*
G04 #@! TO.C,R20*
G36*
X145150581Y-43994625D02*
X145183343Y-43999485D01*
X145215471Y-44007533D01*
X145246656Y-44018691D01*
X145276596Y-44032852D01*
X145305005Y-44049879D01*
X145331608Y-44069609D01*
X145356149Y-44091851D01*
X145378391Y-44116392D01*
X145398121Y-44142995D01*
X145415148Y-44171404D01*
X145429309Y-44201344D01*
X145440467Y-44232529D01*
X145448515Y-44264657D01*
X145453375Y-44297419D01*
X145455000Y-44330500D01*
X145455000Y-45105500D01*
X145453375Y-45138581D01*
X145448515Y-45171343D01*
X145440467Y-45203471D01*
X145429309Y-45234656D01*
X145415148Y-45264596D01*
X145398121Y-45293005D01*
X145378391Y-45319608D01*
X145356149Y-45344149D01*
X145331608Y-45366391D01*
X145305005Y-45386121D01*
X145276596Y-45403148D01*
X145246656Y-45417309D01*
X145215471Y-45428467D01*
X145183343Y-45436515D01*
X145150581Y-45441375D01*
X145117500Y-45443000D01*
X144442500Y-45443000D01*
X144409419Y-45441375D01*
X144376657Y-45436515D01*
X144344529Y-45428467D01*
X144313344Y-45417309D01*
X144283404Y-45403148D01*
X144254995Y-45386121D01*
X144228392Y-45366391D01*
X144203851Y-45344149D01*
X144181609Y-45319608D01*
X144161879Y-45293005D01*
X144144852Y-45264596D01*
X144130691Y-45234656D01*
X144119533Y-45203471D01*
X144111485Y-45171343D01*
X144106625Y-45138581D01*
X144105000Y-45105500D01*
X144105000Y-44330500D01*
X144106625Y-44297419D01*
X144111485Y-44264657D01*
X144119533Y-44232529D01*
X144130691Y-44201344D01*
X144144852Y-44171404D01*
X144161879Y-44142995D01*
X144181609Y-44116392D01*
X144203851Y-44091851D01*
X144228392Y-44069609D01*
X144254995Y-44049879D01*
X144283404Y-44032852D01*
X144313344Y-44018691D01*
X144344529Y-44007533D01*
X144376657Y-43999485D01*
X144409419Y-43994625D01*
X144442500Y-43993000D01*
X145117500Y-43993000D01*
X145150581Y-43994625D01*
X145150581Y-43994625D01*
G37*
D15*
X144780000Y-44718000D03*
D14*
G36*
X145150581Y-45744625D02*
X145183343Y-45749485D01*
X145215471Y-45757533D01*
X145246656Y-45768691D01*
X145276596Y-45782852D01*
X145305005Y-45799879D01*
X145331608Y-45819609D01*
X145356149Y-45841851D01*
X145378391Y-45866392D01*
X145398121Y-45892995D01*
X145415148Y-45921404D01*
X145429309Y-45951344D01*
X145440467Y-45982529D01*
X145448515Y-46014657D01*
X145453375Y-46047419D01*
X145455000Y-46080500D01*
X145455000Y-46855500D01*
X145453375Y-46888581D01*
X145448515Y-46921343D01*
X145440467Y-46953471D01*
X145429309Y-46984656D01*
X145415148Y-47014596D01*
X145398121Y-47043005D01*
X145378391Y-47069608D01*
X145356149Y-47094149D01*
X145331608Y-47116391D01*
X145305005Y-47136121D01*
X145276596Y-47153148D01*
X145246656Y-47167309D01*
X145215471Y-47178467D01*
X145183343Y-47186515D01*
X145150581Y-47191375D01*
X145117500Y-47193000D01*
X144442500Y-47193000D01*
X144409419Y-47191375D01*
X144376657Y-47186515D01*
X144344529Y-47178467D01*
X144313344Y-47167309D01*
X144283404Y-47153148D01*
X144254995Y-47136121D01*
X144228392Y-47116391D01*
X144203851Y-47094149D01*
X144181609Y-47069608D01*
X144161879Y-47043005D01*
X144144852Y-47014596D01*
X144130691Y-46984656D01*
X144119533Y-46953471D01*
X144111485Y-46921343D01*
X144106625Y-46888581D01*
X144105000Y-46855500D01*
X144105000Y-46080500D01*
X144106625Y-46047419D01*
X144111485Y-46014657D01*
X144119533Y-45982529D01*
X144130691Y-45951344D01*
X144144852Y-45921404D01*
X144161879Y-45892995D01*
X144181609Y-45866392D01*
X144203851Y-45841851D01*
X144228392Y-45819609D01*
X144254995Y-45799879D01*
X144283404Y-45782852D01*
X144313344Y-45768691D01*
X144344529Y-45757533D01*
X144376657Y-45749485D01*
X144409419Y-45744625D01*
X144442500Y-45743000D01*
X145117500Y-45743000D01*
X145150581Y-45744625D01*
X145150581Y-45744625D01*
G37*
D15*
X144780000Y-46468000D03*
G04 #@! TD*
D14*
G04 #@! TO.C,R21*
G36*
X157850581Y-43994625D02*
X157883343Y-43999485D01*
X157915471Y-44007533D01*
X157946656Y-44018691D01*
X157976596Y-44032852D01*
X158005005Y-44049879D01*
X158031608Y-44069609D01*
X158056149Y-44091851D01*
X158078391Y-44116392D01*
X158098121Y-44142995D01*
X158115148Y-44171404D01*
X158129309Y-44201344D01*
X158140467Y-44232529D01*
X158148515Y-44264657D01*
X158153375Y-44297419D01*
X158155000Y-44330500D01*
X158155000Y-45105500D01*
X158153375Y-45138581D01*
X158148515Y-45171343D01*
X158140467Y-45203471D01*
X158129309Y-45234656D01*
X158115148Y-45264596D01*
X158098121Y-45293005D01*
X158078391Y-45319608D01*
X158056149Y-45344149D01*
X158031608Y-45366391D01*
X158005005Y-45386121D01*
X157976596Y-45403148D01*
X157946656Y-45417309D01*
X157915471Y-45428467D01*
X157883343Y-45436515D01*
X157850581Y-45441375D01*
X157817500Y-45443000D01*
X157142500Y-45443000D01*
X157109419Y-45441375D01*
X157076657Y-45436515D01*
X157044529Y-45428467D01*
X157013344Y-45417309D01*
X156983404Y-45403148D01*
X156954995Y-45386121D01*
X156928392Y-45366391D01*
X156903851Y-45344149D01*
X156881609Y-45319608D01*
X156861879Y-45293005D01*
X156844852Y-45264596D01*
X156830691Y-45234656D01*
X156819533Y-45203471D01*
X156811485Y-45171343D01*
X156806625Y-45138581D01*
X156805000Y-45105500D01*
X156805000Y-44330500D01*
X156806625Y-44297419D01*
X156811485Y-44264657D01*
X156819533Y-44232529D01*
X156830691Y-44201344D01*
X156844852Y-44171404D01*
X156861879Y-44142995D01*
X156881609Y-44116392D01*
X156903851Y-44091851D01*
X156928392Y-44069609D01*
X156954995Y-44049879D01*
X156983404Y-44032852D01*
X157013344Y-44018691D01*
X157044529Y-44007533D01*
X157076657Y-43999485D01*
X157109419Y-43994625D01*
X157142500Y-43993000D01*
X157817500Y-43993000D01*
X157850581Y-43994625D01*
X157850581Y-43994625D01*
G37*
D15*
X157480000Y-44718000D03*
D14*
G36*
X157850581Y-45744625D02*
X157883343Y-45749485D01*
X157915471Y-45757533D01*
X157946656Y-45768691D01*
X157976596Y-45782852D01*
X158005005Y-45799879D01*
X158031608Y-45819609D01*
X158056149Y-45841851D01*
X158078391Y-45866392D01*
X158098121Y-45892995D01*
X158115148Y-45921404D01*
X158129309Y-45951344D01*
X158140467Y-45982529D01*
X158148515Y-46014657D01*
X158153375Y-46047419D01*
X158155000Y-46080500D01*
X158155000Y-46855500D01*
X158153375Y-46888581D01*
X158148515Y-46921343D01*
X158140467Y-46953471D01*
X158129309Y-46984656D01*
X158115148Y-47014596D01*
X158098121Y-47043005D01*
X158078391Y-47069608D01*
X158056149Y-47094149D01*
X158031608Y-47116391D01*
X158005005Y-47136121D01*
X157976596Y-47153148D01*
X157946656Y-47167309D01*
X157915471Y-47178467D01*
X157883343Y-47186515D01*
X157850581Y-47191375D01*
X157817500Y-47193000D01*
X157142500Y-47193000D01*
X157109419Y-47191375D01*
X157076657Y-47186515D01*
X157044529Y-47178467D01*
X157013344Y-47167309D01*
X156983404Y-47153148D01*
X156954995Y-47136121D01*
X156928392Y-47116391D01*
X156903851Y-47094149D01*
X156881609Y-47069608D01*
X156861879Y-47043005D01*
X156844852Y-47014596D01*
X156830691Y-46984656D01*
X156819533Y-46953471D01*
X156811485Y-46921343D01*
X156806625Y-46888581D01*
X156805000Y-46855500D01*
X156805000Y-46080500D01*
X156806625Y-46047419D01*
X156811485Y-46014657D01*
X156819533Y-45982529D01*
X156830691Y-45951344D01*
X156844852Y-45921404D01*
X156861879Y-45892995D01*
X156881609Y-45866392D01*
X156903851Y-45841851D01*
X156928392Y-45819609D01*
X156954995Y-45799879D01*
X156983404Y-45782852D01*
X157013344Y-45768691D01*
X157044529Y-45757533D01*
X157076657Y-45749485D01*
X157109419Y-45744625D01*
X157142500Y-45743000D01*
X157817500Y-45743000D01*
X157850581Y-45744625D01*
X157850581Y-45744625D01*
G37*
D15*
X157480000Y-46468000D03*
G04 #@! TD*
D14*
G04 #@! TO.C,R22*
G36*
X188838581Y-66953625D02*
X188871343Y-66958485D01*
X188903471Y-66966533D01*
X188934656Y-66977691D01*
X188964596Y-66991852D01*
X188993005Y-67008879D01*
X189019608Y-67028609D01*
X189044149Y-67050851D01*
X189066391Y-67075392D01*
X189086121Y-67101995D01*
X189103148Y-67130404D01*
X189117309Y-67160344D01*
X189128467Y-67191529D01*
X189136515Y-67223657D01*
X189141375Y-67256419D01*
X189143000Y-67289500D01*
X189143000Y-68064500D01*
X189141375Y-68097581D01*
X189136515Y-68130343D01*
X189128467Y-68162471D01*
X189117309Y-68193656D01*
X189103148Y-68223596D01*
X189086121Y-68252005D01*
X189066391Y-68278608D01*
X189044149Y-68303149D01*
X189019608Y-68325391D01*
X188993005Y-68345121D01*
X188964596Y-68362148D01*
X188934656Y-68376309D01*
X188903471Y-68387467D01*
X188871343Y-68395515D01*
X188838581Y-68400375D01*
X188805500Y-68402000D01*
X188130500Y-68402000D01*
X188097419Y-68400375D01*
X188064657Y-68395515D01*
X188032529Y-68387467D01*
X188001344Y-68376309D01*
X187971404Y-68362148D01*
X187942995Y-68345121D01*
X187916392Y-68325391D01*
X187891851Y-68303149D01*
X187869609Y-68278608D01*
X187849879Y-68252005D01*
X187832852Y-68223596D01*
X187818691Y-68193656D01*
X187807533Y-68162471D01*
X187799485Y-68130343D01*
X187794625Y-68097581D01*
X187793000Y-68064500D01*
X187793000Y-67289500D01*
X187794625Y-67256419D01*
X187799485Y-67223657D01*
X187807533Y-67191529D01*
X187818691Y-67160344D01*
X187832852Y-67130404D01*
X187849879Y-67101995D01*
X187869609Y-67075392D01*
X187891851Y-67050851D01*
X187916392Y-67028609D01*
X187942995Y-67008879D01*
X187971404Y-66991852D01*
X188001344Y-66977691D01*
X188032529Y-66966533D01*
X188064657Y-66958485D01*
X188097419Y-66953625D01*
X188130500Y-66952000D01*
X188805500Y-66952000D01*
X188838581Y-66953625D01*
X188838581Y-66953625D01*
G37*
D15*
X188468000Y-67677000D03*
D14*
G36*
X188838581Y-65203625D02*
X188871343Y-65208485D01*
X188903471Y-65216533D01*
X188934656Y-65227691D01*
X188964596Y-65241852D01*
X188993005Y-65258879D01*
X189019608Y-65278609D01*
X189044149Y-65300851D01*
X189066391Y-65325392D01*
X189086121Y-65351995D01*
X189103148Y-65380404D01*
X189117309Y-65410344D01*
X189128467Y-65441529D01*
X189136515Y-65473657D01*
X189141375Y-65506419D01*
X189143000Y-65539500D01*
X189143000Y-66314500D01*
X189141375Y-66347581D01*
X189136515Y-66380343D01*
X189128467Y-66412471D01*
X189117309Y-66443656D01*
X189103148Y-66473596D01*
X189086121Y-66502005D01*
X189066391Y-66528608D01*
X189044149Y-66553149D01*
X189019608Y-66575391D01*
X188993005Y-66595121D01*
X188964596Y-66612148D01*
X188934656Y-66626309D01*
X188903471Y-66637467D01*
X188871343Y-66645515D01*
X188838581Y-66650375D01*
X188805500Y-66652000D01*
X188130500Y-66652000D01*
X188097419Y-66650375D01*
X188064657Y-66645515D01*
X188032529Y-66637467D01*
X188001344Y-66626309D01*
X187971404Y-66612148D01*
X187942995Y-66595121D01*
X187916392Y-66575391D01*
X187891851Y-66553149D01*
X187869609Y-66528608D01*
X187849879Y-66502005D01*
X187832852Y-66473596D01*
X187818691Y-66443656D01*
X187807533Y-66412471D01*
X187799485Y-66380343D01*
X187794625Y-66347581D01*
X187793000Y-66314500D01*
X187793000Y-65539500D01*
X187794625Y-65506419D01*
X187799485Y-65473657D01*
X187807533Y-65441529D01*
X187818691Y-65410344D01*
X187832852Y-65380404D01*
X187849879Y-65351995D01*
X187869609Y-65325392D01*
X187891851Y-65300851D01*
X187916392Y-65278609D01*
X187942995Y-65258879D01*
X187971404Y-65241852D01*
X188001344Y-65227691D01*
X188032529Y-65216533D01*
X188064657Y-65208485D01*
X188097419Y-65203625D01*
X188130500Y-65202000D01*
X188805500Y-65202000D01*
X188838581Y-65203625D01*
X188838581Y-65203625D01*
G37*
D15*
X188468000Y-65927000D03*
G04 #@! TD*
D14*
G04 #@! TO.C,R23*
G36*
X188838581Y-69013625D02*
X188871343Y-69018485D01*
X188903471Y-69026533D01*
X188934656Y-69037691D01*
X188964596Y-69051852D01*
X188993005Y-69068879D01*
X189019608Y-69088609D01*
X189044149Y-69110851D01*
X189066391Y-69135392D01*
X189086121Y-69161995D01*
X189103148Y-69190404D01*
X189117309Y-69220344D01*
X189128467Y-69251529D01*
X189136515Y-69283657D01*
X189141375Y-69316419D01*
X189143000Y-69349500D01*
X189143000Y-70124500D01*
X189141375Y-70157581D01*
X189136515Y-70190343D01*
X189128467Y-70222471D01*
X189117309Y-70253656D01*
X189103148Y-70283596D01*
X189086121Y-70312005D01*
X189066391Y-70338608D01*
X189044149Y-70363149D01*
X189019608Y-70385391D01*
X188993005Y-70405121D01*
X188964596Y-70422148D01*
X188934656Y-70436309D01*
X188903471Y-70447467D01*
X188871343Y-70455515D01*
X188838581Y-70460375D01*
X188805500Y-70462000D01*
X188130500Y-70462000D01*
X188097419Y-70460375D01*
X188064657Y-70455515D01*
X188032529Y-70447467D01*
X188001344Y-70436309D01*
X187971404Y-70422148D01*
X187942995Y-70405121D01*
X187916392Y-70385391D01*
X187891851Y-70363149D01*
X187869609Y-70338608D01*
X187849879Y-70312005D01*
X187832852Y-70283596D01*
X187818691Y-70253656D01*
X187807533Y-70222471D01*
X187799485Y-70190343D01*
X187794625Y-70157581D01*
X187793000Y-70124500D01*
X187793000Y-69349500D01*
X187794625Y-69316419D01*
X187799485Y-69283657D01*
X187807533Y-69251529D01*
X187818691Y-69220344D01*
X187832852Y-69190404D01*
X187849879Y-69161995D01*
X187869609Y-69135392D01*
X187891851Y-69110851D01*
X187916392Y-69088609D01*
X187942995Y-69068879D01*
X187971404Y-69051852D01*
X188001344Y-69037691D01*
X188032529Y-69026533D01*
X188064657Y-69018485D01*
X188097419Y-69013625D01*
X188130500Y-69012000D01*
X188805500Y-69012000D01*
X188838581Y-69013625D01*
X188838581Y-69013625D01*
G37*
D15*
X188468000Y-69737000D03*
D14*
G36*
X188838581Y-70763625D02*
X188871343Y-70768485D01*
X188903471Y-70776533D01*
X188934656Y-70787691D01*
X188964596Y-70801852D01*
X188993005Y-70818879D01*
X189019608Y-70838609D01*
X189044149Y-70860851D01*
X189066391Y-70885392D01*
X189086121Y-70911995D01*
X189103148Y-70940404D01*
X189117309Y-70970344D01*
X189128467Y-71001529D01*
X189136515Y-71033657D01*
X189141375Y-71066419D01*
X189143000Y-71099500D01*
X189143000Y-71874500D01*
X189141375Y-71907581D01*
X189136515Y-71940343D01*
X189128467Y-71972471D01*
X189117309Y-72003656D01*
X189103148Y-72033596D01*
X189086121Y-72062005D01*
X189066391Y-72088608D01*
X189044149Y-72113149D01*
X189019608Y-72135391D01*
X188993005Y-72155121D01*
X188964596Y-72172148D01*
X188934656Y-72186309D01*
X188903471Y-72197467D01*
X188871343Y-72205515D01*
X188838581Y-72210375D01*
X188805500Y-72212000D01*
X188130500Y-72212000D01*
X188097419Y-72210375D01*
X188064657Y-72205515D01*
X188032529Y-72197467D01*
X188001344Y-72186309D01*
X187971404Y-72172148D01*
X187942995Y-72155121D01*
X187916392Y-72135391D01*
X187891851Y-72113149D01*
X187869609Y-72088608D01*
X187849879Y-72062005D01*
X187832852Y-72033596D01*
X187818691Y-72003656D01*
X187807533Y-71972471D01*
X187799485Y-71940343D01*
X187794625Y-71907581D01*
X187793000Y-71874500D01*
X187793000Y-71099500D01*
X187794625Y-71066419D01*
X187799485Y-71033657D01*
X187807533Y-71001529D01*
X187818691Y-70970344D01*
X187832852Y-70940404D01*
X187849879Y-70911995D01*
X187869609Y-70885392D01*
X187891851Y-70860851D01*
X187916392Y-70838609D01*
X187942995Y-70818879D01*
X187971404Y-70801852D01*
X188001344Y-70787691D01*
X188032529Y-70776533D01*
X188064657Y-70768485D01*
X188097419Y-70763625D01*
X188130500Y-70762000D01*
X188805500Y-70762000D01*
X188838581Y-70763625D01*
X188838581Y-70763625D01*
G37*
D15*
X188468000Y-71487000D03*
G04 #@! TD*
D14*
G04 #@! TO.C,R24*
G36*
X157596581Y-39648625D02*
X157629343Y-39653485D01*
X157661471Y-39661533D01*
X157692656Y-39672691D01*
X157722596Y-39686852D01*
X157751005Y-39703879D01*
X157777608Y-39723609D01*
X157802149Y-39745851D01*
X157824391Y-39770392D01*
X157844121Y-39796995D01*
X157861148Y-39825404D01*
X157875309Y-39855344D01*
X157886467Y-39886529D01*
X157894515Y-39918657D01*
X157899375Y-39951419D01*
X157901000Y-39984500D01*
X157901000Y-40759500D01*
X157899375Y-40792581D01*
X157894515Y-40825343D01*
X157886467Y-40857471D01*
X157875309Y-40888656D01*
X157861148Y-40918596D01*
X157844121Y-40947005D01*
X157824391Y-40973608D01*
X157802149Y-40998149D01*
X157777608Y-41020391D01*
X157751005Y-41040121D01*
X157722596Y-41057148D01*
X157692656Y-41071309D01*
X157661471Y-41082467D01*
X157629343Y-41090515D01*
X157596581Y-41095375D01*
X157563500Y-41097000D01*
X156888500Y-41097000D01*
X156855419Y-41095375D01*
X156822657Y-41090515D01*
X156790529Y-41082467D01*
X156759344Y-41071309D01*
X156729404Y-41057148D01*
X156700995Y-41040121D01*
X156674392Y-41020391D01*
X156649851Y-40998149D01*
X156627609Y-40973608D01*
X156607879Y-40947005D01*
X156590852Y-40918596D01*
X156576691Y-40888656D01*
X156565533Y-40857471D01*
X156557485Y-40825343D01*
X156552625Y-40792581D01*
X156551000Y-40759500D01*
X156551000Y-39984500D01*
X156552625Y-39951419D01*
X156557485Y-39918657D01*
X156565533Y-39886529D01*
X156576691Y-39855344D01*
X156590852Y-39825404D01*
X156607879Y-39796995D01*
X156627609Y-39770392D01*
X156649851Y-39745851D01*
X156674392Y-39723609D01*
X156700995Y-39703879D01*
X156729404Y-39686852D01*
X156759344Y-39672691D01*
X156790529Y-39661533D01*
X156822657Y-39653485D01*
X156855419Y-39648625D01*
X156888500Y-39647000D01*
X157563500Y-39647000D01*
X157596581Y-39648625D01*
X157596581Y-39648625D01*
G37*
D15*
X157226000Y-40372000D03*
D14*
G36*
X157596581Y-37898625D02*
X157629343Y-37903485D01*
X157661471Y-37911533D01*
X157692656Y-37922691D01*
X157722596Y-37936852D01*
X157751005Y-37953879D01*
X157777608Y-37973609D01*
X157802149Y-37995851D01*
X157824391Y-38020392D01*
X157844121Y-38046995D01*
X157861148Y-38075404D01*
X157875309Y-38105344D01*
X157886467Y-38136529D01*
X157894515Y-38168657D01*
X157899375Y-38201419D01*
X157901000Y-38234500D01*
X157901000Y-39009500D01*
X157899375Y-39042581D01*
X157894515Y-39075343D01*
X157886467Y-39107471D01*
X157875309Y-39138656D01*
X157861148Y-39168596D01*
X157844121Y-39197005D01*
X157824391Y-39223608D01*
X157802149Y-39248149D01*
X157777608Y-39270391D01*
X157751005Y-39290121D01*
X157722596Y-39307148D01*
X157692656Y-39321309D01*
X157661471Y-39332467D01*
X157629343Y-39340515D01*
X157596581Y-39345375D01*
X157563500Y-39347000D01*
X156888500Y-39347000D01*
X156855419Y-39345375D01*
X156822657Y-39340515D01*
X156790529Y-39332467D01*
X156759344Y-39321309D01*
X156729404Y-39307148D01*
X156700995Y-39290121D01*
X156674392Y-39270391D01*
X156649851Y-39248149D01*
X156627609Y-39223608D01*
X156607879Y-39197005D01*
X156590852Y-39168596D01*
X156576691Y-39138656D01*
X156565533Y-39107471D01*
X156557485Y-39075343D01*
X156552625Y-39042581D01*
X156551000Y-39009500D01*
X156551000Y-38234500D01*
X156552625Y-38201419D01*
X156557485Y-38168657D01*
X156565533Y-38136529D01*
X156576691Y-38105344D01*
X156590852Y-38075404D01*
X156607879Y-38046995D01*
X156627609Y-38020392D01*
X156649851Y-37995851D01*
X156674392Y-37973609D01*
X156700995Y-37953879D01*
X156729404Y-37936852D01*
X156759344Y-37922691D01*
X156790529Y-37911533D01*
X156822657Y-37903485D01*
X156855419Y-37898625D01*
X156888500Y-37897000D01*
X157563500Y-37897000D01*
X157596581Y-37898625D01*
X157596581Y-37898625D01*
G37*
D15*
X157226000Y-38622000D03*
G04 #@! TD*
D14*
G04 #@! TO.C,R25*
G36*
X122735581Y-69176625D02*
X122768343Y-69181485D01*
X122800471Y-69189533D01*
X122831656Y-69200691D01*
X122861596Y-69214852D01*
X122890005Y-69231879D01*
X122916608Y-69251609D01*
X122941149Y-69273851D01*
X122963391Y-69298392D01*
X122983121Y-69324995D01*
X123000148Y-69353404D01*
X123014309Y-69383344D01*
X123025467Y-69414529D01*
X123033515Y-69446657D01*
X123038375Y-69479419D01*
X123040000Y-69512500D01*
X123040000Y-70187500D01*
X123038375Y-70220581D01*
X123033515Y-70253343D01*
X123025467Y-70285471D01*
X123014309Y-70316656D01*
X123000148Y-70346596D01*
X122983121Y-70375005D01*
X122963391Y-70401608D01*
X122941149Y-70426149D01*
X122916608Y-70448391D01*
X122890005Y-70468121D01*
X122861596Y-70485148D01*
X122831656Y-70499309D01*
X122800471Y-70510467D01*
X122768343Y-70518515D01*
X122735581Y-70523375D01*
X122702500Y-70525000D01*
X121927500Y-70525000D01*
X121894419Y-70523375D01*
X121861657Y-70518515D01*
X121829529Y-70510467D01*
X121798344Y-70499309D01*
X121768404Y-70485148D01*
X121739995Y-70468121D01*
X121713392Y-70448391D01*
X121688851Y-70426149D01*
X121666609Y-70401608D01*
X121646879Y-70375005D01*
X121629852Y-70346596D01*
X121615691Y-70316656D01*
X121604533Y-70285471D01*
X121596485Y-70253343D01*
X121591625Y-70220581D01*
X121590000Y-70187500D01*
X121590000Y-69512500D01*
X121591625Y-69479419D01*
X121596485Y-69446657D01*
X121604533Y-69414529D01*
X121615691Y-69383344D01*
X121629852Y-69353404D01*
X121646879Y-69324995D01*
X121666609Y-69298392D01*
X121688851Y-69273851D01*
X121713392Y-69251609D01*
X121739995Y-69231879D01*
X121768404Y-69214852D01*
X121798344Y-69200691D01*
X121829529Y-69189533D01*
X121861657Y-69181485D01*
X121894419Y-69176625D01*
X121927500Y-69175000D01*
X122702500Y-69175000D01*
X122735581Y-69176625D01*
X122735581Y-69176625D01*
G37*
D15*
X122315000Y-69850000D03*
D14*
G36*
X124485581Y-69176625D02*
X124518343Y-69181485D01*
X124550471Y-69189533D01*
X124581656Y-69200691D01*
X124611596Y-69214852D01*
X124640005Y-69231879D01*
X124666608Y-69251609D01*
X124691149Y-69273851D01*
X124713391Y-69298392D01*
X124733121Y-69324995D01*
X124750148Y-69353404D01*
X124764309Y-69383344D01*
X124775467Y-69414529D01*
X124783515Y-69446657D01*
X124788375Y-69479419D01*
X124790000Y-69512500D01*
X124790000Y-70187500D01*
X124788375Y-70220581D01*
X124783515Y-70253343D01*
X124775467Y-70285471D01*
X124764309Y-70316656D01*
X124750148Y-70346596D01*
X124733121Y-70375005D01*
X124713391Y-70401608D01*
X124691149Y-70426149D01*
X124666608Y-70448391D01*
X124640005Y-70468121D01*
X124611596Y-70485148D01*
X124581656Y-70499309D01*
X124550471Y-70510467D01*
X124518343Y-70518515D01*
X124485581Y-70523375D01*
X124452500Y-70525000D01*
X123677500Y-70525000D01*
X123644419Y-70523375D01*
X123611657Y-70518515D01*
X123579529Y-70510467D01*
X123548344Y-70499309D01*
X123518404Y-70485148D01*
X123489995Y-70468121D01*
X123463392Y-70448391D01*
X123438851Y-70426149D01*
X123416609Y-70401608D01*
X123396879Y-70375005D01*
X123379852Y-70346596D01*
X123365691Y-70316656D01*
X123354533Y-70285471D01*
X123346485Y-70253343D01*
X123341625Y-70220581D01*
X123340000Y-70187500D01*
X123340000Y-69512500D01*
X123341625Y-69479419D01*
X123346485Y-69446657D01*
X123354533Y-69414529D01*
X123365691Y-69383344D01*
X123379852Y-69353404D01*
X123396879Y-69324995D01*
X123416609Y-69298392D01*
X123438851Y-69273851D01*
X123463392Y-69251609D01*
X123489995Y-69231879D01*
X123518404Y-69214852D01*
X123548344Y-69200691D01*
X123579529Y-69189533D01*
X123611657Y-69181485D01*
X123644419Y-69176625D01*
X123677500Y-69175000D01*
X124452500Y-69175000D01*
X124485581Y-69176625D01*
X124485581Y-69176625D01*
G37*
D15*
X124065000Y-69850000D03*
G04 #@! TD*
D10*
G04 #@! TO.C,SW1*
X146685000Y-100965000D03*
X149225000Y-100965000D03*
X151765000Y-100965000D03*
X154305000Y-100965000D03*
X154305000Y-100965000D03*
G04 #@! TD*
D23*
G04 #@! TO.C,SW2*
X115780000Y-59920000D03*
X122980000Y-59920000D03*
X115780000Y-56920000D03*
X122980000Y-56920000D03*
G04 #@! TD*
G04 #@! TO.C,SW3*
X186480000Y-56920000D03*
X179280000Y-56920000D03*
X186480000Y-59920000D03*
X179280000Y-59920000D03*
G04 #@! TD*
D24*
G04 #@! TO.C,U1*
X128534401Y-69964300D03*
X129534399Y-69964300D03*
X130534400Y-69964300D03*
X131534400Y-69964300D03*
X132534401Y-69964300D03*
X133534399Y-69964300D03*
X134534399Y-69964300D03*
X135534400Y-69964300D03*
X136534401Y-69964300D03*
X137534401Y-69964300D03*
X138534399Y-69964300D03*
X139534400Y-69964300D03*
X140534400Y-69964300D03*
X141534401Y-69964300D03*
X142534401Y-69964300D03*
X142534399Y-51955700D03*
X141534401Y-51955700D03*
X140534400Y-51955700D03*
X139534400Y-51955700D03*
X138534399Y-51955700D03*
X137534401Y-51955700D03*
X136534401Y-51955700D03*
X135534400Y-51955700D03*
X134534399Y-51955700D03*
X133534399Y-51955700D03*
X132534401Y-51955700D03*
X131534400Y-51955700D03*
X130534400Y-51955700D03*
X129534399Y-51955700D03*
X128534399Y-51955700D03*
D25*
X131368800Y-57912000D03*
D26*
X135534400Y-64008000D03*
D25*
X139700000Y-57912000D03*
G04 #@! TD*
G04 #@! TO.C,U2*
X171043600Y-57912000D03*
D26*
X166878000Y-64008000D03*
D25*
X162712400Y-57912000D03*
D24*
X159877999Y-51955700D03*
X160877999Y-51955700D03*
X161878000Y-51955700D03*
X162878000Y-51955700D03*
X163878001Y-51955700D03*
X164877999Y-51955700D03*
X165877999Y-51955700D03*
X166878000Y-51955700D03*
X167878001Y-51955700D03*
X168878001Y-51955700D03*
X169877999Y-51955700D03*
X170878000Y-51955700D03*
X171878000Y-51955700D03*
X172878001Y-51955700D03*
X173877999Y-51955700D03*
X173878001Y-69964300D03*
X172878001Y-69964300D03*
X171878000Y-69964300D03*
X170878000Y-69964300D03*
X169877999Y-69964300D03*
X168878001Y-69964300D03*
X167878001Y-69964300D03*
X166878000Y-69964300D03*
X165877999Y-69964300D03*
X164877999Y-69964300D03*
X163878001Y-69964300D03*
X162878000Y-69964300D03*
X161878000Y-69964300D03*
X160877999Y-69964300D03*
X159878001Y-69964300D03*
G04 #@! TD*
D27*
G04 #@! TO.C,U3*
X185326000Y-89535000D03*
X185326000Y-88265000D03*
X185326000Y-86995000D03*
X185326000Y-85725000D03*
X179926000Y-85725000D03*
X179926000Y-86995000D03*
X179926000Y-88265000D03*
X179926000Y-89535000D03*
G04 #@! TD*
D28*
G04 #@! TO.C,U5*
X150622000Y-119601000D03*
X149352000Y-119601000D03*
X148082000Y-119601000D03*
X146812000Y-119601000D03*
X146812000Y-125001000D03*
X148082000Y-125001000D03*
X149352000Y-125001000D03*
X150622000Y-125001000D03*
G04 #@! TD*
D29*
G04 #@! TO.C,U6*
X130810000Y-91130000D03*
X130810000Y-93670000D03*
X130810000Y-96210000D03*
X130810000Y-98750000D03*
X130810000Y-101290000D03*
X130810000Y-103830000D03*
X130810000Y-106370000D03*
X130810000Y-108910000D03*
X130810000Y-111450000D03*
X130810000Y-113990000D03*
X130810000Y-116530000D03*
X130810000Y-119070000D03*
X130810000Y-121610000D03*
X130810000Y-124150000D03*
X130810000Y-126690000D03*
X130810000Y-129230000D03*
X130810000Y-131770000D03*
D30*
X115554000Y-91130000D03*
D29*
X115554000Y-93670000D03*
X115554000Y-96210000D03*
X115554000Y-98750000D03*
X115554000Y-101290000D03*
X115554000Y-103830000D03*
X115554000Y-106370000D03*
X115554000Y-108910000D03*
X115554000Y-111450000D03*
X115554000Y-113990000D03*
X115554000Y-116530000D03*
X115554000Y-119070000D03*
X115554000Y-121610000D03*
X115554000Y-124150000D03*
X115554000Y-126690000D03*
X115554000Y-129230000D03*
X115554000Y-131770000D03*
G04 #@! TD*
D14*
G04 #@! TO.C,C9*
G36*
X181381581Y-62826625D02*
X181414343Y-62831485D01*
X181446471Y-62839533D01*
X181477656Y-62850691D01*
X181507596Y-62864852D01*
X181536005Y-62881879D01*
X181562608Y-62901609D01*
X181587149Y-62923851D01*
X181609391Y-62948392D01*
X181629121Y-62974995D01*
X181646148Y-63003404D01*
X181660309Y-63033344D01*
X181671467Y-63064529D01*
X181679515Y-63096657D01*
X181684375Y-63129419D01*
X181686000Y-63162500D01*
X181686000Y-63837500D01*
X181684375Y-63870581D01*
X181679515Y-63903343D01*
X181671467Y-63935471D01*
X181660309Y-63966656D01*
X181646148Y-63996596D01*
X181629121Y-64025005D01*
X181609391Y-64051608D01*
X181587149Y-64076149D01*
X181562608Y-64098391D01*
X181536005Y-64118121D01*
X181507596Y-64135148D01*
X181477656Y-64149309D01*
X181446471Y-64160467D01*
X181414343Y-64168515D01*
X181381581Y-64173375D01*
X181348500Y-64175000D01*
X180573500Y-64175000D01*
X180540419Y-64173375D01*
X180507657Y-64168515D01*
X180475529Y-64160467D01*
X180444344Y-64149309D01*
X180414404Y-64135148D01*
X180385995Y-64118121D01*
X180359392Y-64098391D01*
X180334851Y-64076149D01*
X180312609Y-64051608D01*
X180292879Y-64025005D01*
X180275852Y-63996596D01*
X180261691Y-63966656D01*
X180250533Y-63935471D01*
X180242485Y-63903343D01*
X180237625Y-63870581D01*
X180236000Y-63837500D01*
X180236000Y-63162500D01*
X180237625Y-63129419D01*
X180242485Y-63096657D01*
X180250533Y-63064529D01*
X180261691Y-63033344D01*
X180275852Y-63003404D01*
X180292879Y-62974995D01*
X180312609Y-62948392D01*
X180334851Y-62923851D01*
X180359392Y-62901609D01*
X180385995Y-62881879D01*
X180414404Y-62864852D01*
X180444344Y-62850691D01*
X180475529Y-62839533D01*
X180507657Y-62831485D01*
X180540419Y-62826625D01*
X180573500Y-62825000D01*
X181348500Y-62825000D01*
X181381581Y-62826625D01*
X181381581Y-62826625D01*
G37*
D15*
X180961000Y-63500000D03*
D14*
G36*
X179631581Y-62826625D02*
X179664343Y-62831485D01*
X179696471Y-62839533D01*
X179727656Y-62850691D01*
X179757596Y-62864852D01*
X179786005Y-62881879D01*
X179812608Y-62901609D01*
X179837149Y-62923851D01*
X179859391Y-62948392D01*
X179879121Y-62974995D01*
X179896148Y-63003404D01*
X179910309Y-63033344D01*
X179921467Y-63064529D01*
X179929515Y-63096657D01*
X179934375Y-63129419D01*
X179936000Y-63162500D01*
X179936000Y-63837500D01*
X179934375Y-63870581D01*
X179929515Y-63903343D01*
X179921467Y-63935471D01*
X179910309Y-63966656D01*
X179896148Y-63996596D01*
X179879121Y-64025005D01*
X179859391Y-64051608D01*
X179837149Y-64076149D01*
X179812608Y-64098391D01*
X179786005Y-64118121D01*
X179757596Y-64135148D01*
X179727656Y-64149309D01*
X179696471Y-64160467D01*
X179664343Y-64168515D01*
X179631581Y-64173375D01*
X179598500Y-64175000D01*
X178823500Y-64175000D01*
X178790419Y-64173375D01*
X178757657Y-64168515D01*
X178725529Y-64160467D01*
X178694344Y-64149309D01*
X178664404Y-64135148D01*
X178635995Y-64118121D01*
X178609392Y-64098391D01*
X178584851Y-64076149D01*
X178562609Y-64051608D01*
X178542879Y-64025005D01*
X178525852Y-63996596D01*
X178511691Y-63966656D01*
X178500533Y-63935471D01*
X178492485Y-63903343D01*
X178487625Y-63870581D01*
X178486000Y-63837500D01*
X178486000Y-63162500D01*
X178487625Y-63129419D01*
X178492485Y-63096657D01*
X178500533Y-63064529D01*
X178511691Y-63033344D01*
X178525852Y-63003404D01*
X178542879Y-62974995D01*
X178562609Y-62948392D01*
X178584851Y-62923851D01*
X178609392Y-62901609D01*
X178635995Y-62881879D01*
X178664404Y-62864852D01*
X178694344Y-62850691D01*
X178725529Y-62839533D01*
X178757657Y-62831485D01*
X178790419Y-62826625D01*
X178823500Y-62825000D01*
X179598500Y-62825000D01*
X179631581Y-62826625D01*
X179631581Y-62826625D01*
G37*
D15*
X179211000Y-63500000D03*
G04 #@! TD*
D14*
G04 #@! TO.C,C10*
G36*
X148107581Y-62064625D02*
X148140343Y-62069485D01*
X148172471Y-62077533D01*
X148203656Y-62088691D01*
X148233596Y-62102852D01*
X148262005Y-62119879D01*
X148288608Y-62139609D01*
X148313149Y-62161851D01*
X148335391Y-62186392D01*
X148355121Y-62212995D01*
X148372148Y-62241404D01*
X148386309Y-62271344D01*
X148397467Y-62302529D01*
X148405515Y-62334657D01*
X148410375Y-62367419D01*
X148412000Y-62400500D01*
X148412000Y-63075500D01*
X148410375Y-63108581D01*
X148405515Y-63141343D01*
X148397467Y-63173471D01*
X148386309Y-63204656D01*
X148372148Y-63234596D01*
X148355121Y-63263005D01*
X148335391Y-63289608D01*
X148313149Y-63314149D01*
X148288608Y-63336391D01*
X148262005Y-63356121D01*
X148233596Y-63373148D01*
X148203656Y-63387309D01*
X148172471Y-63398467D01*
X148140343Y-63406515D01*
X148107581Y-63411375D01*
X148074500Y-63413000D01*
X147299500Y-63413000D01*
X147266419Y-63411375D01*
X147233657Y-63406515D01*
X147201529Y-63398467D01*
X147170344Y-63387309D01*
X147140404Y-63373148D01*
X147111995Y-63356121D01*
X147085392Y-63336391D01*
X147060851Y-63314149D01*
X147038609Y-63289608D01*
X147018879Y-63263005D01*
X147001852Y-63234596D01*
X146987691Y-63204656D01*
X146976533Y-63173471D01*
X146968485Y-63141343D01*
X146963625Y-63108581D01*
X146962000Y-63075500D01*
X146962000Y-62400500D01*
X146963625Y-62367419D01*
X146968485Y-62334657D01*
X146976533Y-62302529D01*
X146987691Y-62271344D01*
X147001852Y-62241404D01*
X147018879Y-62212995D01*
X147038609Y-62186392D01*
X147060851Y-62161851D01*
X147085392Y-62139609D01*
X147111995Y-62119879D01*
X147140404Y-62102852D01*
X147170344Y-62088691D01*
X147201529Y-62077533D01*
X147233657Y-62069485D01*
X147266419Y-62064625D01*
X147299500Y-62063000D01*
X148074500Y-62063000D01*
X148107581Y-62064625D01*
X148107581Y-62064625D01*
G37*
D15*
X147687000Y-62738000D03*
D14*
G36*
X146357581Y-62064625D02*
X146390343Y-62069485D01*
X146422471Y-62077533D01*
X146453656Y-62088691D01*
X146483596Y-62102852D01*
X146512005Y-62119879D01*
X146538608Y-62139609D01*
X146563149Y-62161851D01*
X146585391Y-62186392D01*
X146605121Y-62212995D01*
X146622148Y-62241404D01*
X146636309Y-62271344D01*
X146647467Y-62302529D01*
X146655515Y-62334657D01*
X146660375Y-62367419D01*
X146662000Y-62400500D01*
X146662000Y-63075500D01*
X146660375Y-63108581D01*
X146655515Y-63141343D01*
X146647467Y-63173471D01*
X146636309Y-63204656D01*
X146622148Y-63234596D01*
X146605121Y-63263005D01*
X146585391Y-63289608D01*
X146563149Y-63314149D01*
X146538608Y-63336391D01*
X146512005Y-63356121D01*
X146483596Y-63373148D01*
X146453656Y-63387309D01*
X146422471Y-63398467D01*
X146390343Y-63406515D01*
X146357581Y-63411375D01*
X146324500Y-63413000D01*
X145549500Y-63413000D01*
X145516419Y-63411375D01*
X145483657Y-63406515D01*
X145451529Y-63398467D01*
X145420344Y-63387309D01*
X145390404Y-63373148D01*
X145361995Y-63356121D01*
X145335392Y-63336391D01*
X145310851Y-63314149D01*
X145288609Y-63289608D01*
X145268879Y-63263005D01*
X145251852Y-63234596D01*
X145237691Y-63204656D01*
X145226533Y-63173471D01*
X145218485Y-63141343D01*
X145213625Y-63108581D01*
X145212000Y-63075500D01*
X145212000Y-62400500D01*
X145213625Y-62367419D01*
X145218485Y-62334657D01*
X145226533Y-62302529D01*
X145237691Y-62271344D01*
X145251852Y-62241404D01*
X145268879Y-62212995D01*
X145288609Y-62186392D01*
X145310851Y-62161851D01*
X145335392Y-62139609D01*
X145361995Y-62119879D01*
X145390404Y-62102852D01*
X145420344Y-62088691D01*
X145451529Y-62077533D01*
X145483657Y-62069485D01*
X145516419Y-62064625D01*
X145549500Y-62063000D01*
X146324500Y-62063000D01*
X146357581Y-62064625D01*
X146357581Y-62064625D01*
G37*
D15*
X145937000Y-62738000D03*
G04 #@! TD*
D14*
G04 #@! TO.C,C11*
G36*
X121719581Y-62826625D02*
X121752343Y-62831485D01*
X121784471Y-62839533D01*
X121815656Y-62850691D01*
X121845596Y-62864852D01*
X121874005Y-62881879D01*
X121900608Y-62901609D01*
X121925149Y-62923851D01*
X121947391Y-62948392D01*
X121967121Y-62974995D01*
X121984148Y-63003404D01*
X121998309Y-63033344D01*
X122009467Y-63064529D01*
X122017515Y-63096657D01*
X122022375Y-63129419D01*
X122024000Y-63162500D01*
X122024000Y-63837500D01*
X122022375Y-63870581D01*
X122017515Y-63903343D01*
X122009467Y-63935471D01*
X121998309Y-63966656D01*
X121984148Y-63996596D01*
X121967121Y-64025005D01*
X121947391Y-64051608D01*
X121925149Y-64076149D01*
X121900608Y-64098391D01*
X121874005Y-64118121D01*
X121845596Y-64135148D01*
X121815656Y-64149309D01*
X121784471Y-64160467D01*
X121752343Y-64168515D01*
X121719581Y-64173375D01*
X121686500Y-64175000D01*
X120911500Y-64175000D01*
X120878419Y-64173375D01*
X120845657Y-64168515D01*
X120813529Y-64160467D01*
X120782344Y-64149309D01*
X120752404Y-64135148D01*
X120723995Y-64118121D01*
X120697392Y-64098391D01*
X120672851Y-64076149D01*
X120650609Y-64051608D01*
X120630879Y-64025005D01*
X120613852Y-63996596D01*
X120599691Y-63966656D01*
X120588533Y-63935471D01*
X120580485Y-63903343D01*
X120575625Y-63870581D01*
X120574000Y-63837500D01*
X120574000Y-63162500D01*
X120575625Y-63129419D01*
X120580485Y-63096657D01*
X120588533Y-63064529D01*
X120599691Y-63033344D01*
X120613852Y-63003404D01*
X120630879Y-62974995D01*
X120650609Y-62948392D01*
X120672851Y-62923851D01*
X120697392Y-62901609D01*
X120723995Y-62881879D01*
X120752404Y-62864852D01*
X120782344Y-62850691D01*
X120813529Y-62839533D01*
X120845657Y-62831485D01*
X120878419Y-62826625D01*
X120911500Y-62825000D01*
X121686500Y-62825000D01*
X121719581Y-62826625D01*
X121719581Y-62826625D01*
G37*
D15*
X121299000Y-63500000D03*
D14*
G36*
X123469581Y-62826625D02*
X123502343Y-62831485D01*
X123534471Y-62839533D01*
X123565656Y-62850691D01*
X123595596Y-62864852D01*
X123624005Y-62881879D01*
X123650608Y-62901609D01*
X123675149Y-62923851D01*
X123697391Y-62948392D01*
X123717121Y-62974995D01*
X123734148Y-63003404D01*
X123748309Y-63033344D01*
X123759467Y-63064529D01*
X123767515Y-63096657D01*
X123772375Y-63129419D01*
X123774000Y-63162500D01*
X123774000Y-63837500D01*
X123772375Y-63870581D01*
X123767515Y-63903343D01*
X123759467Y-63935471D01*
X123748309Y-63966656D01*
X123734148Y-63996596D01*
X123717121Y-64025005D01*
X123697391Y-64051608D01*
X123675149Y-64076149D01*
X123650608Y-64098391D01*
X123624005Y-64118121D01*
X123595596Y-64135148D01*
X123565656Y-64149309D01*
X123534471Y-64160467D01*
X123502343Y-64168515D01*
X123469581Y-64173375D01*
X123436500Y-64175000D01*
X122661500Y-64175000D01*
X122628419Y-64173375D01*
X122595657Y-64168515D01*
X122563529Y-64160467D01*
X122532344Y-64149309D01*
X122502404Y-64135148D01*
X122473995Y-64118121D01*
X122447392Y-64098391D01*
X122422851Y-64076149D01*
X122400609Y-64051608D01*
X122380879Y-64025005D01*
X122363852Y-63996596D01*
X122349691Y-63966656D01*
X122338533Y-63935471D01*
X122330485Y-63903343D01*
X122325625Y-63870581D01*
X122324000Y-63837500D01*
X122324000Y-63162500D01*
X122325625Y-63129419D01*
X122330485Y-63096657D01*
X122338533Y-63064529D01*
X122349691Y-63033344D01*
X122363852Y-63003404D01*
X122380879Y-62974995D01*
X122400609Y-62948392D01*
X122422851Y-62923851D01*
X122447392Y-62901609D01*
X122473995Y-62881879D01*
X122502404Y-62864852D01*
X122532344Y-62850691D01*
X122563529Y-62839533D01*
X122595657Y-62831485D01*
X122628419Y-62826625D01*
X122661500Y-62825000D01*
X123436500Y-62825000D01*
X123469581Y-62826625D01*
X123469581Y-62826625D01*
G37*
D15*
X123049000Y-63500000D03*
G04 #@! TD*
D14*
G04 #@! TO.C,C12*
G36*
X154739581Y-62043626D02*
X154772343Y-62048486D01*
X154804471Y-62056534D01*
X154835656Y-62067692D01*
X154865596Y-62081853D01*
X154894005Y-62098880D01*
X154920608Y-62118610D01*
X154945149Y-62140852D01*
X154967391Y-62165393D01*
X154987121Y-62191996D01*
X155004148Y-62220405D01*
X155018309Y-62250345D01*
X155029467Y-62281530D01*
X155037515Y-62313658D01*
X155042375Y-62346420D01*
X155044000Y-62379501D01*
X155044000Y-63054501D01*
X155042375Y-63087582D01*
X155037515Y-63120344D01*
X155029467Y-63152472D01*
X155018309Y-63183657D01*
X155004148Y-63213597D01*
X154987121Y-63242006D01*
X154967391Y-63268609D01*
X154945149Y-63293150D01*
X154920608Y-63315392D01*
X154894005Y-63335122D01*
X154865596Y-63352149D01*
X154835656Y-63366310D01*
X154804471Y-63377468D01*
X154772343Y-63385516D01*
X154739581Y-63390376D01*
X154706500Y-63392001D01*
X153931500Y-63392001D01*
X153898419Y-63390376D01*
X153865657Y-63385516D01*
X153833529Y-63377468D01*
X153802344Y-63366310D01*
X153772404Y-63352149D01*
X153743995Y-63335122D01*
X153717392Y-63315392D01*
X153692851Y-63293150D01*
X153670609Y-63268609D01*
X153650879Y-63242006D01*
X153633852Y-63213597D01*
X153619691Y-63183657D01*
X153608533Y-63152472D01*
X153600485Y-63120344D01*
X153595625Y-63087582D01*
X153594000Y-63054501D01*
X153594000Y-62379501D01*
X153595625Y-62346420D01*
X153600485Y-62313658D01*
X153608533Y-62281530D01*
X153619691Y-62250345D01*
X153633852Y-62220405D01*
X153650879Y-62191996D01*
X153670609Y-62165393D01*
X153692851Y-62140852D01*
X153717392Y-62118610D01*
X153743995Y-62098880D01*
X153772404Y-62081853D01*
X153802344Y-62067692D01*
X153833529Y-62056534D01*
X153865657Y-62048486D01*
X153898419Y-62043626D01*
X153931500Y-62042001D01*
X154706500Y-62042001D01*
X154739581Y-62043626D01*
X154739581Y-62043626D01*
G37*
D15*
X154319000Y-62717001D03*
D14*
G36*
X156489581Y-62043626D02*
X156522343Y-62048486D01*
X156554471Y-62056534D01*
X156585656Y-62067692D01*
X156615596Y-62081853D01*
X156644005Y-62098880D01*
X156670608Y-62118610D01*
X156695149Y-62140852D01*
X156717391Y-62165393D01*
X156737121Y-62191996D01*
X156754148Y-62220405D01*
X156768309Y-62250345D01*
X156779467Y-62281530D01*
X156787515Y-62313658D01*
X156792375Y-62346420D01*
X156794000Y-62379501D01*
X156794000Y-63054501D01*
X156792375Y-63087582D01*
X156787515Y-63120344D01*
X156779467Y-63152472D01*
X156768309Y-63183657D01*
X156754148Y-63213597D01*
X156737121Y-63242006D01*
X156717391Y-63268609D01*
X156695149Y-63293150D01*
X156670608Y-63315392D01*
X156644005Y-63335122D01*
X156615596Y-63352149D01*
X156585656Y-63366310D01*
X156554471Y-63377468D01*
X156522343Y-63385516D01*
X156489581Y-63390376D01*
X156456500Y-63392001D01*
X155681500Y-63392001D01*
X155648419Y-63390376D01*
X155615657Y-63385516D01*
X155583529Y-63377468D01*
X155552344Y-63366310D01*
X155522404Y-63352149D01*
X155493995Y-63335122D01*
X155467392Y-63315392D01*
X155442851Y-63293150D01*
X155420609Y-63268609D01*
X155400879Y-63242006D01*
X155383852Y-63213597D01*
X155369691Y-63183657D01*
X155358533Y-63152472D01*
X155350485Y-63120344D01*
X155345625Y-63087582D01*
X155344000Y-63054501D01*
X155344000Y-62379501D01*
X155345625Y-62346420D01*
X155350485Y-62313658D01*
X155358533Y-62281530D01*
X155369691Y-62250345D01*
X155383852Y-62220405D01*
X155400879Y-62191996D01*
X155420609Y-62165393D01*
X155442851Y-62140852D01*
X155467392Y-62118610D01*
X155493995Y-62098880D01*
X155522404Y-62081853D01*
X155552344Y-62067692D01*
X155583529Y-62056534D01*
X155615657Y-62048486D01*
X155648419Y-62043626D01*
X155681500Y-62042001D01*
X156456500Y-62042001D01*
X156489581Y-62043626D01*
X156489581Y-62043626D01*
G37*
D15*
X156069000Y-62717001D03*
G04 #@! TD*
D10*
G04 #@! TO.C,Conn8*
X137922000Y-91694000D03*
X140462000Y-91694000D03*
G04 #@! TD*
D11*
G04 #@! TO.C,REF\002A\002A*
X115570000Y-139700000D03*
G04 #@! TD*
D10*
G04 #@! TO.C,Conn9*
X146812000Y-82042000D03*
X149352000Y-82042000D03*
X151892000Y-82042000D03*
X154432000Y-82042000D03*
X154432000Y-82042000D03*
G04 #@! TD*
G04 #@! TO.C,Conn10*
X154432000Y-91694000D03*
X154432000Y-91694000D03*
X151892000Y-91694000D03*
X149352000Y-91694000D03*
X146812000Y-91694000D03*
G04 #@! TD*
D14*
G04 #@! TO.C,R15*
G36*
X128295581Y-95592625D02*
X128328343Y-95597485D01*
X128360471Y-95605533D01*
X128391656Y-95616691D01*
X128421596Y-95630852D01*
X128450005Y-95647879D01*
X128476608Y-95667609D01*
X128501149Y-95689851D01*
X128523391Y-95714392D01*
X128543121Y-95740995D01*
X128560148Y-95769404D01*
X128574309Y-95799344D01*
X128585467Y-95830529D01*
X128593515Y-95862657D01*
X128598375Y-95895419D01*
X128600000Y-95928500D01*
X128600000Y-96603500D01*
X128598375Y-96636581D01*
X128593515Y-96669343D01*
X128585467Y-96701471D01*
X128574309Y-96732656D01*
X128560148Y-96762596D01*
X128543121Y-96791005D01*
X128523391Y-96817608D01*
X128501149Y-96842149D01*
X128476608Y-96864391D01*
X128450005Y-96884121D01*
X128421596Y-96901148D01*
X128391656Y-96915309D01*
X128360471Y-96926467D01*
X128328343Y-96934515D01*
X128295581Y-96939375D01*
X128262500Y-96941000D01*
X127487500Y-96941000D01*
X127454419Y-96939375D01*
X127421657Y-96934515D01*
X127389529Y-96926467D01*
X127358344Y-96915309D01*
X127328404Y-96901148D01*
X127299995Y-96884121D01*
X127273392Y-96864391D01*
X127248851Y-96842149D01*
X127226609Y-96817608D01*
X127206879Y-96791005D01*
X127189852Y-96762596D01*
X127175691Y-96732656D01*
X127164533Y-96701471D01*
X127156485Y-96669343D01*
X127151625Y-96636581D01*
X127150000Y-96603500D01*
X127150000Y-95928500D01*
X127151625Y-95895419D01*
X127156485Y-95862657D01*
X127164533Y-95830529D01*
X127175691Y-95799344D01*
X127189852Y-95769404D01*
X127206879Y-95740995D01*
X127226609Y-95714392D01*
X127248851Y-95689851D01*
X127273392Y-95667609D01*
X127299995Y-95647879D01*
X127328404Y-95630852D01*
X127358344Y-95616691D01*
X127389529Y-95605533D01*
X127421657Y-95597485D01*
X127454419Y-95592625D01*
X127487500Y-95591000D01*
X128262500Y-95591000D01*
X128295581Y-95592625D01*
X128295581Y-95592625D01*
G37*
D15*
X127875000Y-96266000D03*
D14*
G36*
X126545581Y-95592625D02*
X126578343Y-95597485D01*
X126610471Y-95605533D01*
X126641656Y-95616691D01*
X126671596Y-95630852D01*
X126700005Y-95647879D01*
X126726608Y-95667609D01*
X126751149Y-95689851D01*
X126773391Y-95714392D01*
X126793121Y-95740995D01*
X126810148Y-95769404D01*
X126824309Y-95799344D01*
X126835467Y-95830529D01*
X126843515Y-95862657D01*
X126848375Y-95895419D01*
X126850000Y-95928500D01*
X126850000Y-96603500D01*
X126848375Y-96636581D01*
X126843515Y-96669343D01*
X126835467Y-96701471D01*
X126824309Y-96732656D01*
X126810148Y-96762596D01*
X126793121Y-96791005D01*
X126773391Y-96817608D01*
X126751149Y-96842149D01*
X126726608Y-96864391D01*
X126700005Y-96884121D01*
X126671596Y-96901148D01*
X126641656Y-96915309D01*
X126610471Y-96926467D01*
X126578343Y-96934515D01*
X126545581Y-96939375D01*
X126512500Y-96941000D01*
X125737500Y-96941000D01*
X125704419Y-96939375D01*
X125671657Y-96934515D01*
X125639529Y-96926467D01*
X125608344Y-96915309D01*
X125578404Y-96901148D01*
X125549995Y-96884121D01*
X125523392Y-96864391D01*
X125498851Y-96842149D01*
X125476609Y-96817608D01*
X125456879Y-96791005D01*
X125439852Y-96762596D01*
X125425691Y-96732656D01*
X125414533Y-96701471D01*
X125406485Y-96669343D01*
X125401625Y-96636581D01*
X125400000Y-96603500D01*
X125400000Y-95928500D01*
X125401625Y-95895419D01*
X125406485Y-95862657D01*
X125414533Y-95830529D01*
X125425691Y-95799344D01*
X125439852Y-95769404D01*
X125456879Y-95740995D01*
X125476609Y-95714392D01*
X125498851Y-95689851D01*
X125523392Y-95667609D01*
X125549995Y-95647879D01*
X125578404Y-95630852D01*
X125608344Y-95616691D01*
X125639529Y-95605533D01*
X125671657Y-95597485D01*
X125704419Y-95592625D01*
X125737500Y-95591000D01*
X126512500Y-95591000D01*
X126545581Y-95592625D01*
X126545581Y-95592625D01*
G37*
D15*
X126125000Y-96266000D03*
G04 #@! TD*
D14*
G04 #@! TO.C,R26*
G36*
X134101581Y-103148625D02*
X134134343Y-103153485D01*
X134166471Y-103161533D01*
X134197656Y-103172691D01*
X134227596Y-103186852D01*
X134256005Y-103203879D01*
X134282608Y-103223609D01*
X134307149Y-103245851D01*
X134329391Y-103270392D01*
X134349121Y-103296995D01*
X134366148Y-103325404D01*
X134380309Y-103355344D01*
X134391467Y-103386529D01*
X134399515Y-103418657D01*
X134404375Y-103451419D01*
X134406000Y-103484500D01*
X134406000Y-104259500D01*
X134404375Y-104292581D01*
X134399515Y-104325343D01*
X134391467Y-104357471D01*
X134380309Y-104388656D01*
X134366148Y-104418596D01*
X134349121Y-104447005D01*
X134329391Y-104473608D01*
X134307149Y-104498149D01*
X134282608Y-104520391D01*
X134256005Y-104540121D01*
X134227596Y-104557148D01*
X134197656Y-104571309D01*
X134166471Y-104582467D01*
X134134343Y-104590515D01*
X134101581Y-104595375D01*
X134068500Y-104597000D01*
X133393500Y-104597000D01*
X133360419Y-104595375D01*
X133327657Y-104590515D01*
X133295529Y-104582467D01*
X133264344Y-104571309D01*
X133234404Y-104557148D01*
X133205995Y-104540121D01*
X133179392Y-104520391D01*
X133154851Y-104498149D01*
X133132609Y-104473608D01*
X133112879Y-104447005D01*
X133095852Y-104418596D01*
X133081691Y-104388656D01*
X133070533Y-104357471D01*
X133062485Y-104325343D01*
X133057625Y-104292581D01*
X133056000Y-104259500D01*
X133056000Y-103484500D01*
X133057625Y-103451419D01*
X133062485Y-103418657D01*
X133070533Y-103386529D01*
X133081691Y-103355344D01*
X133095852Y-103325404D01*
X133112879Y-103296995D01*
X133132609Y-103270392D01*
X133154851Y-103245851D01*
X133179392Y-103223609D01*
X133205995Y-103203879D01*
X133234404Y-103186852D01*
X133264344Y-103172691D01*
X133295529Y-103161533D01*
X133327657Y-103153485D01*
X133360419Y-103148625D01*
X133393500Y-103147000D01*
X134068500Y-103147000D01*
X134101581Y-103148625D01*
X134101581Y-103148625D01*
G37*
D15*
X133731000Y-103872000D03*
D14*
G36*
X134101581Y-101398625D02*
X134134343Y-101403485D01*
X134166471Y-101411533D01*
X134197656Y-101422691D01*
X134227596Y-101436852D01*
X134256005Y-101453879D01*
X134282608Y-101473609D01*
X134307149Y-101495851D01*
X134329391Y-101520392D01*
X134349121Y-101546995D01*
X134366148Y-101575404D01*
X134380309Y-101605344D01*
X134391467Y-101636529D01*
X134399515Y-101668657D01*
X134404375Y-101701419D01*
X134406000Y-101734500D01*
X134406000Y-102509500D01*
X134404375Y-102542581D01*
X134399515Y-102575343D01*
X134391467Y-102607471D01*
X134380309Y-102638656D01*
X134366148Y-102668596D01*
X134349121Y-102697005D01*
X134329391Y-102723608D01*
X134307149Y-102748149D01*
X134282608Y-102770391D01*
X134256005Y-102790121D01*
X134227596Y-102807148D01*
X134197656Y-102821309D01*
X134166471Y-102832467D01*
X134134343Y-102840515D01*
X134101581Y-102845375D01*
X134068500Y-102847000D01*
X133393500Y-102847000D01*
X133360419Y-102845375D01*
X133327657Y-102840515D01*
X133295529Y-102832467D01*
X133264344Y-102821309D01*
X133234404Y-102807148D01*
X133205995Y-102790121D01*
X133179392Y-102770391D01*
X133154851Y-102748149D01*
X133132609Y-102723608D01*
X133112879Y-102697005D01*
X133095852Y-102668596D01*
X133081691Y-102638656D01*
X133070533Y-102607471D01*
X133062485Y-102575343D01*
X133057625Y-102542581D01*
X133056000Y-102509500D01*
X133056000Y-101734500D01*
X133057625Y-101701419D01*
X133062485Y-101668657D01*
X133070533Y-101636529D01*
X133081691Y-101605344D01*
X133095852Y-101575404D01*
X133112879Y-101546995D01*
X133132609Y-101520392D01*
X133154851Y-101495851D01*
X133179392Y-101473609D01*
X133205995Y-101453879D01*
X133234404Y-101436852D01*
X133264344Y-101422691D01*
X133295529Y-101411533D01*
X133327657Y-101403485D01*
X133360419Y-101398625D01*
X133393500Y-101397000D01*
X134068500Y-101397000D01*
X134101581Y-101398625D01*
X134101581Y-101398625D01*
G37*
D15*
X133731000Y-102122000D03*
G04 #@! TD*
M02*
