G04 #@! TF.GenerationSoftware,KiCad,Pcbnew,(5.0.0)*
G04 #@! TF.CreationDate,2019-12-13T16:22:20-06:00*
G04 #@! TF.ProjectId,MiniRoverPowerBoard_Hardware,4D696E69526F766572506F776572426F,rev?*
G04 #@! TF.SameCoordinates,Original*
G04 #@! TF.FileFunction,Paste,Top*
G04 #@! TF.FilePolarity,Positive*
%FSLAX46Y46*%
G04 Gerber Fmt 4.6, Leading zero omitted, Abs format (unit mm)*
G04 Created by KiCad (PCBNEW (5.0.0)) date 12/13/19 16:22:20*
%MOMM*%
%LPD*%
G01*
G04 APERTURE LIST*
%ADD10R,1.200000X0.900000*%
%ADD11R,6.000000X2.500000*%
%ADD12C,0.100000*%
%ADD13C,0.950000*%
%ADD14C,5.080000*%
%ADD15R,1.500000X0.450000*%
%ADD16R,1.200000X2.200000*%
%ADD17R,2.750000X3.050000*%
%ADD18R,1.600000X1.400000*%
%ADD19R,0.635000X1.854200*%
%ADD20R,6.223000X5.257800*%
%ADD21R,10.312400X5.257800*%
%ADD22R,1.550000X0.600000*%
%ADD23R,0.600000X1.550000*%
G04 APERTURE END LIST*
D10*
G04 #@! TO.C,D9*
X188468000Y-76834000D03*
X188468000Y-73534000D03*
G04 #@! TD*
D11*
G04 #@! TO.C,B1*
X128578000Y-79756000D03*
X115978000Y-79756000D03*
G04 #@! TD*
D12*
G04 #@! TO.C,C1*
G36*
X177461779Y-89188144D02*
X177484834Y-89191563D01*
X177507443Y-89197227D01*
X177529387Y-89205079D01*
X177550457Y-89215044D01*
X177570448Y-89227026D01*
X177589168Y-89240910D01*
X177606438Y-89256562D01*
X177622090Y-89273832D01*
X177635974Y-89292552D01*
X177647956Y-89312543D01*
X177657921Y-89333613D01*
X177665773Y-89355557D01*
X177671437Y-89378166D01*
X177674856Y-89401221D01*
X177676000Y-89424500D01*
X177676000Y-89899500D01*
X177674856Y-89922779D01*
X177671437Y-89945834D01*
X177665773Y-89968443D01*
X177657921Y-89990387D01*
X177647956Y-90011457D01*
X177635974Y-90031448D01*
X177622090Y-90050168D01*
X177606438Y-90067438D01*
X177589168Y-90083090D01*
X177570448Y-90096974D01*
X177550457Y-90108956D01*
X177529387Y-90118921D01*
X177507443Y-90126773D01*
X177484834Y-90132437D01*
X177461779Y-90135856D01*
X177438500Y-90137000D01*
X176863500Y-90137000D01*
X176840221Y-90135856D01*
X176817166Y-90132437D01*
X176794557Y-90126773D01*
X176772613Y-90118921D01*
X176751543Y-90108956D01*
X176731552Y-90096974D01*
X176712832Y-90083090D01*
X176695562Y-90067438D01*
X176679910Y-90050168D01*
X176666026Y-90031448D01*
X176654044Y-90011457D01*
X176644079Y-89990387D01*
X176636227Y-89968443D01*
X176630563Y-89945834D01*
X176627144Y-89922779D01*
X176626000Y-89899500D01*
X176626000Y-89424500D01*
X176627144Y-89401221D01*
X176630563Y-89378166D01*
X176636227Y-89355557D01*
X176644079Y-89333613D01*
X176654044Y-89312543D01*
X176666026Y-89292552D01*
X176679910Y-89273832D01*
X176695562Y-89256562D01*
X176712832Y-89240910D01*
X176731552Y-89227026D01*
X176751543Y-89215044D01*
X176772613Y-89205079D01*
X176794557Y-89197227D01*
X176817166Y-89191563D01*
X176840221Y-89188144D01*
X176863500Y-89187000D01*
X177438500Y-89187000D01*
X177461779Y-89188144D01*
X177461779Y-89188144D01*
G37*
D13*
X177151000Y-89662000D03*
D12*
G36*
X175711779Y-89188144D02*
X175734834Y-89191563D01*
X175757443Y-89197227D01*
X175779387Y-89205079D01*
X175800457Y-89215044D01*
X175820448Y-89227026D01*
X175839168Y-89240910D01*
X175856438Y-89256562D01*
X175872090Y-89273832D01*
X175885974Y-89292552D01*
X175897956Y-89312543D01*
X175907921Y-89333613D01*
X175915773Y-89355557D01*
X175921437Y-89378166D01*
X175924856Y-89401221D01*
X175926000Y-89424500D01*
X175926000Y-89899500D01*
X175924856Y-89922779D01*
X175921437Y-89945834D01*
X175915773Y-89968443D01*
X175907921Y-89990387D01*
X175897956Y-90011457D01*
X175885974Y-90031448D01*
X175872090Y-90050168D01*
X175856438Y-90067438D01*
X175839168Y-90083090D01*
X175820448Y-90096974D01*
X175800457Y-90108956D01*
X175779387Y-90118921D01*
X175757443Y-90126773D01*
X175734834Y-90132437D01*
X175711779Y-90135856D01*
X175688500Y-90137000D01*
X175113500Y-90137000D01*
X175090221Y-90135856D01*
X175067166Y-90132437D01*
X175044557Y-90126773D01*
X175022613Y-90118921D01*
X175001543Y-90108956D01*
X174981552Y-90096974D01*
X174962832Y-90083090D01*
X174945562Y-90067438D01*
X174929910Y-90050168D01*
X174916026Y-90031448D01*
X174904044Y-90011457D01*
X174894079Y-89990387D01*
X174886227Y-89968443D01*
X174880563Y-89945834D01*
X174877144Y-89922779D01*
X174876000Y-89899500D01*
X174876000Y-89424500D01*
X174877144Y-89401221D01*
X174880563Y-89378166D01*
X174886227Y-89355557D01*
X174894079Y-89333613D01*
X174904044Y-89312543D01*
X174916026Y-89292552D01*
X174929910Y-89273832D01*
X174945562Y-89256562D01*
X174962832Y-89240910D01*
X174981552Y-89227026D01*
X175001543Y-89215044D01*
X175022613Y-89205079D01*
X175044557Y-89197227D01*
X175067166Y-89191563D01*
X175090221Y-89188144D01*
X175113500Y-89187000D01*
X175688500Y-89187000D01*
X175711779Y-89188144D01*
X175711779Y-89188144D01*
G37*
D13*
X175401000Y-89662000D03*
G04 #@! TD*
D12*
G04 #@! TO.C,C2*
G36*
X177461779Y-86140144D02*
X177484834Y-86143563D01*
X177507443Y-86149227D01*
X177529387Y-86157079D01*
X177550457Y-86167044D01*
X177570448Y-86179026D01*
X177589168Y-86192910D01*
X177606438Y-86208562D01*
X177622090Y-86225832D01*
X177635974Y-86244552D01*
X177647956Y-86264543D01*
X177657921Y-86285613D01*
X177665773Y-86307557D01*
X177671437Y-86330166D01*
X177674856Y-86353221D01*
X177676000Y-86376500D01*
X177676000Y-86851500D01*
X177674856Y-86874779D01*
X177671437Y-86897834D01*
X177665773Y-86920443D01*
X177657921Y-86942387D01*
X177647956Y-86963457D01*
X177635974Y-86983448D01*
X177622090Y-87002168D01*
X177606438Y-87019438D01*
X177589168Y-87035090D01*
X177570448Y-87048974D01*
X177550457Y-87060956D01*
X177529387Y-87070921D01*
X177507443Y-87078773D01*
X177484834Y-87084437D01*
X177461779Y-87087856D01*
X177438500Y-87089000D01*
X176863500Y-87089000D01*
X176840221Y-87087856D01*
X176817166Y-87084437D01*
X176794557Y-87078773D01*
X176772613Y-87070921D01*
X176751543Y-87060956D01*
X176731552Y-87048974D01*
X176712832Y-87035090D01*
X176695562Y-87019438D01*
X176679910Y-87002168D01*
X176666026Y-86983448D01*
X176654044Y-86963457D01*
X176644079Y-86942387D01*
X176636227Y-86920443D01*
X176630563Y-86897834D01*
X176627144Y-86874779D01*
X176626000Y-86851500D01*
X176626000Y-86376500D01*
X176627144Y-86353221D01*
X176630563Y-86330166D01*
X176636227Y-86307557D01*
X176644079Y-86285613D01*
X176654044Y-86264543D01*
X176666026Y-86244552D01*
X176679910Y-86225832D01*
X176695562Y-86208562D01*
X176712832Y-86192910D01*
X176731552Y-86179026D01*
X176751543Y-86167044D01*
X176772613Y-86157079D01*
X176794557Y-86149227D01*
X176817166Y-86143563D01*
X176840221Y-86140144D01*
X176863500Y-86139000D01*
X177438500Y-86139000D01*
X177461779Y-86140144D01*
X177461779Y-86140144D01*
G37*
D13*
X177151000Y-86614000D03*
D12*
G36*
X175711779Y-86140144D02*
X175734834Y-86143563D01*
X175757443Y-86149227D01*
X175779387Y-86157079D01*
X175800457Y-86167044D01*
X175820448Y-86179026D01*
X175839168Y-86192910D01*
X175856438Y-86208562D01*
X175872090Y-86225832D01*
X175885974Y-86244552D01*
X175897956Y-86264543D01*
X175907921Y-86285613D01*
X175915773Y-86307557D01*
X175921437Y-86330166D01*
X175924856Y-86353221D01*
X175926000Y-86376500D01*
X175926000Y-86851500D01*
X175924856Y-86874779D01*
X175921437Y-86897834D01*
X175915773Y-86920443D01*
X175907921Y-86942387D01*
X175897956Y-86963457D01*
X175885974Y-86983448D01*
X175872090Y-87002168D01*
X175856438Y-87019438D01*
X175839168Y-87035090D01*
X175820448Y-87048974D01*
X175800457Y-87060956D01*
X175779387Y-87070921D01*
X175757443Y-87078773D01*
X175734834Y-87084437D01*
X175711779Y-87087856D01*
X175688500Y-87089000D01*
X175113500Y-87089000D01*
X175090221Y-87087856D01*
X175067166Y-87084437D01*
X175044557Y-87078773D01*
X175022613Y-87070921D01*
X175001543Y-87060956D01*
X174981552Y-87048974D01*
X174962832Y-87035090D01*
X174945562Y-87019438D01*
X174929910Y-87002168D01*
X174916026Y-86983448D01*
X174904044Y-86963457D01*
X174894079Y-86942387D01*
X174886227Y-86920443D01*
X174880563Y-86897834D01*
X174877144Y-86874779D01*
X174876000Y-86851500D01*
X174876000Y-86376500D01*
X174877144Y-86353221D01*
X174880563Y-86330166D01*
X174886227Y-86307557D01*
X174894079Y-86285613D01*
X174904044Y-86264543D01*
X174916026Y-86244552D01*
X174929910Y-86225832D01*
X174945562Y-86208562D01*
X174962832Y-86192910D01*
X174981552Y-86179026D01*
X175001543Y-86167044D01*
X175022613Y-86157079D01*
X175044557Y-86149227D01*
X175067166Y-86143563D01*
X175090221Y-86140144D01*
X175113500Y-86139000D01*
X175688500Y-86139000D01*
X175711779Y-86140144D01*
X175711779Y-86140144D01*
G37*
D13*
X175401000Y-86614000D03*
G04 #@! TD*
D12*
G04 #@! TO.C,C4*
G36*
X154347779Y-115731144D02*
X154370834Y-115734563D01*
X154393443Y-115740227D01*
X154415387Y-115748079D01*
X154436457Y-115758044D01*
X154456448Y-115770026D01*
X154475168Y-115783910D01*
X154492438Y-115799562D01*
X154508090Y-115816832D01*
X154521974Y-115835552D01*
X154533956Y-115855543D01*
X154543921Y-115876613D01*
X154551773Y-115898557D01*
X154557437Y-115921166D01*
X154560856Y-115944221D01*
X154562000Y-115967500D01*
X154562000Y-116442500D01*
X154560856Y-116465779D01*
X154557437Y-116488834D01*
X154551773Y-116511443D01*
X154543921Y-116533387D01*
X154533956Y-116554457D01*
X154521974Y-116574448D01*
X154508090Y-116593168D01*
X154492438Y-116610438D01*
X154475168Y-116626090D01*
X154456448Y-116639974D01*
X154436457Y-116651956D01*
X154415387Y-116661921D01*
X154393443Y-116669773D01*
X154370834Y-116675437D01*
X154347779Y-116678856D01*
X154324500Y-116680000D01*
X153749500Y-116680000D01*
X153726221Y-116678856D01*
X153703166Y-116675437D01*
X153680557Y-116669773D01*
X153658613Y-116661921D01*
X153637543Y-116651956D01*
X153617552Y-116639974D01*
X153598832Y-116626090D01*
X153581562Y-116610438D01*
X153565910Y-116593168D01*
X153552026Y-116574448D01*
X153540044Y-116554457D01*
X153530079Y-116533387D01*
X153522227Y-116511443D01*
X153516563Y-116488834D01*
X153513144Y-116465779D01*
X153512000Y-116442500D01*
X153512000Y-115967500D01*
X153513144Y-115944221D01*
X153516563Y-115921166D01*
X153522227Y-115898557D01*
X153530079Y-115876613D01*
X153540044Y-115855543D01*
X153552026Y-115835552D01*
X153565910Y-115816832D01*
X153581562Y-115799562D01*
X153598832Y-115783910D01*
X153617552Y-115770026D01*
X153637543Y-115758044D01*
X153658613Y-115748079D01*
X153680557Y-115740227D01*
X153703166Y-115734563D01*
X153726221Y-115731144D01*
X153749500Y-115730000D01*
X154324500Y-115730000D01*
X154347779Y-115731144D01*
X154347779Y-115731144D01*
G37*
D13*
X154037000Y-116205000D03*
D12*
G36*
X152597779Y-115731144D02*
X152620834Y-115734563D01*
X152643443Y-115740227D01*
X152665387Y-115748079D01*
X152686457Y-115758044D01*
X152706448Y-115770026D01*
X152725168Y-115783910D01*
X152742438Y-115799562D01*
X152758090Y-115816832D01*
X152771974Y-115835552D01*
X152783956Y-115855543D01*
X152793921Y-115876613D01*
X152801773Y-115898557D01*
X152807437Y-115921166D01*
X152810856Y-115944221D01*
X152812000Y-115967500D01*
X152812000Y-116442500D01*
X152810856Y-116465779D01*
X152807437Y-116488834D01*
X152801773Y-116511443D01*
X152793921Y-116533387D01*
X152783956Y-116554457D01*
X152771974Y-116574448D01*
X152758090Y-116593168D01*
X152742438Y-116610438D01*
X152725168Y-116626090D01*
X152706448Y-116639974D01*
X152686457Y-116651956D01*
X152665387Y-116661921D01*
X152643443Y-116669773D01*
X152620834Y-116675437D01*
X152597779Y-116678856D01*
X152574500Y-116680000D01*
X151999500Y-116680000D01*
X151976221Y-116678856D01*
X151953166Y-116675437D01*
X151930557Y-116669773D01*
X151908613Y-116661921D01*
X151887543Y-116651956D01*
X151867552Y-116639974D01*
X151848832Y-116626090D01*
X151831562Y-116610438D01*
X151815910Y-116593168D01*
X151802026Y-116574448D01*
X151790044Y-116554457D01*
X151780079Y-116533387D01*
X151772227Y-116511443D01*
X151766563Y-116488834D01*
X151763144Y-116465779D01*
X151762000Y-116442500D01*
X151762000Y-115967500D01*
X151763144Y-115944221D01*
X151766563Y-115921166D01*
X151772227Y-115898557D01*
X151780079Y-115876613D01*
X151790044Y-115855543D01*
X151802026Y-115835552D01*
X151815910Y-115816832D01*
X151831562Y-115799562D01*
X151848832Y-115783910D01*
X151867552Y-115770026D01*
X151887543Y-115758044D01*
X151908613Y-115748079D01*
X151930557Y-115740227D01*
X151953166Y-115734563D01*
X151976221Y-115731144D01*
X151999500Y-115730000D01*
X152574500Y-115730000D01*
X152597779Y-115731144D01*
X152597779Y-115731144D01*
G37*
D13*
X152287000Y-116205000D03*
G04 #@! TD*
D12*
G04 #@! TO.C,C8*
G36*
X144201779Y-115731144D02*
X144224834Y-115734563D01*
X144247443Y-115740227D01*
X144269387Y-115748079D01*
X144290457Y-115758044D01*
X144310448Y-115770026D01*
X144329168Y-115783910D01*
X144346438Y-115799562D01*
X144362090Y-115816832D01*
X144375974Y-115835552D01*
X144387956Y-115855543D01*
X144397921Y-115876613D01*
X144405773Y-115898557D01*
X144411437Y-115921166D01*
X144414856Y-115944221D01*
X144416000Y-115967500D01*
X144416000Y-116442500D01*
X144414856Y-116465779D01*
X144411437Y-116488834D01*
X144405773Y-116511443D01*
X144397921Y-116533387D01*
X144387956Y-116554457D01*
X144375974Y-116574448D01*
X144362090Y-116593168D01*
X144346438Y-116610438D01*
X144329168Y-116626090D01*
X144310448Y-116639974D01*
X144290457Y-116651956D01*
X144269387Y-116661921D01*
X144247443Y-116669773D01*
X144224834Y-116675437D01*
X144201779Y-116678856D01*
X144178500Y-116680000D01*
X143603500Y-116680000D01*
X143580221Y-116678856D01*
X143557166Y-116675437D01*
X143534557Y-116669773D01*
X143512613Y-116661921D01*
X143491543Y-116651956D01*
X143471552Y-116639974D01*
X143452832Y-116626090D01*
X143435562Y-116610438D01*
X143419910Y-116593168D01*
X143406026Y-116574448D01*
X143394044Y-116554457D01*
X143384079Y-116533387D01*
X143376227Y-116511443D01*
X143370563Y-116488834D01*
X143367144Y-116465779D01*
X143366000Y-116442500D01*
X143366000Y-115967500D01*
X143367144Y-115944221D01*
X143370563Y-115921166D01*
X143376227Y-115898557D01*
X143384079Y-115876613D01*
X143394044Y-115855543D01*
X143406026Y-115835552D01*
X143419910Y-115816832D01*
X143435562Y-115799562D01*
X143452832Y-115783910D01*
X143471552Y-115770026D01*
X143491543Y-115758044D01*
X143512613Y-115748079D01*
X143534557Y-115740227D01*
X143557166Y-115734563D01*
X143580221Y-115731144D01*
X143603500Y-115730000D01*
X144178500Y-115730000D01*
X144201779Y-115731144D01*
X144201779Y-115731144D01*
G37*
D13*
X143891000Y-116205000D03*
D12*
G36*
X145951779Y-115731144D02*
X145974834Y-115734563D01*
X145997443Y-115740227D01*
X146019387Y-115748079D01*
X146040457Y-115758044D01*
X146060448Y-115770026D01*
X146079168Y-115783910D01*
X146096438Y-115799562D01*
X146112090Y-115816832D01*
X146125974Y-115835552D01*
X146137956Y-115855543D01*
X146147921Y-115876613D01*
X146155773Y-115898557D01*
X146161437Y-115921166D01*
X146164856Y-115944221D01*
X146166000Y-115967500D01*
X146166000Y-116442500D01*
X146164856Y-116465779D01*
X146161437Y-116488834D01*
X146155773Y-116511443D01*
X146147921Y-116533387D01*
X146137956Y-116554457D01*
X146125974Y-116574448D01*
X146112090Y-116593168D01*
X146096438Y-116610438D01*
X146079168Y-116626090D01*
X146060448Y-116639974D01*
X146040457Y-116651956D01*
X146019387Y-116661921D01*
X145997443Y-116669773D01*
X145974834Y-116675437D01*
X145951779Y-116678856D01*
X145928500Y-116680000D01*
X145353500Y-116680000D01*
X145330221Y-116678856D01*
X145307166Y-116675437D01*
X145284557Y-116669773D01*
X145262613Y-116661921D01*
X145241543Y-116651956D01*
X145221552Y-116639974D01*
X145202832Y-116626090D01*
X145185562Y-116610438D01*
X145169910Y-116593168D01*
X145156026Y-116574448D01*
X145144044Y-116554457D01*
X145134079Y-116533387D01*
X145126227Y-116511443D01*
X145120563Y-116488834D01*
X145117144Y-116465779D01*
X145116000Y-116442500D01*
X145116000Y-115967500D01*
X145117144Y-115944221D01*
X145120563Y-115921166D01*
X145126227Y-115898557D01*
X145134079Y-115876613D01*
X145144044Y-115855543D01*
X145156026Y-115835552D01*
X145169910Y-115816832D01*
X145185562Y-115799562D01*
X145202832Y-115783910D01*
X145221552Y-115770026D01*
X145241543Y-115758044D01*
X145262613Y-115748079D01*
X145284557Y-115740227D01*
X145307166Y-115734563D01*
X145330221Y-115731144D01*
X145353500Y-115730000D01*
X145928500Y-115730000D01*
X145951779Y-115731144D01*
X145951779Y-115731144D01*
G37*
D13*
X145641000Y-116205000D03*
G04 #@! TD*
D14*
G04 #@! TO.C,Conn1*
X162788600Y-114681000D03*
X162788600Y-106807000D03*
G04 #@! TD*
G04 #@! TO.C,Conn2*
X162788600Y-123317000D03*
X162788600Y-131191000D03*
G04 #@! TD*
G04 #@! TO.C,Conn3*
X139471400Y-37719000D03*
X139471400Y-45593000D03*
G04 #@! TD*
G04 #@! TO.C,Conn4*
X162788600Y-37719000D03*
X162788600Y-45593000D03*
G04 #@! TD*
D10*
G04 #@! TO.C,D1*
X152400000Y-112394000D03*
X152400000Y-109094000D03*
G04 #@! TD*
D12*
G04 #@! TO.C,D2*
G36*
X154347779Y-50072144D02*
X154370834Y-50075563D01*
X154393443Y-50081227D01*
X154415387Y-50089079D01*
X154436457Y-50099044D01*
X154456448Y-50111026D01*
X154475168Y-50124910D01*
X154492438Y-50140562D01*
X154508090Y-50157832D01*
X154521974Y-50176552D01*
X154533956Y-50196543D01*
X154543921Y-50217613D01*
X154551773Y-50239557D01*
X154557437Y-50262166D01*
X154560856Y-50285221D01*
X154562000Y-50308500D01*
X154562000Y-50783500D01*
X154560856Y-50806779D01*
X154557437Y-50829834D01*
X154551773Y-50852443D01*
X154543921Y-50874387D01*
X154533956Y-50895457D01*
X154521974Y-50915448D01*
X154508090Y-50934168D01*
X154492438Y-50951438D01*
X154475168Y-50967090D01*
X154456448Y-50980974D01*
X154436457Y-50992956D01*
X154415387Y-51002921D01*
X154393443Y-51010773D01*
X154370834Y-51016437D01*
X154347779Y-51019856D01*
X154324500Y-51021000D01*
X153749500Y-51021000D01*
X153726221Y-51019856D01*
X153703166Y-51016437D01*
X153680557Y-51010773D01*
X153658613Y-51002921D01*
X153637543Y-50992956D01*
X153617552Y-50980974D01*
X153598832Y-50967090D01*
X153581562Y-50951438D01*
X153565910Y-50934168D01*
X153552026Y-50915448D01*
X153540044Y-50895457D01*
X153530079Y-50874387D01*
X153522227Y-50852443D01*
X153516563Y-50829834D01*
X153513144Y-50806779D01*
X153512000Y-50783500D01*
X153512000Y-50308500D01*
X153513144Y-50285221D01*
X153516563Y-50262166D01*
X153522227Y-50239557D01*
X153530079Y-50217613D01*
X153540044Y-50196543D01*
X153552026Y-50176552D01*
X153565910Y-50157832D01*
X153581562Y-50140562D01*
X153598832Y-50124910D01*
X153617552Y-50111026D01*
X153637543Y-50099044D01*
X153658613Y-50089079D01*
X153680557Y-50081227D01*
X153703166Y-50075563D01*
X153726221Y-50072144D01*
X153749500Y-50071000D01*
X154324500Y-50071000D01*
X154347779Y-50072144D01*
X154347779Y-50072144D01*
G37*
D13*
X154037000Y-50546000D03*
D12*
G36*
X152597779Y-50072144D02*
X152620834Y-50075563D01*
X152643443Y-50081227D01*
X152665387Y-50089079D01*
X152686457Y-50099044D01*
X152706448Y-50111026D01*
X152725168Y-50124910D01*
X152742438Y-50140562D01*
X152758090Y-50157832D01*
X152771974Y-50176552D01*
X152783956Y-50196543D01*
X152793921Y-50217613D01*
X152801773Y-50239557D01*
X152807437Y-50262166D01*
X152810856Y-50285221D01*
X152812000Y-50308500D01*
X152812000Y-50783500D01*
X152810856Y-50806779D01*
X152807437Y-50829834D01*
X152801773Y-50852443D01*
X152793921Y-50874387D01*
X152783956Y-50895457D01*
X152771974Y-50915448D01*
X152758090Y-50934168D01*
X152742438Y-50951438D01*
X152725168Y-50967090D01*
X152706448Y-50980974D01*
X152686457Y-50992956D01*
X152665387Y-51002921D01*
X152643443Y-51010773D01*
X152620834Y-51016437D01*
X152597779Y-51019856D01*
X152574500Y-51021000D01*
X151999500Y-51021000D01*
X151976221Y-51019856D01*
X151953166Y-51016437D01*
X151930557Y-51010773D01*
X151908613Y-51002921D01*
X151887543Y-50992956D01*
X151867552Y-50980974D01*
X151848832Y-50967090D01*
X151831562Y-50951438D01*
X151815910Y-50934168D01*
X151802026Y-50915448D01*
X151790044Y-50895457D01*
X151780079Y-50874387D01*
X151772227Y-50852443D01*
X151766563Y-50829834D01*
X151763144Y-50806779D01*
X151762000Y-50783500D01*
X151762000Y-50308500D01*
X151763144Y-50285221D01*
X151766563Y-50262166D01*
X151772227Y-50239557D01*
X151780079Y-50217613D01*
X151790044Y-50196543D01*
X151802026Y-50176552D01*
X151815910Y-50157832D01*
X151831562Y-50140562D01*
X151848832Y-50124910D01*
X151867552Y-50111026D01*
X151887543Y-50099044D01*
X151908613Y-50089079D01*
X151930557Y-50081227D01*
X151953166Y-50075563D01*
X151976221Y-50072144D01*
X151999500Y-50071000D01*
X152574500Y-50071000D01*
X152597779Y-50072144D01*
X152597779Y-50072144D01*
G37*
D13*
X152287000Y-50546000D03*
G04 #@! TD*
D12*
G04 #@! TO.C,D3*
G36*
X148279779Y-111032144D02*
X148302834Y-111035563D01*
X148325443Y-111041227D01*
X148347387Y-111049079D01*
X148368457Y-111059044D01*
X148388448Y-111071026D01*
X148407168Y-111084910D01*
X148424438Y-111100562D01*
X148440090Y-111117832D01*
X148453974Y-111136552D01*
X148465956Y-111156543D01*
X148475921Y-111177613D01*
X148483773Y-111199557D01*
X148489437Y-111222166D01*
X148492856Y-111245221D01*
X148494000Y-111268500D01*
X148494000Y-111743500D01*
X148492856Y-111766779D01*
X148489437Y-111789834D01*
X148483773Y-111812443D01*
X148475921Y-111834387D01*
X148465956Y-111855457D01*
X148453974Y-111875448D01*
X148440090Y-111894168D01*
X148424438Y-111911438D01*
X148407168Y-111927090D01*
X148388448Y-111940974D01*
X148368457Y-111952956D01*
X148347387Y-111962921D01*
X148325443Y-111970773D01*
X148302834Y-111976437D01*
X148279779Y-111979856D01*
X148256500Y-111981000D01*
X147681500Y-111981000D01*
X147658221Y-111979856D01*
X147635166Y-111976437D01*
X147612557Y-111970773D01*
X147590613Y-111962921D01*
X147569543Y-111952956D01*
X147549552Y-111940974D01*
X147530832Y-111927090D01*
X147513562Y-111911438D01*
X147497910Y-111894168D01*
X147484026Y-111875448D01*
X147472044Y-111855457D01*
X147462079Y-111834387D01*
X147454227Y-111812443D01*
X147448563Y-111789834D01*
X147445144Y-111766779D01*
X147444000Y-111743500D01*
X147444000Y-111268500D01*
X147445144Y-111245221D01*
X147448563Y-111222166D01*
X147454227Y-111199557D01*
X147462079Y-111177613D01*
X147472044Y-111156543D01*
X147484026Y-111136552D01*
X147497910Y-111117832D01*
X147513562Y-111100562D01*
X147530832Y-111084910D01*
X147549552Y-111071026D01*
X147569543Y-111059044D01*
X147590613Y-111049079D01*
X147612557Y-111041227D01*
X147635166Y-111035563D01*
X147658221Y-111032144D01*
X147681500Y-111031000D01*
X148256500Y-111031000D01*
X148279779Y-111032144D01*
X148279779Y-111032144D01*
G37*
D13*
X147969000Y-111506000D03*
D12*
G36*
X150029779Y-111032144D02*
X150052834Y-111035563D01*
X150075443Y-111041227D01*
X150097387Y-111049079D01*
X150118457Y-111059044D01*
X150138448Y-111071026D01*
X150157168Y-111084910D01*
X150174438Y-111100562D01*
X150190090Y-111117832D01*
X150203974Y-111136552D01*
X150215956Y-111156543D01*
X150225921Y-111177613D01*
X150233773Y-111199557D01*
X150239437Y-111222166D01*
X150242856Y-111245221D01*
X150244000Y-111268500D01*
X150244000Y-111743500D01*
X150242856Y-111766779D01*
X150239437Y-111789834D01*
X150233773Y-111812443D01*
X150225921Y-111834387D01*
X150215956Y-111855457D01*
X150203974Y-111875448D01*
X150190090Y-111894168D01*
X150174438Y-111911438D01*
X150157168Y-111927090D01*
X150138448Y-111940974D01*
X150118457Y-111952956D01*
X150097387Y-111962921D01*
X150075443Y-111970773D01*
X150052834Y-111976437D01*
X150029779Y-111979856D01*
X150006500Y-111981000D01*
X149431500Y-111981000D01*
X149408221Y-111979856D01*
X149385166Y-111976437D01*
X149362557Y-111970773D01*
X149340613Y-111962921D01*
X149319543Y-111952956D01*
X149299552Y-111940974D01*
X149280832Y-111927090D01*
X149263562Y-111911438D01*
X149247910Y-111894168D01*
X149234026Y-111875448D01*
X149222044Y-111855457D01*
X149212079Y-111834387D01*
X149204227Y-111812443D01*
X149198563Y-111789834D01*
X149195144Y-111766779D01*
X149194000Y-111743500D01*
X149194000Y-111268500D01*
X149195144Y-111245221D01*
X149198563Y-111222166D01*
X149204227Y-111199557D01*
X149212079Y-111177613D01*
X149222044Y-111156543D01*
X149234026Y-111136552D01*
X149247910Y-111117832D01*
X149263562Y-111100562D01*
X149280832Y-111084910D01*
X149299552Y-111071026D01*
X149319543Y-111059044D01*
X149340613Y-111049079D01*
X149362557Y-111041227D01*
X149385166Y-111035563D01*
X149408221Y-111032144D01*
X149431500Y-111031000D01*
X150006500Y-111031000D01*
X150029779Y-111032144D01*
X150029779Y-111032144D01*
G37*
D13*
X149719000Y-111506000D03*
G04 #@! TD*
D12*
G04 #@! TO.C,D4*
G36*
X141647779Y-111032144D02*
X141670834Y-111035563D01*
X141693443Y-111041227D01*
X141715387Y-111049079D01*
X141736457Y-111059044D01*
X141756448Y-111071026D01*
X141775168Y-111084910D01*
X141792438Y-111100562D01*
X141808090Y-111117832D01*
X141821974Y-111136552D01*
X141833956Y-111156543D01*
X141843921Y-111177613D01*
X141851773Y-111199557D01*
X141857437Y-111222166D01*
X141860856Y-111245221D01*
X141862000Y-111268500D01*
X141862000Y-111743500D01*
X141860856Y-111766779D01*
X141857437Y-111789834D01*
X141851773Y-111812443D01*
X141843921Y-111834387D01*
X141833956Y-111855457D01*
X141821974Y-111875448D01*
X141808090Y-111894168D01*
X141792438Y-111911438D01*
X141775168Y-111927090D01*
X141756448Y-111940974D01*
X141736457Y-111952956D01*
X141715387Y-111962921D01*
X141693443Y-111970773D01*
X141670834Y-111976437D01*
X141647779Y-111979856D01*
X141624500Y-111981000D01*
X141049500Y-111981000D01*
X141026221Y-111979856D01*
X141003166Y-111976437D01*
X140980557Y-111970773D01*
X140958613Y-111962921D01*
X140937543Y-111952956D01*
X140917552Y-111940974D01*
X140898832Y-111927090D01*
X140881562Y-111911438D01*
X140865910Y-111894168D01*
X140852026Y-111875448D01*
X140840044Y-111855457D01*
X140830079Y-111834387D01*
X140822227Y-111812443D01*
X140816563Y-111789834D01*
X140813144Y-111766779D01*
X140812000Y-111743500D01*
X140812000Y-111268500D01*
X140813144Y-111245221D01*
X140816563Y-111222166D01*
X140822227Y-111199557D01*
X140830079Y-111177613D01*
X140840044Y-111156543D01*
X140852026Y-111136552D01*
X140865910Y-111117832D01*
X140881562Y-111100562D01*
X140898832Y-111084910D01*
X140917552Y-111071026D01*
X140937543Y-111059044D01*
X140958613Y-111049079D01*
X140980557Y-111041227D01*
X141003166Y-111035563D01*
X141026221Y-111032144D01*
X141049500Y-111031000D01*
X141624500Y-111031000D01*
X141647779Y-111032144D01*
X141647779Y-111032144D01*
G37*
D13*
X141337000Y-111506000D03*
D12*
G36*
X139897779Y-111032144D02*
X139920834Y-111035563D01*
X139943443Y-111041227D01*
X139965387Y-111049079D01*
X139986457Y-111059044D01*
X140006448Y-111071026D01*
X140025168Y-111084910D01*
X140042438Y-111100562D01*
X140058090Y-111117832D01*
X140071974Y-111136552D01*
X140083956Y-111156543D01*
X140093921Y-111177613D01*
X140101773Y-111199557D01*
X140107437Y-111222166D01*
X140110856Y-111245221D01*
X140112000Y-111268500D01*
X140112000Y-111743500D01*
X140110856Y-111766779D01*
X140107437Y-111789834D01*
X140101773Y-111812443D01*
X140093921Y-111834387D01*
X140083956Y-111855457D01*
X140071974Y-111875448D01*
X140058090Y-111894168D01*
X140042438Y-111911438D01*
X140025168Y-111927090D01*
X140006448Y-111940974D01*
X139986457Y-111952956D01*
X139965387Y-111962921D01*
X139943443Y-111970773D01*
X139920834Y-111976437D01*
X139897779Y-111979856D01*
X139874500Y-111981000D01*
X139299500Y-111981000D01*
X139276221Y-111979856D01*
X139253166Y-111976437D01*
X139230557Y-111970773D01*
X139208613Y-111962921D01*
X139187543Y-111952956D01*
X139167552Y-111940974D01*
X139148832Y-111927090D01*
X139131562Y-111911438D01*
X139115910Y-111894168D01*
X139102026Y-111875448D01*
X139090044Y-111855457D01*
X139080079Y-111834387D01*
X139072227Y-111812443D01*
X139066563Y-111789834D01*
X139063144Y-111766779D01*
X139062000Y-111743500D01*
X139062000Y-111268500D01*
X139063144Y-111245221D01*
X139066563Y-111222166D01*
X139072227Y-111199557D01*
X139080079Y-111177613D01*
X139090044Y-111156543D01*
X139102026Y-111136552D01*
X139115910Y-111117832D01*
X139131562Y-111100562D01*
X139148832Y-111084910D01*
X139167552Y-111071026D01*
X139187543Y-111059044D01*
X139208613Y-111049079D01*
X139230557Y-111041227D01*
X139253166Y-111035563D01*
X139276221Y-111032144D01*
X139299500Y-111031000D01*
X139874500Y-111031000D01*
X139897779Y-111032144D01*
X139897779Y-111032144D01*
G37*
D13*
X139587000Y-111506000D03*
G04 #@! TD*
D12*
G04 #@! TO.C,D5*
G36*
X148088779Y-38098144D02*
X148111834Y-38101563D01*
X148134443Y-38107227D01*
X148156387Y-38115079D01*
X148177457Y-38125044D01*
X148197448Y-38137026D01*
X148216168Y-38150910D01*
X148233438Y-38166562D01*
X148249090Y-38183832D01*
X148262974Y-38202552D01*
X148274956Y-38222543D01*
X148284921Y-38243613D01*
X148292773Y-38265557D01*
X148298437Y-38288166D01*
X148301856Y-38311221D01*
X148303000Y-38334500D01*
X148303000Y-38909500D01*
X148301856Y-38932779D01*
X148298437Y-38955834D01*
X148292773Y-38978443D01*
X148284921Y-39000387D01*
X148274956Y-39021457D01*
X148262974Y-39041448D01*
X148249090Y-39060168D01*
X148233438Y-39077438D01*
X148216168Y-39093090D01*
X148197448Y-39106974D01*
X148177457Y-39118956D01*
X148156387Y-39128921D01*
X148134443Y-39136773D01*
X148111834Y-39142437D01*
X148088779Y-39145856D01*
X148065500Y-39147000D01*
X147590500Y-39147000D01*
X147567221Y-39145856D01*
X147544166Y-39142437D01*
X147521557Y-39136773D01*
X147499613Y-39128921D01*
X147478543Y-39118956D01*
X147458552Y-39106974D01*
X147439832Y-39093090D01*
X147422562Y-39077438D01*
X147406910Y-39060168D01*
X147393026Y-39041448D01*
X147381044Y-39021457D01*
X147371079Y-39000387D01*
X147363227Y-38978443D01*
X147357563Y-38955834D01*
X147354144Y-38932779D01*
X147353000Y-38909500D01*
X147353000Y-38334500D01*
X147354144Y-38311221D01*
X147357563Y-38288166D01*
X147363227Y-38265557D01*
X147371079Y-38243613D01*
X147381044Y-38222543D01*
X147393026Y-38202552D01*
X147406910Y-38183832D01*
X147422562Y-38166562D01*
X147439832Y-38150910D01*
X147458552Y-38137026D01*
X147478543Y-38125044D01*
X147499613Y-38115079D01*
X147521557Y-38107227D01*
X147544166Y-38101563D01*
X147567221Y-38098144D01*
X147590500Y-38097000D01*
X148065500Y-38097000D01*
X148088779Y-38098144D01*
X148088779Y-38098144D01*
G37*
D13*
X147828000Y-38622000D03*
D12*
G36*
X148088779Y-39848144D02*
X148111834Y-39851563D01*
X148134443Y-39857227D01*
X148156387Y-39865079D01*
X148177457Y-39875044D01*
X148197448Y-39887026D01*
X148216168Y-39900910D01*
X148233438Y-39916562D01*
X148249090Y-39933832D01*
X148262974Y-39952552D01*
X148274956Y-39972543D01*
X148284921Y-39993613D01*
X148292773Y-40015557D01*
X148298437Y-40038166D01*
X148301856Y-40061221D01*
X148303000Y-40084500D01*
X148303000Y-40659500D01*
X148301856Y-40682779D01*
X148298437Y-40705834D01*
X148292773Y-40728443D01*
X148284921Y-40750387D01*
X148274956Y-40771457D01*
X148262974Y-40791448D01*
X148249090Y-40810168D01*
X148233438Y-40827438D01*
X148216168Y-40843090D01*
X148197448Y-40856974D01*
X148177457Y-40868956D01*
X148156387Y-40878921D01*
X148134443Y-40886773D01*
X148111834Y-40892437D01*
X148088779Y-40895856D01*
X148065500Y-40897000D01*
X147590500Y-40897000D01*
X147567221Y-40895856D01*
X147544166Y-40892437D01*
X147521557Y-40886773D01*
X147499613Y-40878921D01*
X147478543Y-40868956D01*
X147458552Y-40856974D01*
X147439832Y-40843090D01*
X147422562Y-40827438D01*
X147406910Y-40810168D01*
X147393026Y-40791448D01*
X147381044Y-40771457D01*
X147371079Y-40750387D01*
X147363227Y-40728443D01*
X147357563Y-40705834D01*
X147354144Y-40682779D01*
X147353000Y-40659500D01*
X147353000Y-40084500D01*
X147354144Y-40061221D01*
X147357563Y-40038166D01*
X147363227Y-40015557D01*
X147371079Y-39993613D01*
X147381044Y-39972543D01*
X147393026Y-39952552D01*
X147406910Y-39933832D01*
X147422562Y-39916562D01*
X147439832Y-39900910D01*
X147458552Y-39887026D01*
X147478543Y-39875044D01*
X147499613Y-39865079D01*
X147521557Y-39857227D01*
X147544166Y-39851563D01*
X147567221Y-39848144D01*
X147590500Y-39847000D01*
X148065500Y-39847000D01*
X148088779Y-39848144D01*
X148088779Y-39848144D01*
G37*
D13*
X147828000Y-40372000D03*
G04 #@! TD*
D12*
G04 #@! TO.C,D6*
G36*
X148088779Y-45944144D02*
X148111834Y-45947563D01*
X148134443Y-45953227D01*
X148156387Y-45961079D01*
X148177457Y-45971044D01*
X148197448Y-45983026D01*
X148216168Y-45996910D01*
X148233438Y-46012562D01*
X148249090Y-46029832D01*
X148262974Y-46048552D01*
X148274956Y-46068543D01*
X148284921Y-46089613D01*
X148292773Y-46111557D01*
X148298437Y-46134166D01*
X148301856Y-46157221D01*
X148303000Y-46180500D01*
X148303000Y-46755500D01*
X148301856Y-46778779D01*
X148298437Y-46801834D01*
X148292773Y-46824443D01*
X148284921Y-46846387D01*
X148274956Y-46867457D01*
X148262974Y-46887448D01*
X148249090Y-46906168D01*
X148233438Y-46923438D01*
X148216168Y-46939090D01*
X148197448Y-46952974D01*
X148177457Y-46964956D01*
X148156387Y-46974921D01*
X148134443Y-46982773D01*
X148111834Y-46988437D01*
X148088779Y-46991856D01*
X148065500Y-46993000D01*
X147590500Y-46993000D01*
X147567221Y-46991856D01*
X147544166Y-46988437D01*
X147521557Y-46982773D01*
X147499613Y-46974921D01*
X147478543Y-46964956D01*
X147458552Y-46952974D01*
X147439832Y-46939090D01*
X147422562Y-46923438D01*
X147406910Y-46906168D01*
X147393026Y-46887448D01*
X147381044Y-46867457D01*
X147371079Y-46846387D01*
X147363227Y-46824443D01*
X147357563Y-46801834D01*
X147354144Y-46778779D01*
X147353000Y-46755500D01*
X147353000Y-46180500D01*
X147354144Y-46157221D01*
X147357563Y-46134166D01*
X147363227Y-46111557D01*
X147371079Y-46089613D01*
X147381044Y-46068543D01*
X147393026Y-46048552D01*
X147406910Y-46029832D01*
X147422562Y-46012562D01*
X147439832Y-45996910D01*
X147458552Y-45983026D01*
X147478543Y-45971044D01*
X147499613Y-45961079D01*
X147521557Y-45953227D01*
X147544166Y-45947563D01*
X147567221Y-45944144D01*
X147590500Y-45943000D01*
X148065500Y-45943000D01*
X148088779Y-45944144D01*
X148088779Y-45944144D01*
G37*
D13*
X147828000Y-46468000D03*
D12*
G36*
X148088779Y-44194144D02*
X148111834Y-44197563D01*
X148134443Y-44203227D01*
X148156387Y-44211079D01*
X148177457Y-44221044D01*
X148197448Y-44233026D01*
X148216168Y-44246910D01*
X148233438Y-44262562D01*
X148249090Y-44279832D01*
X148262974Y-44298552D01*
X148274956Y-44318543D01*
X148284921Y-44339613D01*
X148292773Y-44361557D01*
X148298437Y-44384166D01*
X148301856Y-44407221D01*
X148303000Y-44430500D01*
X148303000Y-45005500D01*
X148301856Y-45028779D01*
X148298437Y-45051834D01*
X148292773Y-45074443D01*
X148284921Y-45096387D01*
X148274956Y-45117457D01*
X148262974Y-45137448D01*
X148249090Y-45156168D01*
X148233438Y-45173438D01*
X148216168Y-45189090D01*
X148197448Y-45202974D01*
X148177457Y-45214956D01*
X148156387Y-45224921D01*
X148134443Y-45232773D01*
X148111834Y-45238437D01*
X148088779Y-45241856D01*
X148065500Y-45243000D01*
X147590500Y-45243000D01*
X147567221Y-45241856D01*
X147544166Y-45238437D01*
X147521557Y-45232773D01*
X147499613Y-45224921D01*
X147478543Y-45214956D01*
X147458552Y-45202974D01*
X147439832Y-45189090D01*
X147422562Y-45173438D01*
X147406910Y-45156168D01*
X147393026Y-45137448D01*
X147381044Y-45117457D01*
X147371079Y-45096387D01*
X147363227Y-45074443D01*
X147357563Y-45051834D01*
X147354144Y-45028779D01*
X147353000Y-45005500D01*
X147353000Y-44430500D01*
X147354144Y-44407221D01*
X147357563Y-44384166D01*
X147363227Y-44361557D01*
X147371079Y-44339613D01*
X147381044Y-44318543D01*
X147393026Y-44298552D01*
X147406910Y-44279832D01*
X147422562Y-44262562D01*
X147439832Y-44246910D01*
X147458552Y-44233026D01*
X147478543Y-44221044D01*
X147499613Y-44211079D01*
X147521557Y-44203227D01*
X147544166Y-44197563D01*
X147567221Y-44194144D01*
X147590500Y-44193000D01*
X148065500Y-44193000D01*
X148088779Y-44194144D01*
X148088779Y-44194144D01*
G37*
D13*
X147828000Y-44718000D03*
G04 #@! TD*
D12*
G04 #@! TO.C,D8*
G36*
X148406779Y-115731144D02*
X148429834Y-115734563D01*
X148452443Y-115740227D01*
X148474387Y-115748079D01*
X148495457Y-115758044D01*
X148515448Y-115770026D01*
X148534168Y-115783910D01*
X148551438Y-115799562D01*
X148567090Y-115816832D01*
X148580974Y-115835552D01*
X148592956Y-115855543D01*
X148602921Y-115876613D01*
X148610773Y-115898557D01*
X148616437Y-115921166D01*
X148619856Y-115944221D01*
X148621000Y-115967500D01*
X148621000Y-116442500D01*
X148619856Y-116465779D01*
X148616437Y-116488834D01*
X148610773Y-116511443D01*
X148602921Y-116533387D01*
X148592956Y-116554457D01*
X148580974Y-116574448D01*
X148567090Y-116593168D01*
X148551438Y-116610438D01*
X148534168Y-116626090D01*
X148515448Y-116639974D01*
X148495457Y-116651956D01*
X148474387Y-116661921D01*
X148452443Y-116669773D01*
X148429834Y-116675437D01*
X148406779Y-116678856D01*
X148383500Y-116680000D01*
X147808500Y-116680000D01*
X147785221Y-116678856D01*
X147762166Y-116675437D01*
X147739557Y-116669773D01*
X147717613Y-116661921D01*
X147696543Y-116651956D01*
X147676552Y-116639974D01*
X147657832Y-116626090D01*
X147640562Y-116610438D01*
X147624910Y-116593168D01*
X147611026Y-116574448D01*
X147599044Y-116554457D01*
X147589079Y-116533387D01*
X147581227Y-116511443D01*
X147575563Y-116488834D01*
X147572144Y-116465779D01*
X147571000Y-116442500D01*
X147571000Y-115967500D01*
X147572144Y-115944221D01*
X147575563Y-115921166D01*
X147581227Y-115898557D01*
X147589079Y-115876613D01*
X147599044Y-115855543D01*
X147611026Y-115835552D01*
X147624910Y-115816832D01*
X147640562Y-115799562D01*
X147657832Y-115783910D01*
X147676552Y-115770026D01*
X147696543Y-115758044D01*
X147717613Y-115748079D01*
X147739557Y-115740227D01*
X147762166Y-115734563D01*
X147785221Y-115731144D01*
X147808500Y-115730000D01*
X148383500Y-115730000D01*
X148406779Y-115731144D01*
X148406779Y-115731144D01*
G37*
D13*
X148096000Y-116205000D03*
D12*
G36*
X150156779Y-115731144D02*
X150179834Y-115734563D01*
X150202443Y-115740227D01*
X150224387Y-115748079D01*
X150245457Y-115758044D01*
X150265448Y-115770026D01*
X150284168Y-115783910D01*
X150301438Y-115799562D01*
X150317090Y-115816832D01*
X150330974Y-115835552D01*
X150342956Y-115855543D01*
X150352921Y-115876613D01*
X150360773Y-115898557D01*
X150366437Y-115921166D01*
X150369856Y-115944221D01*
X150371000Y-115967500D01*
X150371000Y-116442500D01*
X150369856Y-116465779D01*
X150366437Y-116488834D01*
X150360773Y-116511443D01*
X150352921Y-116533387D01*
X150342956Y-116554457D01*
X150330974Y-116574448D01*
X150317090Y-116593168D01*
X150301438Y-116610438D01*
X150284168Y-116626090D01*
X150265448Y-116639974D01*
X150245457Y-116651956D01*
X150224387Y-116661921D01*
X150202443Y-116669773D01*
X150179834Y-116675437D01*
X150156779Y-116678856D01*
X150133500Y-116680000D01*
X149558500Y-116680000D01*
X149535221Y-116678856D01*
X149512166Y-116675437D01*
X149489557Y-116669773D01*
X149467613Y-116661921D01*
X149446543Y-116651956D01*
X149426552Y-116639974D01*
X149407832Y-116626090D01*
X149390562Y-116610438D01*
X149374910Y-116593168D01*
X149361026Y-116574448D01*
X149349044Y-116554457D01*
X149339079Y-116533387D01*
X149331227Y-116511443D01*
X149325563Y-116488834D01*
X149322144Y-116465779D01*
X149321000Y-116442500D01*
X149321000Y-115967500D01*
X149322144Y-115944221D01*
X149325563Y-115921166D01*
X149331227Y-115898557D01*
X149339079Y-115876613D01*
X149349044Y-115855543D01*
X149361026Y-115835552D01*
X149374910Y-115816832D01*
X149390562Y-115799562D01*
X149407832Y-115783910D01*
X149426552Y-115770026D01*
X149446543Y-115758044D01*
X149467613Y-115748079D01*
X149489557Y-115740227D01*
X149512166Y-115734563D01*
X149535221Y-115731144D01*
X149558500Y-115730000D01*
X150133500Y-115730000D01*
X150156779Y-115731144D01*
X150156779Y-115731144D01*
G37*
D13*
X149846000Y-116205000D03*
G04 #@! TD*
D12*
G04 #@! TO.C,D10*
G36*
X154692779Y-44194144D02*
X154715834Y-44197563D01*
X154738443Y-44203227D01*
X154760387Y-44211079D01*
X154781457Y-44221044D01*
X154801448Y-44233026D01*
X154820168Y-44246910D01*
X154837438Y-44262562D01*
X154853090Y-44279832D01*
X154866974Y-44298552D01*
X154878956Y-44318543D01*
X154888921Y-44339613D01*
X154896773Y-44361557D01*
X154902437Y-44384166D01*
X154905856Y-44407221D01*
X154907000Y-44430500D01*
X154907000Y-45005500D01*
X154905856Y-45028779D01*
X154902437Y-45051834D01*
X154896773Y-45074443D01*
X154888921Y-45096387D01*
X154878956Y-45117457D01*
X154866974Y-45137448D01*
X154853090Y-45156168D01*
X154837438Y-45173438D01*
X154820168Y-45189090D01*
X154801448Y-45202974D01*
X154781457Y-45214956D01*
X154760387Y-45224921D01*
X154738443Y-45232773D01*
X154715834Y-45238437D01*
X154692779Y-45241856D01*
X154669500Y-45243000D01*
X154194500Y-45243000D01*
X154171221Y-45241856D01*
X154148166Y-45238437D01*
X154125557Y-45232773D01*
X154103613Y-45224921D01*
X154082543Y-45214956D01*
X154062552Y-45202974D01*
X154043832Y-45189090D01*
X154026562Y-45173438D01*
X154010910Y-45156168D01*
X153997026Y-45137448D01*
X153985044Y-45117457D01*
X153975079Y-45096387D01*
X153967227Y-45074443D01*
X153961563Y-45051834D01*
X153958144Y-45028779D01*
X153957000Y-45005500D01*
X153957000Y-44430500D01*
X153958144Y-44407221D01*
X153961563Y-44384166D01*
X153967227Y-44361557D01*
X153975079Y-44339613D01*
X153985044Y-44318543D01*
X153997026Y-44298552D01*
X154010910Y-44279832D01*
X154026562Y-44262562D01*
X154043832Y-44246910D01*
X154062552Y-44233026D01*
X154082543Y-44221044D01*
X154103613Y-44211079D01*
X154125557Y-44203227D01*
X154148166Y-44197563D01*
X154171221Y-44194144D01*
X154194500Y-44193000D01*
X154669500Y-44193000D01*
X154692779Y-44194144D01*
X154692779Y-44194144D01*
G37*
D13*
X154432000Y-44718000D03*
D12*
G36*
X154692779Y-45944144D02*
X154715834Y-45947563D01*
X154738443Y-45953227D01*
X154760387Y-45961079D01*
X154781457Y-45971044D01*
X154801448Y-45983026D01*
X154820168Y-45996910D01*
X154837438Y-46012562D01*
X154853090Y-46029832D01*
X154866974Y-46048552D01*
X154878956Y-46068543D01*
X154888921Y-46089613D01*
X154896773Y-46111557D01*
X154902437Y-46134166D01*
X154905856Y-46157221D01*
X154907000Y-46180500D01*
X154907000Y-46755500D01*
X154905856Y-46778779D01*
X154902437Y-46801834D01*
X154896773Y-46824443D01*
X154888921Y-46846387D01*
X154878956Y-46867457D01*
X154866974Y-46887448D01*
X154853090Y-46906168D01*
X154837438Y-46923438D01*
X154820168Y-46939090D01*
X154801448Y-46952974D01*
X154781457Y-46964956D01*
X154760387Y-46974921D01*
X154738443Y-46982773D01*
X154715834Y-46988437D01*
X154692779Y-46991856D01*
X154669500Y-46993000D01*
X154194500Y-46993000D01*
X154171221Y-46991856D01*
X154148166Y-46988437D01*
X154125557Y-46982773D01*
X154103613Y-46974921D01*
X154082543Y-46964956D01*
X154062552Y-46952974D01*
X154043832Y-46939090D01*
X154026562Y-46923438D01*
X154010910Y-46906168D01*
X153997026Y-46887448D01*
X153985044Y-46867457D01*
X153975079Y-46846387D01*
X153967227Y-46824443D01*
X153961563Y-46801834D01*
X153958144Y-46778779D01*
X153957000Y-46755500D01*
X153957000Y-46180500D01*
X153958144Y-46157221D01*
X153961563Y-46134166D01*
X153967227Y-46111557D01*
X153975079Y-46089613D01*
X153985044Y-46068543D01*
X153997026Y-46048552D01*
X154010910Y-46029832D01*
X154026562Y-46012562D01*
X154043832Y-45996910D01*
X154062552Y-45983026D01*
X154082543Y-45971044D01*
X154103613Y-45961079D01*
X154125557Y-45953227D01*
X154148166Y-45947563D01*
X154171221Y-45944144D01*
X154194500Y-45943000D01*
X154669500Y-45943000D01*
X154692779Y-45944144D01*
X154692779Y-45944144D01*
G37*
D13*
X154432000Y-46468000D03*
G04 #@! TD*
D12*
G04 #@! TO.C,D11*
G36*
X154438779Y-39848144D02*
X154461834Y-39851563D01*
X154484443Y-39857227D01*
X154506387Y-39865079D01*
X154527457Y-39875044D01*
X154547448Y-39887026D01*
X154566168Y-39900910D01*
X154583438Y-39916562D01*
X154599090Y-39933832D01*
X154612974Y-39952552D01*
X154624956Y-39972543D01*
X154634921Y-39993613D01*
X154642773Y-40015557D01*
X154648437Y-40038166D01*
X154651856Y-40061221D01*
X154653000Y-40084500D01*
X154653000Y-40659500D01*
X154651856Y-40682779D01*
X154648437Y-40705834D01*
X154642773Y-40728443D01*
X154634921Y-40750387D01*
X154624956Y-40771457D01*
X154612974Y-40791448D01*
X154599090Y-40810168D01*
X154583438Y-40827438D01*
X154566168Y-40843090D01*
X154547448Y-40856974D01*
X154527457Y-40868956D01*
X154506387Y-40878921D01*
X154484443Y-40886773D01*
X154461834Y-40892437D01*
X154438779Y-40895856D01*
X154415500Y-40897000D01*
X153940500Y-40897000D01*
X153917221Y-40895856D01*
X153894166Y-40892437D01*
X153871557Y-40886773D01*
X153849613Y-40878921D01*
X153828543Y-40868956D01*
X153808552Y-40856974D01*
X153789832Y-40843090D01*
X153772562Y-40827438D01*
X153756910Y-40810168D01*
X153743026Y-40791448D01*
X153731044Y-40771457D01*
X153721079Y-40750387D01*
X153713227Y-40728443D01*
X153707563Y-40705834D01*
X153704144Y-40682779D01*
X153703000Y-40659500D01*
X153703000Y-40084500D01*
X153704144Y-40061221D01*
X153707563Y-40038166D01*
X153713227Y-40015557D01*
X153721079Y-39993613D01*
X153731044Y-39972543D01*
X153743026Y-39952552D01*
X153756910Y-39933832D01*
X153772562Y-39916562D01*
X153789832Y-39900910D01*
X153808552Y-39887026D01*
X153828543Y-39875044D01*
X153849613Y-39865079D01*
X153871557Y-39857227D01*
X153894166Y-39851563D01*
X153917221Y-39848144D01*
X153940500Y-39847000D01*
X154415500Y-39847000D01*
X154438779Y-39848144D01*
X154438779Y-39848144D01*
G37*
D13*
X154178000Y-40372000D03*
D12*
G36*
X154438779Y-38098144D02*
X154461834Y-38101563D01*
X154484443Y-38107227D01*
X154506387Y-38115079D01*
X154527457Y-38125044D01*
X154547448Y-38137026D01*
X154566168Y-38150910D01*
X154583438Y-38166562D01*
X154599090Y-38183832D01*
X154612974Y-38202552D01*
X154624956Y-38222543D01*
X154634921Y-38243613D01*
X154642773Y-38265557D01*
X154648437Y-38288166D01*
X154651856Y-38311221D01*
X154653000Y-38334500D01*
X154653000Y-38909500D01*
X154651856Y-38932779D01*
X154648437Y-38955834D01*
X154642773Y-38978443D01*
X154634921Y-39000387D01*
X154624956Y-39021457D01*
X154612974Y-39041448D01*
X154599090Y-39060168D01*
X154583438Y-39077438D01*
X154566168Y-39093090D01*
X154547448Y-39106974D01*
X154527457Y-39118956D01*
X154506387Y-39128921D01*
X154484443Y-39136773D01*
X154461834Y-39142437D01*
X154438779Y-39145856D01*
X154415500Y-39147000D01*
X153940500Y-39147000D01*
X153917221Y-39145856D01*
X153894166Y-39142437D01*
X153871557Y-39136773D01*
X153849613Y-39128921D01*
X153828543Y-39118956D01*
X153808552Y-39106974D01*
X153789832Y-39093090D01*
X153772562Y-39077438D01*
X153756910Y-39060168D01*
X153743026Y-39041448D01*
X153731044Y-39021457D01*
X153721079Y-39000387D01*
X153713227Y-38978443D01*
X153707563Y-38955834D01*
X153704144Y-38932779D01*
X153703000Y-38909500D01*
X153703000Y-38334500D01*
X153704144Y-38311221D01*
X153707563Y-38288166D01*
X153713227Y-38265557D01*
X153721079Y-38243613D01*
X153731044Y-38222543D01*
X153743026Y-38202552D01*
X153756910Y-38183832D01*
X153772562Y-38166562D01*
X153789832Y-38150910D01*
X153808552Y-38137026D01*
X153828543Y-38125044D01*
X153849613Y-38115079D01*
X153871557Y-38107227D01*
X153894166Y-38101563D01*
X153917221Y-38098144D01*
X153940500Y-38097000D01*
X154415500Y-38097000D01*
X154438779Y-38098144D01*
X154438779Y-38098144D01*
G37*
D13*
X154178000Y-38622000D03*
G04 #@! TD*
D15*
G04 #@! TO.C,Q1*
X150555000Y-106695000D03*
X150555000Y-105395000D03*
X147895000Y-106045000D03*
G04 #@! TD*
G04 #@! TO.C,Q2*
X144078000Y-105664000D03*
X141418000Y-106314000D03*
X141418000Y-105014000D03*
G04 #@! TD*
D16*
G04 #@! TO.C,Q3*
X180346000Y-79638000D03*
X184906000Y-79638000D03*
D17*
X184151000Y-71663000D03*
X181101000Y-75013000D03*
X181101000Y-71663000D03*
X184151000Y-75013000D03*
G04 #@! TD*
D15*
G04 #@! TO.C,Q4*
X116018000Y-69850000D03*
X118678000Y-69200000D03*
X118678000Y-70500000D03*
G04 #@! TD*
D12*
G04 #@! TO.C,R1*
G36*
X132630779Y-72551144D02*
X132653834Y-72554563D01*
X132676443Y-72560227D01*
X132698387Y-72568079D01*
X132719457Y-72578044D01*
X132739448Y-72590026D01*
X132758168Y-72603910D01*
X132775438Y-72619562D01*
X132791090Y-72636832D01*
X132804974Y-72655552D01*
X132816956Y-72675543D01*
X132826921Y-72696613D01*
X132834773Y-72718557D01*
X132840437Y-72741166D01*
X132843856Y-72764221D01*
X132845000Y-72787500D01*
X132845000Y-73262500D01*
X132843856Y-73285779D01*
X132840437Y-73308834D01*
X132834773Y-73331443D01*
X132826921Y-73353387D01*
X132816956Y-73374457D01*
X132804974Y-73394448D01*
X132791090Y-73413168D01*
X132775438Y-73430438D01*
X132758168Y-73446090D01*
X132739448Y-73459974D01*
X132719457Y-73471956D01*
X132698387Y-73481921D01*
X132676443Y-73489773D01*
X132653834Y-73495437D01*
X132630779Y-73498856D01*
X132607500Y-73500000D01*
X132032500Y-73500000D01*
X132009221Y-73498856D01*
X131986166Y-73495437D01*
X131963557Y-73489773D01*
X131941613Y-73481921D01*
X131920543Y-73471956D01*
X131900552Y-73459974D01*
X131881832Y-73446090D01*
X131864562Y-73430438D01*
X131848910Y-73413168D01*
X131835026Y-73394448D01*
X131823044Y-73374457D01*
X131813079Y-73353387D01*
X131805227Y-73331443D01*
X131799563Y-73308834D01*
X131796144Y-73285779D01*
X131795000Y-73262500D01*
X131795000Y-72787500D01*
X131796144Y-72764221D01*
X131799563Y-72741166D01*
X131805227Y-72718557D01*
X131813079Y-72696613D01*
X131823044Y-72675543D01*
X131835026Y-72655552D01*
X131848910Y-72636832D01*
X131864562Y-72619562D01*
X131881832Y-72603910D01*
X131900552Y-72590026D01*
X131920543Y-72578044D01*
X131941613Y-72568079D01*
X131963557Y-72560227D01*
X131986166Y-72554563D01*
X132009221Y-72551144D01*
X132032500Y-72550000D01*
X132607500Y-72550000D01*
X132630779Y-72551144D01*
X132630779Y-72551144D01*
G37*
D13*
X132320000Y-73025000D03*
D12*
G36*
X130880779Y-72551144D02*
X130903834Y-72554563D01*
X130926443Y-72560227D01*
X130948387Y-72568079D01*
X130969457Y-72578044D01*
X130989448Y-72590026D01*
X131008168Y-72603910D01*
X131025438Y-72619562D01*
X131041090Y-72636832D01*
X131054974Y-72655552D01*
X131066956Y-72675543D01*
X131076921Y-72696613D01*
X131084773Y-72718557D01*
X131090437Y-72741166D01*
X131093856Y-72764221D01*
X131095000Y-72787500D01*
X131095000Y-73262500D01*
X131093856Y-73285779D01*
X131090437Y-73308834D01*
X131084773Y-73331443D01*
X131076921Y-73353387D01*
X131066956Y-73374457D01*
X131054974Y-73394448D01*
X131041090Y-73413168D01*
X131025438Y-73430438D01*
X131008168Y-73446090D01*
X130989448Y-73459974D01*
X130969457Y-73471956D01*
X130948387Y-73481921D01*
X130926443Y-73489773D01*
X130903834Y-73495437D01*
X130880779Y-73498856D01*
X130857500Y-73500000D01*
X130282500Y-73500000D01*
X130259221Y-73498856D01*
X130236166Y-73495437D01*
X130213557Y-73489773D01*
X130191613Y-73481921D01*
X130170543Y-73471956D01*
X130150552Y-73459974D01*
X130131832Y-73446090D01*
X130114562Y-73430438D01*
X130098910Y-73413168D01*
X130085026Y-73394448D01*
X130073044Y-73374457D01*
X130063079Y-73353387D01*
X130055227Y-73331443D01*
X130049563Y-73308834D01*
X130046144Y-73285779D01*
X130045000Y-73262500D01*
X130045000Y-72787500D01*
X130046144Y-72764221D01*
X130049563Y-72741166D01*
X130055227Y-72718557D01*
X130063079Y-72696613D01*
X130073044Y-72675543D01*
X130085026Y-72655552D01*
X130098910Y-72636832D01*
X130114562Y-72619562D01*
X130131832Y-72603910D01*
X130150552Y-72590026D01*
X130170543Y-72578044D01*
X130191613Y-72568079D01*
X130213557Y-72560227D01*
X130236166Y-72554563D01*
X130259221Y-72551144D01*
X130282500Y-72550000D01*
X130857500Y-72550000D01*
X130880779Y-72551144D01*
X130880779Y-72551144D01*
G37*
D13*
X130570000Y-73025000D03*
G04 #@! TD*
D12*
G04 #@! TO.C,R2*
G36*
X137710779Y-72551144D02*
X137733834Y-72554563D01*
X137756443Y-72560227D01*
X137778387Y-72568079D01*
X137799457Y-72578044D01*
X137819448Y-72590026D01*
X137838168Y-72603910D01*
X137855438Y-72619562D01*
X137871090Y-72636832D01*
X137884974Y-72655552D01*
X137896956Y-72675543D01*
X137906921Y-72696613D01*
X137914773Y-72718557D01*
X137920437Y-72741166D01*
X137923856Y-72764221D01*
X137925000Y-72787500D01*
X137925000Y-73262500D01*
X137923856Y-73285779D01*
X137920437Y-73308834D01*
X137914773Y-73331443D01*
X137906921Y-73353387D01*
X137896956Y-73374457D01*
X137884974Y-73394448D01*
X137871090Y-73413168D01*
X137855438Y-73430438D01*
X137838168Y-73446090D01*
X137819448Y-73459974D01*
X137799457Y-73471956D01*
X137778387Y-73481921D01*
X137756443Y-73489773D01*
X137733834Y-73495437D01*
X137710779Y-73498856D01*
X137687500Y-73500000D01*
X137112500Y-73500000D01*
X137089221Y-73498856D01*
X137066166Y-73495437D01*
X137043557Y-73489773D01*
X137021613Y-73481921D01*
X137000543Y-73471956D01*
X136980552Y-73459974D01*
X136961832Y-73446090D01*
X136944562Y-73430438D01*
X136928910Y-73413168D01*
X136915026Y-73394448D01*
X136903044Y-73374457D01*
X136893079Y-73353387D01*
X136885227Y-73331443D01*
X136879563Y-73308834D01*
X136876144Y-73285779D01*
X136875000Y-73262500D01*
X136875000Y-72787500D01*
X136876144Y-72764221D01*
X136879563Y-72741166D01*
X136885227Y-72718557D01*
X136893079Y-72696613D01*
X136903044Y-72675543D01*
X136915026Y-72655552D01*
X136928910Y-72636832D01*
X136944562Y-72619562D01*
X136961832Y-72603910D01*
X136980552Y-72590026D01*
X137000543Y-72578044D01*
X137021613Y-72568079D01*
X137043557Y-72560227D01*
X137066166Y-72554563D01*
X137089221Y-72551144D01*
X137112500Y-72550000D01*
X137687500Y-72550000D01*
X137710779Y-72551144D01*
X137710779Y-72551144D01*
G37*
D13*
X137400000Y-73025000D03*
D12*
G36*
X135960779Y-72551144D02*
X135983834Y-72554563D01*
X136006443Y-72560227D01*
X136028387Y-72568079D01*
X136049457Y-72578044D01*
X136069448Y-72590026D01*
X136088168Y-72603910D01*
X136105438Y-72619562D01*
X136121090Y-72636832D01*
X136134974Y-72655552D01*
X136146956Y-72675543D01*
X136156921Y-72696613D01*
X136164773Y-72718557D01*
X136170437Y-72741166D01*
X136173856Y-72764221D01*
X136175000Y-72787500D01*
X136175000Y-73262500D01*
X136173856Y-73285779D01*
X136170437Y-73308834D01*
X136164773Y-73331443D01*
X136156921Y-73353387D01*
X136146956Y-73374457D01*
X136134974Y-73394448D01*
X136121090Y-73413168D01*
X136105438Y-73430438D01*
X136088168Y-73446090D01*
X136069448Y-73459974D01*
X136049457Y-73471956D01*
X136028387Y-73481921D01*
X136006443Y-73489773D01*
X135983834Y-73495437D01*
X135960779Y-73498856D01*
X135937500Y-73500000D01*
X135362500Y-73500000D01*
X135339221Y-73498856D01*
X135316166Y-73495437D01*
X135293557Y-73489773D01*
X135271613Y-73481921D01*
X135250543Y-73471956D01*
X135230552Y-73459974D01*
X135211832Y-73446090D01*
X135194562Y-73430438D01*
X135178910Y-73413168D01*
X135165026Y-73394448D01*
X135153044Y-73374457D01*
X135143079Y-73353387D01*
X135135227Y-73331443D01*
X135129563Y-73308834D01*
X135126144Y-73285779D01*
X135125000Y-73262500D01*
X135125000Y-72787500D01*
X135126144Y-72764221D01*
X135129563Y-72741166D01*
X135135227Y-72718557D01*
X135143079Y-72696613D01*
X135153044Y-72675543D01*
X135165026Y-72655552D01*
X135178910Y-72636832D01*
X135194562Y-72619562D01*
X135211832Y-72603910D01*
X135230552Y-72590026D01*
X135250543Y-72578044D01*
X135271613Y-72568079D01*
X135293557Y-72560227D01*
X135316166Y-72554563D01*
X135339221Y-72551144D01*
X135362500Y-72550000D01*
X135937500Y-72550000D01*
X135960779Y-72551144D01*
X135960779Y-72551144D01*
G37*
D13*
X135650000Y-73025000D03*
G04 #@! TD*
D12*
G04 #@! TO.C,R3*
G36*
X142790779Y-72551144D02*
X142813834Y-72554563D01*
X142836443Y-72560227D01*
X142858387Y-72568079D01*
X142879457Y-72578044D01*
X142899448Y-72590026D01*
X142918168Y-72603910D01*
X142935438Y-72619562D01*
X142951090Y-72636832D01*
X142964974Y-72655552D01*
X142976956Y-72675543D01*
X142986921Y-72696613D01*
X142994773Y-72718557D01*
X143000437Y-72741166D01*
X143003856Y-72764221D01*
X143005000Y-72787500D01*
X143005000Y-73262500D01*
X143003856Y-73285779D01*
X143000437Y-73308834D01*
X142994773Y-73331443D01*
X142986921Y-73353387D01*
X142976956Y-73374457D01*
X142964974Y-73394448D01*
X142951090Y-73413168D01*
X142935438Y-73430438D01*
X142918168Y-73446090D01*
X142899448Y-73459974D01*
X142879457Y-73471956D01*
X142858387Y-73481921D01*
X142836443Y-73489773D01*
X142813834Y-73495437D01*
X142790779Y-73498856D01*
X142767500Y-73500000D01*
X142192500Y-73500000D01*
X142169221Y-73498856D01*
X142146166Y-73495437D01*
X142123557Y-73489773D01*
X142101613Y-73481921D01*
X142080543Y-73471956D01*
X142060552Y-73459974D01*
X142041832Y-73446090D01*
X142024562Y-73430438D01*
X142008910Y-73413168D01*
X141995026Y-73394448D01*
X141983044Y-73374457D01*
X141973079Y-73353387D01*
X141965227Y-73331443D01*
X141959563Y-73308834D01*
X141956144Y-73285779D01*
X141955000Y-73262500D01*
X141955000Y-72787500D01*
X141956144Y-72764221D01*
X141959563Y-72741166D01*
X141965227Y-72718557D01*
X141973079Y-72696613D01*
X141983044Y-72675543D01*
X141995026Y-72655552D01*
X142008910Y-72636832D01*
X142024562Y-72619562D01*
X142041832Y-72603910D01*
X142060552Y-72590026D01*
X142080543Y-72578044D01*
X142101613Y-72568079D01*
X142123557Y-72560227D01*
X142146166Y-72554563D01*
X142169221Y-72551144D01*
X142192500Y-72550000D01*
X142767500Y-72550000D01*
X142790779Y-72551144D01*
X142790779Y-72551144D01*
G37*
D13*
X142480000Y-73025000D03*
D12*
G36*
X141040779Y-72551144D02*
X141063834Y-72554563D01*
X141086443Y-72560227D01*
X141108387Y-72568079D01*
X141129457Y-72578044D01*
X141149448Y-72590026D01*
X141168168Y-72603910D01*
X141185438Y-72619562D01*
X141201090Y-72636832D01*
X141214974Y-72655552D01*
X141226956Y-72675543D01*
X141236921Y-72696613D01*
X141244773Y-72718557D01*
X141250437Y-72741166D01*
X141253856Y-72764221D01*
X141255000Y-72787500D01*
X141255000Y-73262500D01*
X141253856Y-73285779D01*
X141250437Y-73308834D01*
X141244773Y-73331443D01*
X141236921Y-73353387D01*
X141226956Y-73374457D01*
X141214974Y-73394448D01*
X141201090Y-73413168D01*
X141185438Y-73430438D01*
X141168168Y-73446090D01*
X141149448Y-73459974D01*
X141129457Y-73471956D01*
X141108387Y-73481921D01*
X141086443Y-73489773D01*
X141063834Y-73495437D01*
X141040779Y-73498856D01*
X141017500Y-73500000D01*
X140442500Y-73500000D01*
X140419221Y-73498856D01*
X140396166Y-73495437D01*
X140373557Y-73489773D01*
X140351613Y-73481921D01*
X140330543Y-73471956D01*
X140310552Y-73459974D01*
X140291832Y-73446090D01*
X140274562Y-73430438D01*
X140258910Y-73413168D01*
X140245026Y-73394448D01*
X140233044Y-73374457D01*
X140223079Y-73353387D01*
X140215227Y-73331443D01*
X140209563Y-73308834D01*
X140206144Y-73285779D01*
X140205000Y-73262500D01*
X140205000Y-72787500D01*
X140206144Y-72764221D01*
X140209563Y-72741166D01*
X140215227Y-72718557D01*
X140223079Y-72696613D01*
X140233044Y-72675543D01*
X140245026Y-72655552D01*
X140258910Y-72636832D01*
X140274562Y-72619562D01*
X140291832Y-72603910D01*
X140310552Y-72590026D01*
X140330543Y-72578044D01*
X140351613Y-72568079D01*
X140373557Y-72560227D01*
X140396166Y-72554563D01*
X140419221Y-72551144D01*
X140442500Y-72550000D01*
X141017500Y-72550000D01*
X141040779Y-72551144D01*
X141040779Y-72551144D01*
G37*
D13*
X140730000Y-73025000D03*
G04 #@! TD*
D12*
G04 #@! TO.C,R4*
G36*
X161360779Y-72551144D02*
X161383834Y-72554563D01*
X161406443Y-72560227D01*
X161428387Y-72568079D01*
X161449457Y-72578044D01*
X161469448Y-72590026D01*
X161488168Y-72603910D01*
X161505438Y-72619562D01*
X161521090Y-72636832D01*
X161534974Y-72655552D01*
X161546956Y-72675543D01*
X161556921Y-72696613D01*
X161564773Y-72718557D01*
X161570437Y-72741166D01*
X161573856Y-72764221D01*
X161575000Y-72787500D01*
X161575000Y-73262500D01*
X161573856Y-73285779D01*
X161570437Y-73308834D01*
X161564773Y-73331443D01*
X161556921Y-73353387D01*
X161546956Y-73374457D01*
X161534974Y-73394448D01*
X161521090Y-73413168D01*
X161505438Y-73430438D01*
X161488168Y-73446090D01*
X161469448Y-73459974D01*
X161449457Y-73471956D01*
X161428387Y-73481921D01*
X161406443Y-73489773D01*
X161383834Y-73495437D01*
X161360779Y-73498856D01*
X161337500Y-73500000D01*
X160762500Y-73500000D01*
X160739221Y-73498856D01*
X160716166Y-73495437D01*
X160693557Y-73489773D01*
X160671613Y-73481921D01*
X160650543Y-73471956D01*
X160630552Y-73459974D01*
X160611832Y-73446090D01*
X160594562Y-73430438D01*
X160578910Y-73413168D01*
X160565026Y-73394448D01*
X160553044Y-73374457D01*
X160543079Y-73353387D01*
X160535227Y-73331443D01*
X160529563Y-73308834D01*
X160526144Y-73285779D01*
X160525000Y-73262500D01*
X160525000Y-72787500D01*
X160526144Y-72764221D01*
X160529563Y-72741166D01*
X160535227Y-72718557D01*
X160543079Y-72696613D01*
X160553044Y-72675543D01*
X160565026Y-72655552D01*
X160578910Y-72636832D01*
X160594562Y-72619562D01*
X160611832Y-72603910D01*
X160630552Y-72590026D01*
X160650543Y-72578044D01*
X160671613Y-72568079D01*
X160693557Y-72560227D01*
X160716166Y-72554563D01*
X160739221Y-72551144D01*
X160762500Y-72550000D01*
X161337500Y-72550000D01*
X161360779Y-72551144D01*
X161360779Y-72551144D01*
G37*
D13*
X161050000Y-73025000D03*
D12*
G36*
X163110779Y-72551144D02*
X163133834Y-72554563D01*
X163156443Y-72560227D01*
X163178387Y-72568079D01*
X163199457Y-72578044D01*
X163219448Y-72590026D01*
X163238168Y-72603910D01*
X163255438Y-72619562D01*
X163271090Y-72636832D01*
X163284974Y-72655552D01*
X163296956Y-72675543D01*
X163306921Y-72696613D01*
X163314773Y-72718557D01*
X163320437Y-72741166D01*
X163323856Y-72764221D01*
X163325000Y-72787500D01*
X163325000Y-73262500D01*
X163323856Y-73285779D01*
X163320437Y-73308834D01*
X163314773Y-73331443D01*
X163306921Y-73353387D01*
X163296956Y-73374457D01*
X163284974Y-73394448D01*
X163271090Y-73413168D01*
X163255438Y-73430438D01*
X163238168Y-73446090D01*
X163219448Y-73459974D01*
X163199457Y-73471956D01*
X163178387Y-73481921D01*
X163156443Y-73489773D01*
X163133834Y-73495437D01*
X163110779Y-73498856D01*
X163087500Y-73500000D01*
X162512500Y-73500000D01*
X162489221Y-73498856D01*
X162466166Y-73495437D01*
X162443557Y-73489773D01*
X162421613Y-73481921D01*
X162400543Y-73471956D01*
X162380552Y-73459974D01*
X162361832Y-73446090D01*
X162344562Y-73430438D01*
X162328910Y-73413168D01*
X162315026Y-73394448D01*
X162303044Y-73374457D01*
X162293079Y-73353387D01*
X162285227Y-73331443D01*
X162279563Y-73308834D01*
X162276144Y-73285779D01*
X162275000Y-73262500D01*
X162275000Y-72787500D01*
X162276144Y-72764221D01*
X162279563Y-72741166D01*
X162285227Y-72718557D01*
X162293079Y-72696613D01*
X162303044Y-72675543D01*
X162315026Y-72655552D01*
X162328910Y-72636832D01*
X162344562Y-72619562D01*
X162361832Y-72603910D01*
X162380552Y-72590026D01*
X162400543Y-72578044D01*
X162421613Y-72568079D01*
X162443557Y-72560227D01*
X162466166Y-72554563D01*
X162489221Y-72551144D01*
X162512500Y-72550000D01*
X163087500Y-72550000D01*
X163110779Y-72551144D01*
X163110779Y-72551144D01*
G37*
D13*
X162800000Y-73025000D03*
G04 #@! TD*
D12*
G04 #@! TO.C,R5*
G36*
X166440779Y-72551144D02*
X166463834Y-72554563D01*
X166486443Y-72560227D01*
X166508387Y-72568079D01*
X166529457Y-72578044D01*
X166549448Y-72590026D01*
X166568168Y-72603910D01*
X166585438Y-72619562D01*
X166601090Y-72636832D01*
X166614974Y-72655552D01*
X166626956Y-72675543D01*
X166636921Y-72696613D01*
X166644773Y-72718557D01*
X166650437Y-72741166D01*
X166653856Y-72764221D01*
X166655000Y-72787500D01*
X166655000Y-73262500D01*
X166653856Y-73285779D01*
X166650437Y-73308834D01*
X166644773Y-73331443D01*
X166636921Y-73353387D01*
X166626956Y-73374457D01*
X166614974Y-73394448D01*
X166601090Y-73413168D01*
X166585438Y-73430438D01*
X166568168Y-73446090D01*
X166549448Y-73459974D01*
X166529457Y-73471956D01*
X166508387Y-73481921D01*
X166486443Y-73489773D01*
X166463834Y-73495437D01*
X166440779Y-73498856D01*
X166417500Y-73500000D01*
X165842500Y-73500000D01*
X165819221Y-73498856D01*
X165796166Y-73495437D01*
X165773557Y-73489773D01*
X165751613Y-73481921D01*
X165730543Y-73471956D01*
X165710552Y-73459974D01*
X165691832Y-73446090D01*
X165674562Y-73430438D01*
X165658910Y-73413168D01*
X165645026Y-73394448D01*
X165633044Y-73374457D01*
X165623079Y-73353387D01*
X165615227Y-73331443D01*
X165609563Y-73308834D01*
X165606144Y-73285779D01*
X165605000Y-73262500D01*
X165605000Y-72787500D01*
X165606144Y-72764221D01*
X165609563Y-72741166D01*
X165615227Y-72718557D01*
X165623079Y-72696613D01*
X165633044Y-72675543D01*
X165645026Y-72655552D01*
X165658910Y-72636832D01*
X165674562Y-72619562D01*
X165691832Y-72603910D01*
X165710552Y-72590026D01*
X165730543Y-72578044D01*
X165751613Y-72568079D01*
X165773557Y-72560227D01*
X165796166Y-72554563D01*
X165819221Y-72551144D01*
X165842500Y-72550000D01*
X166417500Y-72550000D01*
X166440779Y-72551144D01*
X166440779Y-72551144D01*
G37*
D13*
X166130000Y-73025000D03*
D12*
G36*
X168190779Y-72551144D02*
X168213834Y-72554563D01*
X168236443Y-72560227D01*
X168258387Y-72568079D01*
X168279457Y-72578044D01*
X168299448Y-72590026D01*
X168318168Y-72603910D01*
X168335438Y-72619562D01*
X168351090Y-72636832D01*
X168364974Y-72655552D01*
X168376956Y-72675543D01*
X168386921Y-72696613D01*
X168394773Y-72718557D01*
X168400437Y-72741166D01*
X168403856Y-72764221D01*
X168405000Y-72787500D01*
X168405000Y-73262500D01*
X168403856Y-73285779D01*
X168400437Y-73308834D01*
X168394773Y-73331443D01*
X168386921Y-73353387D01*
X168376956Y-73374457D01*
X168364974Y-73394448D01*
X168351090Y-73413168D01*
X168335438Y-73430438D01*
X168318168Y-73446090D01*
X168299448Y-73459974D01*
X168279457Y-73471956D01*
X168258387Y-73481921D01*
X168236443Y-73489773D01*
X168213834Y-73495437D01*
X168190779Y-73498856D01*
X168167500Y-73500000D01*
X167592500Y-73500000D01*
X167569221Y-73498856D01*
X167546166Y-73495437D01*
X167523557Y-73489773D01*
X167501613Y-73481921D01*
X167480543Y-73471956D01*
X167460552Y-73459974D01*
X167441832Y-73446090D01*
X167424562Y-73430438D01*
X167408910Y-73413168D01*
X167395026Y-73394448D01*
X167383044Y-73374457D01*
X167373079Y-73353387D01*
X167365227Y-73331443D01*
X167359563Y-73308834D01*
X167356144Y-73285779D01*
X167355000Y-73262500D01*
X167355000Y-72787500D01*
X167356144Y-72764221D01*
X167359563Y-72741166D01*
X167365227Y-72718557D01*
X167373079Y-72696613D01*
X167383044Y-72675543D01*
X167395026Y-72655552D01*
X167408910Y-72636832D01*
X167424562Y-72619562D01*
X167441832Y-72603910D01*
X167460552Y-72590026D01*
X167480543Y-72578044D01*
X167501613Y-72568079D01*
X167523557Y-72560227D01*
X167546166Y-72554563D01*
X167569221Y-72551144D01*
X167592500Y-72550000D01*
X168167500Y-72550000D01*
X168190779Y-72551144D01*
X168190779Y-72551144D01*
G37*
D13*
X167880000Y-73025000D03*
G04 #@! TD*
D12*
G04 #@! TO.C,R6*
G36*
X172127779Y-72551144D02*
X172150834Y-72554563D01*
X172173443Y-72560227D01*
X172195387Y-72568079D01*
X172216457Y-72578044D01*
X172236448Y-72590026D01*
X172255168Y-72603910D01*
X172272438Y-72619562D01*
X172288090Y-72636832D01*
X172301974Y-72655552D01*
X172313956Y-72675543D01*
X172323921Y-72696613D01*
X172331773Y-72718557D01*
X172337437Y-72741166D01*
X172340856Y-72764221D01*
X172342000Y-72787500D01*
X172342000Y-73262500D01*
X172340856Y-73285779D01*
X172337437Y-73308834D01*
X172331773Y-73331443D01*
X172323921Y-73353387D01*
X172313956Y-73374457D01*
X172301974Y-73394448D01*
X172288090Y-73413168D01*
X172272438Y-73430438D01*
X172255168Y-73446090D01*
X172236448Y-73459974D01*
X172216457Y-73471956D01*
X172195387Y-73481921D01*
X172173443Y-73489773D01*
X172150834Y-73495437D01*
X172127779Y-73498856D01*
X172104500Y-73500000D01*
X171529500Y-73500000D01*
X171506221Y-73498856D01*
X171483166Y-73495437D01*
X171460557Y-73489773D01*
X171438613Y-73481921D01*
X171417543Y-73471956D01*
X171397552Y-73459974D01*
X171378832Y-73446090D01*
X171361562Y-73430438D01*
X171345910Y-73413168D01*
X171332026Y-73394448D01*
X171320044Y-73374457D01*
X171310079Y-73353387D01*
X171302227Y-73331443D01*
X171296563Y-73308834D01*
X171293144Y-73285779D01*
X171292000Y-73262500D01*
X171292000Y-72787500D01*
X171293144Y-72764221D01*
X171296563Y-72741166D01*
X171302227Y-72718557D01*
X171310079Y-72696613D01*
X171320044Y-72675543D01*
X171332026Y-72655552D01*
X171345910Y-72636832D01*
X171361562Y-72619562D01*
X171378832Y-72603910D01*
X171397552Y-72590026D01*
X171417543Y-72578044D01*
X171438613Y-72568079D01*
X171460557Y-72560227D01*
X171483166Y-72554563D01*
X171506221Y-72551144D01*
X171529500Y-72550000D01*
X172104500Y-72550000D01*
X172127779Y-72551144D01*
X172127779Y-72551144D01*
G37*
D13*
X171817000Y-73025000D03*
D12*
G36*
X170377779Y-72551144D02*
X170400834Y-72554563D01*
X170423443Y-72560227D01*
X170445387Y-72568079D01*
X170466457Y-72578044D01*
X170486448Y-72590026D01*
X170505168Y-72603910D01*
X170522438Y-72619562D01*
X170538090Y-72636832D01*
X170551974Y-72655552D01*
X170563956Y-72675543D01*
X170573921Y-72696613D01*
X170581773Y-72718557D01*
X170587437Y-72741166D01*
X170590856Y-72764221D01*
X170592000Y-72787500D01*
X170592000Y-73262500D01*
X170590856Y-73285779D01*
X170587437Y-73308834D01*
X170581773Y-73331443D01*
X170573921Y-73353387D01*
X170563956Y-73374457D01*
X170551974Y-73394448D01*
X170538090Y-73413168D01*
X170522438Y-73430438D01*
X170505168Y-73446090D01*
X170486448Y-73459974D01*
X170466457Y-73471956D01*
X170445387Y-73481921D01*
X170423443Y-73489773D01*
X170400834Y-73495437D01*
X170377779Y-73498856D01*
X170354500Y-73500000D01*
X169779500Y-73500000D01*
X169756221Y-73498856D01*
X169733166Y-73495437D01*
X169710557Y-73489773D01*
X169688613Y-73481921D01*
X169667543Y-73471956D01*
X169647552Y-73459974D01*
X169628832Y-73446090D01*
X169611562Y-73430438D01*
X169595910Y-73413168D01*
X169582026Y-73394448D01*
X169570044Y-73374457D01*
X169560079Y-73353387D01*
X169552227Y-73331443D01*
X169546563Y-73308834D01*
X169543144Y-73285779D01*
X169542000Y-73262500D01*
X169542000Y-72787500D01*
X169543144Y-72764221D01*
X169546563Y-72741166D01*
X169552227Y-72718557D01*
X169560079Y-72696613D01*
X169570044Y-72675543D01*
X169582026Y-72655552D01*
X169595910Y-72636832D01*
X169611562Y-72619562D01*
X169628832Y-72603910D01*
X169647552Y-72590026D01*
X169667543Y-72578044D01*
X169688613Y-72568079D01*
X169710557Y-72560227D01*
X169733166Y-72554563D01*
X169756221Y-72551144D01*
X169779500Y-72550000D01*
X170354500Y-72550000D01*
X170377779Y-72551144D01*
X170377779Y-72551144D01*
G37*
D13*
X170067000Y-73025000D03*
G04 #@! TD*
D12*
G04 #@! TO.C,R7*
G36*
X154375779Y-105571144D02*
X154398834Y-105574563D01*
X154421443Y-105580227D01*
X154443387Y-105588079D01*
X154464457Y-105598044D01*
X154484448Y-105610026D01*
X154503168Y-105623910D01*
X154520438Y-105639562D01*
X154536090Y-105656832D01*
X154549974Y-105675552D01*
X154561956Y-105695543D01*
X154571921Y-105716613D01*
X154579773Y-105738557D01*
X154585437Y-105761166D01*
X154588856Y-105784221D01*
X154590000Y-105807500D01*
X154590000Y-106282500D01*
X154588856Y-106305779D01*
X154585437Y-106328834D01*
X154579773Y-106351443D01*
X154571921Y-106373387D01*
X154561956Y-106394457D01*
X154549974Y-106414448D01*
X154536090Y-106433168D01*
X154520438Y-106450438D01*
X154503168Y-106466090D01*
X154484448Y-106479974D01*
X154464457Y-106491956D01*
X154443387Y-106501921D01*
X154421443Y-106509773D01*
X154398834Y-106515437D01*
X154375779Y-106518856D01*
X154352500Y-106520000D01*
X153777500Y-106520000D01*
X153754221Y-106518856D01*
X153731166Y-106515437D01*
X153708557Y-106509773D01*
X153686613Y-106501921D01*
X153665543Y-106491956D01*
X153645552Y-106479974D01*
X153626832Y-106466090D01*
X153609562Y-106450438D01*
X153593910Y-106433168D01*
X153580026Y-106414448D01*
X153568044Y-106394457D01*
X153558079Y-106373387D01*
X153550227Y-106351443D01*
X153544563Y-106328834D01*
X153541144Y-106305779D01*
X153540000Y-106282500D01*
X153540000Y-105807500D01*
X153541144Y-105784221D01*
X153544563Y-105761166D01*
X153550227Y-105738557D01*
X153558079Y-105716613D01*
X153568044Y-105695543D01*
X153580026Y-105675552D01*
X153593910Y-105656832D01*
X153609562Y-105639562D01*
X153626832Y-105623910D01*
X153645552Y-105610026D01*
X153665543Y-105598044D01*
X153686613Y-105588079D01*
X153708557Y-105580227D01*
X153731166Y-105574563D01*
X153754221Y-105571144D01*
X153777500Y-105570000D01*
X154352500Y-105570000D01*
X154375779Y-105571144D01*
X154375779Y-105571144D01*
G37*
D13*
X154065000Y-106045000D03*
D12*
G36*
X156125779Y-105571144D02*
X156148834Y-105574563D01*
X156171443Y-105580227D01*
X156193387Y-105588079D01*
X156214457Y-105598044D01*
X156234448Y-105610026D01*
X156253168Y-105623910D01*
X156270438Y-105639562D01*
X156286090Y-105656832D01*
X156299974Y-105675552D01*
X156311956Y-105695543D01*
X156321921Y-105716613D01*
X156329773Y-105738557D01*
X156335437Y-105761166D01*
X156338856Y-105784221D01*
X156340000Y-105807500D01*
X156340000Y-106282500D01*
X156338856Y-106305779D01*
X156335437Y-106328834D01*
X156329773Y-106351443D01*
X156321921Y-106373387D01*
X156311956Y-106394457D01*
X156299974Y-106414448D01*
X156286090Y-106433168D01*
X156270438Y-106450438D01*
X156253168Y-106466090D01*
X156234448Y-106479974D01*
X156214457Y-106491956D01*
X156193387Y-106501921D01*
X156171443Y-106509773D01*
X156148834Y-106515437D01*
X156125779Y-106518856D01*
X156102500Y-106520000D01*
X155527500Y-106520000D01*
X155504221Y-106518856D01*
X155481166Y-106515437D01*
X155458557Y-106509773D01*
X155436613Y-106501921D01*
X155415543Y-106491956D01*
X155395552Y-106479974D01*
X155376832Y-106466090D01*
X155359562Y-106450438D01*
X155343910Y-106433168D01*
X155330026Y-106414448D01*
X155318044Y-106394457D01*
X155308079Y-106373387D01*
X155300227Y-106351443D01*
X155294563Y-106328834D01*
X155291144Y-106305779D01*
X155290000Y-106282500D01*
X155290000Y-105807500D01*
X155291144Y-105784221D01*
X155294563Y-105761166D01*
X155300227Y-105738557D01*
X155308079Y-105716613D01*
X155318044Y-105695543D01*
X155330026Y-105675552D01*
X155343910Y-105656832D01*
X155359562Y-105639562D01*
X155376832Y-105623910D01*
X155395552Y-105610026D01*
X155415543Y-105598044D01*
X155436613Y-105588079D01*
X155458557Y-105580227D01*
X155481166Y-105574563D01*
X155504221Y-105571144D01*
X155527500Y-105570000D01*
X156102500Y-105570000D01*
X156125779Y-105571144D01*
X156125779Y-105571144D01*
G37*
D13*
X155815000Y-106045000D03*
G04 #@! TD*
D12*
G04 #@! TO.C,R8*
G36*
X155391779Y-108746144D02*
X155414834Y-108749563D01*
X155437443Y-108755227D01*
X155459387Y-108763079D01*
X155480457Y-108773044D01*
X155500448Y-108785026D01*
X155519168Y-108798910D01*
X155536438Y-108814562D01*
X155552090Y-108831832D01*
X155565974Y-108850552D01*
X155577956Y-108870543D01*
X155587921Y-108891613D01*
X155595773Y-108913557D01*
X155601437Y-108936166D01*
X155604856Y-108959221D01*
X155606000Y-108982500D01*
X155606000Y-109457500D01*
X155604856Y-109480779D01*
X155601437Y-109503834D01*
X155595773Y-109526443D01*
X155587921Y-109548387D01*
X155577956Y-109569457D01*
X155565974Y-109589448D01*
X155552090Y-109608168D01*
X155536438Y-109625438D01*
X155519168Y-109641090D01*
X155500448Y-109654974D01*
X155480457Y-109666956D01*
X155459387Y-109676921D01*
X155437443Y-109684773D01*
X155414834Y-109690437D01*
X155391779Y-109693856D01*
X155368500Y-109695000D01*
X154793500Y-109695000D01*
X154770221Y-109693856D01*
X154747166Y-109690437D01*
X154724557Y-109684773D01*
X154702613Y-109676921D01*
X154681543Y-109666956D01*
X154661552Y-109654974D01*
X154642832Y-109641090D01*
X154625562Y-109625438D01*
X154609910Y-109608168D01*
X154596026Y-109589448D01*
X154584044Y-109569457D01*
X154574079Y-109548387D01*
X154566227Y-109526443D01*
X154560563Y-109503834D01*
X154557144Y-109480779D01*
X154556000Y-109457500D01*
X154556000Y-108982500D01*
X154557144Y-108959221D01*
X154560563Y-108936166D01*
X154566227Y-108913557D01*
X154574079Y-108891613D01*
X154584044Y-108870543D01*
X154596026Y-108850552D01*
X154609910Y-108831832D01*
X154625562Y-108814562D01*
X154642832Y-108798910D01*
X154661552Y-108785026D01*
X154681543Y-108773044D01*
X154702613Y-108763079D01*
X154724557Y-108755227D01*
X154747166Y-108749563D01*
X154770221Y-108746144D01*
X154793500Y-108745000D01*
X155368500Y-108745000D01*
X155391779Y-108746144D01*
X155391779Y-108746144D01*
G37*
D13*
X155081000Y-109220000D03*
D12*
G36*
X157141779Y-108746144D02*
X157164834Y-108749563D01*
X157187443Y-108755227D01*
X157209387Y-108763079D01*
X157230457Y-108773044D01*
X157250448Y-108785026D01*
X157269168Y-108798910D01*
X157286438Y-108814562D01*
X157302090Y-108831832D01*
X157315974Y-108850552D01*
X157327956Y-108870543D01*
X157337921Y-108891613D01*
X157345773Y-108913557D01*
X157351437Y-108936166D01*
X157354856Y-108959221D01*
X157356000Y-108982500D01*
X157356000Y-109457500D01*
X157354856Y-109480779D01*
X157351437Y-109503834D01*
X157345773Y-109526443D01*
X157337921Y-109548387D01*
X157327956Y-109569457D01*
X157315974Y-109589448D01*
X157302090Y-109608168D01*
X157286438Y-109625438D01*
X157269168Y-109641090D01*
X157250448Y-109654974D01*
X157230457Y-109666956D01*
X157209387Y-109676921D01*
X157187443Y-109684773D01*
X157164834Y-109690437D01*
X157141779Y-109693856D01*
X157118500Y-109695000D01*
X156543500Y-109695000D01*
X156520221Y-109693856D01*
X156497166Y-109690437D01*
X156474557Y-109684773D01*
X156452613Y-109676921D01*
X156431543Y-109666956D01*
X156411552Y-109654974D01*
X156392832Y-109641090D01*
X156375562Y-109625438D01*
X156359910Y-109608168D01*
X156346026Y-109589448D01*
X156334044Y-109569457D01*
X156324079Y-109548387D01*
X156316227Y-109526443D01*
X156310563Y-109503834D01*
X156307144Y-109480779D01*
X156306000Y-109457500D01*
X156306000Y-108982500D01*
X156307144Y-108959221D01*
X156310563Y-108936166D01*
X156316227Y-108913557D01*
X156324079Y-108891613D01*
X156334044Y-108870543D01*
X156346026Y-108850552D01*
X156359910Y-108831832D01*
X156375562Y-108814562D01*
X156392832Y-108798910D01*
X156411552Y-108785026D01*
X156431543Y-108773044D01*
X156452613Y-108763079D01*
X156474557Y-108755227D01*
X156497166Y-108749563D01*
X156520221Y-108746144D01*
X156543500Y-108745000D01*
X157118500Y-108745000D01*
X157141779Y-108746144D01*
X157141779Y-108746144D01*
G37*
D13*
X156831000Y-109220000D03*
G04 #@! TD*
D12*
G04 #@! TO.C,R9*
G36*
X155391779Y-111794144D02*
X155414834Y-111797563D01*
X155437443Y-111803227D01*
X155459387Y-111811079D01*
X155480457Y-111821044D01*
X155500448Y-111833026D01*
X155519168Y-111846910D01*
X155536438Y-111862562D01*
X155552090Y-111879832D01*
X155565974Y-111898552D01*
X155577956Y-111918543D01*
X155587921Y-111939613D01*
X155595773Y-111961557D01*
X155601437Y-111984166D01*
X155604856Y-112007221D01*
X155606000Y-112030500D01*
X155606000Y-112505500D01*
X155604856Y-112528779D01*
X155601437Y-112551834D01*
X155595773Y-112574443D01*
X155587921Y-112596387D01*
X155577956Y-112617457D01*
X155565974Y-112637448D01*
X155552090Y-112656168D01*
X155536438Y-112673438D01*
X155519168Y-112689090D01*
X155500448Y-112702974D01*
X155480457Y-112714956D01*
X155459387Y-112724921D01*
X155437443Y-112732773D01*
X155414834Y-112738437D01*
X155391779Y-112741856D01*
X155368500Y-112743000D01*
X154793500Y-112743000D01*
X154770221Y-112741856D01*
X154747166Y-112738437D01*
X154724557Y-112732773D01*
X154702613Y-112724921D01*
X154681543Y-112714956D01*
X154661552Y-112702974D01*
X154642832Y-112689090D01*
X154625562Y-112673438D01*
X154609910Y-112656168D01*
X154596026Y-112637448D01*
X154584044Y-112617457D01*
X154574079Y-112596387D01*
X154566227Y-112574443D01*
X154560563Y-112551834D01*
X154557144Y-112528779D01*
X154556000Y-112505500D01*
X154556000Y-112030500D01*
X154557144Y-112007221D01*
X154560563Y-111984166D01*
X154566227Y-111961557D01*
X154574079Y-111939613D01*
X154584044Y-111918543D01*
X154596026Y-111898552D01*
X154609910Y-111879832D01*
X154625562Y-111862562D01*
X154642832Y-111846910D01*
X154661552Y-111833026D01*
X154681543Y-111821044D01*
X154702613Y-111811079D01*
X154724557Y-111803227D01*
X154747166Y-111797563D01*
X154770221Y-111794144D01*
X154793500Y-111793000D01*
X155368500Y-111793000D01*
X155391779Y-111794144D01*
X155391779Y-111794144D01*
G37*
D13*
X155081000Y-112268000D03*
D12*
G36*
X157141779Y-111794144D02*
X157164834Y-111797563D01*
X157187443Y-111803227D01*
X157209387Y-111811079D01*
X157230457Y-111821044D01*
X157250448Y-111833026D01*
X157269168Y-111846910D01*
X157286438Y-111862562D01*
X157302090Y-111879832D01*
X157315974Y-111898552D01*
X157327956Y-111918543D01*
X157337921Y-111939613D01*
X157345773Y-111961557D01*
X157351437Y-111984166D01*
X157354856Y-112007221D01*
X157356000Y-112030500D01*
X157356000Y-112505500D01*
X157354856Y-112528779D01*
X157351437Y-112551834D01*
X157345773Y-112574443D01*
X157337921Y-112596387D01*
X157327956Y-112617457D01*
X157315974Y-112637448D01*
X157302090Y-112656168D01*
X157286438Y-112673438D01*
X157269168Y-112689090D01*
X157250448Y-112702974D01*
X157230457Y-112714956D01*
X157209387Y-112724921D01*
X157187443Y-112732773D01*
X157164834Y-112738437D01*
X157141779Y-112741856D01*
X157118500Y-112743000D01*
X156543500Y-112743000D01*
X156520221Y-112741856D01*
X156497166Y-112738437D01*
X156474557Y-112732773D01*
X156452613Y-112724921D01*
X156431543Y-112714956D01*
X156411552Y-112702974D01*
X156392832Y-112689090D01*
X156375562Y-112673438D01*
X156359910Y-112656168D01*
X156346026Y-112637448D01*
X156334044Y-112617457D01*
X156324079Y-112596387D01*
X156316227Y-112574443D01*
X156310563Y-112551834D01*
X156307144Y-112528779D01*
X156306000Y-112505500D01*
X156306000Y-112030500D01*
X156307144Y-112007221D01*
X156310563Y-111984166D01*
X156316227Y-111961557D01*
X156324079Y-111939613D01*
X156334044Y-111918543D01*
X156346026Y-111898552D01*
X156359910Y-111879832D01*
X156375562Y-111862562D01*
X156392832Y-111846910D01*
X156411552Y-111833026D01*
X156431543Y-111821044D01*
X156452613Y-111811079D01*
X156474557Y-111803227D01*
X156497166Y-111797563D01*
X156520221Y-111794144D01*
X156543500Y-111793000D01*
X157118500Y-111793000D01*
X157141779Y-111794144D01*
X157141779Y-111794144D01*
G37*
D13*
X156831000Y-112268000D03*
G04 #@! TD*
D12*
G04 #@! TO.C,R10*
G36*
X136595779Y-105698144D02*
X136618834Y-105701563D01*
X136641443Y-105707227D01*
X136663387Y-105715079D01*
X136684457Y-105725044D01*
X136704448Y-105737026D01*
X136723168Y-105750910D01*
X136740438Y-105766562D01*
X136756090Y-105783832D01*
X136769974Y-105802552D01*
X136781956Y-105822543D01*
X136791921Y-105843613D01*
X136799773Y-105865557D01*
X136805437Y-105888166D01*
X136808856Y-105911221D01*
X136810000Y-105934500D01*
X136810000Y-106409500D01*
X136808856Y-106432779D01*
X136805437Y-106455834D01*
X136799773Y-106478443D01*
X136791921Y-106500387D01*
X136781956Y-106521457D01*
X136769974Y-106541448D01*
X136756090Y-106560168D01*
X136740438Y-106577438D01*
X136723168Y-106593090D01*
X136704448Y-106606974D01*
X136684457Y-106618956D01*
X136663387Y-106628921D01*
X136641443Y-106636773D01*
X136618834Y-106642437D01*
X136595779Y-106645856D01*
X136572500Y-106647000D01*
X135997500Y-106647000D01*
X135974221Y-106645856D01*
X135951166Y-106642437D01*
X135928557Y-106636773D01*
X135906613Y-106628921D01*
X135885543Y-106618956D01*
X135865552Y-106606974D01*
X135846832Y-106593090D01*
X135829562Y-106577438D01*
X135813910Y-106560168D01*
X135800026Y-106541448D01*
X135788044Y-106521457D01*
X135778079Y-106500387D01*
X135770227Y-106478443D01*
X135764563Y-106455834D01*
X135761144Y-106432779D01*
X135760000Y-106409500D01*
X135760000Y-105934500D01*
X135761144Y-105911221D01*
X135764563Y-105888166D01*
X135770227Y-105865557D01*
X135778079Y-105843613D01*
X135788044Y-105822543D01*
X135800026Y-105802552D01*
X135813910Y-105783832D01*
X135829562Y-105766562D01*
X135846832Y-105750910D01*
X135865552Y-105737026D01*
X135885543Y-105725044D01*
X135906613Y-105715079D01*
X135928557Y-105707227D01*
X135951166Y-105701563D01*
X135974221Y-105698144D01*
X135997500Y-105697000D01*
X136572500Y-105697000D01*
X136595779Y-105698144D01*
X136595779Y-105698144D01*
G37*
D13*
X136285000Y-106172000D03*
D12*
G36*
X138345779Y-105698144D02*
X138368834Y-105701563D01*
X138391443Y-105707227D01*
X138413387Y-105715079D01*
X138434457Y-105725044D01*
X138454448Y-105737026D01*
X138473168Y-105750910D01*
X138490438Y-105766562D01*
X138506090Y-105783832D01*
X138519974Y-105802552D01*
X138531956Y-105822543D01*
X138541921Y-105843613D01*
X138549773Y-105865557D01*
X138555437Y-105888166D01*
X138558856Y-105911221D01*
X138560000Y-105934500D01*
X138560000Y-106409500D01*
X138558856Y-106432779D01*
X138555437Y-106455834D01*
X138549773Y-106478443D01*
X138541921Y-106500387D01*
X138531956Y-106521457D01*
X138519974Y-106541448D01*
X138506090Y-106560168D01*
X138490438Y-106577438D01*
X138473168Y-106593090D01*
X138454448Y-106606974D01*
X138434457Y-106618956D01*
X138413387Y-106628921D01*
X138391443Y-106636773D01*
X138368834Y-106642437D01*
X138345779Y-106645856D01*
X138322500Y-106647000D01*
X137747500Y-106647000D01*
X137724221Y-106645856D01*
X137701166Y-106642437D01*
X137678557Y-106636773D01*
X137656613Y-106628921D01*
X137635543Y-106618956D01*
X137615552Y-106606974D01*
X137596832Y-106593090D01*
X137579562Y-106577438D01*
X137563910Y-106560168D01*
X137550026Y-106541448D01*
X137538044Y-106521457D01*
X137528079Y-106500387D01*
X137520227Y-106478443D01*
X137514563Y-106455834D01*
X137511144Y-106432779D01*
X137510000Y-106409500D01*
X137510000Y-105934500D01*
X137511144Y-105911221D01*
X137514563Y-105888166D01*
X137520227Y-105865557D01*
X137528079Y-105843613D01*
X137538044Y-105822543D01*
X137550026Y-105802552D01*
X137563910Y-105783832D01*
X137579562Y-105766562D01*
X137596832Y-105750910D01*
X137615552Y-105737026D01*
X137635543Y-105725044D01*
X137656613Y-105715079D01*
X137678557Y-105707227D01*
X137701166Y-105701563D01*
X137724221Y-105698144D01*
X137747500Y-105697000D01*
X138322500Y-105697000D01*
X138345779Y-105698144D01*
X138345779Y-105698144D01*
G37*
D13*
X138035000Y-106172000D03*
G04 #@! TD*
D12*
G04 #@! TO.C,R11*
G36*
X177461779Y-81314144D02*
X177484834Y-81317563D01*
X177507443Y-81323227D01*
X177529387Y-81331079D01*
X177550457Y-81341044D01*
X177570448Y-81353026D01*
X177589168Y-81366910D01*
X177606438Y-81382562D01*
X177622090Y-81399832D01*
X177635974Y-81418552D01*
X177647956Y-81438543D01*
X177657921Y-81459613D01*
X177665773Y-81481557D01*
X177671437Y-81504166D01*
X177674856Y-81527221D01*
X177676000Y-81550500D01*
X177676000Y-82025500D01*
X177674856Y-82048779D01*
X177671437Y-82071834D01*
X177665773Y-82094443D01*
X177657921Y-82116387D01*
X177647956Y-82137457D01*
X177635974Y-82157448D01*
X177622090Y-82176168D01*
X177606438Y-82193438D01*
X177589168Y-82209090D01*
X177570448Y-82222974D01*
X177550457Y-82234956D01*
X177529387Y-82244921D01*
X177507443Y-82252773D01*
X177484834Y-82258437D01*
X177461779Y-82261856D01*
X177438500Y-82263000D01*
X176863500Y-82263000D01*
X176840221Y-82261856D01*
X176817166Y-82258437D01*
X176794557Y-82252773D01*
X176772613Y-82244921D01*
X176751543Y-82234956D01*
X176731552Y-82222974D01*
X176712832Y-82209090D01*
X176695562Y-82193438D01*
X176679910Y-82176168D01*
X176666026Y-82157448D01*
X176654044Y-82137457D01*
X176644079Y-82116387D01*
X176636227Y-82094443D01*
X176630563Y-82071834D01*
X176627144Y-82048779D01*
X176626000Y-82025500D01*
X176626000Y-81550500D01*
X176627144Y-81527221D01*
X176630563Y-81504166D01*
X176636227Y-81481557D01*
X176644079Y-81459613D01*
X176654044Y-81438543D01*
X176666026Y-81418552D01*
X176679910Y-81399832D01*
X176695562Y-81382562D01*
X176712832Y-81366910D01*
X176731552Y-81353026D01*
X176751543Y-81341044D01*
X176772613Y-81331079D01*
X176794557Y-81323227D01*
X176817166Y-81317563D01*
X176840221Y-81314144D01*
X176863500Y-81313000D01*
X177438500Y-81313000D01*
X177461779Y-81314144D01*
X177461779Y-81314144D01*
G37*
D13*
X177151000Y-81788000D03*
D12*
G36*
X175711779Y-81314144D02*
X175734834Y-81317563D01*
X175757443Y-81323227D01*
X175779387Y-81331079D01*
X175800457Y-81341044D01*
X175820448Y-81353026D01*
X175839168Y-81366910D01*
X175856438Y-81382562D01*
X175872090Y-81399832D01*
X175885974Y-81418552D01*
X175897956Y-81438543D01*
X175907921Y-81459613D01*
X175915773Y-81481557D01*
X175921437Y-81504166D01*
X175924856Y-81527221D01*
X175926000Y-81550500D01*
X175926000Y-82025500D01*
X175924856Y-82048779D01*
X175921437Y-82071834D01*
X175915773Y-82094443D01*
X175907921Y-82116387D01*
X175897956Y-82137457D01*
X175885974Y-82157448D01*
X175872090Y-82176168D01*
X175856438Y-82193438D01*
X175839168Y-82209090D01*
X175820448Y-82222974D01*
X175800457Y-82234956D01*
X175779387Y-82244921D01*
X175757443Y-82252773D01*
X175734834Y-82258437D01*
X175711779Y-82261856D01*
X175688500Y-82263000D01*
X175113500Y-82263000D01*
X175090221Y-82261856D01*
X175067166Y-82258437D01*
X175044557Y-82252773D01*
X175022613Y-82244921D01*
X175001543Y-82234956D01*
X174981552Y-82222974D01*
X174962832Y-82209090D01*
X174945562Y-82193438D01*
X174929910Y-82176168D01*
X174916026Y-82157448D01*
X174904044Y-82137457D01*
X174894079Y-82116387D01*
X174886227Y-82094443D01*
X174880563Y-82071834D01*
X174877144Y-82048779D01*
X174876000Y-82025500D01*
X174876000Y-81550500D01*
X174877144Y-81527221D01*
X174880563Y-81504166D01*
X174886227Y-81481557D01*
X174894079Y-81459613D01*
X174904044Y-81438543D01*
X174916026Y-81418552D01*
X174929910Y-81399832D01*
X174945562Y-81382562D01*
X174962832Y-81366910D01*
X174981552Y-81353026D01*
X175001543Y-81341044D01*
X175022613Y-81331079D01*
X175044557Y-81323227D01*
X175067166Y-81317563D01*
X175090221Y-81314144D01*
X175113500Y-81313000D01*
X175688500Y-81313000D01*
X175711779Y-81314144D01*
X175711779Y-81314144D01*
G37*
D13*
X175401000Y-81788000D03*
G04 #@! TD*
D12*
G04 #@! TO.C,R12*
G36*
X177461779Y-78520144D02*
X177484834Y-78523563D01*
X177507443Y-78529227D01*
X177529387Y-78537079D01*
X177550457Y-78547044D01*
X177570448Y-78559026D01*
X177589168Y-78572910D01*
X177606438Y-78588562D01*
X177622090Y-78605832D01*
X177635974Y-78624552D01*
X177647956Y-78644543D01*
X177657921Y-78665613D01*
X177665773Y-78687557D01*
X177671437Y-78710166D01*
X177674856Y-78733221D01*
X177676000Y-78756500D01*
X177676000Y-79231500D01*
X177674856Y-79254779D01*
X177671437Y-79277834D01*
X177665773Y-79300443D01*
X177657921Y-79322387D01*
X177647956Y-79343457D01*
X177635974Y-79363448D01*
X177622090Y-79382168D01*
X177606438Y-79399438D01*
X177589168Y-79415090D01*
X177570448Y-79428974D01*
X177550457Y-79440956D01*
X177529387Y-79450921D01*
X177507443Y-79458773D01*
X177484834Y-79464437D01*
X177461779Y-79467856D01*
X177438500Y-79469000D01*
X176863500Y-79469000D01*
X176840221Y-79467856D01*
X176817166Y-79464437D01*
X176794557Y-79458773D01*
X176772613Y-79450921D01*
X176751543Y-79440956D01*
X176731552Y-79428974D01*
X176712832Y-79415090D01*
X176695562Y-79399438D01*
X176679910Y-79382168D01*
X176666026Y-79363448D01*
X176654044Y-79343457D01*
X176644079Y-79322387D01*
X176636227Y-79300443D01*
X176630563Y-79277834D01*
X176627144Y-79254779D01*
X176626000Y-79231500D01*
X176626000Y-78756500D01*
X176627144Y-78733221D01*
X176630563Y-78710166D01*
X176636227Y-78687557D01*
X176644079Y-78665613D01*
X176654044Y-78644543D01*
X176666026Y-78624552D01*
X176679910Y-78605832D01*
X176695562Y-78588562D01*
X176712832Y-78572910D01*
X176731552Y-78559026D01*
X176751543Y-78547044D01*
X176772613Y-78537079D01*
X176794557Y-78529227D01*
X176817166Y-78523563D01*
X176840221Y-78520144D01*
X176863500Y-78519000D01*
X177438500Y-78519000D01*
X177461779Y-78520144D01*
X177461779Y-78520144D01*
G37*
D13*
X177151000Y-78994000D03*
D12*
G36*
X175711779Y-78520144D02*
X175734834Y-78523563D01*
X175757443Y-78529227D01*
X175779387Y-78537079D01*
X175800457Y-78547044D01*
X175820448Y-78559026D01*
X175839168Y-78572910D01*
X175856438Y-78588562D01*
X175872090Y-78605832D01*
X175885974Y-78624552D01*
X175897956Y-78644543D01*
X175907921Y-78665613D01*
X175915773Y-78687557D01*
X175921437Y-78710166D01*
X175924856Y-78733221D01*
X175926000Y-78756500D01*
X175926000Y-79231500D01*
X175924856Y-79254779D01*
X175921437Y-79277834D01*
X175915773Y-79300443D01*
X175907921Y-79322387D01*
X175897956Y-79343457D01*
X175885974Y-79363448D01*
X175872090Y-79382168D01*
X175856438Y-79399438D01*
X175839168Y-79415090D01*
X175820448Y-79428974D01*
X175800457Y-79440956D01*
X175779387Y-79450921D01*
X175757443Y-79458773D01*
X175734834Y-79464437D01*
X175711779Y-79467856D01*
X175688500Y-79469000D01*
X175113500Y-79469000D01*
X175090221Y-79467856D01*
X175067166Y-79464437D01*
X175044557Y-79458773D01*
X175022613Y-79450921D01*
X175001543Y-79440956D01*
X174981552Y-79428974D01*
X174962832Y-79415090D01*
X174945562Y-79399438D01*
X174929910Y-79382168D01*
X174916026Y-79363448D01*
X174904044Y-79343457D01*
X174894079Y-79322387D01*
X174886227Y-79300443D01*
X174880563Y-79277834D01*
X174877144Y-79254779D01*
X174876000Y-79231500D01*
X174876000Y-78756500D01*
X174877144Y-78733221D01*
X174880563Y-78710166D01*
X174886227Y-78687557D01*
X174894079Y-78665613D01*
X174904044Y-78644543D01*
X174916026Y-78624552D01*
X174929910Y-78605832D01*
X174945562Y-78588562D01*
X174962832Y-78572910D01*
X174981552Y-78559026D01*
X175001543Y-78547044D01*
X175022613Y-78537079D01*
X175044557Y-78529227D01*
X175067166Y-78523563D01*
X175090221Y-78520144D01*
X175113500Y-78519000D01*
X175688500Y-78519000D01*
X175711779Y-78520144D01*
X175711779Y-78520144D01*
G37*
D13*
X175401000Y-78994000D03*
G04 #@! TD*
D12*
G04 #@! TO.C,R13*
G36*
X117771779Y-63026144D02*
X117794834Y-63029563D01*
X117817443Y-63035227D01*
X117839387Y-63043079D01*
X117860457Y-63053044D01*
X117880448Y-63065026D01*
X117899168Y-63078910D01*
X117916438Y-63094562D01*
X117932090Y-63111832D01*
X117945974Y-63130552D01*
X117957956Y-63150543D01*
X117967921Y-63171613D01*
X117975773Y-63193557D01*
X117981437Y-63216166D01*
X117984856Y-63239221D01*
X117986000Y-63262500D01*
X117986000Y-63737500D01*
X117984856Y-63760779D01*
X117981437Y-63783834D01*
X117975773Y-63806443D01*
X117967921Y-63828387D01*
X117957956Y-63849457D01*
X117945974Y-63869448D01*
X117932090Y-63888168D01*
X117916438Y-63905438D01*
X117899168Y-63921090D01*
X117880448Y-63934974D01*
X117860457Y-63946956D01*
X117839387Y-63956921D01*
X117817443Y-63964773D01*
X117794834Y-63970437D01*
X117771779Y-63973856D01*
X117748500Y-63975000D01*
X117173500Y-63975000D01*
X117150221Y-63973856D01*
X117127166Y-63970437D01*
X117104557Y-63964773D01*
X117082613Y-63956921D01*
X117061543Y-63946956D01*
X117041552Y-63934974D01*
X117022832Y-63921090D01*
X117005562Y-63905438D01*
X116989910Y-63888168D01*
X116976026Y-63869448D01*
X116964044Y-63849457D01*
X116954079Y-63828387D01*
X116946227Y-63806443D01*
X116940563Y-63783834D01*
X116937144Y-63760779D01*
X116936000Y-63737500D01*
X116936000Y-63262500D01*
X116937144Y-63239221D01*
X116940563Y-63216166D01*
X116946227Y-63193557D01*
X116954079Y-63171613D01*
X116964044Y-63150543D01*
X116976026Y-63130552D01*
X116989910Y-63111832D01*
X117005562Y-63094562D01*
X117022832Y-63078910D01*
X117041552Y-63065026D01*
X117061543Y-63053044D01*
X117082613Y-63043079D01*
X117104557Y-63035227D01*
X117127166Y-63029563D01*
X117150221Y-63026144D01*
X117173500Y-63025000D01*
X117748500Y-63025000D01*
X117771779Y-63026144D01*
X117771779Y-63026144D01*
G37*
D13*
X117461000Y-63500000D03*
D12*
G36*
X116021779Y-63026144D02*
X116044834Y-63029563D01*
X116067443Y-63035227D01*
X116089387Y-63043079D01*
X116110457Y-63053044D01*
X116130448Y-63065026D01*
X116149168Y-63078910D01*
X116166438Y-63094562D01*
X116182090Y-63111832D01*
X116195974Y-63130552D01*
X116207956Y-63150543D01*
X116217921Y-63171613D01*
X116225773Y-63193557D01*
X116231437Y-63216166D01*
X116234856Y-63239221D01*
X116236000Y-63262500D01*
X116236000Y-63737500D01*
X116234856Y-63760779D01*
X116231437Y-63783834D01*
X116225773Y-63806443D01*
X116217921Y-63828387D01*
X116207956Y-63849457D01*
X116195974Y-63869448D01*
X116182090Y-63888168D01*
X116166438Y-63905438D01*
X116149168Y-63921090D01*
X116130448Y-63934974D01*
X116110457Y-63946956D01*
X116089387Y-63956921D01*
X116067443Y-63964773D01*
X116044834Y-63970437D01*
X116021779Y-63973856D01*
X115998500Y-63975000D01*
X115423500Y-63975000D01*
X115400221Y-63973856D01*
X115377166Y-63970437D01*
X115354557Y-63964773D01*
X115332613Y-63956921D01*
X115311543Y-63946956D01*
X115291552Y-63934974D01*
X115272832Y-63921090D01*
X115255562Y-63905438D01*
X115239910Y-63888168D01*
X115226026Y-63869448D01*
X115214044Y-63849457D01*
X115204079Y-63828387D01*
X115196227Y-63806443D01*
X115190563Y-63783834D01*
X115187144Y-63760779D01*
X115186000Y-63737500D01*
X115186000Y-63262500D01*
X115187144Y-63239221D01*
X115190563Y-63216166D01*
X115196227Y-63193557D01*
X115204079Y-63171613D01*
X115214044Y-63150543D01*
X115226026Y-63130552D01*
X115239910Y-63111832D01*
X115255562Y-63094562D01*
X115272832Y-63078910D01*
X115291552Y-63065026D01*
X115311543Y-63053044D01*
X115332613Y-63043079D01*
X115354557Y-63035227D01*
X115377166Y-63029563D01*
X115400221Y-63026144D01*
X115423500Y-63025000D01*
X115998500Y-63025000D01*
X116021779Y-63026144D01*
X116021779Y-63026144D01*
G37*
D13*
X115711000Y-63500000D03*
G04 #@! TD*
D12*
G04 #@! TO.C,R14*
G36*
X185109779Y-63026144D02*
X185132834Y-63029563D01*
X185155443Y-63035227D01*
X185177387Y-63043079D01*
X185198457Y-63053044D01*
X185218448Y-63065026D01*
X185237168Y-63078910D01*
X185254438Y-63094562D01*
X185270090Y-63111832D01*
X185283974Y-63130552D01*
X185295956Y-63150543D01*
X185305921Y-63171613D01*
X185313773Y-63193557D01*
X185319437Y-63216166D01*
X185322856Y-63239221D01*
X185324000Y-63262500D01*
X185324000Y-63737500D01*
X185322856Y-63760779D01*
X185319437Y-63783834D01*
X185313773Y-63806443D01*
X185305921Y-63828387D01*
X185295956Y-63849457D01*
X185283974Y-63869448D01*
X185270090Y-63888168D01*
X185254438Y-63905438D01*
X185237168Y-63921090D01*
X185218448Y-63934974D01*
X185198457Y-63946956D01*
X185177387Y-63956921D01*
X185155443Y-63964773D01*
X185132834Y-63970437D01*
X185109779Y-63973856D01*
X185086500Y-63975000D01*
X184511500Y-63975000D01*
X184488221Y-63973856D01*
X184465166Y-63970437D01*
X184442557Y-63964773D01*
X184420613Y-63956921D01*
X184399543Y-63946956D01*
X184379552Y-63934974D01*
X184360832Y-63921090D01*
X184343562Y-63905438D01*
X184327910Y-63888168D01*
X184314026Y-63869448D01*
X184302044Y-63849457D01*
X184292079Y-63828387D01*
X184284227Y-63806443D01*
X184278563Y-63783834D01*
X184275144Y-63760779D01*
X184274000Y-63737500D01*
X184274000Y-63262500D01*
X184275144Y-63239221D01*
X184278563Y-63216166D01*
X184284227Y-63193557D01*
X184292079Y-63171613D01*
X184302044Y-63150543D01*
X184314026Y-63130552D01*
X184327910Y-63111832D01*
X184343562Y-63094562D01*
X184360832Y-63078910D01*
X184379552Y-63065026D01*
X184399543Y-63053044D01*
X184420613Y-63043079D01*
X184442557Y-63035227D01*
X184465166Y-63029563D01*
X184488221Y-63026144D01*
X184511500Y-63025000D01*
X185086500Y-63025000D01*
X185109779Y-63026144D01*
X185109779Y-63026144D01*
G37*
D13*
X184799000Y-63500000D03*
D12*
G36*
X186859779Y-63026144D02*
X186882834Y-63029563D01*
X186905443Y-63035227D01*
X186927387Y-63043079D01*
X186948457Y-63053044D01*
X186968448Y-63065026D01*
X186987168Y-63078910D01*
X187004438Y-63094562D01*
X187020090Y-63111832D01*
X187033974Y-63130552D01*
X187045956Y-63150543D01*
X187055921Y-63171613D01*
X187063773Y-63193557D01*
X187069437Y-63216166D01*
X187072856Y-63239221D01*
X187074000Y-63262500D01*
X187074000Y-63737500D01*
X187072856Y-63760779D01*
X187069437Y-63783834D01*
X187063773Y-63806443D01*
X187055921Y-63828387D01*
X187045956Y-63849457D01*
X187033974Y-63869448D01*
X187020090Y-63888168D01*
X187004438Y-63905438D01*
X186987168Y-63921090D01*
X186968448Y-63934974D01*
X186948457Y-63946956D01*
X186927387Y-63956921D01*
X186905443Y-63964773D01*
X186882834Y-63970437D01*
X186859779Y-63973856D01*
X186836500Y-63975000D01*
X186261500Y-63975000D01*
X186238221Y-63973856D01*
X186215166Y-63970437D01*
X186192557Y-63964773D01*
X186170613Y-63956921D01*
X186149543Y-63946956D01*
X186129552Y-63934974D01*
X186110832Y-63921090D01*
X186093562Y-63905438D01*
X186077910Y-63888168D01*
X186064026Y-63869448D01*
X186052044Y-63849457D01*
X186042079Y-63828387D01*
X186034227Y-63806443D01*
X186028563Y-63783834D01*
X186025144Y-63760779D01*
X186024000Y-63737500D01*
X186024000Y-63262500D01*
X186025144Y-63239221D01*
X186028563Y-63216166D01*
X186034227Y-63193557D01*
X186042079Y-63171613D01*
X186052044Y-63150543D01*
X186064026Y-63130552D01*
X186077910Y-63111832D01*
X186093562Y-63094562D01*
X186110832Y-63078910D01*
X186129552Y-63065026D01*
X186149543Y-63053044D01*
X186170613Y-63043079D01*
X186192557Y-63035227D01*
X186215166Y-63029563D01*
X186238221Y-63026144D01*
X186261500Y-63025000D01*
X186836500Y-63025000D01*
X186859779Y-63026144D01*
X186859779Y-63026144D01*
G37*
D13*
X186549000Y-63500000D03*
G04 #@! TD*
D12*
G04 #@! TO.C,R16*
G36*
X150029779Y-50072144D02*
X150052834Y-50075563D01*
X150075443Y-50081227D01*
X150097387Y-50089079D01*
X150118457Y-50099044D01*
X150138448Y-50111026D01*
X150157168Y-50124910D01*
X150174438Y-50140562D01*
X150190090Y-50157832D01*
X150203974Y-50176552D01*
X150215956Y-50196543D01*
X150225921Y-50217613D01*
X150233773Y-50239557D01*
X150239437Y-50262166D01*
X150242856Y-50285221D01*
X150244000Y-50308500D01*
X150244000Y-50783500D01*
X150242856Y-50806779D01*
X150239437Y-50829834D01*
X150233773Y-50852443D01*
X150225921Y-50874387D01*
X150215956Y-50895457D01*
X150203974Y-50915448D01*
X150190090Y-50934168D01*
X150174438Y-50951438D01*
X150157168Y-50967090D01*
X150138448Y-50980974D01*
X150118457Y-50992956D01*
X150097387Y-51002921D01*
X150075443Y-51010773D01*
X150052834Y-51016437D01*
X150029779Y-51019856D01*
X150006500Y-51021000D01*
X149431500Y-51021000D01*
X149408221Y-51019856D01*
X149385166Y-51016437D01*
X149362557Y-51010773D01*
X149340613Y-51002921D01*
X149319543Y-50992956D01*
X149299552Y-50980974D01*
X149280832Y-50967090D01*
X149263562Y-50951438D01*
X149247910Y-50934168D01*
X149234026Y-50915448D01*
X149222044Y-50895457D01*
X149212079Y-50874387D01*
X149204227Y-50852443D01*
X149198563Y-50829834D01*
X149195144Y-50806779D01*
X149194000Y-50783500D01*
X149194000Y-50308500D01*
X149195144Y-50285221D01*
X149198563Y-50262166D01*
X149204227Y-50239557D01*
X149212079Y-50217613D01*
X149222044Y-50196543D01*
X149234026Y-50176552D01*
X149247910Y-50157832D01*
X149263562Y-50140562D01*
X149280832Y-50124910D01*
X149299552Y-50111026D01*
X149319543Y-50099044D01*
X149340613Y-50089079D01*
X149362557Y-50081227D01*
X149385166Y-50075563D01*
X149408221Y-50072144D01*
X149431500Y-50071000D01*
X150006500Y-50071000D01*
X150029779Y-50072144D01*
X150029779Y-50072144D01*
G37*
D13*
X149719000Y-50546000D03*
D12*
G36*
X148279779Y-50072144D02*
X148302834Y-50075563D01*
X148325443Y-50081227D01*
X148347387Y-50089079D01*
X148368457Y-50099044D01*
X148388448Y-50111026D01*
X148407168Y-50124910D01*
X148424438Y-50140562D01*
X148440090Y-50157832D01*
X148453974Y-50176552D01*
X148465956Y-50196543D01*
X148475921Y-50217613D01*
X148483773Y-50239557D01*
X148489437Y-50262166D01*
X148492856Y-50285221D01*
X148494000Y-50308500D01*
X148494000Y-50783500D01*
X148492856Y-50806779D01*
X148489437Y-50829834D01*
X148483773Y-50852443D01*
X148475921Y-50874387D01*
X148465956Y-50895457D01*
X148453974Y-50915448D01*
X148440090Y-50934168D01*
X148424438Y-50951438D01*
X148407168Y-50967090D01*
X148388448Y-50980974D01*
X148368457Y-50992956D01*
X148347387Y-51002921D01*
X148325443Y-51010773D01*
X148302834Y-51016437D01*
X148279779Y-51019856D01*
X148256500Y-51021000D01*
X147681500Y-51021000D01*
X147658221Y-51019856D01*
X147635166Y-51016437D01*
X147612557Y-51010773D01*
X147590613Y-51002921D01*
X147569543Y-50992956D01*
X147549552Y-50980974D01*
X147530832Y-50967090D01*
X147513562Y-50951438D01*
X147497910Y-50934168D01*
X147484026Y-50915448D01*
X147472044Y-50895457D01*
X147462079Y-50874387D01*
X147454227Y-50852443D01*
X147448563Y-50829834D01*
X147445144Y-50806779D01*
X147444000Y-50783500D01*
X147444000Y-50308500D01*
X147445144Y-50285221D01*
X147448563Y-50262166D01*
X147454227Y-50239557D01*
X147462079Y-50217613D01*
X147472044Y-50196543D01*
X147484026Y-50176552D01*
X147497910Y-50157832D01*
X147513562Y-50140562D01*
X147530832Y-50124910D01*
X147549552Y-50111026D01*
X147569543Y-50099044D01*
X147590613Y-50089079D01*
X147612557Y-50081227D01*
X147635166Y-50075563D01*
X147658221Y-50072144D01*
X147681500Y-50071000D01*
X148256500Y-50071000D01*
X148279779Y-50072144D01*
X148279779Y-50072144D01*
G37*
D13*
X147969000Y-50546000D03*
G04 #@! TD*
D12*
G04 #@! TO.C,R17*
G36*
X143961779Y-111032144D02*
X143984834Y-111035563D01*
X144007443Y-111041227D01*
X144029387Y-111049079D01*
X144050457Y-111059044D01*
X144070448Y-111071026D01*
X144089168Y-111084910D01*
X144106438Y-111100562D01*
X144122090Y-111117832D01*
X144135974Y-111136552D01*
X144147956Y-111156543D01*
X144157921Y-111177613D01*
X144165773Y-111199557D01*
X144171437Y-111222166D01*
X144174856Y-111245221D01*
X144176000Y-111268500D01*
X144176000Y-111743500D01*
X144174856Y-111766779D01*
X144171437Y-111789834D01*
X144165773Y-111812443D01*
X144157921Y-111834387D01*
X144147956Y-111855457D01*
X144135974Y-111875448D01*
X144122090Y-111894168D01*
X144106438Y-111911438D01*
X144089168Y-111927090D01*
X144070448Y-111940974D01*
X144050457Y-111952956D01*
X144029387Y-111962921D01*
X144007443Y-111970773D01*
X143984834Y-111976437D01*
X143961779Y-111979856D01*
X143938500Y-111981000D01*
X143363500Y-111981000D01*
X143340221Y-111979856D01*
X143317166Y-111976437D01*
X143294557Y-111970773D01*
X143272613Y-111962921D01*
X143251543Y-111952956D01*
X143231552Y-111940974D01*
X143212832Y-111927090D01*
X143195562Y-111911438D01*
X143179910Y-111894168D01*
X143166026Y-111875448D01*
X143154044Y-111855457D01*
X143144079Y-111834387D01*
X143136227Y-111812443D01*
X143130563Y-111789834D01*
X143127144Y-111766779D01*
X143126000Y-111743500D01*
X143126000Y-111268500D01*
X143127144Y-111245221D01*
X143130563Y-111222166D01*
X143136227Y-111199557D01*
X143144079Y-111177613D01*
X143154044Y-111156543D01*
X143166026Y-111136552D01*
X143179910Y-111117832D01*
X143195562Y-111100562D01*
X143212832Y-111084910D01*
X143231552Y-111071026D01*
X143251543Y-111059044D01*
X143272613Y-111049079D01*
X143294557Y-111041227D01*
X143317166Y-111035563D01*
X143340221Y-111032144D01*
X143363500Y-111031000D01*
X143938500Y-111031000D01*
X143961779Y-111032144D01*
X143961779Y-111032144D01*
G37*
D13*
X143651000Y-111506000D03*
D12*
G36*
X145711779Y-111032144D02*
X145734834Y-111035563D01*
X145757443Y-111041227D01*
X145779387Y-111049079D01*
X145800457Y-111059044D01*
X145820448Y-111071026D01*
X145839168Y-111084910D01*
X145856438Y-111100562D01*
X145872090Y-111117832D01*
X145885974Y-111136552D01*
X145897956Y-111156543D01*
X145907921Y-111177613D01*
X145915773Y-111199557D01*
X145921437Y-111222166D01*
X145924856Y-111245221D01*
X145926000Y-111268500D01*
X145926000Y-111743500D01*
X145924856Y-111766779D01*
X145921437Y-111789834D01*
X145915773Y-111812443D01*
X145907921Y-111834387D01*
X145897956Y-111855457D01*
X145885974Y-111875448D01*
X145872090Y-111894168D01*
X145856438Y-111911438D01*
X145839168Y-111927090D01*
X145820448Y-111940974D01*
X145800457Y-111952956D01*
X145779387Y-111962921D01*
X145757443Y-111970773D01*
X145734834Y-111976437D01*
X145711779Y-111979856D01*
X145688500Y-111981000D01*
X145113500Y-111981000D01*
X145090221Y-111979856D01*
X145067166Y-111976437D01*
X145044557Y-111970773D01*
X145022613Y-111962921D01*
X145001543Y-111952956D01*
X144981552Y-111940974D01*
X144962832Y-111927090D01*
X144945562Y-111911438D01*
X144929910Y-111894168D01*
X144916026Y-111875448D01*
X144904044Y-111855457D01*
X144894079Y-111834387D01*
X144886227Y-111812443D01*
X144880563Y-111789834D01*
X144877144Y-111766779D01*
X144876000Y-111743500D01*
X144876000Y-111268500D01*
X144877144Y-111245221D01*
X144880563Y-111222166D01*
X144886227Y-111199557D01*
X144894079Y-111177613D01*
X144904044Y-111156543D01*
X144916026Y-111136552D01*
X144929910Y-111117832D01*
X144945562Y-111100562D01*
X144962832Y-111084910D01*
X144981552Y-111071026D01*
X145001543Y-111059044D01*
X145022613Y-111049079D01*
X145044557Y-111041227D01*
X145067166Y-111035563D01*
X145090221Y-111032144D01*
X145113500Y-111031000D01*
X145688500Y-111031000D01*
X145711779Y-111032144D01*
X145711779Y-111032144D01*
G37*
D13*
X145401000Y-111506000D03*
G04 #@! TD*
D12*
G04 #@! TO.C,R18*
G36*
X137583779Y-111032144D02*
X137606834Y-111035563D01*
X137629443Y-111041227D01*
X137651387Y-111049079D01*
X137672457Y-111059044D01*
X137692448Y-111071026D01*
X137711168Y-111084910D01*
X137728438Y-111100562D01*
X137744090Y-111117832D01*
X137757974Y-111136552D01*
X137769956Y-111156543D01*
X137779921Y-111177613D01*
X137787773Y-111199557D01*
X137793437Y-111222166D01*
X137796856Y-111245221D01*
X137798000Y-111268500D01*
X137798000Y-111743500D01*
X137796856Y-111766779D01*
X137793437Y-111789834D01*
X137787773Y-111812443D01*
X137779921Y-111834387D01*
X137769956Y-111855457D01*
X137757974Y-111875448D01*
X137744090Y-111894168D01*
X137728438Y-111911438D01*
X137711168Y-111927090D01*
X137692448Y-111940974D01*
X137672457Y-111952956D01*
X137651387Y-111962921D01*
X137629443Y-111970773D01*
X137606834Y-111976437D01*
X137583779Y-111979856D01*
X137560500Y-111981000D01*
X136985500Y-111981000D01*
X136962221Y-111979856D01*
X136939166Y-111976437D01*
X136916557Y-111970773D01*
X136894613Y-111962921D01*
X136873543Y-111952956D01*
X136853552Y-111940974D01*
X136834832Y-111927090D01*
X136817562Y-111911438D01*
X136801910Y-111894168D01*
X136788026Y-111875448D01*
X136776044Y-111855457D01*
X136766079Y-111834387D01*
X136758227Y-111812443D01*
X136752563Y-111789834D01*
X136749144Y-111766779D01*
X136748000Y-111743500D01*
X136748000Y-111268500D01*
X136749144Y-111245221D01*
X136752563Y-111222166D01*
X136758227Y-111199557D01*
X136766079Y-111177613D01*
X136776044Y-111156543D01*
X136788026Y-111136552D01*
X136801910Y-111117832D01*
X136817562Y-111100562D01*
X136834832Y-111084910D01*
X136853552Y-111071026D01*
X136873543Y-111059044D01*
X136894613Y-111049079D01*
X136916557Y-111041227D01*
X136939166Y-111035563D01*
X136962221Y-111032144D01*
X136985500Y-111031000D01*
X137560500Y-111031000D01*
X137583779Y-111032144D01*
X137583779Y-111032144D01*
G37*
D13*
X137273000Y-111506000D03*
D12*
G36*
X135833779Y-111032144D02*
X135856834Y-111035563D01*
X135879443Y-111041227D01*
X135901387Y-111049079D01*
X135922457Y-111059044D01*
X135942448Y-111071026D01*
X135961168Y-111084910D01*
X135978438Y-111100562D01*
X135994090Y-111117832D01*
X136007974Y-111136552D01*
X136019956Y-111156543D01*
X136029921Y-111177613D01*
X136037773Y-111199557D01*
X136043437Y-111222166D01*
X136046856Y-111245221D01*
X136048000Y-111268500D01*
X136048000Y-111743500D01*
X136046856Y-111766779D01*
X136043437Y-111789834D01*
X136037773Y-111812443D01*
X136029921Y-111834387D01*
X136019956Y-111855457D01*
X136007974Y-111875448D01*
X135994090Y-111894168D01*
X135978438Y-111911438D01*
X135961168Y-111927090D01*
X135942448Y-111940974D01*
X135922457Y-111952956D01*
X135901387Y-111962921D01*
X135879443Y-111970773D01*
X135856834Y-111976437D01*
X135833779Y-111979856D01*
X135810500Y-111981000D01*
X135235500Y-111981000D01*
X135212221Y-111979856D01*
X135189166Y-111976437D01*
X135166557Y-111970773D01*
X135144613Y-111962921D01*
X135123543Y-111952956D01*
X135103552Y-111940974D01*
X135084832Y-111927090D01*
X135067562Y-111911438D01*
X135051910Y-111894168D01*
X135038026Y-111875448D01*
X135026044Y-111855457D01*
X135016079Y-111834387D01*
X135008227Y-111812443D01*
X135002563Y-111789834D01*
X134999144Y-111766779D01*
X134998000Y-111743500D01*
X134998000Y-111268500D01*
X134999144Y-111245221D01*
X135002563Y-111222166D01*
X135008227Y-111199557D01*
X135016079Y-111177613D01*
X135026044Y-111156543D01*
X135038026Y-111136552D01*
X135051910Y-111117832D01*
X135067562Y-111100562D01*
X135084832Y-111084910D01*
X135103552Y-111071026D01*
X135123543Y-111059044D01*
X135144613Y-111049079D01*
X135166557Y-111041227D01*
X135189166Y-111035563D01*
X135212221Y-111032144D01*
X135235500Y-111031000D01*
X135810500Y-111031000D01*
X135833779Y-111032144D01*
X135833779Y-111032144D01*
G37*
D13*
X135523000Y-111506000D03*
G04 #@! TD*
D12*
G04 #@! TO.C,R19*
G36*
X145040779Y-39848144D02*
X145063834Y-39851563D01*
X145086443Y-39857227D01*
X145108387Y-39865079D01*
X145129457Y-39875044D01*
X145149448Y-39887026D01*
X145168168Y-39900910D01*
X145185438Y-39916562D01*
X145201090Y-39933832D01*
X145214974Y-39952552D01*
X145226956Y-39972543D01*
X145236921Y-39993613D01*
X145244773Y-40015557D01*
X145250437Y-40038166D01*
X145253856Y-40061221D01*
X145255000Y-40084500D01*
X145255000Y-40659500D01*
X145253856Y-40682779D01*
X145250437Y-40705834D01*
X145244773Y-40728443D01*
X145236921Y-40750387D01*
X145226956Y-40771457D01*
X145214974Y-40791448D01*
X145201090Y-40810168D01*
X145185438Y-40827438D01*
X145168168Y-40843090D01*
X145149448Y-40856974D01*
X145129457Y-40868956D01*
X145108387Y-40878921D01*
X145086443Y-40886773D01*
X145063834Y-40892437D01*
X145040779Y-40895856D01*
X145017500Y-40897000D01*
X144542500Y-40897000D01*
X144519221Y-40895856D01*
X144496166Y-40892437D01*
X144473557Y-40886773D01*
X144451613Y-40878921D01*
X144430543Y-40868956D01*
X144410552Y-40856974D01*
X144391832Y-40843090D01*
X144374562Y-40827438D01*
X144358910Y-40810168D01*
X144345026Y-40791448D01*
X144333044Y-40771457D01*
X144323079Y-40750387D01*
X144315227Y-40728443D01*
X144309563Y-40705834D01*
X144306144Y-40682779D01*
X144305000Y-40659500D01*
X144305000Y-40084500D01*
X144306144Y-40061221D01*
X144309563Y-40038166D01*
X144315227Y-40015557D01*
X144323079Y-39993613D01*
X144333044Y-39972543D01*
X144345026Y-39952552D01*
X144358910Y-39933832D01*
X144374562Y-39916562D01*
X144391832Y-39900910D01*
X144410552Y-39887026D01*
X144430543Y-39875044D01*
X144451613Y-39865079D01*
X144473557Y-39857227D01*
X144496166Y-39851563D01*
X144519221Y-39848144D01*
X144542500Y-39847000D01*
X145017500Y-39847000D01*
X145040779Y-39848144D01*
X145040779Y-39848144D01*
G37*
D13*
X144780000Y-40372000D03*
D12*
G36*
X145040779Y-38098144D02*
X145063834Y-38101563D01*
X145086443Y-38107227D01*
X145108387Y-38115079D01*
X145129457Y-38125044D01*
X145149448Y-38137026D01*
X145168168Y-38150910D01*
X145185438Y-38166562D01*
X145201090Y-38183832D01*
X145214974Y-38202552D01*
X145226956Y-38222543D01*
X145236921Y-38243613D01*
X145244773Y-38265557D01*
X145250437Y-38288166D01*
X145253856Y-38311221D01*
X145255000Y-38334500D01*
X145255000Y-38909500D01*
X145253856Y-38932779D01*
X145250437Y-38955834D01*
X145244773Y-38978443D01*
X145236921Y-39000387D01*
X145226956Y-39021457D01*
X145214974Y-39041448D01*
X145201090Y-39060168D01*
X145185438Y-39077438D01*
X145168168Y-39093090D01*
X145149448Y-39106974D01*
X145129457Y-39118956D01*
X145108387Y-39128921D01*
X145086443Y-39136773D01*
X145063834Y-39142437D01*
X145040779Y-39145856D01*
X145017500Y-39147000D01*
X144542500Y-39147000D01*
X144519221Y-39145856D01*
X144496166Y-39142437D01*
X144473557Y-39136773D01*
X144451613Y-39128921D01*
X144430543Y-39118956D01*
X144410552Y-39106974D01*
X144391832Y-39093090D01*
X144374562Y-39077438D01*
X144358910Y-39060168D01*
X144345026Y-39041448D01*
X144333044Y-39021457D01*
X144323079Y-39000387D01*
X144315227Y-38978443D01*
X144309563Y-38955834D01*
X144306144Y-38932779D01*
X144305000Y-38909500D01*
X144305000Y-38334500D01*
X144306144Y-38311221D01*
X144309563Y-38288166D01*
X144315227Y-38265557D01*
X144323079Y-38243613D01*
X144333044Y-38222543D01*
X144345026Y-38202552D01*
X144358910Y-38183832D01*
X144374562Y-38166562D01*
X144391832Y-38150910D01*
X144410552Y-38137026D01*
X144430543Y-38125044D01*
X144451613Y-38115079D01*
X144473557Y-38107227D01*
X144496166Y-38101563D01*
X144519221Y-38098144D01*
X144542500Y-38097000D01*
X145017500Y-38097000D01*
X145040779Y-38098144D01*
X145040779Y-38098144D01*
G37*
D13*
X144780000Y-38622000D03*
G04 #@! TD*
D12*
G04 #@! TO.C,R20*
G36*
X145040779Y-44194144D02*
X145063834Y-44197563D01*
X145086443Y-44203227D01*
X145108387Y-44211079D01*
X145129457Y-44221044D01*
X145149448Y-44233026D01*
X145168168Y-44246910D01*
X145185438Y-44262562D01*
X145201090Y-44279832D01*
X145214974Y-44298552D01*
X145226956Y-44318543D01*
X145236921Y-44339613D01*
X145244773Y-44361557D01*
X145250437Y-44384166D01*
X145253856Y-44407221D01*
X145255000Y-44430500D01*
X145255000Y-45005500D01*
X145253856Y-45028779D01*
X145250437Y-45051834D01*
X145244773Y-45074443D01*
X145236921Y-45096387D01*
X145226956Y-45117457D01*
X145214974Y-45137448D01*
X145201090Y-45156168D01*
X145185438Y-45173438D01*
X145168168Y-45189090D01*
X145149448Y-45202974D01*
X145129457Y-45214956D01*
X145108387Y-45224921D01*
X145086443Y-45232773D01*
X145063834Y-45238437D01*
X145040779Y-45241856D01*
X145017500Y-45243000D01*
X144542500Y-45243000D01*
X144519221Y-45241856D01*
X144496166Y-45238437D01*
X144473557Y-45232773D01*
X144451613Y-45224921D01*
X144430543Y-45214956D01*
X144410552Y-45202974D01*
X144391832Y-45189090D01*
X144374562Y-45173438D01*
X144358910Y-45156168D01*
X144345026Y-45137448D01*
X144333044Y-45117457D01*
X144323079Y-45096387D01*
X144315227Y-45074443D01*
X144309563Y-45051834D01*
X144306144Y-45028779D01*
X144305000Y-45005500D01*
X144305000Y-44430500D01*
X144306144Y-44407221D01*
X144309563Y-44384166D01*
X144315227Y-44361557D01*
X144323079Y-44339613D01*
X144333044Y-44318543D01*
X144345026Y-44298552D01*
X144358910Y-44279832D01*
X144374562Y-44262562D01*
X144391832Y-44246910D01*
X144410552Y-44233026D01*
X144430543Y-44221044D01*
X144451613Y-44211079D01*
X144473557Y-44203227D01*
X144496166Y-44197563D01*
X144519221Y-44194144D01*
X144542500Y-44193000D01*
X145017500Y-44193000D01*
X145040779Y-44194144D01*
X145040779Y-44194144D01*
G37*
D13*
X144780000Y-44718000D03*
D12*
G36*
X145040779Y-45944144D02*
X145063834Y-45947563D01*
X145086443Y-45953227D01*
X145108387Y-45961079D01*
X145129457Y-45971044D01*
X145149448Y-45983026D01*
X145168168Y-45996910D01*
X145185438Y-46012562D01*
X145201090Y-46029832D01*
X145214974Y-46048552D01*
X145226956Y-46068543D01*
X145236921Y-46089613D01*
X145244773Y-46111557D01*
X145250437Y-46134166D01*
X145253856Y-46157221D01*
X145255000Y-46180500D01*
X145255000Y-46755500D01*
X145253856Y-46778779D01*
X145250437Y-46801834D01*
X145244773Y-46824443D01*
X145236921Y-46846387D01*
X145226956Y-46867457D01*
X145214974Y-46887448D01*
X145201090Y-46906168D01*
X145185438Y-46923438D01*
X145168168Y-46939090D01*
X145149448Y-46952974D01*
X145129457Y-46964956D01*
X145108387Y-46974921D01*
X145086443Y-46982773D01*
X145063834Y-46988437D01*
X145040779Y-46991856D01*
X145017500Y-46993000D01*
X144542500Y-46993000D01*
X144519221Y-46991856D01*
X144496166Y-46988437D01*
X144473557Y-46982773D01*
X144451613Y-46974921D01*
X144430543Y-46964956D01*
X144410552Y-46952974D01*
X144391832Y-46939090D01*
X144374562Y-46923438D01*
X144358910Y-46906168D01*
X144345026Y-46887448D01*
X144333044Y-46867457D01*
X144323079Y-46846387D01*
X144315227Y-46824443D01*
X144309563Y-46801834D01*
X144306144Y-46778779D01*
X144305000Y-46755500D01*
X144305000Y-46180500D01*
X144306144Y-46157221D01*
X144309563Y-46134166D01*
X144315227Y-46111557D01*
X144323079Y-46089613D01*
X144333044Y-46068543D01*
X144345026Y-46048552D01*
X144358910Y-46029832D01*
X144374562Y-46012562D01*
X144391832Y-45996910D01*
X144410552Y-45983026D01*
X144430543Y-45971044D01*
X144451613Y-45961079D01*
X144473557Y-45953227D01*
X144496166Y-45947563D01*
X144519221Y-45944144D01*
X144542500Y-45943000D01*
X145017500Y-45943000D01*
X145040779Y-45944144D01*
X145040779Y-45944144D01*
G37*
D13*
X144780000Y-46468000D03*
G04 #@! TD*
D12*
G04 #@! TO.C,R21*
G36*
X157740779Y-44194144D02*
X157763834Y-44197563D01*
X157786443Y-44203227D01*
X157808387Y-44211079D01*
X157829457Y-44221044D01*
X157849448Y-44233026D01*
X157868168Y-44246910D01*
X157885438Y-44262562D01*
X157901090Y-44279832D01*
X157914974Y-44298552D01*
X157926956Y-44318543D01*
X157936921Y-44339613D01*
X157944773Y-44361557D01*
X157950437Y-44384166D01*
X157953856Y-44407221D01*
X157955000Y-44430500D01*
X157955000Y-45005500D01*
X157953856Y-45028779D01*
X157950437Y-45051834D01*
X157944773Y-45074443D01*
X157936921Y-45096387D01*
X157926956Y-45117457D01*
X157914974Y-45137448D01*
X157901090Y-45156168D01*
X157885438Y-45173438D01*
X157868168Y-45189090D01*
X157849448Y-45202974D01*
X157829457Y-45214956D01*
X157808387Y-45224921D01*
X157786443Y-45232773D01*
X157763834Y-45238437D01*
X157740779Y-45241856D01*
X157717500Y-45243000D01*
X157242500Y-45243000D01*
X157219221Y-45241856D01*
X157196166Y-45238437D01*
X157173557Y-45232773D01*
X157151613Y-45224921D01*
X157130543Y-45214956D01*
X157110552Y-45202974D01*
X157091832Y-45189090D01*
X157074562Y-45173438D01*
X157058910Y-45156168D01*
X157045026Y-45137448D01*
X157033044Y-45117457D01*
X157023079Y-45096387D01*
X157015227Y-45074443D01*
X157009563Y-45051834D01*
X157006144Y-45028779D01*
X157005000Y-45005500D01*
X157005000Y-44430500D01*
X157006144Y-44407221D01*
X157009563Y-44384166D01*
X157015227Y-44361557D01*
X157023079Y-44339613D01*
X157033044Y-44318543D01*
X157045026Y-44298552D01*
X157058910Y-44279832D01*
X157074562Y-44262562D01*
X157091832Y-44246910D01*
X157110552Y-44233026D01*
X157130543Y-44221044D01*
X157151613Y-44211079D01*
X157173557Y-44203227D01*
X157196166Y-44197563D01*
X157219221Y-44194144D01*
X157242500Y-44193000D01*
X157717500Y-44193000D01*
X157740779Y-44194144D01*
X157740779Y-44194144D01*
G37*
D13*
X157480000Y-44718000D03*
D12*
G36*
X157740779Y-45944144D02*
X157763834Y-45947563D01*
X157786443Y-45953227D01*
X157808387Y-45961079D01*
X157829457Y-45971044D01*
X157849448Y-45983026D01*
X157868168Y-45996910D01*
X157885438Y-46012562D01*
X157901090Y-46029832D01*
X157914974Y-46048552D01*
X157926956Y-46068543D01*
X157936921Y-46089613D01*
X157944773Y-46111557D01*
X157950437Y-46134166D01*
X157953856Y-46157221D01*
X157955000Y-46180500D01*
X157955000Y-46755500D01*
X157953856Y-46778779D01*
X157950437Y-46801834D01*
X157944773Y-46824443D01*
X157936921Y-46846387D01*
X157926956Y-46867457D01*
X157914974Y-46887448D01*
X157901090Y-46906168D01*
X157885438Y-46923438D01*
X157868168Y-46939090D01*
X157849448Y-46952974D01*
X157829457Y-46964956D01*
X157808387Y-46974921D01*
X157786443Y-46982773D01*
X157763834Y-46988437D01*
X157740779Y-46991856D01*
X157717500Y-46993000D01*
X157242500Y-46993000D01*
X157219221Y-46991856D01*
X157196166Y-46988437D01*
X157173557Y-46982773D01*
X157151613Y-46974921D01*
X157130543Y-46964956D01*
X157110552Y-46952974D01*
X157091832Y-46939090D01*
X157074562Y-46923438D01*
X157058910Y-46906168D01*
X157045026Y-46887448D01*
X157033044Y-46867457D01*
X157023079Y-46846387D01*
X157015227Y-46824443D01*
X157009563Y-46801834D01*
X157006144Y-46778779D01*
X157005000Y-46755500D01*
X157005000Y-46180500D01*
X157006144Y-46157221D01*
X157009563Y-46134166D01*
X157015227Y-46111557D01*
X157023079Y-46089613D01*
X157033044Y-46068543D01*
X157045026Y-46048552D01*
X157058910Y-46029832D01*
X157074562Y-46012562D01*
X157091832Y-45996910D01*
X157110552Y-45983026D01*
X157130543Y-45971044D01*
X157151613Y-45961079D01*
X157173557Y-45953227D01*
X157196166Y-45947563D01*
X157219221Y-45944144D01*
X157242500Y-45943000D01*
X157717500Y-45943000D01*
X157740779Y-45944144D01*
X157740779Y-45944144D01*
G37*
D13*
X157480000Y-46468000D03*
G04 #@! TD*
D12*
G04 #@! TO.C,R22*
G36*
X188728779Y-67153144D02*
X188751834Y-67156563D01*
X188774443Y-67162227D01*
X188796387Y-67170079D01*
X188817457Y-67180044D01*
X188837448Y-67192026D01*
X188856168Y-67205910D01*
X188873438Y-67221562D01*
X188889090Y-67238832D01*
X188902974Y-67257552D01*
X188914956Y-67277543D01*
X188924921Y-67298613D01*
X188932773Y-67320557D01*
X188938437Y-67343166D01*
X188941856Y-67366221D01*
X188943000Y-67389500D01*
X188943000Y-67964500D01*
X188941856Y-67987779D01*
X188938437Y-68010834D01*
X188932773Y-68033443D01*
X188924921Y-68055387D01*
X188914956Y-68076457D01*
X188902974Y-68096448D01*
X188889090Y-68115168D01*
X188873438Y-68132438D01*
X188856168Y-68148090D01*
X188837448Y-68161974D01*
X188817457Y-68173956D01*
X188796387Y-68183921D01*
X188774443Y-68191773D01*
X188751834Y-68197437D01*
X188728779Y-68200856D01*
X188705500Y-68202000D01*
X188230500Y-68202000D01*
X188207221Y-68200856D01*
X188184166Y-68197437D01*
X188161557Y-68191773D01*
X188139613Y-68183921D01*
X188118543Y-68173956D01*
X188098552Y-68161974D01*
X188079832Y-68148090D01*
X188062562Y-68132438D01*
X188046910Y-68115168D01*
X188033026Y-68096448D01*
X188021044Y-68076457D01*
X188011079Y-68055387D01*
X188003227Y-68033443D01*
X187997563Y-68010834D01*
X187994144Y-67987779D01*
X187993000Y-67964500D01*
X187993000Y-67389500D01*
X187994144Y-67366221D01*
X187997563Y-67343166D01*
X188003227Y-67320557D01*
X188011079Y-67298613D01*
X188021044Y-67277543D01*
X188033026Y-67257552D01*
X188046910Y-67238832D01*
X188062562Y-67221562D01*
X188079832Y-67205910D01*
X188098552Y-67192026D01*
X188118543Y-67180044D01*
X188139613Y-67170079D01*
X188161557Y-67162227D01*
X188184166Y-67156563D01*
X188207221Y-67153144D01*
X188230500Y-67152000D01*
X188705500Y-67152000D01*
X188728779Y-67153144D01*
X188728779Y-67153144D01*
G37*
D13*
X188468000Y-67677000D03*
D12*
G36*
X188728779Y-65403144D02*
X188751834Y-65406563D01*
X188774443Y-65412227D01*
X188796387Y-65420079D01*
X188817457Y-65430044D01*
X188837448Y-65442026D01*
X188856168Y-65455910D01*
X188873438Y-65471562D01*
X188889090Y-65488832D01*
X188902974Y-65507552D01*
X188914956Y-65527543D01*
X188924921Y-65548613D01*
X188932773Y-65570557D01*
X188938437Y-65593166D01*
X188941856Y-65616221D01*
X188943000Y-65639500D01*
X188943000Y-66214500D01*
X188941856Y-66237779D01*
X188938437Y-66260834D01*
X188932773Y-66283443D01*
X188924921Y-66305387D01*
X188914956Y-66326457D01*
X188902974Y-66346448D01*
X188889090Y-66365168D01*
X188873438Y-66382438D01*
X188856168Y-66398090D01*
X188837448Y-66411974D01*
X188817457Y-66423956D01*
X188796387Y-66433921D01*
X188774443Y-66441773D01*
X188751834Y-66447437D01*
X188728779Y-66450856D01*
X188705500Y-66452000D01*
X188230500Y-66452000D01*
X188207221Y-66450856D01*
X188184166Y-66447437D01*
X188161557Y-66441773D01*
X188139613Y-66433921D01*
X188118543Y-66423956D01*
X188098552Y-66411974D01*
X188079832Y-66398090D01*
X188062562Y-66382438D01*
X188046910Y-66365168D01*
X188033026Y-66346448D01*
X188021044Y-66326457D01*
X188011079Y-66305387D01*
X188003227Y-66283443D01*
X187997563Y-66260834D01*
X187994144Y-66237779D01*
X187993000Y-66214500D01*
X187993000Y-65639500D01*
X187994144Y-65616221D01*
X187997563Y-65593166D01*
X188003227Y-65570557D01*
X188011079Y-65548613D01*
X188021044Y-65527543D01*
X188033026Y-65507552D01*
X188046910Y-65488832D01*
X188062562Y-65471562D01*
X188079832Y-65455910D01*
X188098552Y-65442026D01*
X188118543Y-65430044D01*
X188139613Y-65420079D01*
X188161557Y-65412227D01*
X188184166Y-65406563D01*
X188207221Y-65403144D01*
X188230500Y-65402000D01*
X188705500Y-65402000D01*
X188728779Y-65403144D01*
X188728779Y-65403144D01*
G37*
D13*
X188468000Y-65927000D03*
G04 #@! TD*
D12*
G04 #@! TO.C,R23*
G36*
X188728779Y-69213144D02*
X188751834Y-69216563D01*
X188774443Y-69222227D01*
X188796387Y-69230079D01*
X188817457Y-69240044D01*
X188837448Y-69252026D01*
X188856168Y-69265910D01*
X188873438Y-69281562D01*
X188889090Y-69298832D01*
X188902974Y-69317552D01*
X188914956Y-69337543D01*
X188924921Y-69358613D01*
X188932773Y-69380557D01*
X188938437Y-69403166D01*
X188941856Y-69426221D01*
X188943000Y-69449500D01*
X188943000Y-70024500D01*
X188941856Y-70047779D01*
X188938437Y-70070834D01*
X188932773Y-70093443D01*
X188924921Y-70115387D01*
X188914956Y-70136457D01*
X188902974Y-70156448D01*
X188889090Y-70175168D01*
X188873438Y-70192438D01*
X188856168Y-70208090D01*
X188837448Y-70221974D01*
X188817457Y-70233956D01*
X188796387Y-70243921D01*
X188774443Y-70251773D01*
X188751834Y-70257437D01*
X188728779Y-70260856D01*
X188705500Y-70262000D01*
X188230500Y-70262000D01*
X188207221Y-70260856D01*
X188184166Y-70257437D01*
X188161557Y-70251773D01*
X188139613Y-70243921D01*
X188118543Y-70233956D01*
X188098552Y-70221974D01*
X188079832Y-70208090D01*
X188062562Y-70192438D01*
X188046910Y-70175168D01*
X188033026Y-70156448D01*
X188021044Y-70136457D01*
X188011079Y-70115387D01*
X188003227Y-70093443D01*
X187997563Y-70070834D01*
X187994144Y-70047779D01*
X187993000Y-70024500D01*
X187993000Y-69449500D01*
X187994144Y-69426221D01*
X187997563Y-69403166D01*
X188003227Y-69380557D01*
X188011079Y-69358613D01*
X188021044Y-69337543D01*
X188033026Y-69317552D01*
X188046910Y-69298832D01*
X188062562Y-69281562D01*
X188079832Y-69265910D01*
X188098552Y-69252026D01*
X188118543Y-69240044D01*
X188139613Y-69230079D01*
X188161557Y-69222227D01*
X188184166Y-69216563D01*
X188207221Y-69213144D01*
X188230500Y-69212000D01*
X188705500Y-69212000D01*
X188728779Y-69213144D01*
X188728779Y-69213144D01*
G37*
D13*
X188468000Y-69737000D03*
D12*
G36*
X188728779Y-70963144D02*
X188751834Y-70966563D01*
X188774443Y-70972227D01*
X188796387Y-70980079D01*
X188817457Y-70990044D01*
X188837448Y-71002026D01*
X188856168Y-71015910D01*
X188873438Y-71031562D01*
X188889090Y-71048832D01*
X188902974Y-71067552D01*
X188914956Y-71087543D01*
X188924921Y-71108613D01*
X188932773Y-71130557D01*
X188938437Y-71153166D01*
X188941856Y-71176221D01*
X188943000Y-71199500D01*
X188943000Y-71774500D01*
X188941856Y-71797779D01*
X188938437Y-71820834D01*
X188932773Y-71843443D01*
X188924921Y-71865387D01*
X188914956Y-71886457D01*
X188902974Y-71906448D01*
X188889090Y-71925168D01*
X188873438Y-71942438D01*
X188856168Y-71958090D01*
X188837448Y-71971974D01*
X188817457Y-71983956D01*
X188796387Y-71993921D01*
X188774443Y-72001773D01*
X188751834Y-72007437D01*
X188728779Y-72010856D01*
X188705500Y-72012000D01*
X188230500Y-72012000D01*
X188207221Y-72010856D01*
X188184166Y-72007437D01*
X188161557Y-72001773D01*
X188139613Y-71993921D01*
X188118543Y-71983956D01*
X188098552Y-71971974D01*
X188079832Y-71958090D01*
X188062562Y-71942438D01*
X188046910Y-71925168D01*
X188033026Y-71906448D01*
X188021044Y-71886457D01*
X188011079Y-71865387D01*
X188003227Y-71843443D01*
X187997563Y-71820834D01*
X187994144Y-71797779D01*
X187993000Y-71774500D01*
X187993000Y-71199500D01*
X187994144Y-71176221D01*
X187997563Y-71153166D01*
X188003227Y-71130557D01*
X188011079Y-71108613D01*
X188021044Y-71087543D01*
X188033026Y-71067552D01*
X188046910Y-71048832D01*
X188062562Y-71031562D01*
X188079832Y-71015910D01*
X188098552Y-71002026D01*
X188118543Y-70990044D01*
X188139613Y-70980079D01*
X188161557Y-70972227D01*
X188184166Y-70966563D01*
X188207221Y-70963144D01*
X188230500Y-70962000D01*
X188705500Y-70962000D01*
X188728779Y-70963144D01*
X188728779Y-70963144D01*
G37*
D13*
X188468000Y-71487000D03*
G04 #@! TD*
D12*
G04 #@! TO.C,R24*
G36*
X157486779Y-39848144D02*
X157509834Y-39851563D01*
X157532443Y-39857227D01*
X157554387Y-39865079D01*
X157575457Y-39875044D01*
X157595448Y-39887026D01*
X157614168Y-39900910D01*
X157631438Y-39916562D01*
X157647090Y-39933832D01*
X157660974Y-39952552D01*
X157672956Y-39972543D01*
X157682921Y-39993613D01*
X157690773Y-40015557D01*
X157696437Y-40038166D01*
X157699856Y-40061221D01*
X157701000Y-40084500D01*
X157701000Y-40659500D01*
X157699856Y-40682779D01*
X157696437Y-40705834D01*
X157690773Y-40728443D01*
X157682921Y-40750387D01*
X157672956Y-40771457D01*
X157660974Y-40791448D01*
X157647090Y-40810168D01*
X157631438Y-40827438D01*
X157614168Y-40843090D01*
X157595448Y-40856974D01*
X157575457Y-40868956D01*
X157554387Y-40878921D01*
X157532443Y-40886773D01*
X157509834Y-40892437D01*
X157486779Y-40895856D01*
X157463500Y-40897000D01*
X156988500Y-40897000D01*
X156965221Y-40895856D01*
X156942166Y-40892437D01*
X156919557Y-40886773D01*
X156897613Y-40878921D01*
X156876543Y-40868956D01*
X156856552Y-40856974D01*
X156837832Y-40843090D01*
X156820562Y-40827438D01*
X156804910Y-40810168D01*
X156791026Y-40791448D01*
X156779044Y-40771457D01*
X156769079Y-40750387D01*
X156761227Y-40728443D01*
X156755563Y-40705834D01*
X156752144Y-40682779D01*
X156751000Y-40659500D01*
X156751000Y-40084500D01*
X156752144Y-40061221D01*
X156755563Y-40038166D01*
X156761227Y-40015557D01*
X156769079Y-39993613D01*
X156779044Y-39972543D01*
X156791026Y-39952552D01*
X156804910Y-39933832D01*
X156820562Y-39916562D01*
X156837832Y-39900910D01*
X156856552Y-39887026D01*
X156876543Y-39875044D01*
X156897613Y-39865079D01*
X156919557Y-39857227D01*
X156942166Y-39851563D01*
X156965221Y-39848144D01*
X156988500Y-39847000D01*
X157463500Y-39847000D01*
X157486779Y-39848144D01*
X157486779Y-39848144D01*
G37*
D13*
X157226000Y-40372000D03*
D12*
G36*
X157486779Y-38098144D02*
X157509834Y-38101563D01*
X157532443Y-38107227D01*
X157554387Y-38115079D01*
X157575457Y-38125044D01*
X157595448Y-38137026D01*
X157614168Y-38150910D01*
X157631438Y-38166562D01*
X157647090Y-38183832D01*
X157660974Y-38202552D01*
X157672956Y-38222543D01*
X157682921Y-38243613D01*
X157690773Y-38265557D01*
X157696437Y-38288166D01*
X157699856Y-38311221D01*
X157701000Y-38334500D01*
X157701000Y-38909500D01*
X157699856Y-38932779D01*
X157696437Y-38955834D01*
X157690773Y-38978443D01*
X157682921Y-39000387D01*
X157672956Y-39021457D01*
X157660974Y-39041448D01*
X157647090Y-39060168D01*
X157631438Y-39077438D01*
X157614168Y-39093090D01*
X157595448Y-39106974D01*
X157575457Y-39118956D01*
X157554387Y-39128921D01*
X157532443Y-39136773D01*
X157509834Y-39142437D01*
X157486779Y-39145856D01*
X157463500Y-39147000D01*
X156988500Y-39147000D01*
X156965221Y-39145856D01*
X156942166Y-39142437D01*
X156919557Y-39136773D01*
X156897613Y-39128921D01*
X156876543Y-39118956D01*
X156856552Y-39106974D01*
X156837832Y-39093090D01*
X156820562Y-39077438D01*
X156804910Y-39060168D01*
X156791026Y-39041448D01*
X156779044Y-39021457D01*
X156769079Y-39000387D01*
X156761227Y-38978443D01*
X156755563Y-38955834D01*
X156752144Y-38932779D01*
X156751000Y-38909500D01*
X156751000Y-38334500D01*
X156752144Y-38311221D01*
X156755563Y-38288166D01*
X156761227Y-38265557D01*
X156769079Y-38243613D01*
X156779044Y-38222543D01*
X156791026Y-38202552D01*
X156804910Y-38183832D01*
X156820562Y-38166562D01*
X156837832Y-38150910D01*
X156856552Y-38137026D01*
X156876543Y-38125044D01*
X156897613Y-38115079D01*
X156919557Y-38107227D01*
X156942166Y-38101563D01*
X156965221Y-38098144D01*
X156988500Y-38097000D01*
X157463500Y-38097000D01*
X157486779Y-38098144D01*
X157486779Y-38098144D01*
G37*
D13*
X157226000Y-38622000D03*
G04 #@! TD*
D12*
G04 #@! TO.C,R25*
G36*
X122625779Y-69376144D02*
X122648834Y-69379563D01*
X122671443Y-69385227D01*
X122693387Y-69393079D01*
X122714457Y-69403044D01*
X122734448Y-69415026D01*
X122753168Y-69428910D01*
X122770438Y-69444562D01*
X122786090Y-69461832D01*
X122799974Y-69480552D01*
X122811956Y-69500543D01*
X122821921Y-69521613D01*
X122829773Y-69543557D01*
X122835437Y-69566166D01*
X122838856Y-69589221D01*
X122840000Y-69612500D01*
X122840000Y-70087500D01*
X122838856Y-70110779D01*
X122835437Y-70133834D01*
X122829773Y-70156443D01*
X122821921Y-70178387D01*
X122811956Y-70199457D01*
X122799974Y-70219448D01*
X122786090Y-70238168D01*
X122770438Y-70255438D01*
X122753168Y-70271090D01*
X122734448Y-70284974D01*
X122714457Y-70296956D01*
X122693387Y-70306921D01*
X122671443Y-70314773D01*
X122648834Y-70320437D01*
X122625779Y-70323856D01*
X122602500Y-70325000D01*
X122027500Y-70325000D01*
X122004221Y-70323856D01*
X121981166Y-70320437D01*
X121958557Y-70314773D01*
X121936613Y-70306921D01*
X121915543Y-70296956D01*
X121895552Y-70284974D01*
X121876832Y-70271090D01*
X121859562Y-70255438D01*
X121843910Y-70238168D01*
X121830026Y-70219448D01*
X121818044Y-70199457D01*
X121808079Y-70178387D01*
X121800227Y-70156443D01*
X121794563Y-70133834D01*
X121791144Y-70110779D01*
X121790000Y-70087500D01*
X121790000Y-69612500D01*
X121791144Y-69589221D01*
X121794563Y-69566166D01*
X121800227Y-69543557D01*
X121808079Y-69521613D01*
X121818044Y-69500543D01*
X121830026Y-69480552D01*
X121843910Y-69461832D01*
X121859562Y-69444562D01*
X121876832Y-69428910D01*
X121895552Y-69415026D01*
X121915543Y-69403044D01*
X121936613Y-69393079D01*
X121958557Y-69385227D01*
X121981166Y-69379563D01*
X122004221Y-69376144D01*
X122027500Y-69375000D01*
X122602500Y-69375000D01*
X122625779Y-69376144D01*
X122625779Y-69376144D01*
G37*
D13*
X122315000Y-69850000D03*
D12*
G36*
X124375779Y-69376144D02*
X124398834Y-69379563D01*
X124421443Y-69385227D01*
X124443387Y-69393079D01*
X124464457Y-69403044D01*
X124484448Y-69415026D01*
X124503168Y-69428910D01*
X124520438Y-69444562D01*
X124536090Y-69461832D01*
X124549974Y-69480552D01*
X124561956Y-69500543D01*
X124571921Y-69521613D01*
X124579773Y-69543557D01*
X124585437Y-69566166D01*
X124588856Y-69589221D01*
X124590000Y-69612500D01*
X124590000Y-70087500D01*
X124588856Y-70110779D01*
X124585437Y-70133834D01*
X124579773Y-70156443D01*
X124571921Y-70178387D01*
X124561956Y-70199457D01*
X124549974Y-70219448D01*
X124536090Y-70238168D01*
X124520438Y-70255438D01*
X124503168Y-70271090D01*
X124484448Y-70284974D01*
X124464457Y-70296956D01*
X124443387Y-70306921D01*
X124421443Y-70314773D01*
X124398834Y-70320437D01*
X124375779Y-70323856D01*
X124352500Y-70325000D01*
X123777500Y-70325000D01*
X123754221Y-70323856D01*
X123731166Y-70320437D01*
X123708557Y-70314773D01*
X123686613Y-70306921D01*
X123665543Y-70296956D01*
X123645552Y-70284974D01*
X123626832Y-70271090D01*
X123609562Y-70255438D01*
X123593910Y-70238168D01*
X123580026Y-70219448D01*
X123568044Y-70199457D01*
X123558079Y-70178387D01*
X123550227Y-70156443D01*
X123544563Y-70133834D01*
X123541144Y-70110779D01*
X123540000Y-70087500D01*
X123540000Y-69612500D01*
X123541144Y-69589221D01*
X123544563Y-69566166D01*
X123550227Y-69543557D01*
X123558079Y-69521613D01*
X123568044Y-69500543D01*
X123580026Y-69480552D01*
X123593910Y-69461832D01*
X123609562Y-69444562D01*
X123626832Y-69428910D01*
X123645552Y-69415026D01*
X123665543Y-69403044D01*
X123686613Y-69393079D01*
X123708557Y-69385227D01*
X123731166Y-69379563D01*
X123754221Y-69376144D01*
X123777500Y-69375000D01*
X124352500Y-69375000D01*
X124375779Y-69376144D01*
X124375779Y-69376144D01*
G37*
D13*
X124065000Y-69850000D03*
G04 #@! TD*
D18*
G04 #@! TO.C,SW2*
X115780000Y-59920000D03*
X122980000Y-59920000D03*
X115780000Y-56920000D03*
X122980000Y-56920000D03*
G04 #@! TD*
G04 #@! TO.C,SW3*
X186480000Y-56920000D03*
X179280000Y-56920000D03*
X186480000Y-59920000D03*
X179280000Y-59920000D03*
G04 #@! TD*
D19*
G04 #@! TO.C,U1*
X128534401Y-69964300D03*
X129534399Y-69964300D03*
X130534400Y-69964300D03*
X131534400Y-69964300D03*
X132534401Y-69964300D03*
X133534399Y-69964300D03*
X134534399Y-69964300D03*
X135534400Y-69964300D03*
X136534401Y-69964300D03*
X137534401Y-69964300D03*
X138534399Y-69964300D03*
X139534400Y-69964300D03*
X140534400Y-69964300D03*
X141534401Y-69964300D03*
X142534401Y-69964300D03*
X142534399Y-51955700D03*
X141534401Y-51955700D03*
X140534400Y-51955700D03*
X139534400Y-51955700D03*
X138534399Y-51955700D03*
X137534401Y-51955700D03*
X136534401Y-51955700D03*
X135534400Y-51955700D03*
X134534399Y-51955700D03*
X133534399Y-51955700D03*
X132534401Y-51955700D03*
X131534400Y-51955700D03*
X130534400Y-51955700D03*
X129534399Y-51955700D03*
X128534399Y-51955700D03*
D20*
X131368800Y-57912000D03*
D21*
X135534400Y-64008000D03*
D20*
X139700000Y-57912000D03*
G04 #@! TD*
G04 #@! TO.C,U2*
X171043600Y-57912000D03*
D21*
X166878000Y-64008000D03*
D20*
X162712400Y-57912000D03*
D19*
X159877999Y-51955700D03*
X160877999Y-51955700D03*
X161878000Y-51955700D03*
X162878000Y-51955700D03*
X163878001Y-51955700D03*
X164877999Y-51955700D03*
X165877999Y-51955700D03*
X166878000Y-51955700D03*
X167878001Y-51955700D03*
X168878001Y-51955700D03*
X169877999Y-51955700D03*
X170878000Y-51955700D03*
X171878000Y-51955700D03*
X172878001Y-51955700D03*
X173877999Y-51955700D03*
X173878001Y-69964300D03*
X172878001Y-69964300D03*
X171878000Y-69964300D03*
X170878000Y-69964300D03*
X169877999Y-69964300D03*
X168878001Y-69964300D03*
X167878001Y-69964300D03*
X166878000Y-69964300D03*
X165877999Y-69964300D03*
X164877999Y-69964300D03*
X163878001Y-69964300D03*
X162878000Y-69964300D03*
X161878000Y-69964300D03*
X160877999Y-69964300D03*
X159878001Y-69964300D03*
G04 #@! TD*
D22*
G04 #@! TO.C,U3*
X185326000Y-89535000D03*
X185326000Y-88265000D03*
X185326000Y-86995000D03*
X185326000Y-85725000D03*
X179926000Y-85725000D03*
X179926000Y-86995000D03*
X179926000Y-88265000D03*
X179926000Y-89535000D03*
G04 #@! TD*
D23*
G04 #@! TO.C,U5*
X150622000Y-119601000D03*
X149352000Y-119601000D03*
X148082000Y-119601000D03*
X146812000Y-119601000D03*
X146812000Y-125001000D03*
X148082000Y-125001000D03*
X149352000Y-125001000D03*
X150622000Y-125001000D03*
G04 #@! TD*
D12*
G04 #@! TO.C,C9*
G36*
X181271779Y-63026144D02*
X181294834Y-63029563D01*
X181317443Y-63035227D01*
X181339387Y-63043079D01*
X181360457Y-63053044D01*
X181380448Y-63065026D01*
X181399168Y-63078910D01*
X181416438Y-63094562D01*
X181432090Y-63111832D01*
X181445974Y-63130552D01*
X181457956Y-63150543D01*
X181467921Y-63171613D01*
X181475773Y-63193557D01*
X181481437Y-63216166D01*
X181484856Y-63239221D01*
X181486000Y-63262500D01*
X181486000Y-63737500D01*
X181484856Y-63760779D01*
X181481437Y-63783834D01*
X181475773Y-63806443D01*
X181467921Y-63828387D01*
X181457956Y-63849457D01*
X181445974Y-63869448D01*
X181432090Y-63888168D01*
X181416438Y-63905438D01*
X181399168Y-63921090D01*
X181380448Y-63934974D01*
X181360457Y-63946956D01*
X181339387Y-63956921D01*
X181317443Y-63964773D01*
X181294834Y-63970437D01*
X181271779Y-63973856D01*
X181248500Y-63975000D01*
X180673500Y-63975000D01*
X180650221Y-63973856D01*
X180627166Y-63970437D01*
X180604557Y-63964773D01*
X180582613Y-63956921D01*
X180561543Y-63946956D01*
X180541552Y-63934974D01*
X180522832Y-63921090D01*
X180505562Y-63905438D01*
X180489910Y-63888168D01*
X180476026Y-63869448D01*
X180464044Y-63849457D01*
X180454079Y-63828387D01*
X180446227Y-63806443D01*
X180440563Y-63783834D01*
X180437144Y-63760779D01*
X180436000Y-63737500D01*
X180436000Y-63262500D01*
X180437144Y-63239221D01*
X180440563Y-63216166D01*
X180446227Y-63193557D01*
X180454079Y-63171613D01*
X180464044Y-63150543D01*
X180476026Y-63130552D01*
X180489910Y-63111832D01*
X180505562Y-63094562D01*
X180522832Y-63078910D01*
X180541552Y-63065026D01*
X180561543Y-63053044D01*
X180582613Y-63043079D01*
X180604557Y-63035227D01*
X180627166Y-63029563D01*
X180650221Y-63026144D01*
X180673500Y-63025000D01*
X181248500Y-63025000D01*
X181271779Y-63026144D01*
X181271779Y-63026144D01*
G37*
D13*
X180961000Y-63500000D03*
D12*
G36*
X179521779Y-63026144D02*
X179544834Y-63029563D01*
X179567443Y-63035227D01*
X179589387Y-63043079D01*
X179610457Y-63053044D01*
X179630448Y-63065026D01*
X179649168Y-63078910D01*
X179666438Y-63094562D01*
X179682090Y-63111832D01*
X179695974Y-63130552D01*
X179707956Y-63150543D01*
X179717921Y-63171613D01*
X179725773Y-63193557D01*
X179731437Y-63216166D01*
X179734856Y-63239221D01*
X179736000Y-63262500D01*
X179736000Y-63737500D01*
X179734856Y-63760779D01*
X179731437Y-63783834D01*
X179725773Y-63806443D01*
X179717921Y-63828387D01*
X179707956Y-63849457D01*
X179695974Y-63869448D01*
X179682090Y-63888168D01*
X179666438Y-63905438D01*
X179649168Y-63921090D01*
X179630448Y-63934974D01*
X179610457Y-63946956D01*
X179589387Y-63956921D01*
X179567443Y-63964773D01*
X179544834Y-63970437D01*
X179521779Y-63973856D01*
X179498500Y-63975000D01*
X178923500Y-63975000D01*
X178900221Y-63973856D01*
X178877166Y-63970437D01*
X178854557Y-63964773D01*
X178832613Y-63956921D01*
X178811543Y-63946956D01*
X178791552Y-63934974D01*
X178772832Y-63921090D01*
X178755562Y-63905438D01*
X178739910Y-63888168D01*
X178726026Y-63869448D01*
X178714044Y-63849457D01*
X178704079Y-63828387D01*
X178696227Y-63806443D01*
X178690563Y-63783834D01*
X178687144Y-63760779D01*
X178686000Y-63737500D01*
X178686000Y-63262500D01*
X178687144Y-63239221D01*
X178690563Y-63216166D01*
X178696227Y-63193557D01*
X178704079Y-63171613D01*
X178714044Y-63150543D01*
X178726026Y-63130552D01*
X178739910Y-63111832D01*
X178755562Y-63094562D01*
X178772832Y-63078910D01*
X178791552Y-63065026D01*
X178811543Y-63053044D01*
X178832613Y-63043079D01*
X178854557Y-63035227D01*
X178877166Y-63029563D01*
X178900221Y-63026144D01*
X178923500Y-63025000D01*
X179498500Y-63025000D01*
X179521779Y-63026144D01*
X179521779Y-63026144D01*
G37*
D13*
X179211000Y-63500000D03*
G04 #@! TD*
D12*
G04 #@! TO.C,C10*
G36*
X147997779Y-62264144D02*
X148020834Y-62267563D01*
X148043443Y-62273227D01*
X148065387Y-62281079D01*
X148086457Y-62291044D01*
X148106448Y-62303026D01*
X148125168Y-62316910D01*
X148142438Y-62332562D01*
X148158090Y-62349832D01*
X148171974Y-62368552D01*
X148183956Y-62388543D01*
X148193921Y-62409613D01*
X148201773Y-62431557D01*
X148207437Y-62454166D01*
X148210856Y-62477221D01*
X148212000Y-62500500D01*
X148212000Y-62975500D01*
X148210856Y-62998779D01*
X148207437Y-63021834D01*
X148201773Y-63044443D01*
X148193921Y-63066387D01*
X148183956Y-63087457D01*
X148171974Y-63107448D01*
X148158090Y-63126168D01*
X148142438Y-63143438D01*
X148125168Y-63159090D01*
X148106448Y-63172974D01*
X148086457Y-63184956D01*
X148065387Y-63194921D01*
X148043443Y-63202773D01*
X148020834Y-63208437D01*
X147997779Y-63211856D01*
X147974500Y-63213000D01*
X147399500Y-63213000D01*
X147376221Y-63211856D01*
X147353166Y-63208437D01*
X147330557Y-63202773D01*
X147308613Y-63194921D01*
X147287543Y-63184956D01*
X147267552Y-63172974D01*
X147248832Y-63159090D01*
X147231562Y-63143438D01*
X147215910Y-63126168D01*
X147202026Y-63107448D01*
X147190044Y-63087457D01*
X147180079Y-63066387D01*
X147172227Y-63044443D01*
X147166563Y-63021834D01*
X147163144Y-62998779D01*
X147162000Y-62975500D01*
X147162000Y-62500500D01*
X147163144Y-62477221D01*
X147166563Y-62454166D01*
X147172227Y-62431557D01*
X147180079Y-62409613D01*
X147190044Y-62388543D01*
X147202026Y-62368552D01*
X147215910Y-62349832D01*
X147231562Y-62332562D01*
X147248832Y-62316910D01*
X147267552Y-62303026D01*
X147287543Y-62291044D01*
X147308613Y-62281079D01*
X147330557Y-62273227D01*
X147353166Y-62267563D01*
X147376221Y-62264144D01*
X147399500Y-62263000D01*
X147974500Y-62263000D01*
X147997779Y-62264144D01*
X147997779Y-62264144D01*
G37*
D13*
X147687000Y-62738000D03*
D12*
G36*
X146247779Y-62264144D02*
X146270834Y-62267563D01*
X146293443Y-62273227D01*
X146315387Y-62281079D01*
X146336457Y-62291044D01*
X146356448Y-62303026D01*
X146375168Y-62316910D01*
X146392438Y-62332562D01*
X146408090Y-62349832D01*
X146421974Y-62368552D01*
X146433956Y-62388543D01*
X146443921Y-62409613D01*
X146451773Y-62431557D01*
X146457437Y-62454166D01*
X146460856Y-62477221D01*
X146462000Y-62500500D01*
X146462000Y-62975500D01*
X146460856Y-62998779D01*
X146457437Y-63021834D01*
X146451773Y-63044443D01*
X146443921Y-63066387D01*
X146433956Y-63087457D01*
X146421974Y-63107448D01*
X146408090Y-63126168D01*
X146392438Y-63143438D01*
X146375168Y-63159090D01*
X146356448Y-63172974D01*
X146336457Y-63184956D01*
X146315387Y-63194921D01*
X146293443Y-63202773D01*
X146270834Y-63208437D01*
X146247779Y-63211856D01*
X146224500Y-63213000D01*
X145649500Y-63213000D01*
X145626221Y-63211856D01*
X145603166Y-63208437D01*
X145580557Y-63202773D01*
X145558613Y-63194921D01*
X145537543Y-63184956D01*
X145517552Y-63172974D01*
X145498832Y-63159090D01*
X145481562Y-63143438D01*
X145465910Y-63126168D01*
X145452026Y-63107448D01*
X145440044Y-63087457D01*
X145430079Y-63066387D01*
X145422227Y-63044443D01*
X145416563Y-63021834D01*
X145413144Y-62998779D01*
X145412000Y-62975500D01*
X145412000Y-62500500D01*
X145413144Y-62477221D01*
X145416563Y-62454166D01*
X145422227Y-62431557D01*
X145430079Y-62409613D01*
X145440044Y-62388543D01*
X145452026Y-62368552D01*
X145465910Y-62349832D01*
X145481562Y-62332562D01*
X145498832Y-62316910D01*
X145517552Y-62303026D01*
X145537543Y-62291044D01*
X145558613Y-62281079D01*
X145580557Y-62273227D01*
X145603166Y-62267563D01*
X145626221Y-62264144D01*
X145649500Y-62263000D01*
X146224500Y-62263000D01*
X146247779Y-62264144D01*
X146247779Y-62264144D01*
G37*
D13*
X145937000Y-62738000D03*
G04 #@! TD*
D12*
G04 #@! TO.C,C11*
G36*
X121609779Y-63026144D02*
X121632834Y-63029563D01*
X121655443Y-63035227D01*
X121677387Y-63043079D01*
X121698457Y-63053044D01*
X121718448Y-63065026D01*
X121737168Y-63078910D01*
X121754438Y-63094562D01*
X121770090Y-63111832D01*
X121783974Y-63130552D01*
X121795956Y-63150543D01*
X121805921Y-63171613D01*
X121813773Y-63193557D01*
X121819437Y-63216166D01*
X121822856Y-63239221D01*
X121824000Y-63262500D01*
X121824000Y-63737500D01*
X121822856Y-63760779D01*
X121819437Y-63783834D01*
X121813773Y-63806443D01*
X121805921Y-63828387D01*
X121795956Y-63849457D01*
X121783974Y-63869448D01*
X121770090Y-63888168D01*
X121754438Y-63905438D01*
X121737168Y-63921090D01*
X121718448Y-63934974D01*
X121698457Y-63946956D01*
X121677387Y-63956921D01*
X121655443Y-63964773D01*
X121632834Y-63970437D01*
X121609779Y-63973856D01*
X121586500Y-63975000D01*
X121011500Y-63975000D01*
X120988221Y-63973856D01*
X120965166Y-63970437D01*
X120942557Y-63964773D01*
X120920613Y-63956921D01*
X120899543Y-63946956D01*
X120879552Y-63934974D01*
X120860832Y-63921090D01*
X120843562Y-63905438D01*
X120827910Y-63888168D01*
X120814026Y-63869448D01*
X120802044Y-63849457D01*
X120792079Y-63828387D01*
X120784227Y-63806443D01*
X120778563Y-63783834D01*
X120775144Y-63760779D01*
X120774000Y-63737500D01*
X120774000Y-63262500D01*
X120775144Y-63239221D01*
X120778563Y-63216166D01*
X120784227Y-63193557D01*
X120792079Y-63171613D01*
X120802044Y-63150543D01*
X120814026Y-63130552D01*
X120827910Y-63111832D01*
X120843562Y-63094562D01*
X120860832Y-63078910D01*
X120879552Y-63065026D01*
X120899543Y-63053044D01*
X120920613Y-63043079D01*
X120942557Y-63035227D01*
X120965166Y-63029563D01*
X120988221Y-63026144D01*
X121011500Y-63025000D01*
X121586500Y-63025000D01*
X121609779Y-63026144D01*
X121609779Y-63026144D01*
G37*
D13*
X121299000Y-63500000D03*
D12*
G36*
X123359779Y-63026144D02*
X123382834Y-63029563D01*
X123405443Y-63035227D01*
X123427387Y-63043079D01*
X123448457Y-63053044D01*
X123468448Y-63065026D01*
X123487168Y-63078910D01*
X123504438Y-63094562D01*
X123520090Y-63111832D01*
X123533974Y-63130552D01*
X123545956Y-63150543D01*
X123555921Y-63171613D01*
X123563773Y-63193557D01*
X123569437Y-63216166D01*
X123572856Y-63239221D01*
X123574000Y-63262500D01*
X123574000Y-63737500D01*
X123572856Y-63760779D01*
X123569437Y-63783834D01*
X123563773Y-63806443D01*
X123555921Y-63828387D01*
X123545956Y-63849457D01*
X123533974Y-63869448D01*
X123520090Y-63888168D01*
X123504438Y-63905438D01*
X123487168Y-63921090D01*
X123468448Y-63934974D01*
X123448457Y-63946956D01*
X123427387Y-63956921D01*
X123405443Y-63964773D01*
X123382834Y-63970437D01*
X123359779Y-63973856D01*
X123336500Y-63975000D01*
X122761500Y-63975000D01*
X122738221Y-63973856D01*
X122715166Y-63970437D01*
X122692557Y-63964773D01*
X122670613Y-63956921D01*
X122649543Y-63946956D01*
X122629552Y-63934974D01*
X122610832Y-63921090D01*
X122593562Y-63905438D01*
X122577910Y-63888168D01*
X122564026Y-63869448D01*
X122552044Y-63849457D01*
X122542079Y-63828387D01*
X122534227Y-63806443D01*
X122528563Y-63783834D01*
X122525144Y-63760779D01*
X122524000Y-63737500D01*
X122524000Y-63262500D01*
X122525144Y-63239221D01*
X122528563Y-63216166D01*
X122534227Y-63193557D01*
X122542079Y-63171613D01*
X122552044Y-63150543D01*
X122564026Y-63130552D01*
X122577910Y-63111832D01*
X122593562Y-63094562D01*
X122610832Y-63078910D01*
X122629552Y-63065026D01*
X122649543Y-63053044D01*
X122670613Y-63043079D01*
X122692557Y-63035227D01*
X122715166Y-63029563D01*
X122738221Y-63026144D01*
X122761500Y-63025000D01*
X123336500Y-63025000D01*
X123359779Y-63026144D01*
X123359779Y-63026144D01*
G37*
D13*
X123049000Y-63500000D03*
G04 #@! TD*
D12*
G04 #@! TO.C,C12*
G36*
X154629779Y-62243145D02*
X154652834Y-62246564D01*
X154675443Y-62252228D01*
X154697387Y-62260080D01*
X154718457Y-62270045D01*
X154738448Y-62282027D01*
X154757168Y-62295911D01*
X154774438Y-62311563D01*
X154790090Y-62328833D01*
X154803974Y-62347553D01*
X154815956Y-62367544D01*
X154825921Y-62388614D01*
X154833773Y-62410558D01*
X154839437Y-62433167D01*
X154842856Y-62456222D01*
X154844000Y-62479501D01*
X154844000Y-62954501D01*
X154842856Y-62977780D01*
X154839437Y-63000835D01*
X154833773Y-63023444D01*
X154825921Y-63045388D01*
X154815956Y-63066458D01*
X154803974Y-63086449D01*
X154790090Y-63105169D01*
X154774438Y-63122439D01*
X154757168Y-63138091D01*
X154738448Y-63151975D01*
X154718457Y-63163957D01*
X154697387Y-63173922D01*
X154675443Y-63181774D01*
X154652834Y-63187438D01*
X154629779Y-63190857D01*
X154606500Y-63192001D01*
X154031500Y-63192001D01*
X154008221Y-63190857D01*
X153985166Y-63187438D01*
X153962557Y-63181774D01*
X153940613Y-63173922D01*
X153919543Y-63163957D01*
X153899552Y-63151975D01*
X153880832Y-63138091D01*
X153863562Y-63122439D01*
X153847910Y-63105169D01*
X153834026Y-63086449D01*
X153822044Y-63066458D01*
X153812079Y-63045388D01*
X153804227Y-63023444D01*
X153798563Y-63000835D01*
X153795144Y-62977780D01*
X153794000Y-62954501D01*
X153794000Y-62479501D01*
X153795144Y-62456222D01*
X153798563Y-62433167D01*
X153804227Y-62410558D01*
X153812079Y-62388614D01*
X153822044Y-62367544D01*
X153834026Y-62347553D01*
X153847910Y-62328833D01*
X153863562Y-62311563D01*
X153880832Y-62295911D01*
X153899552Y-62282027D01*
X153919543Y-62270045D01*
X153940613Y-62260080D01*
X153962557Y-62252228D01*
X153985166Y-62246564D01*
X154008221Y-62243145D01*
X154031500Y-62242001D01*
X154606500Y-62242001D01*
X154629779Y-62243145D01*
X154629779Y-62243145D01*
G37*
D13*
X154319000Y-62717001D03*
D12*
G36*
X156379779Y-62243145D02*
X156402834Y-62246564D01*
X156425443Y-62252228D01*
X156447387Y-62260080D01*
X156468457Y-62270045D01*
X156488448Y-62282027D01*
X156507168Y-62295911D01*
X156524438Y-62311563D01*
X156540090Y-62328833D01*
X156553974Y-62347553D01*
X156565956Y-62367544D01*
X156575921Y-62388614D01*
X156583773Y-62410558D01*
X156589437Y-62433167D01*
X156592856Y-62456222D01*
X156594000Y-62479501D01*
X156594000Y-62954501D01*
X156592856Y-62977780D01*
X156589437Y-63000835D01*
X156583773Y-63023444D01*
X156575921Y-63045388D01*
X156565956Y-63066458D01*
X156553974Y-63086449D01*
X156540090Y-63105169D01*
X156524438Y-63122439D01*
X156507168Y-63138091D01*
X156488448Y-63151975D01*
X156468457Y-63163957D01*
X156447387Y-63173922D01*
X156425443Y-63181774D01*
X156402834Y-63187438D01*
X156379779Y-63190857D01*
X156356500Y-63192001D01*
X155781500Y-63192001D01*
X155758221Y-63190857D01*
X155735166Y-63187438D01*
X155712557Y-63181774D01*
X155690613Y-63173922D01*
X155669543Y-63163957D01*
X155649552Y-63151975D01*
X155630832Y-63138091D01*
X155613562Y-63122439D01*
X155597910Y-63105169D01*
X155584026Y-63086449D01*
X155572044Y-63066458D01*
X155562079Y-63045388D01*
X155554227Y-63023444D01*
X155548563Y-63000835D01*
X155545144Y-62977780D01*
X155544000Y-62954501D01*
X155544000Y-62479501D01*
X155545144Y-62456222D01*
X155548563Y-62433167D01*
X155554227Y-62410558D01*
X155562079Y-62388614D01*
X155572044Y-62367544D01*
X155584026Y-62347553D01*
X155597910Y-62328833D01*
X155613562Y-62311563D01*
X155630832Y-62295911D01*
X155649552Y-62282027D01*
X155669543Y-62270045D01*
X155690613Y-62260080D01*
X155712557Y-62252228D01*
X155735166Y-62246564D01*
X155758221Y-62243145D01*
X155781500Y-62242001D01*
X156356500Y-62242001D01*
X156379779Y-62243145D01*
X156379779Y-62243145D01*
G37*
D13*
X156069000Y-62717001D03*
G04 #@! TD*
D12*
G04 #@! TO.C,R15*
G36*
X128185779Y-95792144D02*
X128208834Y-95795563D01*
X128231443Y-95801227D01*
X128253387Y-95809079D01*
X128274457Y-95819044D01*
X128294448Y-95831026D01*
X128313168Y-95844910D01*
X128330438Y-95860562D01*
X128346090Y-95877832D01*
X128359974Y-95896552D01*
X128371956Y-95916543D01*
X128381921Y-95937613D01*
X128389773Y-95959557D01*
X128395437Y-95982166D01*
X128398856Y-96005221D01*
X128400000Y-96028500D01*
X128400000Y-96503500D01*
X128398856Y-96526779D01*
X128395437Y-96549834D01*
X128389773Y-96572443D01*
X128381921Y-96594387D01*
X128371956Y-96615457D01*
X128359974Y-96635448D01*
X128346090Y-96654168D01*
X128330438Y-96671438D01*
X128313168Y-96687090D01*
X128294448Y-96700974D01*
X128274457Y-96712956D01*
X128253387Y-96722921D01*
X128231443Y-96730773D01*
X128208834Y-96736437D01*
X128185779Y-96739856D01*
X128162500Y-96741000D01*
X127587500Y-96741000D01*
X127564221Y-96739856D01*
X127541166Y-96736437D01*
X127518557Y-96730773D01*
X127496613Y-96722921D01*
X127475543Y-96712956D01*
X127455552Y-96700974D01*
X127436832Y-96687090D01*
X127419562Y-96671438D01*
X127403910Y-96654168D01*
X127390026Y-96635448D01*
X127378044Y-96615457D01*
X127368079Y-96594387D01*
X127360227Y-96572443D01*
X127354563Y-96549834D01*
X127351144Y-96526779D01*
X127350000Y-96503500D01*
X127350000Y-96028500D01*
X127351144Y-96005221D01*
X127354563Y-95982166D01*
X127360227Y-95959557D01*
X127368079Y-95937613D01*
X127378044Y-95916543D01*
X127390026Y-95896552D01*
X127403910Y-95877832D01*
X127419562Y-95860562D01*
X127436832Y-95844910D01*
X127455552Y-95831026D01*
X127475543Y-95819044D01*
X127496613Y-95809079D01*
X127518557Y-95801227D01*
X127541166Y-95795563D01*
X127564221Y-95792144D01*
X127587500Y-95791000D01*
X128162500Y-95791000D01*
X128185779Y-95792144D01*
X128185779Y-95792144D01*
G37*
D13*
X127875000Y-96266000D03*
D12*
G36*
X126435779Y-95792144D02*
X126458834Y-95795563D01*
X126481443Y-95801227D01*
X126503387Y-95809079D01*
X126524457Y-95819044D01*
X126544448Y-95831026D01*
X126563168Y-95844910D01*
X126580438Y-95860562D01*
X126596090Y-95877832D01*
X126609974Y-95896552D01*
X126621956Y-95916543D01*
X126631921Y-95937613D01*
X126639773Y-95959557D01*
X126645437Y-95982166D01*
X126648856Y-96005221D01*
X126650000Y-96028500D01*
X126650000Y-96503500D01*
X126648856Y-96526779D01*
X126645437Y-96549834D01*
X126639773Y-96572443D01*
X126631921Y-96594387D01*
X126621956Y-96615457D01*
X126609974Y-96635448D01*
X126596090Y-96654168D01*
X126580438Y-96671438D01*
X126563168Y-96687090D01*
X126544448Y-96700974D01*
X126524457Y-96712956D01*
X126503387Y-96722921D01*
X126481443Y-96730773D01*
X126458834Y-96736437D01*
X126435779Y-96739856D01*
X126412500Y-96741000D01*
X125837500Y-96741000D01*
X125814221Y-96739856D01*
X125791166Y-96736437D01*
X125768557Y-96730773D01*
X125746613Y-96722921D01*
X125725543Y-96712956D01*
X125705552Y-96700974D01*
X125686832Y-96687090D01*
X125669562Y-96671438D01*
X125653910Y-96654168D01*
X125640026Y-96635448D01*
X125628044Y-96615457D01*
X125618079Y-96594387D01*
X125610227Y-96572443D01*
X125604563Y-96549834D01*
X125601144Y-96526779D01*
X125600000Y-96503500D01*
X125600000Y-96028500D01*
X125601144Y-96005221D01*
X125604563Y-95982166D01*
X125610227Y-95959557D01*
X125618079Y-95937613D01*
X125628044Y-95916543D01*
X125640026Y-95896552D01*
X125653910Y-95877832D01*
X125669562Y-95860562D01*
X125686832Y-95844910D01*
X125705552Y-95831026D01*
X125725543Y-95819044D01*
X125746613Y-95809079D01*
X125768557Y-95801227D01*
X125791166Y-95795563D01*
X125814221Y-95792144D01*
X125837500Y-95791000D01*
X126412500Y-95791000D01*
X126435779Y-95792144D01*
X126435779Y-95792144D01*
G37*
D13*
X126125000Y-96266000D03*
G04 #@! TD*
D12*
G04 #@! TO.C,R26*
G36*
X133991779Y-103348144D02*
X134014834Y-103351563D01*
X134037443Y-103357227D01*
X134059387Y-103365079D01*
X134080457Y-103375044D01*
X134100448Y-103387026D01*
X134119168Y-103400910D01*
X134136438Y-103416562D01*
X134152090Y-103433832D01*
X134165974Y-103452552D01*
X134177956Y-103472543D01*
X134187921Y-103493613D01*
X134195773Y-103515557D01*
X134201437Y-103538166D01*
X134204856Y-103561221D01*
X134206000Y-103584500D01*
X134206000Y-104159500D01*
X134204856Y-104182779D01*
X134201437Y-104205834D01*
X134195773Y-104228443D01*
X134187921Y-104250387D01*
X134177956Y-104271457D01*
X134165974Y-104291448D01*
X134152090Y-104310168D01*
X134136438Y-104327438D01*
X134119168Y-104343090D01*
X134100448Y-104356974D01*
X134080457Y-104368956D01*
X134059387Y-104378921D01*
X134037443Y-104386773D01*
X134014834Y-104392437D01*
X133991779Y-104395856D01*
X133968500Y-104397000D01*
X133493500Y-104397000D01*
X133470221Y-104395856D01*
X133447166Y-104392437D01*
X133424557Y-104386773D01*
X133402613Y-104378921D01*
X133381543Y-104368956D01*
X133361552Y-104356974D01*
X133342832Y-104343090D01*
X133325562Y-104327438D01*
X133309910Y-104310168D01*
X133296026Y-104291448D01*
X133284044Y-104271457D01*
X133274079Y-104250387D01*
X133266227Y-104228443D01*
X133260563Y-104205834D01*
X133257144Y-104182779D01*
X133256000Y-104159500D01*
X133256000Y-103584500D01*
X133257144Y-103561221D01*
X133260563Y-103538166D01*
X133266227Y-103515557D01*
X133274079Y-103493613D01*
X133284044Y-103472543D01*
X133296026Y-103452552D01*
X133309910Y-103433832D01*
X133325562Y-103416562D01*
X133342832Y-103400910D01*
X133361552Y-103387026D01*
X133381543Y-103375044D01*
X133402613Y-103365079D01*
X133424557Y-103357227D01*
X133447166Y-103351563D01*
X133470221Y-103348144D01*
X133493500Y-103347000D01*
X133968500Y-103347000D01*
X133991779Y-103348144D01*
X133991779Y-103348144D01*
G37*
D13*
X133731000Y-103872000D03*
D12*
G36*
X133991779Y-101598144D02*
X134014834Y-101601563D01*
X134037443Y-101607227D01*
X134059387Y-101615079D01*
X134080457Y-101625044D01*
X134100448Y-101637026D01*
X134119168Y-101650910D01*
X134136438Y-101666562D01*
X134152090Y-101683832D01*
X134165974Y-101702552D01*
X134177956Y-101722543D01*
X134187921Y-101743613D01*
X134195773Y-101765557D01*
X134201437Y-101788166D01*
X134204856Y-101811221D01*
X134206000Y-101834500D01*
X134206000Y-102409500D01*
X134204856Y-102432779D01*
X134201437Y-102455834D01*
X134195773Y-102478443D01*
X134187921Y-102500387D01*
X134177956Y-102521457D01*
X134165974Y-102541448D01*
X134152090Y-102560168D01*
X134136438Y-102577438D01*
X134119168Y-102593090D01*
X134100448Y-102606974D01*
X134080457Y-102618956D01*
X134059387Y-102628921D01*
X134037443Y-102636773D01*
X134014834Y-102642437D01*
X133991779Y-102645856D01*
X133968500Y-102647000D01*
X133493500Y-102647000D01*
X133470221Y-102645856D01*
X133447166Y-102642437D01*
X133424557Y-102636773D01*
X133402613Y-102628921D01*
X133381543Y-102618956D01*
X133361552Y-102606974D01*
X133342832Y-102593090D01*
X133325562Y-102577438D01*
X133309910Y-102560168D01*
X133296026Y-102541448D01*
X133284044Y-102521457D01*
X133274079Y-102500387D01*
X133266227Y-102478443D01*
X133260563Y-102455834D01*
X133257144Y-102432779D01*
X133256000Y-102409500D01*
X133256000Y-101834500D01*
X133257144Y-101811221D01*
X133260563Y-101788166D01*
X133266227Y-101765557D01*
X133274079Y-101743613D01*
X133284044Y-101722543D01*
X133296026Y-101702552D01*
X133309910Y-101683832D01*
X133325562Y-101666562D01*
X133342832Y-101650910D01*
X133361552Y-101637026D01*
X133381543Y-101625044D01*
X133402613Y-101615079D01*
X133424557Y-101607227D01*
X133447166Y-101601563D01*
X133470221Y-101598144D01*
X133493500Y-101597000D01*
X133968500Y-101597000D01*
X133991779Y-101598144D01*
X133991779Y-101598144D01*
G37*
D13*
X133731000Y-102122000D03*
G04 #@! TD*
M02*
