G04 #@! TF.GenerationSoftware,KiCad,Pcbnew,(5.0.0)*
G04 #@! TF.CreationDate,2019-12-13T16:22:20-06:00*
G04 #@! TF.ProjectId,MiniRoverPowerBoard_Hardware,4D696E69526F766572506F776572426F,rev?*
G04 #@! TF.SameCoordinates,Original*
G04 #@! TF.FileFunction,Soldermask,Bot*
G04 #@! TF.FilePolarity,Negative*
%FSLAX46Y46*%
G04 Gerber Fmt 4.6, Leading zero omitted, Abs format (unit mm)*
G04 Created by KiCad (PCBNEW (5.0.0)) date 12/13/19 16:22:20*
%MOMM*%
%LPD*%
G01*
G04 APERTURE LIST*
%ADD10C,1.924000*%
%ADD11C,3.346400*%
%ADD12R,2.000000X2.000000*%
%ADD13C,2.000000*%
%ADD14C,5.480000*%
%ADD15C,3.219400*%
%ADD16C,2.100000*%
%ADD17R,2.100000X2.100000*%
G04 APERTURE END LIST*
D10*
G04 #@! TO.C,Conn7*
X140462000Y-82042000D03*
X137922000Y-82042000D03*
X135382000Y-82042000D03*
G04 #@! TD*
D11*
G04 #@! TO.C,REF\002A\002A*
X115570000Y-29210000D03*
G04 #@! TD*
G04 #@! TO.C,REF\002A\002A*
X186690000Y-29210000D03*
G04 #@! TD*
G04 #@! TO.C,REF\002A\002A*
X186690000Y-139700000D03*
G04 #@! TD*
D12*
G04 #@! TO.C,C5*
X150876000Y-59436000D03*
D13*
X150876000Y-55936000D03*
G04 #@! TD*
G04 #@! TO.C,C6*
X150876000Y-69540000D03*
D12*
X150876000Y-66040000D03*
G04 #@! TD*
D14*
G04 #@! TO.C,Conn1*
X162788600Y-114681000D03*
X162788600Y-106807000D03*
G04 #@! TD*
G04 #@! TO.C,Conn2*
X162788600Y-123317000D03*
X162788600Y-131191000D03*
G04 #@! TD*
G04 #@! TO.C,Conn3*
X139471400Y-37719000D03*
X139471400Y-45593000D03*
G04 #@! TD*
G04 #@! TO.C,Conn4*
X162788600Y-37719000D03*
X162788600Y-45593000D03*
G04 #@! TD*
D10*
G04 #@! TO.C,Conn5*
X137795000Y-100965000D03*
X140335000Y-100965000D03*
G04 #@! TD*
G04 #@! TO.C,Conn6*
X138430000Y-133350000D03*
X140970000Y-133350000D03*
X143510000Y-133350000D03*
X146050000Y-133350000D03*
X148590000Y-133350000D03*
X151130000Y-133350000D03*
X153670000Y-133350000D03*
G04 #@! TD*
D15*
G04 #@! TO.C,F1*
X171323000Y-96139000D03*
X171323000Y-99568000D03*
X184785000Y-99568000D03*
X184785000Y-96139000D03*
G04 #@! TD*
D13*
G04 #@! TO.C,L2*
X143002000Y-120936000D03*
D12*
X143002000Y-122936000D03*
G04 #@! TD*
D10*
G04 #@! TO.C,SW1*
X146685000Y-100965000D03*
X149225000Y-100965000D03*
X151765000Y-100965000D03*
X154305000Y-100965000D03*
X154305000Y-100965000D03*
G04 #@! TD*
D16*
G04 #@! TO.C,U6*
X130810000Y-91130000D03*
X130810000Y-93670000D03*
X130810000Y-96210000D03*
X130810000Y-98750000D03*
X130810000Y-101290000D03*
X130810000Y-103830000D03*
X130810000Y-106370000D03*
X130810000Y-108910000D03*
X130810000Y-111450000D03*
X130810000Y-113990000D03*
X130810000Y-116530000D03*
X130810000Y-119070000D03*
X130810000Y-121610000D03*
X130810000Y-124150000D03*
X130810000Y-126690000D03*
X130810000Y-129230000D03*
X130810000Y-131770000D03*
D17*
X115554000Y-91130000D03*
D16*
X115554000Y-93670000D03*
X115554000Y-96210000D03*
X115554000Y-98750000D03*
X115554000Y-101290000D03*
X115554000Y-103830000D03*
X115554000Y-106370000D03*
X115554000Y-108910000D03*
X115554000Y-111450000D03*
X115554000Y-113990000D03*
X115554000Y-116530000D03*
X115554000Y-119070000D03*
X115554000Y-121610000D03*
X115554000Y-124150000D03*
X115554000Y-126690000D03*
X115554000Y-129230000D03*
X115554000Y-131770000D03*
G04 #@! TD*
D10*
G04 #@! TO.C,Conn8*
X137922000Y-91694000D03*
X140462000Y-91694000D03*
G04 #@! TD*
D11*
G04 #@! TO.C,REF\002A\002A*
X115570000Y-139700000D03*
G04 #@! TD*
D10*
G04 #@! TO.C,Conn9*
X146812000Y-82042000D03*
X149352000Y-82042000D03*
X151892000Y-82042000D03*
X154432000Y-82042000D03*
X154432000Y-82042000D03*
G04 #@! TD*
G04 #@! TO.C,Conn10*
X154432000Y-91694000D03*
X154432000Y-91694000D03*
X151892000Y-91694000D03*
X149352000Y-91694000D03*
X146812000Y-91694000D03*
G04 #@! TD*
M02*
