M48
;DRILL file {KiCad (5.0.0)} date 12/13/19 16:22:23
;FORMAT={-:-/ absolute / inch / decimal}
FMAT,2
INCH,TZ
T1C0.0157
T2C0.0315
T3C0.0354
T4C0.0394
T5C0.0660
T6C0.1598
T7C0.1160
%
G90
G05
M72
T1
X4.47Y-5.04
X4.47Y-5.08
X4.48Y-3.24
X4.48Y-3.28
X4.49Y-2.24
X4.53Y-1.93
X4.53Y-3.24
X4.53Y-3.28
X4.55Y-1.89
X4.58Y-1.93
X4.6Y-1.89
X4.63Y-1.93
X4.635Y-3.96
X4.65Y-1.89
X4.675Y-3.96
X4.68Y-1.93
X4.68Y-2.5
X4.7Y-1.89
X4.72Y-2.5
X4.73Y-1.93
X4.74Y-2.72
X4.74Y-5.19
X4.74Y-5.24
X4.75Y-1.89
X4.78Y-1.93
X4.79Y-5.19
X4.79Y-5.24
X4.8Y-1.89
X4.83Y-1.93
X4.85Y-1.89
X4.88Y-1.93
X4.88Y-2.7
X4.9Y-1.89
X4.9Y-2.5
X4.91Y-3.32
X4.91Y-3.36
X4.91Y-3.4
X4.91Y-3.44
X4.965Y-5.25
X4.98Y-3.14
X4.99Y-5.58
X5.03Y-5.62
X5.04Y-2.16
X5.04Y-2.2
X5.04Y-2.24
X5.04Y-2.28
X5.04Y-2.32
X5.04Y-2.36
X5.05Y-3.98
X5.05Y-4.03
X5.05Y-4.13
X5.05Y-4.18
X5.08Y-2.14
X5.08Y-2.18
X5.08Y-2.22
X5.08Y-2.26
X5.08Y-2.3
X5.08Y-2.34
X5.12Y-2.16
X5.12Y-2.2
X5.12Y-2.24
X5.12Y-2.28
X5.12Y-2.32
X5.12Y-2.36
X5.135Y-2.435
X5.135Y-2.475
X5.135Y-2.515
X5.135Y-2.555
X5.135Y-2.595
X5.135Y-2.635
X5.16Y-2.14
X5.16Y-2.18
X5.16Y-2.22
X5.16Y-2.26
X5.16Y-2.3
X5.16Y-2.34
X5.175Y-2.455
X5.175Y-2.495
X5.175Y-2.535
X5.175Y-2.575
X5.175Y-2.615
X5.2Y-2.16
X5.2Y-2.2
X5.2Y-2.24
X5.2Y-2.28
X5.2Y-2.32
X5.2Y-2.36
X5.215Y-2.435
X5.215Y-2.475
X5.215Y-2.515
X5.215Y-2.555
X5.215Y-2.595
X5.215Y-2.635
X5.24Y-2.14
X5.24Y-2.18
X5.24Y-2.22
X5.24Y-2.26
X5.24Y-2.3
X5.24Y-2.34
X5.24Y-2.82
X5.24Y-4.18
X5.24Y-4.235
X5.255Y-2.455
X5.255Y-2.495
X5.255Y-2.535
X5.255Y-2.575
X5.255Y-2.615
X5.28Y-2.16
X5.28Y-2.2
X5.28Y-2.24
X5.28Y-2.28
X5.28Y-2.32
X5.28Y-2.36
X5.295Y-2.435
X5.295Y-2.475
X5.295Y-2.515
X5.295Y-2.555
X5.295Y-2.595
X5.295Y-2.635
X5.295Y-4.18
X5.33Y-3.36
X5.335Y-2.455
X5.335Y-2.495
X5.335Y-2.535
X5.335Y-2.575
X5.335Y-2.615
X5.345Y-3.915
X5.345Y-4.24
X5.36Y-5.25
X5.375Y-2.435
X5.375Y-2.475
X5.375Y-2.515
X5.375Y-2.555
X5.375Y-2.595
X5.375Y-2.635
X5.38Y-2.82
X5.39Y-2.16
X5.39Y-2.2
X5.39Y-2.24
X5.39Y-2.28
X5.39Y-2.32
X5.39Y-2.36
X5.415Y-2.455
X5.415Y-2.495
X5.415Y-2.535
X5.415Y-2.575
X5.415Y-2.615
X5.43Y-2.14
X5.43Y-2.18
X5.43Y-2.22
X5.43Y-2.26
X5.43Y-2.3
X5.43Y-2.34
X5.45Y-5.065
X5.455Y-2.435
X5.455Y-2.475
X5.455Y-2.515
X5.455Y-2.555
X5.455Y-2.595
X5.455Y-2.635
X5.47Y-2.16
X5.47Y-2.2
X5.47Y-2.24
X5.47Y-2.28
X5.47Y-2.32
X5.47Y-2.36
X5.49Y-4.09
X5.495Y-2.455
X5.495Y-2.495
X5.495Y-2.535
X5.495Y-2.575
X5.495Y-2.615
X5.495Y-4.205
X5.51Y-2.14
X5.51Y-2.18
X5.51Y-2.22
X5.51Y-2.26
X5.51Y-2.3
X5.51Y-2.34
X5.535Y-2.435
X5.535Y-2.475
X5.535Y-2.515
X5.535Y-2.555
X5.535Y-2.595
X5.535Y-2.635
X5.55Y-2.16
X5.55Y-2.2
X5.55Y-2.24
X5.55Y-2.28
X5.55Y-2.32
X5.55Y-2.36
X5.565Y-4.09
X5.59Y-2.14
X5.59Y-2.18
X5.59Y-2.22
X5.59Y-2.26
X5.59Y-2.3
X5.59Y-2.34
X5.61Y-3.81
X5.61Y-4.34
X5.61Y-4.45
X5.63Y-2.16
X5.63Y-2.2
X5.63Y-2.24
X5.63Y-2.28
X5.63Y-2.32
X5.63Y-2.36
X5.65Y-2.91
X5.65Y-3.14
X5.65Y-4.09
X5.65Y-4.34
X5.69Y-2.82
X5.69Y-3.73
X5.7Y-4.34
X5.72Y-4.64
X5.72Y-4.69
X5.75Y-4.18
X5.765Y-4.445
X5.765Y-4.52
X5.77Y-3.88
X5.78Y-4.99
X5.81Y-3.88
X5.81Y-4.445
X5.81Y-4.52
X5.83Y-4.99
X5.88Y-1.63
X5.88Y-1.86
X5.88Y-4.99
X5.9Y-2.47
X5.92Y-4.1
X5.92Y-4.26
X5.92Y-4.48
X5.92Y-4.52
X5.93Y-4.99
X5.94Y-2.47
X5.95Y-2.92
X5.96Y-4.1
X5.97Y-2.82
X5.97Y-2.87
X5.97Y-4.48
X5.97Y-4.52
X5.98Y-2.47
X5.99Y-2.92
X5.99Y-4.65
X6.Y-4.1
X6.01Y-1.63
X6.01Y-2.77
X6.02Y-1.86
X6.03Y-2.92
X6.05Y-2.75
X6.06Y-2.05
X6.07Y-2.92
X6.075Y-4.24
X6.09Y-2.77
X6.11Y-2.92
X6.13Y-2.75
X6.13Y-4.52
X6.13Y-4.58
X6.15Y-2.92
X6.17Y-2.77
X6.19Y-2.92
X6.19Y-4.08
X6.19Y-4.13
X6.19Y-4.18
X6.21Y-2.75
X6.23Y-2.92
X6.24Y-3.775
X6.27Y-2.92
X6.28Y-2.16
X6.28Y-2.2
X6.28Y-2.24
X6.28Y-2.28
X6.28Y-2.32
X6.28Y-2.36
X6.28Y-3.775
X6.32Y-2.14
X6.32Y-2.18
X6.32Y-2.22
X6.32Y-2.26
X6.32Y-2.3
X6.32Y-2.34
X6.32Y-3.775
X6.36Y-2.16
X6.36Y-2.2
X6.36Y-2.24
X6.36Y-2.28
X6.36Y-2.32
X6.36Y-2.36
X6.36Y-2.44
X6.36Y-2.48
X6.36Y-2.52
X6.36Y-2.56
X6.36Y-2.6
X6.36Y-2.64
X6.36Y-3.775
X6.4Y-2.14
X6.4Y-2.18
X6.4Y-2.22
X6.4Y-2.26
X6.4Y-2.3
X6.4Y-2.34
X6.4Y-2.46
X6.4Y-2.5
X6.4Y-2.54
X6.4Y-2.58
X6.4Y-2.62
X6.4Y-3.775
X6.42Y-3.49
X6.44Y-2.16
X6.44Y-2.2
X6.44Y-2.24
X6.44Y-2.28
X6.44Y-2.32
X6.44Y-2.36
X6.44Y-2.44
X6.44Y-2.48
X6.44Y-2.52
X6.44Y-2.56
X6.44Y-2.6
X6.44Y-2.64
X6.45Y-3.53
X6.47Y-2.82
X6.47Y-3.49
X6.48Y-2.14
X6.48Y-2.18
X6.48Y-2.22
X6.48Y-2.26
X6.48Y-2.3
X6.48Y-2.34
X6.48Y-2.46
X6.48Y-2.5
X6.48Y-2.54
X6.48Y-2.58
X6.48Y-2.62
X6.5Y-3.53
X6.52Y-2.16
X6.52Y-2.2
X6.52Y-2.24
X6.52Y-2.28
X6.52Y-2.32
X6.52Y-2.36
X6.52Y-2.44
X6.52Y-2.48
X6.52Y-2.52
X6.52Y-2.56
X6.52Y-2.6
X6.52Y-2.64
X6.52Y-3.49
X6.55Y-3.53
X6.56Y-2.46
X6.56Y-2.5
X6.56Y-2.54
X6.56Y-2.58
X6.56Y-2.62
X6.57Y-3.49
X6.6Y-2.44
X6.6Y-2.48
X6.6Y-2.52
X6.6Y-2.56
X6.6Y-2.6
X6.6Y-2.64
X6.6Y-2.82
X6.6Y-3.53
X6.62Y-2.16
X6.62Y-2.2
X6.62Y-2.24
X6.62Y-2.28
X6.62Y-2.32
X6.62Y-2.36
X6.62Y-3.49
X6.64Y-2.46
X6.64Y-2.5
X6.64Y-2.54
X6.64Y-2.58
X6.64Y-2.62
X6.65Y-3.53
X6.66Y-2.14
X6.66Y-2.18
X6.66Y-2.22
X6.66Y-2.26
X6.66Y-2.3
X6.66Y-2.34
X6.67Y-3.49
X6.68Y-2.44
X6.68Y-2.48
X6.68Y-2.52
X6.68Y-2.56
X6.68Y-2.6
X6.68Y-2.64
X6.7Y-2.16
X6.7Y-2.2
X6.7Y-2.24
X6.7Y-2.28
X6.7Y-2.32
X6.7Y-2.36
X6.7Y-3.53
X6.72Y-2.46
X6.72Y-2.5
X6.72Y-2.54
X6.72Y-2.58
X6.72Y-2.62
X6.72Y-3.49
X6.74Y-2.14
X6.74Y-2.18
X6.74Y-2.22
X6.74Y-2.26
X6.74Y-2.3
X6.74Y-2.34
X6.76Y-2.44
X6.76Y-2.48
X6.76Y-2.52
X6.76Y-2.56
X6.76Y-2.6
X6.76Y-2.64
X6.78Y-2.16
X6.78Y-2.2
X6.78Y-2.24
X6.78Y-2.28
X6.78Y-2.32
X6.78Y-2.36
X6.82Y-2.14
X6.82Y-2.18
X6.82Y-2.22
X6.82Y-2.26
X6.82Y-2.3
X6.82Y-2.34
X6.83Y-2.87
X6.86Y-2.16
X6.86Y-2.2
X6.86Y-2.24
X6.86Y-2.28
X6.86Y-2.32
X6.86Y-2.36
X6.87Y-3.47
X6.88Y-3.58
X6.97Y-3.35
X7.Y-1.93
X7.Y-2.5
X7.01Y-3.35
X7.02Y-1.89
X7.05Y-1.93
X7.07Y-1.89
X7.08Y-2.72
X7.08Y-2.76
X7.08Y-2.8
X7.08Y-2.84
X7.08Y-2.88
X7.08Y-2.92
X7.08Y-2.96
X7.08Y-3.
X7.1Y-1.93
X7.12Y-1.89
X7.12Y-2.74
X7.12Y-2.78
X7.12Y-2.82
X7.12Y-2.86
X7.12Y-2.9
X7.12Y-2.94
X7.12Y-2.98
X7.12Y-3.02
X7.15Y-1.93
X7.16Y-2.72
X7.16Y-2.76
X7.16Y-2.8
X7.16Y-2.84
X7.16Y-2.88
X7.16Y-2.92
X7.16Y-2.96
X7.16Y-3.
X7.17Y-1.89
X7.19Y-3.48
X7.2Y-1.93
X7.2Y-2.74
X7.2Y-2.78
X7.2Y-2.82
X7.2Y-2.86
X7.2Y-2.9
X7.2Y-2.94
X7.2Y-2.98
X7.2Y-3.02
X7.22Y-1.89
X7.24Y-2.72
X7.24Y-2.76
X7.24Y-2.8
X7.24Y-2.84
X7.24Y-2.88
X7.24Y-2.92
X7.24Y-2.96
X7.24Y-3.
X7.25Y-1.93
X7.27Y-1.89
X7.28Y-2.74
X7.28Y-2.78
X7.28Y-2.82
X7.28Y-2.86
X7.28Y-2.9
X7.28Y-2.94
X7.28Y-2.98
X7.3Y-1.93
X7.32Y-1.89
X7.32Y-2.72
X7.32Y-2.76
X7.32Y-2.8
X7.32Y-2.84
X7.32Y-2.88
X7.32Y-2.92
X7.32Y-2.96
X7.33Y-2.44
X7.35Y-1.93
X7.37Y-1.89
X7.385Y-2.855
X7.46Y-3.145
T2
X5.94Y-2.6
X5.94Y-2.7378
X5.63Y-4.7613
X5.63Y-4.84
X5.94Y-2.2022
X5.94Y-2.34
T3
X5.43Y-3.61
X5.53Y-3.61
X5.33Y-3.23
X5.43Y-3.23
X5.53Y-3.23
X5.775Y-3.975
X5.875Y-3.975
X5.975Y-3.975
X6.075Y-3.975
X6.075Y-3.975
X5.78Y-3.23
X5.88Y-3.23
X5.98Y-3.23
X6.08Y-3.23
X6.08Y-3.23
X5.78Y-3.61
X5.88Y-3.61
X5.98Y-3.61
X6.08Y-3.61
X6.08Y-3.61
X5.45Y-5.25
X5.55Y-5.25
X5.65Y-5.25
X5.75Y-5.25
X5.85Y-5.25
X5.95Y-5.25
X6.05Y-5.25
X5.425Y-3.975
X5.525Y-3.975
T4
X4.5494Y-3.5878
X4.5494Y-3.6878
X4.5494Y-3.7878
X4.5494Y-3.8878
X4.5494Y-3.9878
X4.5494Y-4.0878
X4.5494Y-4.1878
X4.5494Y-4.2878
X4.5494Y-4.3878
X4.5494Y-4.4878
X4.5494Y-4.5878
X4.5494Y-4.6878
X4.5494Y-4.7878
X4.5494Y-4.8878
X4.5494Y-4.9878
X4.5494Y-5.0878
X4.5494Y-5.1878
X5.15Y-3.5878
X5.15Y-3.6878
X5.15Y-3.7878
X5.15Y-3.8878
X5.15Y-3.9878
X5.15Y-4.0878
X5.15Y-4.1878
X5.15Y-4.2878
X5.15Y-4.3878
X5.15Y-4.4878
X5.15Y-4.5878
X5.15Y-4.6878
X5.15Y-4.7878
X5.15Y-4.8878
X5.15Y-4.9878
X5.15Y-5.0878
X5.15Y-5.1878
T5
X6.745Y-3.785
X6.745Y-3.92
X7.275Y-3.785
X7.275Y-3.92
T6
X6.409Y-1.485
X6.409Y-1.795
X5.491Y-1.485
X5.491Y-1.795
X6.409Y-4.855
X6.409Y-5.165
X6.409Y-4.205
X6.409Y-4.515
T7
X7.35Y-5.5
X7.35Y-1.15
X4.55Y-5.5
X4.55Y-1.15
T0
M30
